%TF.GenerationSoftware,KiCad,Pcbnew,8.0.1*%
%TF.CreationDate,2024-03-29T08:15:10+01:00*%
%TF.ProjectId,shawazu-gb-dumper,73686177-617a-4752-9d67-622d64756d70,rev?*%
%TF.SameCoordinates,Original*%
%TF.FileFunction,Legend,Top*%
%TF.FilePolarity,Positive*%
%FSLAX46Y46*%
G04 Gerber Fmt 4.6, Leading zero omitted, Abs format (unit mm)*
G04 Created by KiCad (PCBNEW 8.0.1) date 2024-03-29 08:15:10*
%MOMM*%
%LPD*%
G01*
G04 APERTURE LIST*
%ADD10C,0.100000*%
%ADD11C,0.300000*%
%ADD12C,0.150000*%
%ADD13C,0.203200*%
%ADD14C,0.127000*%
%ADD15C,0.120000*%
%ADD16C,1.750000*%
%ADD17C,2.250000*%
G04 APERTURE END LIST*
D10*
X127375312Y-99372419D02*
X127041979Y-98896228D01*
X126803884Y-99372419D02*
X126803884Y-98372419D01*
X126803884Y-98372419D02*
X127184836Y-98372419D01*
X127184836Y-98372419D02*
X127280074Y-98420038D01*
X127280074Y-98420038D02*
X127327693Y-98467657D01*
X127327693Y-98467657D02*
X127375312Y-98562895D01*
X127375312Y-98562895D02*
X127375312Y-98705752D01*
X127375312Y-98705752D02*
X127327693Y-98800990D01*
X127327693Y-98800990D02*
X127280074Y-98848609D01*
X127280074Y-98848609D02*
X127184836Y-98896228D01*
X127184836Y-98896228D02*
X126803884Y-98896228D01*
X128232455Y-99372419D02*
X128232455Y-98848609D01*
X128232455Y-98848609D02*
X128184836Y-98753371D01*
X128184836Y-98753371D02*
X128089598Y-98705752D01*
X128089598Y-98705752D02*
X127899122Y-98705752D01*
X127899122Y-98705752D02*
X127803884Y-98753371D01*
X128232455Y-99324800D02*
X128137217Y-99372419D01*
X128137217Y-99372419D02*
X127899122Y-99372419D01*
X127899122Y-99372419D02*
X127803884Y-99324800D01*
X127803884Y-99324800D02*
X127756265Y-99229561D01*
X127756265Y-99229561D02*
X127756265Y-99134323D01*
X127756265Y-99134323D02*
X127803884Y-99039085D01*
X127803884Y-99039085D02*
X127899122Y-98991466D01*
X127899122Y-98991466D02*
X128137217Y-98991466D01*
X128137217Y-98991466D02*
X128232455Y-98943847D01*
X128661027Y-99324800D02*
X128756265Y-99372419D01*
X128756265Y-99372419D02*
X128946741Y-99372419D01*
X128946741Y-99372419D02*
X129041979Y-99324800D01*
X129041979Y-99324800D02*
X129089598Y-99229561D01*
X129089598Y-99229561D02*
X129089598Y-99181942D01*
X129089598Y-99181942D02*
X129041979Y-99086704D01*
X129041979Y-99086704D02*
X128946741Y-99039085D01*
X128946741Y-99039085D02*
X128803884Y-99039085D01*
X128803884Y-99039085D02*
X128708646Y-98991466D01*
X128708646Y-98991466D02*
X128661027Y-98896228D01*
X128661027Y-98896228D02*
X128661027Y-98848609D01*
X128661027Y-98848609D02*
X128708646Y-98753371D01*
X128708646Y-98753371D02*
X128803884Y-98705752D01*
X128803884Y-98705752D02*
X128946741Y-98705752D01*
X128946741Y-98705752D02*
X129041979Y-98753371D01*
X129518170Y-98705752D02*
X129518170Y-99705752D01*
X129518170Y-98753371D02*
X129613408Y-98705752D01*
X129613408Y-98705752D02*
X129803884Y-98705752D01*
X129803884Y-98705752D02*
X129899122Y-98753371D01*
X129899122Y-98753371D02*
X129946741Y-98800990D01*
X129946741Y-98800990D02*
X129994360Y-98896228D01*
X129994360Y-98896228D02*
X129994360Y-99181942D01*
X129994360Y-99181942D02*
X129946741Y-99277180D01*
X129946741Y-99277180D02*
X129899122Y-99324800D01*
X129899122Y-99324800D02*
X129803884Y-99372419D01*
X129803884Y-99372419D02*
X129613408Y-99372419D01*
X129613408Y-99372419D02*
X129518170Y-99324800D01*
X130422932Y-99372419D02*
X130422932Y-98372419D01*
X130422932Y-98753371D02*
X130518170Y-98705752D01*
X130518170Y-98705752D02*
X130708646Y-98705752D01*
X130708646Y-98705752D02*
X130803884Y-98753371D01*
X130803884Y-98753371D02*
X130851503Y-98800990D01*
X130851503Y-98800990D02*
X130899122Y-98896228D01*
X130899122Y-98896228D02*
X130899122Y-99181942D01*
X130899122Y-99181942D02*
X130851503Y-99277180D01*
X130851503Y-99277180D02*
X130803884Y-99324800D01*
X130803884Y-99324800D02*
X130708646Y-99372419D01*
X130708646Y-99372419D02*
X130518170Y-99372419D01*
X130518170Y-99372419D02*
X130422932Y-99324800D01*
X131708646Y-99324800D02*
X131613408Y-99372419D01*
X131613408Y-99372419D02*
X131422932Y-99372419D01*
X131422932Y-99372419D02*
X131327694Y-99324800D01*
X131327694Y-99324800D02*
X131280075Y-99229561D01*
X131280075Y-99229561D02*
X131280075Y-98848609D01*
X131280075Y-98848609D02*
X131327694Y-98753371D01*
X131327694Y-98753371D02*
X131422932Y-98705752D01*
X131422932Y-98705752D02*
X131613408Y-98705752D01*
X131613408Y-98705752D02*
X131708646Y-98753371D01*
X131708646Y-98753371D02*
X131756265Y-98848609D01*
X131756265Y-98848609D02*
X131756265Y-98943847D01*
X131756265Y-98943847D02*
X131280075Y-99039085D01*
X132184837Y-99372419D02*
X132184837Y-98705752D01*
X132184837Y-98896228D02*
X132232456Y-98800990D01*
X132232456Y-98800990D02*
X132280075Y-98753371D01*
X132280075Y-98753371D02*
X132375313Y-98705752D01*
X132375313Y-98705752D02*
X132470551Y-98705752D01*
X132803885Y-99372419D02*
X132803885Y-98705752D01*
X132803885Y-98896228D02*
X132851504Y-98800990D01*
X132851504Y-98800990D02*
X132899123Y-98753371D01*
X132899123Y-98753371D02*
X132994361Y-98705752D01*
X132994361Y-98705752D02*
X133089599Y-98705752D01*
X133327695Y-98705752D02*
X133565790Y-99372419D01*
X133803885Y-98705752D02*
X133565790Y-99372419D01*
X133565790Y-99372419D02*
X133470552Y-99610514D01*
X133470552Y-99610514D02*
X133422933Y-99658133D01*
X133422933Y-99658133D02*
X133327695Y-99705752D01*
X134946743Y-99372419D02*
X134946743Y-98372419D01*
X134946743Y-98372419D02*
X135327695Y-98372419D01*
X135327695Y-98372419D02*
X135422933Y-98420038D01*
X135422933Y-98420038D02*
X135470552Y-98467657D01*
X135470552Y-98467657D02*
X135518171Y-98562895D01*
X135518171Y-98562895D02*
X135518171Y-98705752D01*
X135518171Y-98705752D02*
X135470552Y-98800990D01*
X135470552Y-98800990D02*
X135422933Y-98848609D01*
X135422933Y-98848609D02*
X135327695Y-98896228D01*
X135327695Y-98896228D02*
X134946743Y-98896228D01*
X135946743Y-99372419D02*
X135946743Y-98705752D01*
X135946743Y-98372419D02*
X135899124Y-98420038D01*
X135899124Y-98420038D02*
X135946743Y-98467657D01*
X135946743Y-98467657D02*
X135994362Y-98420038D01*
X135994362Y-98420038D02*
X135946743Y-98372419D01*
X135946743Y-98372419D02*
X135946743Y-98467657D01*
X137184838Y-99372419D02*
X137184838Y-98372419D01*
X137184838Y-98372419D02*
X137565790Y-98372419D01*
X137565790Y-98372419D02*
X137661028Y-98420038D01*
X137661028Y-98420038D02*
X137708647Y-98467657D01*
X137708647Y-98467657D02*
X137756266Y-98562895D01*
X137756266Y-98562895D02*
X137756266Y-98705752D01*
X137756266Y-98705752D02*
X137708647Y-98800990D01*
X137708647Y-98800990D02*
X137661028Y-98848609D01*
X137661028Y-98848609D02*
X137565790Y-98896228D01*
X137565790Y-98896228D02*
X137184838Y-98896228D01*
X138184838Y-99372419D02*
X138184838Y-98705752D01*
X138184838Y-98372419D02*
X138137219Y-98420038D01*
X138137219Y-98420038D02*
X138184838Y-98467657D01*
X138184838Y-98467657D02*
X138232457Y-98420038D01*
X138232457Y-98420038D02*
X138184838Y-98372419D01*
X138184838Y-98372419D02*
X138184838Y-98467657D01*
X139089599Y-99324800D02*
X138994361Y-99372419D01*
X138994361Y-99372419D02*
X138803885Y-99372419D01*
X138803885Y-99372419D02*
X138708647Y-99324800D01*
X138708647Y-99324800D02*
X138661028Y-99277180D01*
X138661028Y-99277180D02*
X138613409Y-99181942D01*
X138613409Y-99181942D02*
X138613409Y-98896228D01*
X138613409Y-98896228D02*
X138661028Y-98800990D01*
X138661028Y-98800990D02*
X138708647Y-98753371D01*
X138708647Y-98753371D02*
X138803885Y-98705752D01*
X138803885Y-98705752D02*
X138994361Y-98705752D01*
X138994361Y-98705752D02*
X139089599Y-98753371D01*
X139661028Y-99372419D02*
X139565790Y-99324800D01*
X139565790Y-99324800D02*
X139518171Y-99277180D01*
X139518171Y-99277180D02*
X139470552Y-99181942D01*
X139470552Y-99181942D02*
X139470552Y-98896228D01*
X139470552Y-98896228D02*
X139518171Y-98800990D01*
X139518171Y-98800990D02*
X139565790Y-98753371D01*
X139565790Y-98753371D02*
X139661028Y-98705752D01*
X139661028Y-98705752D02*
X139803885Y-98705752D01*
X139803885Y-98705752D02*
X139899123Y-98753371D01*
X139899123Y-98753371D02*
X139946742Y-98800990D01*
X139946742Y-98800990D02*
X139994361Y-98896228D01*
X139994361Y-98896228D02*
X139994361Y-99181942D01*
X139994361Y-99181942D02*
X139946742Y-99277180D01*
X139946742Y-99277180D02*
X139899123Y-99324800D01*
X139899123Y-99324800D02*
X139803885Y-99372419D01*
X139803885Y-99372419D02*
X139661028Y-99372419D01*
X141280074Y-78372419D02*
X140803884Y-78372419D01*
X140803884Y-78372419D02*
X140803884Y-77372419D01*
X141470551Y-77372419D02*
X141803884Y-78372419D01*
X141803884Y-78372419D02*
X142137217Y-77372419D01*
X141794247Y-78803884D02*
X141508533Y-79565789D01*
X141508533Y-79565789D02*
X141222819Y-78803884D01*
X123705752Y-72696115D02*
X123991466Y-71934211D01*
X123991466Y-71934211D02*
X124277180Y-72696115D01*
X112780074Y-62372419D02*
X112303884Y-62372419D01*
X112303884Y-62372419D02*
X112303884Y-61372419D01*
X112970551Y-61372419D02*
X113303884Y-62372419D01*
X113303884Y-62372419D02*
X113637217Y-61372419D01*
X115991466Y-57696115D02*
X115991466Y-56934211D01*
X115705752Y-56458020D02*
X115991466Y-55696116D01*
X115991466Y-55696116D02*
X116277180Y-56458020D01*
X133008533Y-61303884D02*
X133008533Y-62065789D01*
X133294247Y-62541979D02*
X133008533Y-63303884D01*
X133008533Y-63303884D02*
X132722819Y-62541979D01*
X146303884Y-57872419D02*
X146303884Y-56872419D01*
X146303884Y-57348609D02*
X146875312Y-57348609D01*
X146875312Y-57872419D02*
X146875312Y-56872419D01*
X147208646Y-56872419D02*
X147541979Y-57872419D01*
X147541979Y-57872419D02*
X147875312Y-56872419D01*
X124294247Y-78803884D02*
X124008533Y-79565789D01*
X124008533Y-79565789D02*
X123722819Y-78803884D01*
X158794247Y-78803884D02*
X158508533Y-79565789D01*
X158508533Y-79565789D02*
X158222819Y-78803884D01*
X161327693Y-74920038D02*
X161232455Y-74872419D01*
X161232455Y-74872419D02*
X161089598Y-74872419D01*
X161089598Y-74872419D02*
X160946741Y-74920038D01*
X160946741Y-74920038D02*
X160851503Y-75015276D01*
X160851503Y-75015276D02*
X160803884Y-75110514D01*
X160803884Y-75110514D02*
X160756265Y-75300990D01*
X160756265Y-75300990D02*
X160756265Y-75443847D01*
X160756265Y-75443847D02*
X160803884Y-75634323D01*
X160803884Y-75634323D02*
X160851503Y-75729561D01*
X160851503Y-75729561D02*
X160946741Y-75824800D01*
X160946741Y-75824800D02*
X161089598Y-75872419D01*
X161089598Y-75872419D02*
X161184836Y-75872419D01*
X161184836Y-75872419D02*
X161327693Y-75824800D01*
X161327693Y-75824800D02*
X161375312Y-75777180D01*
X161375312Y-75777180D02*
X161375312Y-75443847D01*
X161375312Y-75443847D02*
X161184836Y-75443847D01*
X161803884Y-75872419D02*
X161803884Y-74872419D01*
X161803884Y-74872419D02*
X162375312Y-75872419D01*
X162375312Y-75872419D02*
X162375312Y-74872419D01*
X162851503Y-75872419D02*
X162851503Y-74872419D01*
X162851503Y-74872419D02*
X163089598Y-74872419D01*
X163089598Y-74872419D02*
X163232455Y-74920038D01*
X163232455Y-74920038D02*
X163327693Y-75015276D01*
X163327693Y-75015276D02*
X163375312Y-75110514D01*
X163375312Y-75110514D02*
X163422931Y-75300990D01*
X163422931Y-75300990D02*
X163422931Y-75443847D01*
X163422931Y-75443847D02*
X163375312Y-75634323D01*
X163375312Y-75634323D02*
X163327693Y-75729561D01*
X163327693Y-75729561D02*
X163232455Y-75824800D01*
X163232455Y-75824800D02*
X163089598Y-75872419D01*
X163089598Y-75872419D02*
X162851503Y-75872419D01*
X158205752Y-72696115D02*
X158491466Y-71934211D01*
X158491466Y-71934211D02*
X158777180Y-72696115D01*
X126991466Y-73696115D02*
X126991466Y-72934211D01*
X126705752Y-72458020D02*
X126991466Y-71696116D01*
X126991466Y-71696116D02*
X127277180Y-72458020D01*
X129705752Y-56696115D02*
X129991466Y-55934211D01*
X129991466Y-55934211D02*
X130277180Y-56696115D01*
X129303884Y-57872419D02*
X129303884Y-56872419D01*
X129303884Y-57348609D02*
X129875312Y-57348609D01*
X129875312Y-57872419D02*
X129875312Y-56872419D01*
X130208646Y-56872419D02*
X130541979Y-57872419D01*
X130541979Y-57872419D02*
X130875312Y-56872419D01*
X131756265Y-37824800D02*
X131899122Y-37872419D01*
X131899122Y-37872419D02*
X132137217Y-37872419D01*
X132137217Y-37872419D02*
X132232455Y-37824800D01*
X132232455Y-37824800D02*
X132280074Y-37777180D01*
X132280074Y-37777180D02*
X132327693Y-37681942D01*
X132327693Y-37681942D02*
X132327693Y-37586704D01*
X132327693Y-37586704D02*
X132280074Y-37491466D01*
X132280074Y-37491466D02*
X132232455Y-37443847D01*
X132232455Y-37443847D02*
X132137217Y-37396228D01*
X132137217Y-37396228D02*
X131946741Y-37348609D01*
X131946741Y-37348609D02*
X131851503Y-37300990D01*
X131851503Y-37300990D02*
X131803884Y-37253371D01*
X131803884Y-37253371D02*
X131756265Y-37158133D01*
X131756265Y-37158133D02*
X131756265Y-37062895D01*
X131756265Y-37062895D02*
X131803884Y-36967657D01*
X131803884Y-36967657D02*
X131851503Y-36920038D01*
X131851503Y-36920038D02*
X131946741Y-36872419D01*
X131946741Y-36872419D02*
X132184836Y-36872419D01*
X132184836Y-36872419D02*
X132327693Y-36920038D01*
X132756265Y-37872419D02*
X132756265Y-36872419D01*
X133184836Y-37872419D02*
X133184836Y-37348609D01*
X133184836Y-37348609D02*
X133137217Y-37253371D01*
X133137217Y-37253371D02*
X133041979Y-37205752D01*
X133041979Y-37205752D02*
X132899122Y-37205752D01*
X132899122Y-37205752D02*
X132803884Y-37253371D01*
X132803884Y-37253371D02*
X132756265Y-37300990D01*
X134089598Y-37872419D02*
X134089598Y-37348609D01*
X134089598Y-37348609D02*
X134041979Y-37253371D01*
X134041979Y-37253371D02*
X133946741Y-37205752D01*
X133946741Y-37205752D02*
X133756265Y-37205752D01*
X133756265Y-37205752D02*
X133661027Y-37253371D01*
X134089598Y-37824800D02*
X133994360Y-37872419D01*
X133994360Y-37872419D02*
X133756265Y-37872419D01*
X133756265Y-37872419D02*
X133661027Y-37824800D01*
X133661027Y-37824800D02*
X133613408Y-37729561D01*
X133613408Y-37729561D02*
X133613408Y-37634323D01*
X133613408Y-37634323D02*
X133661027Y-37539085D01*
X133661027Y-37539085D02*
X133756265Y-37491466D01*
X133756265Y-37491466D02*
X133994360Y-37491466D01*
X133994360Y-37491466D02*
X134089598Y-37443847D01*
X134470551Y-37205752D02*
X134661027Y-37872419D01*
X134661027Y-37872419D02*
X134851503Y-37396228D01*
X134851503Y-37396228D02*
X135041979Y-37872419D01*
X135041979Y-37872419D02*
X135232455Y-37205752D01*
X136041979Y-37872419D02*
X136041979Y-37348609D01*
X136041979Y-37348609D02*
X135994360Y-37253371D01*
X135994360Y-37253371D02*
X135899122Y-37205752D01*
X135899122Y-37205752D02*
X135708646Y-37205752D01*
X135708646Y-37205752D02*
X135613408Y-37253371D01*
X136041979Y-37824800D02*
X135946741Y-37872419D01*
X135946741Y-37872419D02*
X135708646Y-37872419D01*
X135708646Y-37872419D02*
X135613408Y-37824800D01*
X135613408Y-37824800D02*
X135565789Y-37729561D01*
X135565789Y-37729561D02*
X135565789Y-37634323D01*
X135565789Y-37634323D02*
X135613408Y-37539085D01*
X135613408Y-37539085D02*
X135708646Y-37491466D01*
X135708646Y-37491466D02*
X135946741Y-37491466D01*
X135946741Y-37491466D02*
X136041979Y-37443847D01*
X136422932Y-37205752D02*
X136946741Y-37205752D01*
X136946741Y-37205752D02*
X136422932Y-37872419D01*
X136422932Y-37872419D02*
X136946741Y-37872419D01*
X137756265Y-37205752D02*
X137756265Y-37872419D01*
X137327694Y-37205752D02*
X137327694Y-37729561D01*
X137327694Y-37729561D02*
X137375313Y-37824800D01*
X137375313Y-37824800D02*
X137470551Y-37872419D01*
X137470551Y-37872419D02*
X137613408Y-37872419D01*
X137613408Y-37872419D02*
X137708646Y-37824800D01*
X137708646Y-37824800D02*
X137756265Y-37777180D01*
X139518170Y-36920038D02*
X139422932Y-36872419D01*
X139422932Y-36872419D02*
X139280075Y-36872419D01*
X139280075Y-36872419D02*
X139137218Y-36920038D01*
X139137218Y-36920038D02*
X139041980Y-37015276D01*
X139041980Y-37015276D02*
X138994361Y-37110514D01*
X138994361Y-37110514D02*
X138946742Y-37300990D01*
X138946742Y-37300990D02*
X138946742Y-37443847D01*
X138946742Y-37443847D02*
X138994361Y-37634323D01*
X138994361Y-37634323D02*
X139041980Y-37729561D01*
X139041980Y-37729561D02*
X139137218Y-37824800D01*
X139137218Y-37824800D02*
X139280075Y-37872419D01*
X139280075Y-37872419D02*
X139375313Y-37872419D01*
X139375313Y-37872419D02*
X139518170Y-37824800D01*
X139518170Y-37824800D02*
X139565789Y-37777180D01*
X139565789Y-37777180D02*
X139565789Y-37443847D01*
X139565789Y-37443847D02*
X139375313Y-37443847D01*
X140327694Y-37348609D02*
X140470551Y-37396228D01*
X140470551Y-37396228D02*
X140518170Y-37443847D01*
X140518170Y-37443847D02*
X140565789Y-37539085D01*
X140565789Y-37539085D02*
X140565789Y-37681942D01*
X140565789Y-37681942D02*
X140518170Y-37777180D01*
X140518170Y-37777180D02*
X140470551Y-37824800D01*
X140470551Y-37824800D02*
X140375313Y-37872419D01*
X140375313Y-37872419D02*
X139994361Y-37872419D01*
X139994361Y-37872419D02*
X139994361Y-36872419D01*
X139994361Y-36872419D02*
X140327694Y-36872419D01*
X140327694Y-36872419D02*
X140422932Y-36920038D01*
X140422932Y-36920038D02*
X140470551Y-36967657D01*
X140470551Y-36967657D02*
X140518170Y-37062895D01*
X140518170Y-37062895D02*
X140518170Y-37158133D01*
X140518170Y-37158133D02*
X140470551Y-37253371D01*
X140470551Y-37253371D02*
X140422932Y-37300990D01*
X140422932Y-37300990D02*
X140327694Y-37348609D01*
X140327694Y-37348609D02*
X139994361Y-37348609D01*
X141756266Y-37872419D02*
X141756266Y-36872419D01*
X141756266Y-36872419D02*
X141994361Y-36872419D01*
X141994361Y-36872419D02*
X142137218Y-36920038D01*
X142137218Y-36920038D02*
X142232456Y-37015276D01*
X142232456Y-37015276D02*
X142280075Y-37110514D01*
X142280075Y-37110514D02*
X142327694Y-37300990D01*
X142327694Y-37300990D02*
X142327694Y-37443847D01*
X142327694Y-37443847D02*
X142280075Y-37634323D01*
X142280075Y-37634323D02*
X142232456Y-37729561D01*
X142232456Y-37729561D02*
X142137218Y-37824800D01*
X142137218Y-37824800D02*
X141994361Y-37872419D01*
X141994361Y-37872419D02*
X141756266Y-37872419D01*
X143184837Y-37205752D02*
X143184837Y-37872419D01*
X142756266Y-37205752D02*
X142756266Y-37729561D01*
X142756266Y-37729561D02*
X142803885Y-37824800D01*
X142803885Y-37824800D02*
X142899123Y-37872419D01*
X142899123Y-37872419D02*
X143041980Y-37872419D01*
X143041980Y-37872419D02*
X143137218Y-37824800D01*
X143137218Y-37824800D02*
X143184837Y-37777180D01*
X143661028Y-37872419D02*
X143661028Y-37205752D01*
X143661028Y-37300990D02*
X143708647Y-37253371D01*
X143708647Y-37253371D02*
X143803885Y-37205752D01*
X143803885Y-37205752D02*
X143946742Y-37205752D01*
X143946742Y-37205752D02*
X144041980Y-37253371D01*
X144041980Y-37253371D02*
X144089599Y-37348609D01*
X144089599Y-37348609D02*
X144089599Y-37872419D01*
X144089599Y-37348609D02*
X144137218Y-37253371D01*
X144137218Y-37253371D02*
X144232456Y-37205752D01*
X144232456Y-37205752D02*
X144375313Y-37205752D01*
X144375313Y-37205752D02*
X144470552Y-37253371D01*
X144470552Y-37253371D02*
X144518171Y-37348609D01*
X144518171Y-37348609D02*
X144518171Y-37872419D01*
X144994361Y-37205752D02*
X144994361Y-38205752D01*
X144994361Y-37253371D02*
X145089599Y-37205752D01*
X145089599Y-37205752D02*
X145280075Y-37205752D01*
X145280075Y-37205752D02*
X145375313Y-37253371D01*
X145375313Y-37253371D02*
X145422932Y-37300990D01*
X145422932Y-37300990D02*
X145470551Y-37396228D01*
X145470551Y-37396228D02*
X145470551Y-37681942D01*
X145470551Y-37681942D02*
X145422932Y-37777180D01*
X145422932Y-37777180D02*
X145375313Y-37824800D01*
X145375313Y-37824800D02*
X145280075Y-37872419D01*
X145280075Y-37872419D02*
X145089599Y-37872419D01*
X145089599Y-37872419D02*
X144994361Y-37824800D01*
X146280075Y-37824800D02*
X146184837Y-37872419D01*
X146184837Y-37872419D02*
X145994361Y-37872419D01*
X145994361Y-37872419D02*
X145899123Y-37824800D01*
X145899123Y-37824800D02*
X145851504Y-37729561D01*
X145851504Y-37729561D02*
X145851504Y-37348609D01*
X145851504Y-37348609D02*
X145899123Y-37253371D01*
X145899123Y-37253371D02*
X145994361Y-37205752D01*
X145994361Y-37205752D02*
X146184837Y-37205752D01*
X146184837Y-37205752D02*
X146280075Y-37253371D01*
X146280075Y-37253371D02*
X146327694Y-37348609D01*
X146327694Y-37348609D02*
X146327694Y-37443847D01*
X146327694Y-37443847D02*
X145851504Y-37539085D01*
X146756266Y-37872419D02*
X146756266Y-37205752D01*
X146756266Y-37396228D02*
X146803885Y-37300990D01*
X146803885Y-37300990D02*
X146851504Y-37253371D01*
X146851504Y-37253371D02*
X146946742Y-37205752D01*
X146946742Y-37205752D02*
X147041980Y-37205752D01*
X113294247Y-62803884D02*
X113008533Y-63565789D01*
X113008533Y-63565789D02*
X112722819Y-62803884D01*
X163780074Y-62372419D02*
X163303884Y-62372419D01*
X163303884Y-62372419D02*
X163303884Y-61372419D01*
X163970551Y-61372419D02*
X164303884Y-62372419D01*
X164303884Y-62372419D02*
X164637217Y-61372419D01*
X167008533Y-61303884D02*
X167008533Y-62065789D01*
X167294247Y-62541979D02*
X167008533Y-63303884D01*
X167008533Y-63303884D02*
X166722819Y-62541979D01*
X130294247Y-62803884D02*
X130008533Y-63565789D01*
X130008533Y-63565789D02*
X129722819Y-62803884D01*
X112705752Y-56696115D02*
X112991466Y-55934211D01*
X112991466Y-55934211D02*
X113277180Y-56696115D01*
X123780074Y-78372419D02*
X123303884Y-78372419D01*
X123303884Y-78372419D02*
X123303884Y-77372419D01*
X123970551Y-77372419D02*
X124303884Y-78372419D01*
X124303884Y-78372419D02*
X124637217Y-77372419D01*
X127008533Y-77303884D02*
X127008533Y-78065789D01*
X127294247Y-78541979D02*
X127008533Y-79303884D01*
X127008533Y-79303884D02*
X126722819Y-78541979D01*
X150008533Y-61303884D02*
X150008533Y-62065789D01*
X150294247Y-62541979D02*
X150008533Y-63303884D01*
X150008533Y-63303884D02*
X149722819Y-62541979D01*
X112303884Y-57872419D02*
X112303884Y-56872419D01*
X112303884Y-57348609D02*
X112875312Y-57348609D01*
X112875312Y-57872419D02*
X112875312Y-56872419D01*
X113208646Y-56872419D02*
X113541979Y-57872419D01*
X113541979Y-57872419D02*
X113875312Y-56872419D01*
X149827693Y-58920038D02*
X149732455Y-58872419D01*
X149732455Y-58872419D02*
X149589598Y-58872419D01*
X149589598Y-58872419D02*
X149446741Y-58920038D01*
X149446741Y-58920038D02*
X149351503Y-59015276D01*
X149351503Y-59015276D02*
X149303884Y-59110514D01*
X149303884Y-59110514D02*
X149256265Y-59300990D01*
X149256265Y-59300990D02*
X149256265Y-59443847D01*
X149256265Y-59443847D02*
X149303884Y-59634323D01*
X149303884Y-59634323D02*
X149351503Y-59729561D01*
X149351503Y-59729561D02*
X149446741Y-59824800D01*
X149446741Y-59824800D02*
X149589598Y-59872419D01*
X149589598Y-59872419D02*
X149684836Y-59872419D01*
X149684836Y-59872419D02*
X149827693Y-59824800D01*
X149827693Y-59824800D02*
X149875312Y-59777180D01*
X149875312Y-59777180D02*
X149875312Y-59443847D01*
X149875312Y-59443847D02*
X149684836Y-59443847D01*
X150303884Y-59872419D02*
X150303884Y-58872419D01*
X150303884Y-58872419D02*
X150875312Y-59872419D01*
X150875312Y-59872419D02*
X150875312Y-58872419D01*
X151351503Y-59872419D02*
X151351503Y-58872419D01*
X151351503Y-58872419D02*
X151589598Y-58872419D01*
X151589598Y-58872419D02*
X151732455Y-58920038D01*
X151732455Y-58920038D02*
X151827693Y-59015276D01*
X151827693Y-59015276D02*
X151875312Y-59110514D01*
X151875312Y-59110514D02*
X151922931Y-59300990D01*
X151922931Y-59300990D02*
X151922931Y-59443847D01*
X151922931Y-59443847D02*
X151875312Y-59634323D01*
X151875312Y-59634323D02*
X151827693Y-59729561D01*
X151827693Y-59729561D02*
X151732455Y-59824800D01*
X151732455Y-59824800D02*
X151589598Y-59872419D01*
X151589598Y-59872419D02*
X151351503Y-59872419D01*
X132991466Y-57696115D02*
X132991466Y-56934211D01*
X132705752Y-56458020D02*
X132991466Y-55696116D01*
X132991466Y-55696116D02*
X133277180Y-56458020D01*
X146705752Y-56696115D02*
X146991466Y-55934211D01*
X146991466Y-55934211D02*
X147277180Y-56696115D01*
X166827693Y-58920038D02*
X166732455Y-58872419D01*
X166732455Y-58872419D02*
X166589598Y-58872419D01*
X166589598Y-58872419D02*
X166446741Y-58920038D01*
X166446741Y-58920038D02*
X166351503Y-59015276D01*
X166351503Y-59015276D02*
X166303884Y-59110514D01*
X166303884Y-59110514D02*
X166256265Y-59300990D01*
X166256265Y-59300990D02*
X166256265Y-59443847D01*
X166256265Y-59443847D02*
X166303884Y-59634323D01*
X166303884Y-59634323D02*
X166351503Y-59729561D01*
X166351503Y-59729561D02*
X166446741Y-59824800D01*
X166446741Y-59824800D02*
X166589598Y-59872419D01*
X166589598Y-59872419D02*
X166684836Y-59872419D01*
X166684836Y-59872419D02*
X166827693Y-59824800D01*
X166827693Y-59824800D02*
X166875312Y-59777180D01*
X166875312Y-59777180D02*
X166875312Y-59443847D01*
X166875312Y-59443847D02*
X166684836Y-59443847D01*
X167303884Y-59872419D02*
X167303884Y-58872419D01*
X167303884Y-58872419D02*
X167875312Y-59872419D01*
X167875312Y-59872419D02*
X167875312Y-58872419D01*
X168351503Y-59872419D02*
X168351503Y-58872419D01*
X168351503Y-58872419D02*
X168589598Y-58872419D01*
X168589598Y-58872419D02*
X168732455Y-58920038D01*
X168732455Y-58920038D02*
X168827693Y-59015276D01*
X168827693Y-59015276D02*
X168875312Y-59110514D01*
X168875312Y-59110514D02*
X168922931Y-59300990D01*
X168922931Y-59300990D02*
X168922931Y-59443847D01*
X168922931Y-59443847D02*
X168875312Y-59634323D01*
X168875312Y-59634323D02*
X168827693Y-59729561D01*
X168827693Y-59729561D02*
X168732455Y-59824800D01*
X168732455Y-59824800D02*
X168589598Y-59872419D01*
X168589598Y-59872419D02*
X168351503Y-59872419D01*
X141205752Y-72696115D02*
X141491466Y-71934211D01*
X141491466Y-71934211D02*
X141777180Y-72696115D01*
X146780074Y-62372419D02*
X146303884Y-62372419D01*
X146303884Y-62372419D02*
X146303884Y-61372419D01*
X146970551Y-61372419D02*
X147303884Y-62372419D01*
X147303884Y-62372419D02*
X147637217Y-61372419D01*
X163303884Y-57872419D02*
X163303884Y-56872419D01*
X163303884Y-57348609D02*
X163875312Y-57348609D01*
X163875312Y-57872419D02*
X163875312Y-56872419D01*
X164208646Y-56872419D02*
X164541979Y-57872419D01*
X164541979Y-57872419D02*
X164875312Y-56872419D01*
D11*
X105554510Y-68729400D02*
X106697368Y-68729400D01*
X106125939Y-69300828D02*
X106125939Y-68157971D01*
X107268796Y-67800828D02*
X108197368Y-67800828D01*
X108197368Y-67800828D02*
X107697368Y-68372257D01*
X107697368Y-68372257D02*
X107911653Y-68372257D01*
X107911653Y-68372257D02*
X108054511Y-68443685D01*
X108054511Y-68443685D02*
X108125939Y-68515114D01*
X108125939Y-68515114D02*
X108197368Y-68657971D01*
X108197368Y-68657971D02*
X108197368Y-69015114D01*
X108197368Y-69015114D02*
X108125939Y-69157971D01*
X108125939Y-69157971D02*
X108054511Y-69229400D01*
X108054511Y-69229400D02*
X107911653Y-69300828D01*
X107911653Y-69300828D02*
X107483082Y-69300828D01*
X107483082Y-69300828D02*
X107340225Y-69229400D01*
X107340225Y-69229400D02*
X107268796Y-69157971D01*
X108697367Y-68300828D02*
X109054510Y-69300828D01*
X109054510Y-69300828D02*
X109411653Y-68300828D01*
X109840224Y-67800828D02*
X110768796Y-67800828D01*
X110768796Y-67800828D02*
X110268796Y-68372257D01*
X110268796Y-68372257D02*
X110483081Y-68372257D01*
X110483081Y-68372257D02*
X110625939Y-68443685D01*
X110625939Y-68443685D02*
X110697367Y-68515114D01*
X110697367Y-68515114D02*
X110768796Y-68657971D01*
X110768796Y-68657971D02*
X110768796Y-69015114D01*
X110768796Y-69015114D02*
X110697367Y-69157971D01*
X110697367Y-69157971D02*
X110625939Y-69229400D01*
X110625939Y-69229400D02*
X110483081Y-69300828D01*
X110483081Y-69300828D02*
X110054510Y-69300828D01*
X110054510Y-69300828D02*
X109911653Y-69229400D01*
X109911653Y-69229400D02*
X109840224Y-69157971D01*
D10*
X144327693Y-74920038D02*
X144232455Y-74872419D01*
X144232455Y-74872419D02*
X144089598Y-74872419D01*
X144089598Y-74872419D02*
X143946741Y-74920038D01*
X143946741Y-74920038D02*
X143851503Y-75015276D01*
X143851503Y-75015276D02*
X143803884Y-75110514D01*
X143803884Y-75110514D02*
X143756265Y-75300990D01*
X143756265Y-75300990D02*
X143756265Y-75443847D01*
X143756265Y-75443847D02*
X143803884Y-75634323D01*
X143803884Y-75634323D02*
X143851503Y-75729561D01*
X143851503Y-75729561D02*
X143946741Y-75824800D01*
X143946741Y-75824800D02*
X144089598Y-75872419D01*
X144089598Y-75872419D02*
X144184836Y-75872419D01*
X144184836Y-75872419D02*
X144327693Y-75824800D01*
X144327693Y-75824800D02*
X144375312Y-75777180D01*
X144375312Y-75777180D02*
X144375312Y-75443847D01*
X144375312Y-75443847D02*
X144184836Y-75443847D01*
X144803884Y-75872419D02*
X144803884Y-74872419D01*
X144803884Y-74872419D02*
X145375312Y-75872419D01*
X145375312Y-75872419D02*
X145375312Y-74872419D01*
X145851503Y-75872419D02*
X145851503Y-74872419D01*
X145851503Y-74872419D02*
X146089598Y-74872419D01*
X146089598Y-74872419D02*
X146232455Y-74920038D01*
X146232455Y-74920038D02*
X146327693Y-75015276D01*
X146327693Y-75015276D02*
X146375312Y-75110514D01*
X146375312Y-75110514D02*
X146422931Y-75300990D01*
X146422931Y-75300990D02*
X146422931Y-75443847D01*
X146422931Y-75443847D02*
X146375312Y-75634323D01*
X146375312Y-75634323D02*
X146327693Y-75729561D01*
X146327693Y-75729561D02*
X146232455Y-75824800D01*
X146232455Y-75824800D02*
X146089598Y-75872419D01*
X146089598Y-75872419D02*
X145851503Y-75872419D01*
X161508533Y-77303884D02*
X161508533Y-78065789D01*
X161794247Y-78541979D02*
X161508533Y-79303884D01*
X161508533Y-79303884D02*
X161222819Y-78541979D01*
X164294247Y-62803884D02*
X164008533Y-63565789D01*
X164008533Y-63565789D02*
X163722819Y-62803884D01*
X140803884Y-73872419D02*
X140803884Y-72872419D01*
X140803884Y-73348609D02*
X141375312Y-73348609D01*
X141375312Y-73872419D02*
X141375312Y-72872419D01*
X141708646Y-72872419D02*
X142041979Y-73872419D01*
X142041979Y-73872419D02*
X142375312Y-72872419D01*
X158280074Y-78372419D02*
X157803884Y-78372419D01*
X157803884Y-78372419D02*
X157803884Y-77372419D01*
X158470551Y-77372419D02*
X158803884Y-78372419D01*
X158803884Y-78372419D02*
X159137217Y-77372419D01*
X149991466Y-57696115D02*
X149991466Y-56934211D01*
X149705752Y-56458020D02*
X149991466Y-55696116D01*
X149991466Y-55696116D02*
X150277180Y-56458020D01*
X123303884Y-73872419D02*
X123303884Y-72872419D01*
X123303884Y-73348609D02*
X123875312Y-73348609D01*
X123875312Y-73872419D02*
X123875312Y-72872419D01*
X124208646Y-72872419D02*
X124541979Y-73872419D01*
X124541979Y-73872419D02*
X124875312Y-72872419D01*
X129780074Y-62372419D02*
X129303884Y-62372419D01*
X129303884Y-62372419D02*
X129303884Y-61372419D01*
X129970551Y-61372419D02*
X130303884Y-62372419D01*
X130303884Y-62372419D02*
X130637217Y-61372419D01*
X115827693Y-58920038D02*
X115732455Y-58872419D01*
X115732455Y-58872419D02*
X115589598Y-58872419D01*
X115589598Y-58872419D02*
X115446741Y-58920038D01*
X115446741Y-58920038D02*
X115351503Y-59015276D01*
X115351503Y-59015276D02*
X115303884Y-59110514D01*
X115303884Y-59110514D02*
X115256265Y-59300990D01*
X115256265Y-59300990D02*
X115256265Y-59443847D01*
X115256265Y-59443847D02*
X115303884Y-59634323D01*
X115303884Y-59634323D02*
X115351503Y-59729561D01*
X115351503Y-59729561D02*
X115446741Y-59824800D01*
X115446741Y-59824800D02*
X115589598Y-59872419D01*
X115589598Y-59872419D02*
X115684836Y-59872419D01*
X115684836Y-59872419D02*
X115827693Y-59824800D01*
X115827693Y-59824800D02*
X115875312Y-59777180D01*
X115875312Y-59777180D02*
X115875312Y-59443847D01*
X115875312Y-59443847D02*
X115684836Y-59443847D01*
X116303884Y-59872419D02*
X116303884Y-58872419D01*
X116303884Y-58872419D02*
X116875312Y-59872419D01*
X116875312Y-59872419D02*
X116875312Y-58872419D01*
X117351503Y-59872419D02*
X117351503Y-58872419D01*
X117351503Y-58872419D02*
X117589598Y-58872419D01*
X117589598Y-58872419D02*
X117732455Y-58920038D01*
X117732455Y-58920038D02*
X117827693Y-59015276D01*
X117827693Y-59015276D02*
X117875312Y-59110514D01*
X117875312Y-59110514D02*
X117922931Y-59300990D01*
X117922931Y-59300990D02*
X117922931Y-59443847D01*
X117922931Y-59443847D02*
X117875312Y-59634323D01*
X117875312Y-59634323D02*
X117827693Y-59729561D01*
X117827693Y-59729561D02*
X117732455Y-59824800D01*
X117732455Y-59824800D02*
X117589598Y-59872419D01*
X117589598Y-59872419D02*
X117351503Y-59872419D01*
X157803884Y-73872419D02*
X157803884Y-72872419D01*
X157803884Y-73348609D02*
X158375312Y-73348609D01*
X158375312Y-73872419D02*
X158375312Y-72872419D01*
X158708646Y-72872419D02*
X159041979Y-73872419D01*
X159041979Y-73872419D02*
X159375312Y-72872419D01*
X144508533Y-77303884D02*
X144508533Y-78065789D01*
X144794247Y-78541979D02*
X144508533Y-79303884D01*
X144508533Y-79303884D02*
X144222819Y-78541979D01*
X163705752Y-56696115D02*
X163991466Y-55934211D01*
X163991466Y-55934211D02*
X164277180Y-56696115D01*
X116008533Y-61303884D02*
X116008533Y-62065789D01*
X116294247Y-62541979D02*
X116008533Y-63303884D01*
X116008533Y-63303884D02*
X115722819Y-62541979D01*
X166991466Y-57696115D02*
X166991466Y-56934211D01*
X166705752Y-56458020D02*
X166991466Y-55696116D01*
X166991466Y-55696116D02*
X167277180Y-56458020D01*
D12*
X113860588Y-69417438D02*
X113765350Y-69369819D01*
X113765350Y-69369819D02*
X113622493Y-69369819D01*
X113622493Y-69369819D02*
X113479636Y-69417438D01*
X113479636Y-69417438D02*
X113384398Y-69512676D01*
X113384398Y-69512676D02*
X113336779Y-69607914D01*
X113336779Y-69607914D02*
X113289160Y-69798390D01*
X113289160Y-69798390D02*
X113289160Y-69941247D01*
X113289160Y-69941247D02*
X113336779Y-70131723D01*
X113336779Y-70131723D02*
X113384398Y-70226961D01*
X113384398Y-70226961D02*
X113479636Y-70322200D01*
X113479636Y-70322200D02*
X113622493Y-70369819D01*
X113622493Y-70369819D02*
X113717731Y-70369819D01*
X113717731Y-70369819D02*
X113860588Y-70322200D01*
X113860588Y-70322200D02*
X113908207Y-70274580D01*
X113908207Y-70274580D02*
X113908207Y-69941247D01*
X113908207Y-69941247D02*
X113717731Y-69941247D01*
X114336779Y-70369819D02*
X114336779Y-69369819D01*
X114336779Y-69369819D02*
X114908207Y-70369819D01*
X114908207Y-70369819D02*
X114908207Y-69369819D01*
X115384398Y-70369819D02*
X115384398Y-69369819D01*
X115384398Y-69369819D02*
X115622493Y-69369819D01*
X115622493Y-69369819D02*
X115765350Y-69417438D01*
X115765350Y-69417438D02*
X115860588Y-69512676D01*
X115860588Y-69512676D02*
X115908207Y-69607914D01*
X115908207Y-69607914D02*
X115955826Y-69798390D01*
X115955826Y-69798390D02*
X115955826Y-69941247D01*
X115955826Y-69941247D02*
X115908207Y-70131723D01*
X115908207Y-70131723D02*
X115860588Y-70226961D01*
X115860588Y-70226961D02*
X115765350Y-70322200D01*
X115765350Y-70322200D02*
X115622493Y-70369819D01*
X115622493Y-70369819D02*
X115384398Y-70369819D01*
D10*
X161491466Y-73696115D02*
X161491466Y-72934211D01*
X161205752Y-72458020D02*
X161491466Y-71696116D01*
X161491466Y-71696116D02*
X161777180Y-72458020D01*
X147294247Y-62803884D02*
X147008533Y-63565789D01*
X147008533Y-63565789D02*
X146722819Y-62803884D01*
X144491466Y-73696115D02*
X144491466Y-72934211D01*
X144205752Y-72458020D02*
X144491466Y-71696116D01*
X144491466Y-71696116D02*
X144777180Y-72458020D01*
X126827693Y-74920038D02*
X126732455Y-74872419D01*
X126732455Y-74872419D02*
X126589598Y-74872419D01*
X126589598Y-74872419D02*
X126446741Y-74920038D01*
X126446741Y-74920038D02*
X126351503Y-75015276D01*
X126351503Y-75015276D02*
X126303884Y-75110514D01*
X126303884Y-75110514D02*
X126256265Y-75300990D01*
X126256265Y-75300990D02*
X126256265Y-75443847D01*
X126256265Y-75443847D02*
X126303884Y-75634323D01*
X126303884Y-75634323D02*
X126351503Y-75729561D01*
X126351503Y-75729561D02*
X126446741Y-75824800D01*
X126446741Y-75824800D02*
X126589598Y-75872419D01*
X126589598Y-75872419D02*
X126684836Y-75872419D01*
X126684836Y-75872419D02*
X126827693Y-75824800D01*
X126827693Y-75824800D02*
X126875312Y-75777180D01*
X126875312Y-75777180D02*
X126875312Y-75443847D01*
X126875312Y-75443847D02*
X126684836Y-75443847D01*
X127303884Y-75872419D02*
X127303884Y-74872419D01*
X127303884Y-74872419D02*
X127875312Y-75872419D01*
X127875312Y-75872419D02*
X127875312Y-74872419D01*
X128351503Y-75872419D02*
X128351503Y-74872419D01*
X128351503Y-74872419D02*
X128589598Y-74872419D01*
X128589598Y-74872419D02*
X128732455Y-74920038D01*
X128732455Y-74920038D02*
X128827693Y-75015276D01*
X128827693Y-75015276D02*
X128875312Y-75110514D01*
X128875312Y-75110514D02*
X128922931Y-75300990D01*
X128922931Y-75300990D02*
X128922931Y-75443847D01*
X128922931Y-75443847D02*
X128875312Y-75634323D01*
X128875312Y-75634323D02*
X128827693Y-75729561D01*
X128827693Y-75729561D02*
X128732455Y-75824800D01*
X128732455Y-75824800D02*
X128589598Y-75872419D01*
X128589598Y-75872419D02*
X128351503Y-75872419D01*
X132827693Y-58920038D02*
X132732455Y-58872419D01*
X132732455Y-58872419D02*
X132589598Y-58872419D01*
X132589598Y-58872419D02*
X132446741Y-58920038D01*
X132446741Y-58920038D02*
X132351503Y-59015276D01*
X132351503Y-59015276D02*
X132303884Y-59110514D01*
X132303884Y-59110514D02*
X132256265Y-59300990D01*
X132256265Y-59300990D02*
X132256265Y-59443847D01*
X132256265Y-59443847D02*
X132303884Y-59634323D01*
X132303884Y-59634323D02*
X132351503Y-59729561D01*
X132351503Y-59729561D02*
X132446741Y-59824800D01*
X132446741Y-59824800D02*
X132589598Y-59872419D01*
X132589598Y-59872419D02*
X132684836Y-59872419D01*
X132684836Y-59872419D02*
X132827693Y-59824800D01*
X132827693Y-59824800D02*
X132875312Y-59777180D01*
X132875312Y-59777180D02*
X132875312Y-59443847D01*
X132875312Y-59443847D02*
X132684836Y-59443847D01*
X133303884Y-59872419D02*
X133303884Y-58872419D01*
X133303884Y-58872419D02*
X133875312Y-59872419D01*
X133875312Y-59872419D02*
X133875312Y-58872419D01*
X134351503Y-59872419D02*
X134351503Y-58872419D01*
X134351503Y-58872419D02*
X134589598Y-58872419D01*
X134589598Y-58872419D02*
X134732455Y-58920038D01*
X134732455Y-58920038D02*
X134827693Y-59015276D01*
X134827693Y-59015276D02*
X134875312Y-59110514D01*
X134875312Y-59110514D02*
X134922931Y-59300990D01*
X134922931Y-59300990D02*
X134922931Y-59443847D01*
X134922931Y-59443847D02*
X134875312Y-59634323D01*
X134875312Y-59634323D02*
X134827693Y-59729561D01*
X134827693Y-59729561D02*
X134732455Y-59824800D01*
X134732455Y-59824800D02*
X134589598Y-59872419D01*
X134589598Y-59872419D02*
X134351503Y-59872419D01*
D11*
X106054510Y-82729400D02*
X107197368Y-82729400D01*
X106625939Y-83300828D02*
X106625939Y-82157971D01*
X108625939Y-81800828D02*
X107911653Y-81800828D01*
X107911653Y-81800828D02*
X107840225Y-82515114D01*
X107840225Y-82515114D02*
X107911653Y-82443685D01*
X107911653Y-82443685D02*
X108054511Y-82372257D01*
X108054511Y-82372257D02*
X108411653Y-82372257D01*
X108411653Y-82372257D02*
X108554511Y-82443685D01*
X108554511Y-82443685D02*
X108625939Y-82515114D01*
X108625939Y-82515114D02*
X108697368Y-82657971D01*
X108697368Y-82657971D02*
X108697368Y-83015114D01*
X108697368Y-83015114D02*
X108625939Y-83157971D01*
X108625939Y-83157971D02*
X108554511Y-83229400D01*
X108554511Y-83229400D02*
X108411653Y-83300828D01*
X108411653Y-83300828D02*
X108054511Y-83300828D01*
X108054511Y-83300828D02*
X107911653Y-83229400D01*
X107911653Y-83229400D02*
X107840225Y-83157971D01*
X109197367Y-82300828D02*
X109554510Y-83300828D01*
X109554510Y-83300828D02*
X109911653Y-82300828D01*
D12*
X111547619Y-51511009D02*
X111690476Y-51558628D01*
X111690476Y-51558628D02*
X111738095Y-51606247D01*
X111738095Y-51606247D02*
X111785714Y-51701485D01*
X111785714Y-51701485D02*
X111785714Y-51844342D01*
X111785714Y-51844342D02*
X111738095Y-51939580D01*
X111738095Y-51939580D02*
X111690476Y-51987200D01*
X111690476Y-51987200D02*
X111595238Y-52034819D01*
X111595238Y-52034819D02*
X111214286Y-52034819D01*
X111214286Y-52034819D02*
X111214286Y-51034819D01*
X111214286Y-51034819D02*
X111547619Y-51034819D01*
X111547619Y-51034819D02*
X111642857Y-51082438D01*
X111642857Y-51082438D02*
X111690476Y-51130057D01*
X111690476Y-51130057D02*
X111738095Y-51225295D01*
X111738095Y-51225295D02*
X111738095Y-51320533D01*
X111738095Y-51320533D02*
X111690476Y-51415771D01*
X111690476Y-51415771D02*
X111642857Y-51463390D01*
X111642857Y-51463390D02*
X111547619Y-51511009D01*
X111547619Y-51511009D02*
X111214286Y-51511009D01*
X112404762Y-51034819D02*
X112595238Y-51034819D01*
X112595238Y-51034819D02*
X112690476Y-51082438D01*
X112690476Y-51082438D02*
X112785714Y-51177676D01*
X112785714Y-51177676D02*
X112833333Y-51368152D01*
X112833333Y-51368152D02*
X112833333Y-51701485D01*
X112833333Y-51701485D02*
X112785714Y-51891961D01*
X112785714Y-51891961D02*
X112690476Y-51987200D01*
X112690476Y-51987200D02*
X112595238Y-52034819D01*
X112595238Y-52034819D02*
X112404762Y-52034819D01*
X112404762Y-52034819D02*
X112309524Y-51987200D01*
X112309524Y-51987200D02*
X112214286Y-51891961D01*
X112214286Y-51891961D02*
X112166667Y-51701485D01*
X112166667Y-51701485D02*
X112166667Y-51368152D01*
X112166667Y-51368152D02*
X112214286Y-51177676D01*
X112214286Y-51177676D02*
X112309524Y-51082438D01*
X112309524Y-51082438D02*
X112404762Y-51034819D01*
X113595238Y-51511009D02*
X113738095Y-51558628D01*
X113738095Y-51558628D02*
X113785714Y-51606247D01*
X113785714Y-51606247D02*
X113833333Y-51701485D01*
X113833333Y-51701485D02*
X113833333Y-51844342D01*
X113833333Y-51844342D02*
X113785714Y-51939580D01*
X113785714Y-51939580D02*
X113738095Y-51987200D01*
X113738095Y-51987200D02*
X113642857Y-52034819D01*
X113642857Y-52034819D02*
X113261905Y-52034819D01*
X113261905Y-52034819D02*
X113261905Y-51034819D01*
X113261905Y-51034819D02*
X113595238Y-51034819D01*
X113595238Y-51034819D02*
X113690476Y-51082438D01*
X113690476Y-51082438D02*
X113738095Y-51130057D01*
X113738095Y-51130057D02*
X113785714Y-51225295D01*
X113785714Y-51225295D02*
X113785714Y-51320533D01*
X113785714Y-51320533D02*
X113738095Y-51415771D01*
X113738095Y-51415771D02*
X113690476Y-51463390D01*
X113690476Y-51463390D02*
X113595238Y-51511009D01*
X113595238Y-51511009D02*
X113261905Y-51511009D01*
X114261905Y-51653866D02*
X115023810Y-51653866D01*
X116023809Y-52034819D02*
X115452381Y-52034819D01*
X115738095Y-52034819D02*
X115738095Y-51034819D01*
X115738095Y-51034819D02*
X115642857Y-51177676D01*
X115642857Y-51177676D02*
X115547619Y-51272914D01*
X115547619Y-51272914D02*
X115452381Y-51320533D01*
X116404762Y-51130057D02*
X116452381Y-51082438D01*
X116452381Y-51082438D02*
X116547619Y-51034819D01*
X116547619Y-51034819D02*
X116785714Y-51034819D01*
X116785714Y-51034819D02*
X116880952Y-51082438D01*
X116880952Y-51082438D02*
X116928571Y-51130057D01*
X116928571Y-51130057D02*
X116976190Y-51225295D01*
X116976190Y-51225295D02*
X116976190Y-51320533D01*
X116976190Y-51320533D02*
X116928571Y-51463390D01*
X116928571Y-51463390D02*
X116357143Y-52034819D01*
X116357143Y-52034819D02*
X116976190Y-52034819D01*
X117595238Y-51034819D02*
X117690476Y-51034819D01*
X117690476Y-51034819D02*
X117785714Y-51082438D01*
X117785714Y-51082438D02*
X117833333Y-51130057D01*
X117833333Y-51130057D02*
X117880952Y-51225295D01*
X117880952Y-51225295D02*
X117928571Y-51415771D01*
X117928571Y-51415771D02*
X117928571Y-51653866D01*
X117928571Y-51653866D02*
X117880952Y-51844342D01*
X117880952Y-51844342D02*
X117833333Y-51939580D01*
X117833333Y-51939580D02*
X117785714Y-51987200D01*
X117785714Y-51987200D02*
X117690476Y-52034819D01*
X117690476Y-52034819D02*
X117595238Y-52034819D01*
X117595238Y-52034819D02*
X117500000Y-51987200D01*
X117500000Y-51987200D02*
X117452381Y-51939580D01*
X117452381Y-51939580D02*
X117404762Y-51844342D01*
X117404762Y-51844342D02*
X117357143Y-51653866D01*
X117357143Y-51653866D02*
X117357143Y-51415771D01*
X117357143Y-51415771D02*
X117404762Y-51225295D01*
X117404762Y-51225295D02*
X117452381Y-51130057D01*
X117452381Y-51130057D02*
X117500000Y-51082438D01*
X117500000Y-51082438D02*
X117595238Y-51034819D01*
X118547619Y-51034819D02*
X118642857Y-51034819D01*
X118642857Y-51034819D02*
X118738095Y-51082438D01*
X118738095Y-51082438D02*
X118785714Y-51130057D01*
X118785714Y-51130057D02*
X118833333Y-51225295D01*
X118833333Y-51225295D02*
X118880952Y-51415771D01*
X118880952Y-51415771D02*
X118880952Y-51653866D01*
X118880952Y-51653866D02*
X118833333Y-51844342D01*
X118833333Y-51844342D02*
X118785714Y-51939580D01*
X118785714Y-51939580D02*
X118738095Y-51987200D01*
X118738095Y-51987200D02*
X118642857Y-52034819D01*
X118642857Y-52034819D02*
X118547619Y-52034819D01*
X118547619Y-52034819D02*
X118452381Y-51987200D01*
X118452381Y-51987200D02*
X118404762Y-51939580D01*
X118404762Y-51939580D02*
X118357143Y-51844342D01*
X118357143Y-51844342D02*
X118309524Y-51653866D01*
X118309524Y-51653866D02*
X118309524Y-51415771D01*
X118309524Y-51415771D02*
X118357143Y-51225295D01*
X118357143Y-51225295D02*
X118404762Y-51130057D01*
X118404762Y-51130057D02*
X118452381Y-51082438D01*
X118452381Y-51082438D02*
X118547619Y-51034819D01*
X119357143Y-52034819D02*
X119547619Y-52034819D01*
X119547619Y-52034819D02*
X119642857Y-51987200D01*
X119642857Y-51987200D02*
X119690476Y-51939580D01*
X119690476Y-51939580D02*
X119785714Y-51796723D01*
X119785714Y-51796723D02*
X119833333Y-51606247D01*
X119833333Y-51606247D02*
X119833333Y-51225295D01*
X119833333Y-51225295D02*
X119785714Y-51130057D01*
X119785714Y-51130057D02*
X119738095Y-51082438D01*
X119738095Y-51082438D02*
X119642857Y-51034819D01*
X119642857Y-51034819D02*
X119452381Y-51034819D01*
X119452381Y-51034819D02*
X119357143Y-51082438D01*
X119357143Y-51082438D02*
X119309524Y-51130057D01*
X119309524Y-51130057D02*
X119261905Y-51225295D01*
X119261905Y-51225295D02*
X119261905Y-51463390D01*
X119261905Y-51463390D02*
X119309524Y-51558628D01*
X119309524Y-51558628D02*
X119357143Y-51606247D01*
X119357143Y-51606247D02*
X119452381Y-51653866D01*
X119452381Y-51653866D02*
X119642857Y-51653866D01*
X119642857Y-51653866D02*
X119738095Y-51606247D01*
X119738095Y-51606247D02*
X119785714Y-51558628D01*
X119785714Y-51558628D02*
X119833333Y-51463390D01*
X112238095Y-98954819D02*
X112238095Y-97954819D01*
X112238095Y-97954819D02*
X112619047Y-97954819D01*
X112619047Y-97954819D02*
X112714285Y-98002438D01*
X112714285Y-98002438D02*
X112761904Y-98050057D01*
X112761904Y-98050057D02*
X112809523Y-98145295D01*
X112809523Y-98145295D02*
X112809523Y-98288152D01*
X112809523Y-98288152D02*
X112761904Y-98383390D01*
X112761904Y-98383390D02*
X112714285Y-98431009D01*
X112714285Y-98431009D02*
X112619047Y-98478628D01*
X112619047Y-98478628D02*
X112238095Y-98478628D01*
X113238095Y-98954819D02*
X113238095Y-97954819D01*
X114285713Y-98859580D02*
X114238094Y-98907200D01*
X114238094Y-98907200D02*
X114095237Y-98954819D01*
X114095237Y-98954819D02*
X113999999Y-98954819D01*
X113999999Y-98954819D02*
X113857142Y-98907200D01*
X113857142Y-98907200D02*
X113761904Y-98811961D01*
X113761904Y-98811961D02*
X113714285Y-98716723D01*
X113714285Y-98716723D02*
X113666666Y-98526247D01*
X113666666Y-98526247D02*
X113666666Y-98383390D01*
X113666666Y-98383390D02*
X113714285Y-98192914D01*
X113714285Y-98192914D02*
X113761904Y-98097676D01*
X113761904Y-98097676D02*
X113857142Y-98002438D01*
X113857142Y-98002438D02*
X113999999Y-97954819D01*
X113999999Y-97954819D02*
X114095237Y-97954819D01*
X114095237Y-97954819D02*
X114238094Y-98002438D01*
X114238094Y-98002438D02*
X114285713Y-98050057D01*
X114904761Y-97954819D02*
X115095237Y-97954819D01*
X115095237Y-97954819D02*
X115190475Y-98002438D01*
X115190475Y-98002438D02*
X115285713Y-98097676D01*
X115285713Y-98097676D02*
X115333332Y-98288152D01*
X115333332Y-98288152D02*
X115333332Y-98621485D01*
X115333332Y-98621485D02*
X115285713Y-98811961D01*
X115285713Y-98811961D02*
X115190475Y-98907200D01*
X115190475Y-98907200D02*
X115095237Y-98954819D01*
X115095237Y-98954819D02*
X114904761Y-98954819D01*
X114904761Y-98954819D02*
X114809523Y-98907200D01*
X114809523Y-98907200D02*
X114714285Y-98811961D01*
X114714285Y-98811961D02*
X114666666Y-98621485D01*
X114666666Y-98621485D02*
X114666666Y-98288152D01*
X114666666Y-98288152D02*
X114714285Y-98097676D01*
X114714285Y-98097676D02*
X114809523Y-98002438D01*
X114809523Y-98002438D02*
X114904761Y-97954819D01*
X115523809Y-99050057D02*
X116285713Y-99050057D01*
X116380952Y-97954819D02*
X116952380Y-97954819D01*
X116666666Y-98954819D02*
X116666666Y-97954819D01*
X117285714Y-98954819D02*
X117285714Y-97954819D01*
X117285714Y-97954819D02*
X117666666Y-97954819D01*
X117666666Y-97954819D02*
X117761904Y-98002438D01*
X117761904Y-98002438D02*
X117809523Y-98050057D01*
X117809523Y-98050057D02*
X117857142Y-98145295D01*
X117857142Y-98145295D02*
X117857142Y-98288152D01*
X117857142Y-98288152D02*
X117809523Y-98383390D01*
X117809523Y-98383390D02*
X117761904Y-98431009D01*
X117761904Y-98431009D02*
X117666666Y-98478628D01*
X117666666Y-98478628D02*
X117285714Y-98478628D01*
X118714285Y-98288152D02*
X118714285Y-98954819D01*
X118476190Y-97907200D02*
X118238095Y-98621485D01*
X118238095Y-98621485D02*
X118857142Y-98621485D01*
X111619048Y-79954819D02*
X111619048Y-78954819D01*
X111619048Y-78954819D02*
X112000000Y-78954819D01*
X112000000Y-78954819D02*
X112095238Y-79002438D01*
X112095238Y-79002438D02*
X112142857Y-79050057D01*
X112142857Y-79050057D02*
X112190476Y-79145295D01*
X112190476Y-79145295D02*
X112190476Y-79288152D01*
X112190476Y-79288152D02*
X112142857Y-79383390D01*
X112142857Y-79383390D02*
X112095238Y-79431009D01*
X112095238Y-79431009D02*
X112000000Y-79478628D01*
X112000000Y-79478628D02*
X111619048Y-79478628D01*
X112619048Y-79954819D02*
X112619048Y-78954819D01*
X113666666Y-79859580D02*
X113619047Y-79907200D01*
X113619047Y-79907200D02*
X113476190Y-79954819D01*
X113476190Y-79954819D02*
X113380952Y-79954819D01*
X113380952Y-79954819D02*
X113238095Y-79907200D01*
X113238095Y-79907200D02*
X113142857Y-79811961D01*
X113142857Y-79811961D02*
X113095238Y-79716723D01*
X113095238Y-79716723D02*
X113047619Y-79526247D01*
X113047619Y-79526247D02*
X113047619Y-79383390D01*
X113047619Y-79383390D02*
X113095238Y-79192914D01*
X113095238Y-79192914D02*
X113142857Y-79097676D01*
X113142857Y-79097676D02*
X113238095Y-79002438D01*
X113238095Y-79002438D02*
X113380952Y-78954819D01*
X113380952Y-78954819D02*
X113476190Y-78954819D01*
X113476190Y-78954819D02*
X113619047Y-79002438D01*
X113619047Y-79002438D02*
X113666666Y-79050057D01*
X114285714Y-78954819D02*
X114476190Y-78954819D01*
X114476190Y-78954819D02*
X114571428Y-79002438D01*
X114571428Y-79002438D02*
X114666666Y-79097676D01*
X114666666Y-79097676D02*
X114714285Y-79288152D01*
X114714285Y-79288152D02*
X114714285Y-79621485D01*
X114714285Y-79621485D02*
X114666666Y-79811961D01*
X114666666Y-79811961D02*
X114571428Y-79907200D01*
X114571428Y-79907200D02*
X114476190Y-79954819D01*
X114476190Y-79954819D02*
X114285714Y-79954819D01*
X114285714Y-79954819D02*
X114190476Y-79907200D01*
X114190476Y-79907200D02*
X114095238Y-79811961D01*
X114095238Y-79811961D02*
X114047619Y-79621485D01*
X114047619Y-79621485D02*
X114047619Y-79288152D01*
X114047619Y-79288152D02*
X114095238Y-79097676D01*
X114095238Y-79097676D02*
X114190476Y-79002438D01*
X114190476Y-79002438D02*
X114285714Y-78954819D01*
X114904762Y-80050057D02*
X115666666Y-80050057D01*
X116476190Y-79859580D02*
X116428571Y-79907200D01*
X116428571Y-79907200D02*
X116285714Y-79954819D01*
X116285714Y-79954819D02*
X116190476Y-79954819D01*
X116190476Y-79954819D02*
X116047619Y-79907200D01*
X116047619Y-79907200D02*
X115952381Y-79811961D01*
X115952381Y-79811961D02*
X115904762Y-79716723D01*
X115904762Y-79716723D02*
X115857143Y-79526247D01*
X115857143Y-79526247D02*
X115857143Y-79383390D01*
X115857143Y-79383390D02*
X115904762Y-79192914D01*
X115904762Y-79192914D02*
X115952381Y-79097676D01*
X115952381Y-79097676D02*
X116047619Y-79002438D01*
X116047619Y-79002438D02*
X116190476Y-78954819D01*
X116190476Y-78954819D02*
X116285714Y-78954819D01*
X116285714Y-78954819D02*
X116428571Y-79002438D01*
X116428571Y-79002438D02*
X116476190Y-79050057D01*
X116857143Y-79907200D02*
X117000000Y-79954819D01*
X117000000Y-79954819D02*
X117238095Y-79954819D01*
X117238095Y-79954819D02*
X117333333Y-79907200D01*
X117333333Y-79907200D02*
X117380952Y-79859580D01*
X117380952Y-79859580D02*
X117428571Y-79764342D01*
X117428571Y-79764342D02*
X117428571Y-79669104D01*
X117428571Y-79669104D02*
X117380952Y-79573866D01*
X117380952Y-79573866D02*
X117333333Y-79526247D01*
X117333333Y-79526247D02*
X117238095Y-79478628D01*
X117238095Y-79478628D02*
X117047619Y-79431009D01*
X117047619Y-79431009D02*
X116952381Y-79383390D01*
X116952381Y-79383390D02*
X116904762Y-79335771D01*
X116904762Y-79335771D02*
X116857143Y-79240533D01*
X116857143Y-79240533D02*
X116857143Y-79145295D01*
X116857143Y-79145295D02*
X116904762Y-79050057D01*
X116904762Y-79050057D02*
X116952381Y-79002438D01*
X116952381Y-79002438D02*
X117047619Y-78954819D01*
X117047619Y-78954819D02*
X117285714Y-78954819D01*
X117285714Y-78954819D02*
X117428571Y-79002438D01*
X115766667Y-78677200D02*
X117519048Y-78677200D01*
X139699131Y-85599998D02*
X139672194Y-85519185D01*
X139672194Y-85519185D02*
X139591381Y-85438373D01*
X139591381Y-85438373D02*
X139483632Y-85384498D01*
X139483632Y-85384498D02*
X139375882Y-85384498D01*
X139375882Y-85384498D02*
X139295070Y-85411436D01*
X139295070Y-85411436D02*
X139160383Y-85492248D01*
X139160383Y-85492248D02*
X139079571Y-85573060D01*
X139079571Y-85573060D02*
X138998758Y-85707747D01*
X138998758Y-85707747D02*
X138971821Y-85788560D01*
X138971821Y-85788560D02*
X138971821Y-85896309D01*
X138971821Y-85896309D02*
X139025696Y-86004059D01*
X139025696Y-86004059D02*
X139079571Y-86057934D01*
X139079571Y-86057934D02*
X139187320Y-86111808D01*
X139187320Y-86111808D02*
X139241195Y-86111808D01*
X139241195Y-86111808D02*
X139429757Y-85923247D01*
X139429757Y-85923247D02*
X139322007Y-85815497D01*
X139429757Y-86408120D02*
X139995442Y-85842434D01*
X139995442Y-85842434D02*
X140210942Y-86057934D01*
X140210942Y-86057934D02*
X140237879Y-86138746D01*
X140237879Y-86138746D02*
X140237879Y-86192621D01*
X140237879Y-86192621D02*
X140210942Y-86273433D01*
X140210942Y-86273433D02*
X140130129Y-86354245D01*
X140130129Y-86354245D02*
X140049317Y-86381182D01*
X140049317Y-86381182D02*
X139995442Y-86381182D01*
X139995442Y-86381182D02*
X139914630Y-86354245D01*
X139914630Y-86354245D02*
X139699131Y-86138746D01*
X140480316Y-86435057D02*
X140534190Y-86435057D01*
X140534190Y-86435057D02*
X140615003Y-86461995D01*
X140615003Y-86461995D02*
X140749690Y-86596682D01*
X140749690Y-86596682D02*
X140776627Y-86677494D01*
X140776627Y-86677494D02*
X140776627Y-86731369D01*
X140776627Y-86731369D02*
X140749690Y-86812181D01*
X140749690Y-86812181D02*
X140695815Y-86866056D01*
X140695815Y-86866056D02*
X140588065Y-86919930D01*
X140588065Y-86919930D02*
X139941568Y-86919930D01*
X139941568Y-86919930D02*
X140291754Y-87270117D01*
X140830502Y-87808865D02*
X140507253Y-87485616D01*
X140668878Y-87647240D02*
X141234563Y-87081555D01*
X141234563Y-87081555D02*
X141099876Y-87108492D01*
X141099876Y-87108492D02*
X140992126Y-87108492D01*
X140992126Y-87108492D02*
X140911314Y-87081555D01*
X106938505Y-111723372D02*
X106911568Y-111642560D01*
X106911568Y-111642560D02*
X106830756Y-111561748D01*
X106830756Y-111561748D02*
X106723006Y-111507873D01*
X106723006Y-111507873D02*
X106615257Y-111507873D01*
X106615257Y-111507873D02*
X106534444Y-111534810D01*
X106534444Y-111534810D02*
X106399757Y-111615623D01*
X106399757Y-111615623D02*
X106318945Y-111696435D01*
X106318945Y-111696435D02*
X106238133Y-111831122D01*
X106238133Y-111831122D02*
X106211196Y-111911934D01*
X106211196Y-111911934D02*
X106211196Y-112019684D01*
X106211196Y-112019684D02*
X106265070Y-112127433D01*
X106265070Y-112127433D02*
X106318945Y-112181308D01*
X106318945Y-112181308D02*
X106426695Y-112235183D01*
X106426695Y-112235183D02*
X106480570Y-112235183D01*
X106480570Y-112235183D02*
X106669131Y-112046621D01*
X106669131Y-112046621D02*
X106561382Y-111938871D01*
X106669131Y-112531494D02*
X107234817Y-111965809D01*
X107234817Y-111965809D02*
X107450316Y-112181308D01*
X107450316Y-112181308D02*
X107477253Y-112262120D01*
X107477253Y-112262120D02*
X107477253Y-112315995D01*
X107477253Y-112315995D02*
X107450316Y-112396807D01*
X107450316Y-112396807D02*
X107369504Y-112477619D01*
X107369504Y-112477619D02*
X107288692Y-112504557D01*
X107288692Y-112504557D02*
X107234817Y-112504557D01*
X107234817Y-112504557D02*
X107154005Y-112477619D01*
X107154005Y-112477619D02*
X106938505Y-112262120D01*
X107908252Y-112639244D02*
X107962127Y-112693119D01*
X107962127Y-112693119D02*
X107989064Y-112773931D01*
X107989064Y-112773931D02*
X107989064Y-112827806D01*
X107989064Y-112827806D02*
X107962127Y-112908618D01*
X107962127Y-112908618D02*
X107881314Y-113043305D01*
X107881314Y-113043305D02*
X107746627Y-113177992D01*
X107746627Y-113177992D02*
X107611940Y-113258804D01*
X107611940Y-113258804D02*
X107531128Y-113285741D01*
X107531128Y-113285741D02*
X107477253Y-113285741D01*
X107477253Y-113285741D02*
X107396441Y-113258804D01*
X107396441Y-113258804D02*
X107342566Y-113204929D01*
X107342566Y-113204929D02*
X107315629Y-113124117D01*
X107315629Y-113124117D02*
X107315629Y-113070242D01*
X107315629Y-113070242D02*
X107342566Y-112989430D01*
X107342566Y-112989430D02*
X107423379Y-112854743D01*
X107423379Y-112854743D02*
X107558066Y-112720056D01*
X107558066Y-112720056D02*
X107692753Y-112639244D01*
X107692753Y-112639244D02*
X107773565Y-112612306D01*
X107773565Y-112612306D02*
X107827440Y-112612306D01*
X107827440Y-112612306D02*
X107908252Y-112639244D01*
X139689131Y-111707998D02*
X139662194Y-111627185D01*
X139662194Y-111627185D02*
X139581381Y-111546373D01*
X139581381Y-111546373D02*
X139473632Y-111492498D01*
X139473632Y-111492498D02*
X139365882Y-111492498D01*
X139365882Y-111492498D02*
X139285070Y-111519436D01*
X139285070Y-111519436D02*
X139150383Y-111600248D01*
X139150383Y-111600248D02*
X139069571Y-111681060D01*
X139069571Y-111681060D02*
X138988758Y-111815747D01*
X138988758Y-111815747D02*
X138961821Y-111896560D01*
X138961821Y-111896560D02*
X138961821Y-112004309D01*
X138961821Y-112004309D02*
X139015696Y-112112059D01*
X139015696Y-112112059D02*
X139069571Y-112165934D01*
X139069571Y-112165934D02*
X139177320Y-112219808D01*
X139177320Y-112219808D02*
X139231195Y-112219808D01*
X139231195Y-112219808D02*
X139419757Y-112031247D01*
X139419757Y-112031247D02*
X139312007Y-111923497D01*
X139419757Y-112516120D02*
X139985442Y-111950434D01*
X139985442Y-111950434D02*
X140200942Y-112165934D01*
X140200942Y-112165934D02*
X140227879Y-112246746D01*
X140227879Y-112246746D02*
X140227879Y-112300621D01*
X140227879Y-112300621D02*
X140200942Y-112381433D01*
X140200942Y-112381433D02*
X140120129Y-112462245D01*
X140120129Y-112462245D02*
X140039317Y-112489182D01*
X140039317Y-112489182D02*
X139985442Y-112489182D01*
X139985442Y-112489182D02*
X139904630Y-112462245D01*
X139904630Y-112462245D02*
X139689131Y-112246746D01*
X140281754Y-113378117D02*
X139958505Y-113054868D01*
X140120129Y-113216492D02*
X140685815Y-112650807D01*
X140685815Y-112650807D02*
X140551128Y-112677744D01*
X140551128Y-112677744D02*
X140443378Y-112677744D01*
X140443378Y-112677744D02*
X140362566Y-112650807D01*
X141197626Y-113162618D02*
X141251500Y-113216492D01*
X141251500Y-113216492D02*
X141278438Y-113297305D01*
X141278438Y-113297305D02*
X141278438Y-113351179D01*
X141278438Y-113351179D02*
X141251500Y-113431992D01*
X141251500Y-113431992D02*
X141170688Y-113566679D01*
X141170688Y-113566679D02*
X141036001Y-113701366D01*
X141036001Y-113701366D02*
X140901314Y-113782178D01*
X140901314Y-113782178D02*
X140820502Y-113809115D01*
X140820502Y-113809115D02*
X140766627Y-113809115D01*
X140766627Y-113809115D02*
X140685815Y-113782178D01*
X140685815Y-113782178D02*
X140631940Y-113728303D01*
X140631940Y-113728303D02*
X140605003Y-113647491D01*
X140605003Y-113647491D02*
X140605003Y-113593616D01*
X140605003Y-113593616D02*
X140631940Y-113512804D01*
X140631940Y-113512804D02*
X140712752Y-113378117D01*
X140712752Y-113378117D02*
X140847439Y-113243430D01*
X140847439Y-113243430D02*
X140982126Y-113162618D01*
X140982126Y-113162618D02*
X141062939Y-113135680D01*
X141062939Y-113135680D02*
X141116813Y-113135680D01*
X141116813Y-113135680D02*
X141197626Y-113162618D01*
X117098505Y-111723372D02*
X117071568Y-111642560D01*
X117071568Y-111642560D02*
X116990756Y-111561748D01*
X116990756Y-111561748D02*
X116883006Y-111507873D01*
X116883006Y-111507873D02*
X116775257Y-111507873D01*
X116775257Y-111507873D02*
X116694444Y-111534810D01*
X116694444Y-111534810D02*
X116559757Y-111615623D01*
X116559757Y-111615623D02*
X116478945Y-111696435D01*
X116478945Y-111696435D02*
X116398133Y-111831122D01*
X116398133Y-111831122D02*
X116371196Y-111911934D01*
X116371196Y-111911934D02*
X116371196Y-112019684D01*
X116371196Y-112019684D02*
X116425070Y-112127433D01*
X116425070Y-112127433D02*
X116478945Y-112181308D01*
X116478945Y-112181308D02*
X116586695Y-112235183D01*
X116586695Y-112235183D02*
X116640570Y-112235183D01*
X116640570Y-112235183D02*
X116829131Y-112046621D01*
X116829131Y-112046621D02*
X116721382Y-111938871D01*
X116829131Y-112531494D02*
X117394817Y-111965809D01*
X117394817Y-111965809D02*
X117610316Y-112181308D01*
X117610316Y-112181308D02*
X117637253Y-112262120D01*
X117637253Y-112262120D02*
X117637253Y-112315995D01*
X117637253Y-112315995D02*
X117610316Y-112396807D01*
X117610316Y-112396807D02*
X117529504Y-112477619D01*
X117529504Y-112477619D02*
X117448692Y-112504557D01*
X117448692Y-112504557D02*
X117394817Y-112504557D01*
X117394817Y-112504557D02*
X117314005Y-112477619D01*
X117314005Y-112477619D02*
X117098505Y-112262120D01*
X117906627Y-112477619D02*
X118256814Y-112827806D01*
X118256814Y-112827806D02*
X117852753Y-112854743D01*
X117852753Y-112854743D02*
X117933565Y-112935555D01*
X117933565Y-112935555D02*
X117960502Y-113016367D01*
X117960502Y-113016367D02*
X117960502Y-113070242D01*
X117960502Y-113070242D02*
X117933565Y-113151054D01*
X117933565Y-113151054D02*
X117798878Y-113285741D01*
X117798878Y-113285741D02*
X117718066Y-113312679D01*
X117718066Y-113312679D02*
X117664191Y-113312679D01*
X117664191Y-113312679D02*
X117583379Y-113285741D01*
X117583379Y-113285741D02*
X117421754Y-113124117D01*
X117421754Y-113124117D02*
X117394817Y-113043305D01*
X117394817Y-113043305D02*
X117394817Y-112989430D01*
X121655131Y-85599998D02*
X121628194Y-85519185D01*
X121628194Y-85519185D02*
X121547381Y-85438373D01*
X121547381Y-85438373D02*
X121439632Y-85384498D01*
X121439632Y-85384498D02*
X121331882Y-85384498D01*
X121331882Y-85384498D02*
X121251070Y-85411436D01*
X121251070Y-85411436D02*
X121116383Y-85492248D01*
X121116383Y-85492248D02*
X121035571Y-85573060D01*
X121035571Y-85573060D02*
X120954758Y-85707747D01*
X120954758Y-85707747D02*
X120927821Y-85788560D01*
X120927821Y-85788560D02*
X120927821Y-85896309D01*
X120927821Y-85896309D02*
X120981696Y-86004059D01*
X120981696Y-86004059D02*
X121035571Y-86057934D01*
X121035571Y-86057934D02*
X121143320Y-86111808D01*
X121143320Y-86111808D02*
X121197195Y-86111808D01*
X121197195Y-86111808D02*
X121385757Y-85923247D01*
X121385757Y-85923247D02*
X121278007Y-85815497D01*
X121385757Y-86408120D02*
X121951442Y-85842434D01*
X121951442Y-85842434D02*
X122166942Y-86057934D01*
X122166942Y-86057934D02*
X122193879Y-86138746D01*
X122193879Y-86138746D02*
X122193879Y-86192621D01*
X122193879Y-86192621D02*
X122166942Y-86273433D01*
X122166942Y-86273433D02*
X122086129Y-86354245D01*
X122086129Y-86354245D02*
X122005317Y-86381182D01*
X122005317Y-86381182D02*
X121951442Y-86381182D01*
X121951442Y-86381182D02*
X121870630Y-86354245D01*
X121870630Y-86354245D02*
X121655131Y-86138746D01*
X122436316Y-86435057D02*
X122490190Y-86435057D01*
X122490190Y-86435057D02*
X122571003Y-86461995D01*
X122571003Y-86461995D02*
X122705690Y-86596682D01*
X122705690Y-86596682D02*
X122732627Y-86677494D01*
X122732627Y-86677494D02*
X122732627Y-86731369D01*
X122732627Y-86731369D02*
X122705690Y-86812181D01*
X122705690Y-86812181D02*
X122651815Y-86866056D01*
X122651815Y-86866056D02*
X122544065Y-86919930D01*
X122544065Y-86919930D02*
X121897568Y-86919930D01*
X121897568Y-86919930D02*
X122247754Y-87270117D01*
X122894252Y-87270117D02*
X122867314Y-87189305D01*
X122867314Y-87189305D02*
X122867314Y-87135430D01*
X122867314Y-87135430D02*
X122894252Y-87054618D01*
X122894252Y-87054618D02*
X122921189Y-87027680D01*
X122921189Y-87027680D02*
X123002001Y-87000743D01*
X123002001Y-87000743D02*
X123055876Y-87000743D01*
X123055876Y-87000743D02*
X123136688Y-87027680D01*
X123136688Y-87027680D02*
X123244438Y-87135430D01*
X123244438Y-87135430D02*
X123271375Y-87216242D01*
X123271375Y-87216242D02*
X123271375Y-87270117D01*
X123271375Y-87270117D02*
X123244438Y-87350929D01*
X123244438Y-87350929D02*
X123217500Y-87377866D01*
X123217500Y-87377866D02*
X123136688Y-87404804D01*
X123136688Y-87404804D02*
X123082813Y-87404804D01*
X123082813Y-87404804D02*
X123002001Y-87377866D01*
X123002001Y-87377866D02*
X122894252Y-87270117D01*
X122894252Y-87270117D02*
X122813439Y-87243179D01*
X122813439Y-87243179D02*
X122759565Y-87243179D01*
X122759565Y-87243179D02*
X122678752Y-87270117D01*
X122678752Y-87270117D02*
X122571003Y-87377866D01*
X122571003Y-87377866D02*
X122544065Y-87458679D01*
X122544065Y-87458679D02*
X122544065Y-87512553D01*
X122544065Y-87512553D02*
X122571003Y-87593366D01*
X122571003Y-87593366D02*
X122678752Y-87701115D01*
X122678752Y-87701115D02*
X122759565Y-87728053D01*
X122759565Y-87728053D02*
X122813439Y-87728053D01*
X122813439Y-87728053D02*
X122894252Y-87701115D01*
X122894252Y-87701115D02*
X123002001Y-87593366D01*
X123002001Y-87593366D02*
X123028939Y-87512553D01*
X123028939Y-87512553D02*
X123028939Y-87458679D01*
X123028939Y-87458679D02*
X123002001Y-87377866D01*
X129768505Y-111623372D02*
X129741568Y-111542560D01*
X129741568Y-111542560D02*
X129660756Y-111461748D01*
X129660756Y-111461748D02*
X129553006Y-111407873D01*
X129553006Y-111407873D02*
X129445257Y-111407873D01*
X129445257Y-111407873D02*
X129364444Y-111434810D01*
X129364444Y-111434810D02*
X129229757Y-111515623D01*
X129229757Y-111515623D02*
X129148945Y-111596435D01*
X129148945Y-111596435D02*
X129068133Y-111731122D01*
X129068133Y-111731122D02*
X129041196Y-111811934D01*
X129041196Y-111811934D02*
X129041196Y-111919684D01*
X129041196Y-111919684D02*
X129095070Y-112027433D01*
X129095070Y-112027433D02*
X129148945Y-112081308D01*
X129148945Y-112081308D02*
X129256695Y-112135183D01*
X129256695Y-112135183D02*
X129310570Y-112135183D01*
X129310570Y-112135183D02*
X129499131Y-111946621D01*
X129499131Y-111946621D02*
X129391382Y-111838871D01*
X129499131Y-112431494D02*
X130064817Y-111865809D01*
X130064817Y-111865809D02*
X130280316Y-112081308D01*
X130280316Y-112081308D02*
X130307253Y-112162120D01*
X130307253Y-112162120D02*
X130307253Y-112215995D01*
X130307253Y-112215995D02*
X130280316Y-112296807D01*
X130280316Y-112296807D02*
X130199504Y-112377619D01*
X130199504Y-112377619D02*
X130118692Y-112404557D01*
X130118692Y-112404557D02*
X130064817Y-112404557D01*
X130064817Y-112404557D02*
X129984005Y-112377619D01*
X129984005Y-112377619D02*
X129768505Y-112162120D01*
X130576627Y-112377619D02*
X130953751Y-112754743D01*
X130953751Y-112754743D02*
X130145629Y-113077992D01*
X111991568Y-111696435D02*
X111964631Y-111615623D01*
X111964631Y-111615623D02*
X111883819Y-111534811D01*
X111883819Y-111534811D02*
X111776069Y-111480936D01*
X111776069Y-111480936D02*
X111668319Y-111480936D01*
X111668319Y-111480936D02*
X111587507Y-111507873D01*
X111587507Y-111507873D02*
X111452820Y-111588685D01*
X111452820Y-111588685D02*
X111372008Y-111669498D01*
X111372008Y-111669498D02*
X111291196Y-111804185D01*
X111291196Y-111804185D02*
X111264258Y-111884997D01*
X111264258Y-111884997D02*
X111264258Y-111992746D01*
X111264258Y-111992746D02*
X111318133Y-112100496D01*
X111318133Y-112100496D02*
X111372008Y-112154371D01*
X111372008Y-112154371D02*
X111479758Y-112208246D01*
X111479758Y-112208246D02*
X111533632Y-112208246D01*
X111533632Y-112208246D02*
X111722194Y-112019684D01*
X111722194Y-112019684D02*
X111614445Y-111911934D01*
X111722194Y-112504557D02*
X112287880Y-111938872D01*
X112287880Y-111938872D02*
X112045443Y-112827806D01*
X112045443Y-112827806D02*
X112611128Y-112262120D01*
X112314817Y-113097180D02*
X112880502Y-112531494D01*
X112880502Y-112531494D02*
X113015189Y-112666181D01*
X113015189Y-112666181D02*
X113069064Y-112773931D01*
X113069064Y-112773931D02*
X113069064Y-112881680D01*
X113069064Y-112881680D02*
X113042127Y-112962493D01*
X113042127Y-112962493D02*
X112961314Y-113097180D01*
X112961314Y-113097180D02*
X112880502Y-113177992D01*
X112880502Y-113177992D02*
X112745815Y-113258804D01*
X112745815Y-113258804D02*
X112665003Y-113285741D01*
X112665003Y-113285741D02*
X112557253Y-113285741D01*
X112557253Y-113285741D02*
X112449504Y-113231867D01*
X112449504Y-113231867D02*
X112314817Y-113097180D01*
X147309131Y-85599998D02*
X147282194Y-85519185D01*
X147282194Y-85519185D02*
X147201381Y-85438373D01*
X147201381Y-85438373D02*
X147093632Y-85384498D01*
X147093632Y-85384498D02*
X146985882Y-85384498D01*
X146985882Y-85384498D02*
X146905070Y-85411436D01*
X146905070Y-85411436D02*
X146770383Y-85492248D01*
X146770383Y-85492248D02*
X146689571Y-85573060D01*
X146689571Y-85573060D02*
X146608758Y-85707747D01*
X146608758Y-85707747D02*
X146581821Y-85788560D01*
X146581821Y-85788560D02*
X146581821Y-85896309D01*
X146581821Y-85896309D02*
X146635696Y-86004059D01*
X146635696Y-86004059D02*
X146689571Y-86057934D01*
X146689571Y-86057934D02*
X146797320Y-86111808D01*
X146797320Y-86111808D02*
X146851195Y-86111808D01*
X146851195Y-86111808D02*
X147039757Y-85923247D01*
X147039757Y-85923247D02*
X146932007Y-85815497D01*
X147039757Y-86408120D02*
X147605442Y-85842434D01*
X147605442Y-85842434D02*
X147820942Y-86057934D01*
X147820942Y-86057934D02*
X147847879Y-86138746D01*
X147847879Y-86138746D02*
X147847879Y-86192621D01*
X147847879Y-86192621D02*
X147820942Y-86273433D01*
X147820942Y-86273433D02*
X147740129Y-86354245D01*
X147740129Y-86354245D02*
X147659317Y-86381182D01*
X147659317Y-86381182D02*
X147605442Y-86381182D01*
X147605442Y-86381182D02*
X147524630Y-86354245D01*
X147524630Y-86354245D02*
X147309131Y-86138746D01*
X147901754Y-87270117D02*
X147578505Y-86946868D01*
X147740129Y-87108492D02*
X148305815Y-86542807D01*
X148305815Y-86542807D02*
X148171128Y-86569744D01*
X148171128Y-86569744D02*
X148063378Y-86569744D01*
X148063378Y-86569744D02*
X147982566Y-86542807D01*
X148548252Y-87270117D02*
X148521314Y-87189305D01*
X148521314Y-87189305D02*
X148521314Y-87135430D01*
X148521314Y-87135430D02*
X148548252Y-87054618D01*
X148548252Y-87054618D02*
X148575189Y-87027680D01*
X148575189Y-87027680D02*
X148656001Y-87000743D01*
X148656001Y-87000743D02*
X148709876Y-87000743D01*
X148709876Y-87000743D02*
X148790688Y-87027680D01*
X148790688Y-87027680D02*
X148898438Y-87135430D01*
X148898438Y-87135430D02*
X148925375Y-87216242D01*
X148925375Y-87216242D02*
X148925375Y-87270117D01*
X148925375Y-87270117D02*
X148898438Y-87350929D01*
X148898438Y-87350929D02*
X148871500Y-87377866D01*
X148871500Y-87377866D02*
X148790688Y-87404804D01*
X148790688Y-87404804D02*
X148736813Y-87404804D01*
X148736813Y-87404804D02*
X148656001Y-87377866D01*
X148656001Y-87377866D02*
X148548252Y-87270117D01*
X148548252Y-87270117D02*
X148467439Y-87243179D01*
X148467439Y-87243179D02*
X148413565Y-87243179D01*
X148413565Y-87243179D02*
X148332752Y-87270117D01*
X148332752Y-87270117D02*
X148225003Y-87377866D01*
X148225003Y-87377866D02*
X148198065Y-87458679D01*
X148198065Y-87458679D02*
X148198065Y-87512553D01*
X148198065Y-87512553D02*
X148225003Y-87593366D01*
X148225003Y-87593366D02*
X148332752Y-87701115D01*
X148332752Y-87701115D02*
X148413565Y-87728053D01*
X148413565Y-87728053D02*
X148467439Y-87728053D01*
X148467439Y-87728053D02*
X148548252Y-87701115D01*
X148548252Y-87701115D02*
X148656001Y-87593366D01*
X148656001Y-87593366D02*
X148682939Y-87512553D01*
X148682939Y-87512553D02*
X148682939Y-87458679D01*
X148682939Y-87458679D02*
X148656001Y-87377866D01*
X109468505Y-111823372D02*
X109441568Y-111742560D01*
X109441568Y-111742560D02*
X109360756Y-111661748D01*
X109360756Y-111661748D02*
X109253006Y-111607873D01*
X109253006Y-111607873D02*
X109145257Y-111607873D01*
X109145257Y-111607873D02*
X109064444Y-111634810D01*
X109064444Y-111634810D02*
X108929757Y-111715623D01*
X108929757Y-111715623D02*
X108848945Y-111796435D01*
X108848945Y-111796435D02*
X108768133Y-111931122D01*
X108768133Y-111931122D02*
X108741196Y-112011934D01*
X108741196Y-112011934D02*
X108741196Y-112119684D01*
X108741196Y-112119684D02*
X108795070Y-112227433D01*
X108795070Y-112227433D02*
X108848945Y-112281308D01*
X108848945Y-112281308D02*
X108956695Y-112335183D01*
X108956695Y-112335183D02*
X109010570Y-112335183D01*
X109010570Y-112335183D02*
X109199131Y-112146621D01*
X109199131Y-112146621D02*
X109091382Y-112038871D01*
X109199131Y-112631494D02*
X109764817Y-112065809D01*
X109764817Y-112065809D02*
X109980316Y-112281308D01*
X109980316Y-112281308D02*
X110007253Y-112362120D01*
X110007253Y-112362120D02*
X110007253Y-112415995D01*
X110007253Y-112415995D02*
X109980316Y-112496807D01*
X109980316Y-112496807D02*
X109899504Y-112577619D01*
X109899504Y-112577619D02*
X109818692Y-112604557D01*
X109818692Y-112604557D02*
X109764817Y-112604557D01*
X109764817Y-112604557D02*
X109684005Y-112577619D01*
X109684005Y-112577619D02*
X109468505Y-112362120D01*
X110061128Y-113493491D02*
X109737879Y-113170242D01*
X109899504Y-113331867D02*
X110465189Y-112766181D01*
X110465189Y-112766181D02*
X110330502Y-112793119D01*
X110330502Y-112793119D02*
X110222753Y-112793119D01*
X110222753Y-112793119D02*
X110141940Y-112766181D01*
X108939757Y-85130749D02*
X108562633Y-85884996D01*
X108562633Y-85884996D02*
X109316881Y-85507873D01*
X108939757Y-86208245D02*
X108993632Y-86315995D01*
X108993632Y-86315995D02*
X109128319Y-86450682D01*
X109128319Y-86450682D02*
X109209131Y-86477619D01*
X109209131Y-86477619D02*
X109263006Y-86477619D01*
X109263006Y-86477619D02*
X109343818Y-86450682D01*
X109343818Y-86450682D02*
X109397693Y-86396807D01*
X109397693Y-86396807D02*
X109424630Y-86315995D01*
X109424630Y-86315995D02*
X109424630Y-86262120D01*
X109424630Y-86262120D02*
X109397693Y-86181308D01*
X109397693Y-86181308D02*
X109316881Y-86046621D01*
X109316881Y-86046621D02*
X109289943Y-85965808D01*
X109289943Y-85965808D02*
X109289943Y-85911934D01*
X109289943Y-85911934D02*
X109316881Y-85831121D01*
X109316881Y-85831121D02*
X109370755Y-85777247D01*
X109370755Y-85777247D02*
X109451568Y-85750309D01*
X109451568Y-85750309D02*
X109505442Y-85750309D01*
X109505442Y-85750309D02*
X109586255Y-85777247D01*
X109586255Y-85777247D02*
X109720942Y-85911934D01*
X109720942Y-85911934D02*
X109774816Y-86019683D01*
X109855629Y-86639244D02*
X109586255Y-86908618D01*
X109963378Y-86154370D02*
X109855629Y-86639244D01*
X109855629Y-86639244D02*
X110340502Y-86531494D01*
X109963378Y-87231866D02*
X110017253Y-87339616D01*
X110017253Y-87339616D02*
X110151940Y-87474303D01*
X110151940Y-87474303D02*
X110232752Y-87501240D01*
X110232752Y-87501240D02*
X110286627Y-87501240D01*
X110286627Y-87501240D02*
X110367439Y-87474303D01*
X110367439Y-87474303D02*
X110421314Y-87420428D01*
X110421314Y-87420428D02*
X110448251Y-87339616D01*
X110448251Y-87339616D02*
X110448251Y-87285741D01*
X110448251Y-87285741D02*
X110421314Y-87204929D01*
X110421314Y-87204929D02*
X110340502Y-87070242D01*
X110340502Y-87070242D02*
X110313564Y-86989430D01*
X110313564Y-86989430D02*
X110313564Y-86935555D01*
X110313564Y-86935555D02*
X110340502Y-86854743D01*
X110340502Y-86854743D02*
X110394377Y-86800868D01*
X110394377Y-86800868D02*
X110475189Y-86773930D01*
X110475189Y-86773930D02*
X110529064Y-86773930D01*
X110529064Y-86773930D02*
X110609876Y-86800868D01*
X110609876Y-86800868D02*
X110744563Y-86935555D01*
X110744563Y-86935555D02*
X110798438Y-87043304D01*
X144769131Y-85599998D02*
X144742194Y-85519185D01*
X144742194Y-85519185D02*
X144661381Y-85438373D01*
X144661381Y-85438373D02*
X144553632Y-85384498D01*
X144553632Y-85384498D02*
X144445882Y-85384498D01*
X144445882Y-85384498D02*
X144365070Y-85411436D01*
X144365070Y-85411436D02*
X144230383Y-85492248D01*
X144230383Y-85492248D02*
X144149571Y-85573060D01*
X144149571Y-85573060D02*
X144068758Y-85707747D01*
X144068758Y-85707747D02*
X144041821Y-85788560D01*
X144041821Y-85788560D02*
X144041821Y-85896309D01*
X144041821Y-85896309D02*
X144095696Y-86004059D01*
X144095696Y-86004059D02*
X144149571Y-86057934D01*
X144149571Y-86057934D02*
X144257320Y-86111808D01*
X144257320Y-86111808D02*
X144311195Y-86111808D01*
X144311195Y-86111808D02*
X144499757Y-85923247D01*
X144499757Y-85923247D02*
X144392007Y-85815497D01*
X144499757Y-86408120D02*
X145065442Y-85842434D01*
X145065442Y-85842434D02*
X145280942Y-86057934D01*
X145280942Y-86057934D02*
X145307879Y-86138746D01*
X145307879Y-86138746D02*
X145307879Y-86192621D01*
X145307879Y-86192621D02*
X145280942Y-86273433D01*
X145280942Y-86273433D02*
X145200129Y-86354245D01*
X145200129Y-86354245D02*
X145119317Y-86381182D01*
X145119317Y-86381182D02*
X145065442Y-86381182D01*
X145065442Y-86381182D02*
X144984630Y-86354245D01*
X144984630Y-86354245D02*
X144769131Y-86138746D01*
X145361754Y-87270117D02*
X145038505Y-86946868D01*
X145200129Y-87108492D02*
X145765815Y-86542807D01*
X145765815Y-86542807D02*
X145631128Y-86569744D01*
X145631128Y-86569744D02*
X145523378Y-86569744D01*
X145523378Y-86569744D02*
X145442566Y-86542807D01*
X145631128Y-87539491D02*
X145738878Y-87647240D01*
X145738878Y-87647240D02*
X145819690Y-87674178D01*
X145819690Y-87674178D02*
X145873565Y-87674178D01*
X145873565Y-87674178D02*
X146008252Y-87647240D01*
X146008252Y-87647240D02*
X146142939Y-87566428D01*
X146142939Y-87566428D02*
X146358438Y-87350929D01*
X146358438Y-87350929D02*
X146385375Y-87270117D01*
X146385375Y-87270117D02*
X146385375Y-87216242D01*
X146385375Y-87216242D02*
X146358438Y-87135430D01*
X146358438Y-87135430D02*
X146250688Y-87027680D01*
X146250688Y-87027680D02*
X146169876Y-87000743D01*
X146169876Y-87000743D02*
X146116001Y-87000743D01*
X146116001Y-87000743D02*
X146035189Y-87027680D01*
X146035189Y-87027680D02*
X145900502Y-87162367D01*
X145900502Y-87162367D02*
X145873565Y-87243179D01*
X145873565Y-87243179D02*
X145873565Y-87297054D01*
X145873565Y-87297054D02*
X145900502Y-87377866D01*
X145900502Y-87377866D02*
X146008252Y-87485616D01*
X146008252Y-87485616D02*
X146089064Y-87512553D01*
X146089064Y-87512553D02*
X146142939Y-87512553D01*
X146142939Y-87512553D02*
X146223751Y-87485616D01*
X144769131Y-111853998D02*
X144742194Y-111773185D01*
X144742194Y-111773185D02*
X144661381Y-111692373D01*
X144661381Y-111692373D02*
X144553632Y-111638498D01*
X144553632Y-111638498D02*
X144445882Y-111638498D01*
X144445882Y-111638498D02*
X144365070Y-111665436D01*
X144365070Y-111665436D02*
X144230383Y-111746248D01*
X144230383Y-111746248D02*
X144149571Y-111827060D01*
X144149571Y-111827060D02*
X144068758Y-111961747D01*
X144068758Y-111961747D02*
X144041821Y-112042560D01*
X144041821Y-112042560D02*
X144041821Y-112150309D01*
X144041821Y-112150309D02*
X144095696Y-112258059D01*
X144095696Y-112258059D02*
X144149571Y-112311934D01*
X144149571Y-112311934D02*
X144257320Y-112365808D01*
X144257320Y-112365808D02*
X144311195Y-112365808D01*
X144311195Y-112365808D02*
X144499757Y-112177247D01*
X144499757Y-112177247D02*
X144392007Y-112069497D01*
X144499757Y-112662120D02*
X145065442Y-112096434D01*
X145065442Y-112096434D02*
X145280942Y-112311934D01*
X145280942Y-112311934D02*
X145307879Y-112392746D01*
X145307879Y-112392746D02*
X145307879Y-112446621D01*
X145307879Y-112446621D02*
X145280942Y-112527433D01*
X145280942Y-112527433D02*
X145200129Y-112608245D01*
X145200129Y-112608245D02*
X145119317Y-112635182D01*
X145119317Y-112635182D02*
X145065442Y-112635182D01*
X145065442Y-112635182D02*
X144984630Y-112608245D01*
X144984630Y-112608245D02*
X144769131Y-112392746D01*
X145361754Y-113524117D02*
X145038505Y-113200868D01*
X145200129Y-113362492D02*
X145765815Y-112796807D01*
X145765815Y-112796807D02*
X145631128Y-112823744D01*
X145631128Y-112823744D02*
X145523378Y-112823744D01*
X145523378Y-112823744D02*
X145442566Y-112796807D01*
X146089064Y-113227805D02*
X146142939Y-113227805D01*
X146142939Y-113227805D02*
X146223751Y-113254743D01*
X146223751Y-113254743D02*
X146358438Y-113389430D01*
X146358438Y-113389430D02*
X146385375Y-113470242D01*
X146385375Y-113470242D02*
X146385375Y-113524117D01*
X146385375Y-113524117D02*
X146358438Y-113604929D01*
X146358438Y-113604929D02*
X146304563Y-113658804D01*
X146304563Y-113658804D02*
X146196813Y-113712679D01*
X146196813Y-113712679D02*
X145550316Y-113712679D01*
X145550316Y-113712679D02*
X145900502Y-114062865D01*
X147309131Y-111707998D02*
X147282194Y-111627185D01*
X147282194Y-111627185D02*
X147201381Y-111546373D01*
X147201381Y-111546373D02*
X147093632Y-111492498D01*
X147093632Y-111492498D02*
X146985882Y-111492498D01*
X146985882Y-111492498D02*
X146905070Y-111519436D01*
X146905070Y-111519436D02*
X146770383Y-111600248D01*
X146770383Y-111600248D02*
X146689571Y-111681060D01*
X146689571Y-111681060D02*
X146608758Y-111815747D01*
X146608758Y-111815747D02*
X146581821Y-111896560D01*
X146581821Y-111896560D02*
X146581821Y-112004309D01*
X146581821Y-112004309D02*
X146635696Y-112112059D01*
X146635696Y-112112059D02*
X146689571Y-112165934D01*
X146689571Y-112165934D02*
X146797320Y-112219808D01*
X146797320Y-112219808D02*
X146851195Y-112219808D01*
X146851195Y-112219808D02*
X147039757Y-112031247D01*
X147039757Y-112031247D02*
X146932007Y-111923497D01*
X147039757Y-112516120D02*
X147605442Y-111950434D01*
X147605442Y-111950434D02*
X147820942Y-112165934D01*
X147820942Y-112165934D02*
X147847879Y-112246746D01*
X147847879Y-112246746D02*
X147847879Y-112300621D01*
X147847879Y-112300621D02*
X147820942Y-112381433D01*
X147820942Y-112381433D02*
X147740129Y-112462245D01*
X147740129Y-112462245D02*
X147659317Y-112489182D01*
X147659317Y-112489182D02*
X147605442Y-112489182D01*
X147605442Y-112489182D02*
X147524630Y-112462245D01*
X147524630Y-112462245D02*
X147309131Y-112246746D01*
X147901754Y-113378117D02*
X147578505Y-113054868D01*
X147740129Y-113216492D02*
X148305815Y-112650807D01*
X148305815Y-112650807D02*
X148171128Y-112677744D01*
X148171128Y-112677744D02*
X148063378Y-112677744D01*
X148063378Y-112677744D02*
X147982566Y-112650807D01*
X148656001Y-113000993D02*
X149006187Y-113351179D01*
X149006187Y-113351179D02*
X148602126Y-113378117D01*
X148602126Y-113378117D02*
X148682939Y-113458929D01*
X148682939Y-113458929D02*
X148709876Y-113539741D01*
X148709876Y-113539741D02*
X148709876Y-113593616D01*
X148709876Y-113593616D02*
X148682939Y-113674428D01*
X148682939Y-113674428D02*
X148548252Y-113809115D01*
X148548252Y-113809115D02*
X148467439Y-113836053D01*
X148467439Y-113836053D02*
X148413565Y-113836053D01*
X148413565Y-113836053D02*
X148332752Y-113809115D01*
X148332752Y-113809115D02*
X148171128Y-113647491D01*
X148171128Y-113647491D02*
X148144191Y-113566679D01*
X148144191Y-113566679D02*
X148144191Y-113512804D01*
X126999131Y-85599998D02*
X126972194Y-85519185D01*
X126972194Y-85519185D02*
X126891381Y-85438373D01*
X126891381Y-85438373D02*
X126783632Y-85384498D01*
X126783632Y-85384498D02*
X126675882Y-85384498D01*
X126675882Y-85384498D02*
X126595070Y-85411436D01*
X126595070Y-85411436D02*
X126460383Y-85492248D01*
X126460383Y-85492248D02*
X126379571Y-85573060D01*
X126379571Y-85573060D02*
X126298758Y-85707747D01*
X126298758Y-85707747D02*
X126271821Y-85788560D01*
X126271821Y-85788560D02*
X126271821Y-85896309D01*
X126271821Y-85896309D02*
X126325696Y-86004059D01*
X126325696Y-86004059D02*
X126379571Y-86057934D01*
X126379571Y-86057934D02*
X126487320Y-86111808D01*
X126487320Y-86111808D02*
X126541195Y-86111808D01*
X126541195Y-86111808D02*
X126729757Y-85923247D01*
X126729757Y-85923247D02*
X126622007Y-85815497D01*
X126729757Y-86408120D02*
X127295442Y-85842434D01*
X127295442Y-85842434D02*
X127510942Y-86057934D01*
X127510942Y-86057934D02*
X127537879Y-86138746D01*
X127537879Y-86138746D02*
X127537879Y-86192621D01*
X127537879Y-86192621D02*
X127510942Y-86273433D01*
X127510942Y-86273433D02*
X127430129Y-86354245D01*
X127430129Y-86354245D02*
X127349317Y-86381182D01*
X127349317Y-86381182D02*
X127295442Y-86381182D01*
X127295442Y-86381182D02*
X127214630Y-86354245D01*
X127214630Y-86354245D02*
X126999131Y-86138746D01*
X127780316Y-86435057D02*
X127834190Y-86435057D01*
X127834190Y-86435057D02*
X127915003Y-86461995D01*
X127915003Y-86461995D02*
X128049690Y-86596682D01*
X128049690Y-86596682D02*
X128076627Y-86677494D01*
X128076627Y-86677494D02*
X128076627Y-86731369D01*
X128076627Y-86731369D02*
X128049690Y-86812181D01*
X128049690Y-86812181D02*
X127995815Y-86866056D01*
X127995815Y-86866056D02*
X127888065Y-86919930D01*
X127888065Y-86919930D02*
X127241568Y-86919930D01*
X127241568Y-86919930D02*
X127591754Y-87270117D01*
X128346001Y-86892993D02*
X128723125Y-87270117D01*
X128723125Y-87270117D02*
X127915003Y-87593366D01*
X116655950Y-83765064D02*
X116925324Y-84034438D01*
X116440450Y-83872813D02*
X117194698Y-83495690D01*
X117194698Y-83495690D02*
X116817574Y-84249937D01*
X117006136Y-84438499D02*
X117571821Y-83872813D01*
X117571821Y-83872813D02*
X117706508Y-84007500D01*
X117706508Y-84007500D02*
X117760383Y-84115250D01*
X117760383Y-84115250D02*
X117760383Y-84222999D01*
X117760383Y-84222999D02*
X117733446Y-84303812D01*
X117733446Y-84303812D02*
X117652633Y-84438499D01*
X117652633Y-84438499D02*
X117571821Y-84519311D01*
X117571821Y-84519311D02*
X117437134Y-84600123D01*
X117437134Y-84600123D02*
X117356322Y-84627060D01*
X117356322Y-84627060D02*
X117248572Y-84627060D01*
X117248572Y-84627060D02*
X117140823Y-84573186D01*
X117140823Y-84573186D02*
X117006136Y-84438499D01*
X117948945Y-85273558D02*
X117895070Y-85273558D01*
X117895070Y-85273558D02*
X117787320Y-85219683D01*
X117787320Y-85219683D02*
X117733446Y-85165808D01*
X117733446Y-85165808D02*
X117679571Y-85058059D01*
X117679571Y-85058059D02*
X117679571Y-84950309D01*
X117679571Y-84950309D02*
X117706508Y-84869497D01*
X117706508Y-84869497D02*
X117787320Y-84734810D01*
X117787320Y-84734810D02*
X117868133Y-84653998D01*
X117868133Y-84653998D02*
X118002820Y-84573186D01*
X118002820Y-84573186D02*
X118083632Y-84546248D01*
X118083632Y-84546248D02*
X118191381Y-84546248D01*
X118191381Y-84546248D02*
X118299131Y-84600123D01*
X118299131Y-84600123D02*
X118353006Y-84653998D01*
X118353006Y-84653998D02*
X118406881Y-84761747D01*
X118406881Y-84761747D02*
X118406881Y-84815622D01*
X117948945Y-85489057D02*
X118379943Y-85920056D01*
X119053378Y-85354370D02*
X118676255Y-86108618D01*
X118676255Y-86108618D02*
X119430502Y-85731494D01*
X119376627Y-86808990D02*
X119457439Y-86351054D01*
X119053378Y-86485741D02*
X119619064Y-85920056D01*
X119619064Y-85920056D02*
X119834563Y-86135555D01*
X119834563Y-86135555D02*
X119861500Y-86216367D01*
X119861500Y-86216367D02*
X119861500Y-86270242D01*
X119861500Y-86270242D02*
X119834563Y-86351054D01*
X119834563Y-86351054D02*
X119753751Y-86431866D01*
X119753751Y-86431866D02*
X119672938Y-86458804D01*
X119672938Y-86458804D02*
X119619064Y-86458804D01*
X119619064Y-86458804D02*
X119538251Y-86431866D01*
X119538251Y-86431866D02*
X119322752Y-86216367D01*
X119915375Y-86755115D02*
X120103937Y-86943677D01*
X119888438Y-87320800D02*
X119619064Y-87051426D01*
X119619064Y-87051426D02*
X120184749Y-86485741D01*
X120184749Y-86485741D02*
X120454123Y-86755115D01*
X120615748Y-87455488D02*
X120427186Y-87266926D01*
X120130874Y-87563237D02*
X120696560Y-86997552D01*
X120696560Y-86997552D02*
X120965934Y-87266926D01*
X132338505Y-111723372D02*
X132311568Y-111642560D01*
X132311568Y-111642560D02*
X132230756Y-111561748D01*
X132230756Y-111561748D02*
X132123006Y-111507873D01*
X132123006Y-111507873D02*
X132015257Y-111507873D01*
X132015257Y-111507873D02*
X131934444Y-111534810D01*
X131934444Y-111534810D02*
X131799757Y-111615623D01*
X131799757Y-111615623D02*
X131718945Y-111696435D01*
X131718945Y-111696435D02*
X131638133Y-111831122D01*
X131638133Y-111831122D02*
X131611196Y-111911934D01*
X131611196Y-111911934D02*
X131611196Y-112019684D01*
X131611196Y-112019684D02*
X131665070Y-112127433D01*
X131665070Y-112127433D02*
X131718945Y-112181308D01*
X131718945Y-112181308D02*
X131826695Y-112235183D01*
X131826695Y-112235183D02*
X131880570Y-112235183D01*
X131880570Y-112235183D02*
X132069131Y-112046621D01*
X132069131Y-112046621D02*
X131961382Y-111938871D01*
X132069131Y-112531494D02*
X132634817Y-111965809D01*
X132634817Y-111965809D02*
X132850316Y-112181308D01*
X132850316Y-112181308D02*
X132877253Y-112262120D01*
X132877253Y-112262120D02*
X132877253Y-112315995D01*
X132877253Y-112315995D02*
X132850316Y-112396807D01*
X132850316Y-112396807D02*
X132769504Y-112477619D01*
X132769504Y-112477619D02*
X132688692Y-112504557D01*
X132688692Y-112504557D02*
X132634817Y-112504557D01*
X132634817Y-112504557D02*
X132554005Y-112477619D01*
X132554005Y-112477619D02*
X132338505Y-112262120D01*
X133038878Y-112854743D02*
X133011940Y-112773931D01*
X133011940Y-112773931D02*
X133011940Y-112720056D01*
X133011940Y-112720056D02*
X133038878Y-112639244D01*
X133038878Y-112639244D02*
X133065815Y-112612306D01*
X133065815Y-112612306D02*
X133146627Y-112585369D01*
X133146627Y-112585369D02*
X133200502Y-112585369D01*
X133200502Y-112585369D02*
X133281314Y-112612306D01*
X133281314Y-112612306D02*
X133389064Y-112720056D01*
X133389064Y-112720056D02*
X133416001Y-112800868D01*
X133416001Y-112800868D02*
X133416001Y-112854743D01*
X133416001Y-112854743D02*
X133389064Y-112935555D01*
X133389064Y-112935555D02*
X133362127Y-112962493D01*
X133362127Y-112962493D02*
X133281314Y-112989430D01*
X133281314Y-112989430D02*
X133227440Y-112989430D01*
X133227440Y-112989430D02*
X133146627Y-112962493D01*
X133146627Y-112962493D02*
X133038878Y-112854743D01*
X133038878Y-112854743D02*
X132958066Y-112827806D01*
X132958066Y-112827806D02*
X132904191Y-112827806D01*
X132904191Y-112827806D02*
X132823379Y-112854743D01*
X132823379Y-112854743D02*
X132715629Y-112962493D01*
X132715629Y-112962493D02*
X132688692Y-113043305D01*
X132688692Y-113043305D02*
X132688692Y-113097180D01*
X132688692Y-113097180D02*
X132715629Y-113177992D01*
X132715629Y-113177992D02*
X132823379Y-113285741D01*
X132823379Y-113285741D02*
X132904191Y-113312679D01*
X132904191Y-113312679D02*
X132958066Y-113312679D01*
X132958066Y-113312679D02*
X133038878Y-113285741D01*
X133038878Y-113285741D02*
X133146627Y-113177992D01*
X133146627Y-113177992D02*
X133173565Y-113097180D01*
X133173565Y-113097180D02*
X133173565Y-113043305D01*
X133173565Y-113043305D02*
X133146627Y-112962493D01*
X154929131Y-85599998D02*
X154902194Y-85519185D01*
X154902194Y-85519185D02*
X154821381Y-85438373D01*
X154821381Y-85438373D02*
X154713632Y-85384498D01*
X154713632Y-85384498D02*
X154605882Y-85384498D01*
X154605882Y-85384498D02*
X154525070Y-85411436D01*
X154525070Y-85411436D02*
X154390383Y-85492248D01*
X154390383Y-85492248D02*
X154309571Y-85573060D01*
X154309571Y-85573060D02*
X154228758Y-85707747D01*
X154228758Y-85707747D02*
X154201821Y-85788560D01*
X154201821Y-85788560D02*
X154201821Y-85896309D01*
X154201821Y-85896309D02*
X154255696Y-86004059D01*
X154255696Y-86004059D02*
X154309571Y-86057934D01*
X154309571Y-86057934D02*
X154417320Y-86111808D01*
X154417320Y-86111808D02*
X154471195Y-86111808D01*
X154471195Y-86111808D02*
X154659757Y-85923247D01*
X154659757Y-85923247D02*
X154552007Y-85815497D01*
X154659757Y-86408120D02*
X155225442Y-85842434D01*
X155225442Y-85842434D02*
X155440942Y-86057934D01*
X155440942Y-86057934D02*
X155467879Y-86138746D01*
X155467879Y-86138746D02*
X155467879Y-86192621D01*
X155467879Y-86192621D02*
X155440942Y-86273433D01*
X155440942Y-86273433D02*
X155360129Y-86354245D01*
X155360129Y-86354245D02*
X155279317Y-86381182D01*
X155279317Y-86381182D02*
X155225442Y-86381182D01*
X155225442Y-86381182D02*
X155144630Y-86354245D01*
X155144630Y-86354245D02*
X154929131Y-86138746D01*
X155521754Y-87270117D02*
X155198505Y-86946868D01*
X155360129Y-87108492D02*
X155925815Y-86542807D01*
X155925815Y-86542807D02*
X155791128Y-86569744D01*
X155791128Y-86569744D02*
X155683378Y-86569744D01*
X155683378Y-86569744D02*
X155602566Y-86542807D01*
X156572313Y-87189305D02*
X156464563Y-87081555D01*
X156464563Y-87081555D02*
X156383751Y-87054618D01*
X156383751Y-87054618D02*
X156329876Y-87054618D01*
X156329876Y-87054618D02*
X156195189Y-87081555D01*
X156195189Y-87081555D02*
X156060502Y-87162367D01*
X156060502Y-87162367D02*
X155845003Y-87377866D01*
X155845003Y-87377866D02*
X155818065Y-87458679D01*
X155818065Y-87458679D02*
X155818065Y-87512553D01*
X155818065Y-87512553D02*
X155845003Y-87593366D01*
X155845003Y-87593366D02*
X155952752Y-87701115D01*
X155952752Y-87701115D02*
X156033565Y-87728053D01*
X156033565Y-87728053D02*
X156087439Y-87728053D01*
X156087439Y-87728053D02*
X156168252Y-87701115D01*
X156168252Y-87701115D02*
X156302939Y-87566428D01*
X156302939Y-87566428D02*
X156329876Y-87485616D01*
X156329876Y-87485616D02*
X156329876Y-87431741D01*
X156329876Y-87431741D02*
X156302939Y-87350929D01*
X156302939Y-87350929D02*
X156195189Y-87243179D01*
X156195189Y-87243179D02*
X156114377Y-87216242D01*
X156114377Y-87216242D02*
X156060502Y-87216242D01*
X156060502Y-87216242D02*
X155979690Y-87243179D01*
X137391568Y-111696435D02*
X137364631Y-111615623D01*
X137364631Y-111615623D02*
X137283819Y-111534811D01*
X137283819Y-111534811D02*
X137176069Y-111480936D01*
X137176069Y-111480936D02*
X137068319Y-111480936D01*
X137068319Y-111480936D02*
X136987507Y-111507873D01*
X136987507Y-111507873D02*
X136852820Y-111588685D01*
X136852820Y-111588685D02*
X136772008Y-111669498D01*
X136772008Y-111669498D02*
X136691196Y-111804185D01*
X136691196Y-111804185D02*
X136664258Y-111884997D01*
X136664258Y-111884997D02*
X136664258Y-111992746D01*
X136664258Y-111992746D02*
X136718133Y-112100496D01*
X136718133Y-112100496D02*
X136772008Y-112154371D01*
X136772008Y-112154371D02*
X136879758Y-112208246D01*
X136879758Y-112208246D02*
X136933632Y-112208246D01*
X136933632Y-112208246D02*
X137122194Y-112019684D01*
X137122194Y-112019684D02*
X137014445Y-111911934D01*
X137122194Y-112504557D02*
X137687880Y-111938872D01*
X137687880Y-111938872D02*
X137445443Y-112827806D01*
X137445443Y-112827806D02*
X138011128Y-112262120D01*
X137714817Y-113097180D02*
X138280502Y-112531494D01*
X138280502Y-112531494D02*
X138415189Y-112666181D01*
X138415189Y-112666181D02*
X138469064Y-112773931D01*
X138469064Y-112773931D02*
X138469064Y-112881680D01*
X138469064Y-112881680D02*
X138442127Y-112962493D01*
X138442127Y-112962493D02*
X138361314Y-113097180D01*
X138361314Y-113097180D02*
X138280502Y-113177992D01*
X138280502Y-113177992D02*
X138145815Y-113258804D01*
X138145815Y-113258804D02*
X138065003Y-113285741D01*
X138065003Y-113285741D02*
X137957253Y-113285741D01*
X137957253Y-113285741D02*
X137849504Y-113231867D01*
X137849504Y-113231867D02*
X137714817Y-113097180D01*
X131786289Y-86448651D02*
X131867101Y-85990716D01*
X131463040Y-86125403D02*
X132028725Y-85559717D01*
X132028725Y-85559717D02*
X132244224Y-85775216D01*
X132244224Y-85775216D02*
X132271162Y-85856029D01*
X132271162Y-85856029D02*
X132271162Y-85909903D01*
X132271162Y-85909903D02*
X132244224Y-85990716D01*
X132244224Y-85990716D02*
X132163412Y-86071528D01*
X132163412Y-86071528D02*
X132082600Y-86098465D01*
X132082600Y-86098465D02*
X132028725Y-86098465D01*
X132028725Y-86098465D02*
X131947913Y-86071528D01*
X131947913Y-86071528D02*
X131732414Y-85856029D01*
X132594411Y-86125403D02*
X132136475Y-86583338D01*
X132136475Y-86583338D02*
X132109537Y-86664151D01*
X132109537Y-86664151D02*
X132109537Y-86718025D01*
X132109537Y-86718025D02*
X132136475Y-86798838D01*
X132136475Y-86798838D02*
X132244224Y-86906587D01*
X132244224Y-86906587D02*
X132325037Y-86933525D01*
X132325037Y-86933525D02*
X132378911Y-86933525D01*
X132378911Y-86933525D02*
X132459724Y-86906587D01*
X132459724Y-86906587D02*
X132917659Y-86448651D01*
X132621348Y-87283711D02*
X133187033Y-86718025D01*
X133187033Y-86718025D02*
X132944597Y-87606959D01*
X132944597Y-87606959D02*
X133510282Y-87041274D01*
X137391568Y-86096435D02*
X137364631Y-86015623D01*
X137364631Y-86015623D02*
X137283819Y-85934811D01*
X137283819Y-85934811D02*
X137176069Y-85880936D01*
X137176069Y-85880936D02*
X137068319Y-85880936D01*
X137068319Y-85880936D02*
X136987507Y-85907873D01*
X136987507Y-85907873D02*
X136852820Y-85988685D01*
X136852820Y-85988685D02*
X136772008Y-86069498D01*
X136772008Y-86069498D02*
X136691196Y-86204185D01*
X136691196Y-86204185D02*
X136664258Y-86284997D01*
X136664258Y-86284997D02*
X136664258Y-86392746D01*
X136664258Y-86392746D02*
X136718133Y-86500496D01*
X136718133Y-86500496D02*
X136772008Y-86554371D01*
X136772008Y-86554371D02*
X136879758Y-86608246D01*
X136879758Y-86608246D02*
X136933632Y-86608246D01*
X136933632Y-86608246D02*
X137122194Y-86419684D01*
X137122194Y-86419684D02*
X137014445Y-86311934D01*
X137122194Y-86904557D02*
X137687880Y-86338872D01*
X137687880Y-86338872D02*
X137445443Y-87227806D01*
X137445443Y-87227806D02*
X138011128Y-86662120D01*
X137714817Y-87497180D02*
X138280502Y-86931494D01*
X138280502Y-86931494D02*
X138415189Y-87066181D01*
X138415189Y-87066181D02*
X138469064Y-87173931D01*
X138469064Y-87173931D02*
X138469064Y-87281680D01*
X138469064Y-87281680D02*
X138442127Y-87362493D01*
X138442127Y-87362493D02*
X138361314Y-87497180D01*
X138361314Y-87497180D02*
X138280502Y-87577992D01*
X138280502Y-87577992D02*
X138145815Y-87658804D01*
X138145815Y-87658804D02*
X138065003Y-87685741D01*
X138065003Y-87685741D02*
X137957253Y-87685741D01*
X137957253Y-87685741D02*
X137849504Y-87631867D01*
X137849504Y-87631867D02*
X137714817Y-87497180D01*
X150091568Y-86096435D02*
X150064631Y-86015623D01*
X150064631Y-86015623D02*
X149983819Y-85934811D01*
X149983819Y-85934811D02*
X149876069Y-85880936D01*
X149876069Y-85880936D02*
X149768319Y-85880936D01*
X149768319Y-85880936D02*
X149687507Y-85907873D01*
X149687507Y-85907873D02*
X149552820Y-85988685D01*
X149552820Y-85988685D02*
X149472008Y-86069498D01*
X149472008Y-86069498D02*
X149391196Y-86204185D01*
X149391196Y-86204185D02*
X149364258Y-86284997D01*
X149364258Y-86284997D02*
X149364258Y-86392746D01*
X149364258Y-86392746D02*
X149418133Y-86500496D01*
X149418133Y-86500496D02*
X149472008Y-86554371D01*
X149472008Y-86554371D02*
X149579758Y-86608246D01*
X149579758Y-86608246D02*
X149633632Y-86608246D01*
X149633632Y-86608246D02*
X149822194Y-86419684D01*
X149822194Y-86419684D02*
X149714445Y-86311934D01*
X149822194Y-86904557D02*
X150387880Y-86338872D01*
X150387880Y-86338872D02*
X150145443Y-87227806D01*
X150145443Y-87227806D02*
X150711128Y-86662120D01*
X150414817Y-87497180D02*
X150980502Y-86931494D01*
X150980502Y-86931494D02*
X151115189Y-87066181D01*
X151115189Y-87066181D02*
X151169064Y-87173931D01*
X151169064Y-87173931D02*
X151169064Y-87281680D01*
X151169064Y-87281680D02*
X151142127Y-87362493D01*
X151142127Y-87362493D02*
X151061314Y-87497180D01*
X151061314Y-87497180D02*
X150980502Y-87577992D01*
X150980502Y-87577992D02*
X150845815Y-87658804D01*
X150845815Y-87658804D02*
X150765003Y-87685741D01*
X150765003Y-87685741D02*
X150657253Y-87685741D01*
X150657253Y-87685741D02*
X150549504Y-87631867D01*
X150549504Y-87631867D02*
X150414817Y-87497180D01*
X112831415Y-84132407D02*
X113181601Y-84482593D01*
X113181601Y-84482593D02*
X112777540Y-84509531D01*
X112777540Y-84509531D02*
X112858353Y-84590343D01*
X112858353Y-84590343D02*
X112885290Y-84671155D01*
X112885290Y-84671155D02*
X112885290Y-84725030D01*
X112885290Y-84725030D02*
X112858353Y-84805842D01*
X112858353Y-84805842D02*
X112723666Y-84940529D01*
X112723666Y-84940529D02*
X112642853Y-84967467D01*
X112642853Y-84967467D02*
X112588979Y-84967467D01*
X112588979Y-84967467D02*
X112508166Y-84940529D01*
X112508166Y-84940529D02*
X112346542Y-84778905D01*
X112346542Y-84778905D02*
X112319605Y-84698093D01*
X112319605Y-84698093D02*
X112319605Y-84644218D01*
X113343226Y-84644218D02*
X112966102Y-85398465D01*
X112966102Y-85398465D02*
X113720350Y-85021342D01*
X113855036Y-85156028D02*
X114205223Y-85506215D01*
X114205223Y-85506215D02*
X113801162Y-85533152D01*
X113801162Y-85533152D02*
X113881974Y-85613964D01*
X113881974Y-85613964D02*
X113908911Y-85694776D01*
X113908911Y-85694776D02*
X113908911Y-85748651D01*
X113908911Y-85748651D02*
X113881974Y-85829464D01*
X113881974Y-85829464D02*
X113747287Y-85964151D01*
X113747287Y-85964151D02*
X113666475Y-85991088D01*
X113666475Y-85991088D02*
X113612600Y-85991088D01*
X113612600Y-85991088D02*
X113531788Y-85964151D01*
X113531788Y-85964151D02*
X113370163Y-85802526D01*
X113370163Y-85802526D02*
X113343226Y-85721714D01*
X113343226Y-85721714D02*
X113343226Y-85667839D01*
X113693412Y-86233525D02*
X114124411Y-86664523D01*
X114609284Y-86449024D02*
X114797846Y-86637586D01*
X114582347Y-87014709D02*
X114312973Y-86745335D01*
X114312973Y-86745335D02*
X114878658Y-86179650D01*
X114878658Y-86179650D02*
X115148032Y-86449024D01*
X114824784Y-87257146D02*
X115390469Y-86691461D01*
X115390469Y-86691461D02*
X115148032Y-87580395D01*
X115148032Y-87580395D02*
X115713718Y-87014710D01*
X127258505Y-111723372D02*
X127231568Y-111642560D01*
X127231568Y-111642560D02*
X127150756Y-111561748D01*
X127150756Y-111561748D02*
X127043006Y-111507873D01*
X127043006Y-111507873D02*
X126935257Y-111507873D01*
X126935257Y-111507873D02*
X126854444Y-111534810D01*
X126854444Y-111534810D02*
X126719757Y-111615623D01*
X126719757Y-111615623D02*
X126638945Y-111696435D01*
X126638945Y-111696435D02*
X126558133Y-111831122D01*
X126558133Y-111831122D02*
X126531196Y-111911934D01*
X126531196Y-111911934D02*
X126531196Y-112019684D01*
X126531196Y-112019684D02*
X126585070Y-112127433D01*
X126585070Y-112127433D02*
X126638945Y-112181308D01*
X126638945Y-112181308D02*
X126746695Y-112235183D01*
X126746695Y-112235183D02*
X126800570Y-112235183D01*
X126800570Y-112235183D02*
X126989131Y-112046621D01*
X126989131Y-112046621D02*
X126881382Y-111938871D01*
X126989131Y-112531494D02*
X127554817Y-111965809D01*
X127554817Y-111965809D02*
X127770316Y-112181308D01*
X127770316Y-112181308D02*
X127797253Y-112262120D01*
X127797253Y-112262120D02*
X127797253Y-112315995D01*
X127797253Y-112315995D02*
X127770316Y-112396807D01*
X127770316Y-112396807D02*
X127689504Y-112477619D01*
X127689504Y-112477619D02*
X127608692Y-112504557D01*
X127608692Y-112504557D02*
X127554817Y-112504557D01*
X127554817Y-112504557D02*
X127474005Y-112477619D01*
X127474005Y-112477619D02*
X127258505Y-112262120D01*
X128362939Y-112773931D02*
X128255189Y-112666181D01*
X128255189Y-112666181D02*
X128174377Y-112639244D01*
X128174377Y-112639244D02*
X128120502Y-112639244D01*
X128120502Y-112639244D02*
X127985815Y-112666181D01*
X127985815Y-112666181D02*
X127851128Y-112746993D01*
X127851128Y-112746993D02*
X127635629Y-112962493D01*
X127635629Y-112962493D02*
X127608692Y-113043305D01*
X127608692Y-113043305D02*
X127608692Y-113097180D01*
X127608692Y-113097180D02*
X127635629Y-113177992D01*
X127635629Y-113177992D02*
X127743379Y-113285741D01*
X127743379Y-113285741D02*
X127824191Y-113312679D01*
X127824191Y-113312679D02*
X127878066Y-113312679D01*
X127878066Y-113312679D02*
X127958878Y-113285741D01*
X127958878Y-113285741D02*
X128093565Y-113151054D01*
X128093565Y-113151054D02*
X128120502Y-113070242D01*
X128120502Y-113070242D02*
X128120502Y-113016367D01*
X128120502Y-113016367D02*
X128093565Y-112935555D01*
X128093565Y-112935555D02*
X127985815Y-112827806D01*
X127985815Y-112827806D02*
X127905003Y-112800868D01*
X127905003Y-112800868D02*
X127851128Y-112800868D01*
X127851128Y-112800868D02*
X127770316Y-112827806D01*
X142229131Y-111853998D02*
X142202194Y-111773185D01*
X142202194Y-111773185D02*
X142121381Y-111692373D01*
X142121381Y-111692373D02*
X142013632Y-111638498D01*
X142013632Y-111638498D02*
X141905882Y-111638498D01*
X141905882Y-111638498D02*
X141825070Y-111665436D01*
X141825070Y-111665436D02*
X141690383Y-111746248D01*
X141690383Y-111746248D02*
X141609571Y-111827060D01*
X141609571Y-111827060D02*
X141528758Y-111961747D01*
X141528758Y-111961747D02*
X141501821Y-112042560D01*
X141501821Y-112042560D02*
X141501821Y-112150309D01*
X141501821Y-112150309D02*
X141555696Y-112258059D01*
X141555696Y-112258059D02*
X141609571Y-112311934D01*
X141609571Y-112311934D02*
X141717320Y-112365808D01*
X141717320Y-112365808D02*
X141771195Y-112365808D01*
X141771195Y-112365808D02*
X141959757Y-112177247D01*
X141959757Y-112177247D02*
X141852007Y-112069497D01*
X141959757Y-112662120D02*
X142525442Y-112096434D01*
X142525442Y-112096434D02*
X142740942Y-112311934D01*
X142740942Y-112311934D02*
X142767879Y-112392746D01*
X142767879Y-112392746D02*
X142767879Y-112446621D01*
X142767879Y-112446621D02*
X142740942Y-112527433D01*
X142740942Y-112527433D02*
X142660129Y-112608245D01*
X142660129Y-112608245D02*
X142579317Y-112635182D01*
X142579317Y-112635182D02*
X142525442Y-112635182D01*
X142525442Y-112635182D02*
X142444630Y-112608245D01*
X142444630Y-112608245D02*
X142229131Y-112392746D01*
X142821754Y-113524117D02*
X142498505Y-113200868D01*
X142660129Y-113362492D02*
X143225815Y-112796807D01*
X143225815Y-112796807D02*
X143091128Y-112823744D01*
X143091128Y-112823744D02*
X142983378Y-112823744D01*
X142983378Y-112823744D02*
X142902566Y-112796807D01*
X143360502Y-114062865D02*
X143037253Y-113739616D01*
X143198878Y-113901240D02*
X143764563Y-113335555D01*
X143764563Y-113335555D02*
X143629876Y-113362492D01*
X143629876Y-113362492D02*
X143522126Y-113362492D01*
X143522126Y-113362492D02*
X143441314Y-113335555D01*
X119638505Y-111723372D02*
X119611568Y-111642560D01*
X119611568Y-111642560D02*
X119530756Y-111561748D01*
X119530756Y-111561748D02*
X119423006Y-111507873D01*
X119423006Y-111507873D02*
X119315257Y-111507873D01*
X119315257Y-111507873D02*
X119234444Y-111534810D01*
X119234444Y-111534810D02*
X119099757Y-111615623D01*
X119099757Y-111615623D02*
X119018945Y-111696435D01*
X119018945Y-111696435D02*
X118938133Y-111831122D01*
X118938133Y-111831122D02*
X118911196Y-111911934D01*
X118911196Y-111911934D02*
X118911196Y-112019684D01*
X118911196Y-112019684D02*
X118965070Y-112127433D01*
X118965070Y-112127433D02*
X119018945Y-112181308D01*
X119018945Y-112181308D02*
X119126695Y-112235183D01*
X119126695Y-112235183D02*
X119180570Y-112235183D01*
X119180570Y-112235183D02*
X119369131Y-112046621D01*
X119369131Y-112046621D02*
X119261382Y-111938871D01*
X119369131Y-112531494D02*
X119934817Y-111965809D01*
X119934817Y-111965809D02*
X120150316Y-112181308D01*
X120150316Y-112181308D02*
X120177253Y-112262120D01*
X120177253Y-112262120D02*
X120177253Y-112315995D01*
X120177253Y-112315995D02*
X120150316Y-112396807D01*
X120150316Y-112396807D02*
X120069504Y-112477619D01*
X120069504Y-112477619D02*
X119988692Y-112504557D01*
X119988692Y-112504557D02*
X119934817Y-112504557D01*
X119934817Y-112504557D02*
X119854005Y-112477619D01*
X119854005Y-112477619D02*
X119638505Y-112262120D01*
X120554377Y-112962493D02*
X120177253Y-113339616D01*
X120635189Y-112612306D02*
X120096441Y-112881680D01*
X120096441Y-112881680D02*
X120446627Y-113231867D01*
X134609131Y-85599998D02*
X134582194Y-85519185D01*
X134582194Y-85519185D02*
X134501381Y-85438373D01*
X134501381Y-85438373D02*
X134393632Y-85384498D01*
X134393632Y-85384498D02*
X134285882Y-85384498D01*
X134285882Y-85384498D02*
X134205070Y-85411436D01*
X134205070Y-85411436D02*
X134070383Y-85492248D01*
X134070383Y-85492248D02*
X133989571Y-85573060D01*
X133989571Y-85573060D02*
X133908758Y-85707747D01*
X133908758Y-85707747D02*
X133881821Y-85788560D01*
X133881821Y-85788560D02*
X133881821Y-85896309D01*
X133881821Y-85896309D02*
X133935696Y-86004059D01*
X133935696Y-86004059D02*
X133989571Y-86057934D01*
X133989571Y-86057934D02*
X134097320Y-86111808D01*
X134097320Y-86111808D02*
X134151195Y-86111808D01*
X134151195Y-86111808D02*
X134339757Y-85923247D01*
X134339757Y-85923247D02*
X134232007Y-85815497D01*
X134339757Y-86408120D02*
X134905442Y-85842434D01*
X134905442Y-85842434D02*
X135120942Y-86057934D01*
X135120942Y-86057934D02*
X135147879Y-86138746D01*
X135147879Y-86138746D02*
X135147879Y-86192621D01*
X135147879Y-86192621D02*
X135120942Y-86273433D01*
X135120942Y-86273433D02*
X135040129Y-86354245D01*
X135040129Y-86354245D02*
X134959317Y-86381182D01*
X134959317Y-86381182D02*
X134905442Y-86381182D01*
X134905442Y-86381182D02*
X134824630Y-86354245D01*
X134824630Y-86354245D02*
X134609131Y-86138746D01*
X135390316Y-86435057D02*
X135444190Y-86435057D01*
X135444190Y-86435057D02*
X135525003Y-86461995D01*
X135525003Y-86461995D02*
X135659690Y-86596682D01*
X135659690Y-86596682D02*
X135686627Y-86677494D01*
X135686627Y-86677494D02*
X135686627Y-86731369D01*
X135686627Y-86731369D02*
X135659690Y-86812181D01*
X135659690Y-86812181D02*
X135605815Y-86866056D01*
X135605815Y-86866056D02*
X135498065Y-86919930D01*
X135498065Y-86919930D02*
X134851568Y-86919930D01*
X134851568Y-86919930D02*
X135201754Y-87270117D01*
X135929064Y-86973805D02*
X135982939Y-86973805D01*
X135982939Y-86973805D02*
X136063751Y-87000743D01*
X136063751Y-87000743D02*
X136198438Y-87135430D01*
X136198438Y-87135430D02*
X136225375Y-87216242D01*
X136225375Y-87216242D02*
X136225375Y-87270117D01*
X136225375Y-87270117D02*
X136198438Y-87350929D01*
X136198438Y-87350929D02*
X136144563Y-87404804D01*
X136144563Y-87404804D02*
X136036813Y-87458679D01*
X136036813Y-87458679D02*
X135390316Y-87458679D01*
X135390316Y-87458679D02*
X135740502Y-87808865D01*
X152389131Y-111753998D02*
X152362194Y-111673185D01*
X152362194Y-111673185D02*
X152281381Y-111592373D01*
X152281381Y-111592373D02*
X152173632Y-111538498D01*
X152173632Y-111538498D02*
X152065882Y-111538498D01*
X152065882Y-111538498D02*
X151985070Y-111565436D01*
X151985070Y-111565436D02*
X151850383Y-111646248D01*
X151850383Y-111646248D02*
X151769571Y-111727060D01*
X151769571Y-111727060D02*
X151688758Y-111861747D01*
X151688758Y-111861747D02*
X151661821Y-111942560D01*
X151661821Y-111942560D02*
X151661821Y-112050309D01*
X151661821Y-112050309D02*
X151715696Y-112158059D01*
X151715696Y-112158059D02*
X151769571Y-112211934D01*
X151769571Y-112211934D02*
X151877320Y-112265808D01*
X151877320Y-112265808D02*
X151931195Y-112265808D01*
X151931195Y-112265808D02*
X152119757Y-112077247D01*
X152119757Y-112077247D02*
X152012007Y-111969497D01*
X152119757Y-112562120D02*
X152685442Y-111996434D01*
X152685442Y-111996434D02*
X152900942Y-112211934D01*
X152900942Y-112211934D02*
X152927879Y-112292746D01*
X152927879Y-112292746D02*
X152927879Y-112346621D01*
X152927879Y-112346621D02*
X152900942Y-112427433D01*
X152900942Y-112427433D02*
X152820129Y-112508245D01*
X152820129Y-112508245D02*
X152739317Y-112535182D01*
X152739317Y-112535182D02*
X152685442Y-112535182D01*
X152685442Y-112535182D02*
X152604630Y-112508245D01*
X152604630Y-112508245D02*
X152389131Y-112292746D01*
X152981754Y-113424117D02*
X152658505Y-113100868D01*
X152820129Y-113262492D02*
X153385815Y-112696807D01*
X153385815Y-112696807D02*
X153251128Y-112723744D01*
X153251128Y-112723744D02*
X153143378Y-112723744D01*
X153143378Y-112723744D02*
X153062566Y-112696807D01*
X153843751Y-113531866D02*
X153466627Y-113908990D01*
X153924563Y-113181680D02*
X153385815Y-113451054D01*
X153385815Y-113451054D02*
X153736001Y-113801240D01*
X122178505Y-111723372D02*
X122151568Y-111642560D01*
X122151568Y-111642560D02*
X122070756Y-111561748D01*
X122070756Y-111561748D02*
X121963006Y-111507873D01*
X121963006Y-111507873D02*
X121855257Y-111507873D01*
X121855257Y-111507873D02*
X121774444Y-111534810D01*
X121774444Y-111534810D02*
X121639757Y-111615623D01*
X121639757Y-111615623D02*
X121558945Y-111696435D01*
X121558945Y-111696435D02*
X121478133Y-111831122D01*
X121478133Y-111831122D02*
X121451196Y-111911934D01*
X121451196Y-111911934D02*
X121451196Y-112019684D01*
X121451196Y-112019684D02*
X121505070Y-112127433D01*
X121505070Y-112127433D02*
X121558945Y-112181308D01*
X121558945Y-112181308D02*
X121666695Y-112235183D01*
X121666695Y-112235183D02*
X121720570Y-112235183D01*
X121720570Y-112235183D02*
X121909131Y-112046621D01*
X121909131Y-112046621D02*
X121801382Y-111938871D01*
X121909131Y-112531494D02*
X122474817Y-111965809D01*
X122474817Y-111965809D02*
X122690316Y-112181308D01*
X122690316Y-112181308D02*
X122717253Y-112262120D01*
X122717253Y-112262120D02*
X122717253Y-112315995D01*
X122717253Y-112315995D02*
X122690316Y-112396807D01*
X122690316Y-112396807D02*
X122609504Y-112477619D01*
X122609504Y-112477619D02*
X122528692Y-112504557D01*
X122528692Y-112504557D02*
X122474817Y-112504557D01*
X122474817Y-112504557D02*
X122394005Y-112477619D01*
X122394005Y-112477619D02*
X122178505Y-112262120D01*
X123309876Y-112800868D02*
X123040502Y-112531494D01*
X123040502Y-112531494D02*
X122744191Y-112773931D01*
X122744191Y-112773931D02*
X122798066Y-112773931D01*
X122798066Y-112773931D02*
X122878878Y-112800868D01*
X122878878Y-112800868D02*
X123013565Y-112935555D01*
X123013565Y-112935555D02*
X123040502Y-113016367D01*
X123040502Y-113016367D02*
X123040502Y-113070242D01*
X123040502Y-113070242D02*
X123013565Y-113151054D01*
X123013565Y-113151054D02*
X122878878Y-113285741D01*
X122878878Y-113285741D02*
X122798066Y-113312679D01*
X122798066Y-113312679D02*
X122744191Y-113312679D01*
X122744191Y-113312679D02*
X122663379Y-113285741D01*
X122663379Y-113285741D02*
X122528692Y-113151054D01*
X122528692Y-113151054D02*
X122501754Y-113070242D01*
X122501754Y-113070242D02*
X122501754Y-113016367D01*
X134878505Y-111723372D02*
X134851568Y-111642560D01*
X134851568Y-111642560D02*
X134770756Y-111561748D01*
X134770756Y-111561748D02*
X134663006Y-111507873D01*
X134663006Y-111507873D02*
X134555257Y-111507873D01*
X134555257Y-111507873D02*
X134474444Y-111534810D01*
X134474444Y-111534810D02*
X134339757Y-111615623D01*
X134339757Y-111615623D02*
X134258945Y-111696435D01*
X134258945Y-111696435D02*
X134178133Y-111831122D01*
X134178133Y-111831122D02*
X134151196Y-111911934D01*
X134151196Y-111911934D02*
X134151196Y-112019684D01*
X134151196Y-112019684D02*
X134205070Y-112127433D01*
X134205070Y-112127433D02*
X134258945Y-112181308D01*
X134258945Y-112181308D02*
X134366695Y-112235183D01*
X134366695Y-112235183D02*
X134420570Y-112235183D01*
X134420570Y-112235183D02*
X134609131Y-112046621D01*
X134609131Y-112046621D02*
X134501382Y-111938871D01*
X134609131Y-112531494D02*
X135174817Y-111965809D01*
X135174817Y-111965809D02*
X135390316Y-112181308D01*
X135390316Y-112181308D02*
X135417253Y-112262120D01*
X135417253Y-112262120D02*
X135417253Y-112315995D01*
X135417253Y-112315995D02*
X135390316Y-112396807D01*
X135390316Y-112396807D02*
X135309504Y-112477619D01*
X135309504Y-112477619D02*
X135228692Y-112504557D01*
X135228692Y-112504557D02*
X135174817Y-112504557D01*
X135174817Y-112504557D02*
X135094005Y-112477619D01*
X135094005Y-112477619D02*
X134878505Y-112262120D01*
X135201754Y-113124117D02*
X135309504Y-113231867D01*
X135309504Y-113231867D02*
X135390316Y-113258804D01*
X135390316Y-113258804D02*
X135444191Y-113258804D01*
X135444191Y-113258804D02*
X135578878Y-113231867D01*
X135578878Y-113231867D02*
X135713565Y-113151054D01*
X135713565Y-113151054D02*
X135929064Y-112935555D01*
X135929064Y-112935555D02*
X135956001Y-112854743D01*
X135956001Y-112854743D02*
X135956001Y-112800868D01*
X135956001Y-112800868D02*
X135929064Y-112720056D01*
X135929064Y-112720056D02*
X135821314Y-112612306D01*
X135821314Y-112612306D02*
X135740502Y-112585369D01*
X135740502Y-112585369D02*
X135686627Y-112585369D01*
X135686627Y-112585369D02*
X135605815Y-112612306D01*
X135605815Y-112612306D02*
X135471128Y-112746993D01*
X135471128Y-112746993D02*
X135444191Y-112827806D01*
X135444191Y-112827806D02*
X135444191Y-112881680D01*
X135444191Y-112881680D02*
X135471128Y-112962493D01*
X135471128Y-112962493D02*
X135578878Y-113070242D01*
X135578878Y-113070242D02*
X135659690Y-113097180D01*
X135659690Y-113097180D02*
X135713565Y-113097180D01*
X135713565Y-113097180D02*
X135794377Y-113070242D01*
X129529131Y-85599998D02*
X129502194Y-85519185D01*
X129502194Y-85519185D02*
X129421381Y-85438373D01*
X129421381Y-85438373D02*
X129313632Y-85384498D01*
X129313632Y-85384498D02*
X129205882Y-85384498D01*
X129205882Y-85384498D02*
X129125070Y-85411436D01*
X129125070Y-85411436D02*
X128990383Y-85492248D01*
X128990383Y-85492248D02*
X128909571Y-85573060D01*
X128909571Y-85573060D02*
X128828758Y-85707747D01*
X128828758Y-85707747D02*
X128801821Y-85788560D01*
X128801821Y-85788560D02*
X128801821Y-85896309D01*
X128801821Y-85896309D02*
X128855696Y-86004059D01*
X128855696Y-86004059D02*
X128909571Y-86057934D01*
X128909571Y-86057934D02*
X129017320Y-86111808D01*
X129017320Y-86111808D02*
X129071195Y-86111808D01*
X129071195Y-86111808D02*
X129259757Y-85923247D01*
X129259757Y-85923247D02*
X129152007Y-85815497D01*
X129259757Y-86408120D02*
X129825442Y-85842434D01*
X129825442Y-85842434D02*
X130040942Y-86057934D01*
X130040942Y-86057934D02*
X130067879Y-86138746D01*
X130067879Y-86138746D02*
X130067879Y-86192621D01*
X130067879Y-86192621D02*
X130040942Y-86273433D01*
X130040942Y-86273433D02*
X129960129Y-86354245D01*
X129960129Y-86354245D02*
X129879317Y-86381182D01*
X129879317Y-86381182D02*
X129825442Y-86381182D01*
X129825442Y-86381182D02*
X129744630Y-86354245D01*
X129744630Y-86354245D02*
X129529131Y-86138746D01*
X130310316Y-86435057D02*
X130364190Y-86435057D01*
X130364190Y-86435057D02*
X130445003Y-86461995D01*
X130445003Y-86461995D02*
X130579690Y-86596682D01*
X130579690Y-86596682D02*
X130606627Y-86677494D01*
X130606627Y-86677494D02*
X130606627Y-86731369D01*
X130606627Y-86731369D02*
X130579690Y-86812181D01*
X130579690Y-86812181D02*
X130525815Y-86866056D01*
X130525815Y-86866056D02*
X130418065Y-86919930D01*
X130418065Y-86919930D02*
X129771568Y-86919930D01*
X129771568Y-86919930D02*
X130121754Y-87270117D01*
X131172313Y-87189305D02*
X131064563Y-87081555D01*
X131064563Y-87081555D02*
X130983751Y-87054618D01*
X130983751Y-87054618D02*
X130929876Y-87054618D01*
X130929876Y-87054618D02*
X130795189Y-87081555D01*
X130795189Y-87081555D02*
X130660502Y-87162367D01*
X130660502Y-87162367D02*
X130445003Y-87377866D01*
X130445003Y-87377866D02*
X130418065Y-87458679D01*
X130418065Y-87458679D02*
X130418065Y-87512553D01*
X130418065Y-87512553D02*
X130445003Y-87593366D01*
X130445003Y-87593366D02*
X130552752Y-87701115D01*
X130552752Y-87701115D02*
X130633565Y-87728053D01*
X130633565Y-87728053D02*
X130687439Y-87728053D01*
X130687439Y-87728053D02*
X130768252Y-87701115D01*
X130768252Y-87701115D02*
X130902939Y-87566428D01*
X130902939Y-87566428D02*
X130929876Y-87485616D01*
X130929876Y-87485616D02*
X130929876Y-87431741D01*
X130929876Y-87431741D02*
X130902939Y-87350929D01*
X130902939Y-87350929D02*
X130795189Y-87243179D01*
X130795189Y-87243179D02*
X130714377Y-87216242D01*
X130714377Y-87216242D02*
X130660502Y-87216242D01*
X130660502Y-87216242D02*
X130579690Y-87243179D01*
X154929131Y-111707998D02*
X154902194Y-111627185D01*
X154902194Y-111627185D02*
X154821381Y-111546373D01*
X154821381Y-111546373D02*
X154713632Y-111492498D01*
X154713632Y-111492498D02*
X154605882Y-111492498D01*
X154605882Y-111492498D02*
X154525070Y-111519436D01*
X154525070Y-111519436D02*
X154390383Y-111600248D01*
X154390383Y-111600248D02*
X154309571Y-111681060D01*
X154309571Y-111681060D02*
X154228758Y-111815747D01*
X154228758Y-111815747D02*
X154201821Y-111896560D01*
X154201821Y-111896560D02*
X154201821Y-112004309D01*
X154201821Y-112004309D02*
X154255696Y-112112059D01*
X154255696Y-112112059D02*
X154309571Y-112165934D01*
X154309571Y-112165934D02*
X154417320Y-112219808D01*
X154417320Y-112219808D02*
X154471195Y-112219808D01*
X154471195Y-112219808D02*
X154659757Y-112031247D01*
X154659757Y-112031247D02*
X154552007Y-111923497D01*
X154659757Y-112516120D02*
X155225442Y-111950434D01*
X155225442Y-111950434D02*
X155440942Y-112165934D01*
X155440942Y-112165934D02*
X155467879Y-112246746D01*
X155467879Y-112246746D02*
X155467879Y-112300621D01*
X155467879Y-112300621D02*
X155440942Y-112381433D01*
X155440942Y-112381433D02*
X155360129Y-112462245D01*
X155360129Y-112462245D02*
X155279317Y-112489182D01*
X155279317Y-112489182D02*
X155225442Y-112489182D01*
X155225442Y-112489182D02*
X155144630Y-112462245D01*
X155144630Y-112462245D02*
X154929131Y-112246746D01*
X155521754Y-113378117D02*
X155198505Y-113054868D01*
X155360129Y-113216492D02*
X155925815Y-112650807D01*
X155925815Y-112650807D02*
X155791128Y-112677744D01*
X155791128Y-112677744D02*
X155683378Y-112677744D01*
X155683378Y-112677744D02*
X155602566Y-112650807D01*
X156599250Y-113324242D02*
X156329876Y-113054868D01*
X156329876Y-113054868D02*
X156033565Y-113297305D01*
X156033565Y-113297305D02*
X156087439Y-113297305D01*
X156087439Y-113297305D02*
X156168252Y-113324242D01*
X156168252Y-113324242D02*
X156302939Y-113458929D01*
X156302939Y-113458929D02*
X156329876Y-113539741D01*
X156329876Y-113539741D02*
X156329876Y-113593616D01*
X156329876Y-113593616D02*
X156302939Y-113674428D01*
X156302939Y-113674428D02*
X156168252Y-113809115D01*
X156168252Y-113809115D02*
X156087439Y-113836053D01*
X156087439Y-113836053D02*
X156033565Y-113836053D01*
X156033565Y-113836053D02*
X155952752Y-113809115D01*
X155952752Y-113809115D02*
X155818065Y-113674428D01*
X155818065Y-113674428D02*
X155791128Y-113593616D01*
X155791128Y-113593616D02*
X155791128Y-113539741D01*
X150091568Y-111696435D02*
X150064631Y-111615623D01*
X150064631Y-111615623D02*
X149983819Y-111534811D01*
X149983819Y-111534811D02*
X149876069Y-111480936D01*
X149876069Y-111480936D02*
X149768319Y-111480936D01*
X149768319Y-111480936D02*
X149687507Y-111507873D01*
X149687507Y-111507873D02*
X149552820Y-111588685D01*
X149552820Y-111588685D02*
X149472008Y-111669498D01*
X149472008Y-111669498D02*
X149391196Y-111804185D01*
X149391196Y-111804185D02*
X149364258Y-111884997D01*
X149364258Y-111884997D02*
X149364258Y-111992746D01*
X149364258Y-111992746D02*
X149418133Y-112100496D01*
X149418133Y-112100496D02*
X149472008Y-112154371D01*
X149472008Y-112154371D02*
X149579758Y-112208246D01*
X149579758Y-112208246D02*
X149633632Y-112208246D01*
X149633632Y-112208246D02*
X149822194Y-112019684D01*
X149822194Y-112019684D02*
X149714445Y-111911934D01*
X149822194Y-112504557D02*
X150387880Y-111938872D01*
X150387880Y-111938872D02*
X150145443Y-112827806D01*
X150145443Y-112827806D02*
X150711128Y-112262120D01*
X150414817Y-113097180D02*
X150980502Y-112531494D01*
X150980502Y-112531494D02*
X151115189Y-112666181D01*
X151115189Y-112666181D02*
X151169064Y-112773931D01*
X151169064Y-112773931D02*
X151169064Y-112881680D01*
X151169064Y-112881680D02*
X151142127Y-112962493D01*
X151142127Y-112962493D02*
X151061314Y-113097180D01*
X151061314Y-113097180D02*
X150980502Y-113177992D01*
X150980502Y-113177992D02*
X150845815Y-113258804D01*
X150845815Y-113258804D02*
X150765003Y-113285741D01*
X150765003Y-113285741D02*
X150657253Y-113285741D01*
X150657253Y-113285741D02*
X150549504Y-113231867D01*
X150549504Y-113231867D02*
X150414817Y-113097180D01*
X142229131Y-85599998D02*
X142202194Y-85519185D01*
X142202194Y-85519185D02*
X142121381Y-85438373D01*
X142121381Y-85438373D02*
X142013632Y-85384498D01*
X142013632Y-85384498D02*
X141905882Y-85384498D01*
X141905882Y-85384498D02*
X141825070Y-85411436D01*
X141825070Y-85411436D02*
X141690383Y-85492248D01*
X141690383Y-85492248D02*
X141609571Y-85573060D01*
X141609571Y-85573060D02*
X141528758Y-85707747D01*
X141528758Y-85707747D02*
X141501821Y-85788560D01*
X141501821Y-85788560D02*
X141501821Y-85896309D01*
X141501821Y-85896309D02*
X141555696Y-86004059D01*
X141555696Y-86004059D02*
X141609571Y-86057934D01*
X141609571Y-86057934D02*
X141717320Y-86111808D01*
X141717320Y-86111808D02*
X141771195Y-86111808D01*
X141771195Y-86111808D02*
X141959757Y-85923247D01*
X141959757Y-85923247D02*
X141852007Y-85815497D01*
X141959757Y-86408120D02*
X142525442Y-85842434D01*
X142525442Y-85842434D02*
X142740942Y-86057934D01*
X142740942Y-86057934D02*
X142767879Y-86138746D01*
X142767879Y-86138746D02*
X142767879Y-86192621D01*
X142767879Y-86192621D02*
X142740942Y-86273433D01*
X142740942Y-86273433D02*
X142660129Y-86354245D01*
X142660129Y-86354245D02*
X142579317Y-86381182D01*
X142579317Y-86381182D02*
X142525442Y-86381182D01*
X142525442Y-86381182D02*
X142444630Y-86354245D01*
X142444630Y-86354245D02*
X142229131Y-86138746D01*
X143010316Y-86435057D02*
X143064190Y-86435057D01*
X143064190Y-86435057D02*
X143145003Y-86461995D01*
X143145003Y-86461995D02*
X143279690Y-86596682D01*
X143279690Y-86596682D02*
X143306627Y-86677494D01*
X143306627Y-86677494D02*
X143306627Y-86731369D01*
X143306627Y-86731369D02*
X143279690Y-86812181D01*
X143279690Y-86812181D02*
X143225815Y-86866056D01*
X143225815Y-86866056D02*
X143118065Y-86919930D01*
X143118065Y-86919930D02*
X142471568Y-86919930D01*
X142471568Y-86919930D02*
X142821754Y-87270117D01*
X143737626Y-87054618D02*
X143791500Y-87108492D01*
X143791500Y-87108492D02*
X143818438Y-87189305D01*
X143818438Y-87189305D02*
X143818438Y-87243179D01*
X143818438Y-87243179D02*
X143791500Y-87323992D01*
X143791500Y-87323992D02*
X143710688Y-87458679D01*
X143710688Y-87458679D02*
X143576001Y-87593366D01*
X143576001Y-87593366D02*
X143441314Y-87674178D01*
X143441314Y-87674178D02*
X143360502Y-87701115D01*
X143360502Y-87701115D02*
X143306627Y-87701115D01*
X143306627Y-87701115D02*
X143225815Y-87674178D01*
X143225815Y-87674178D02*
X143171940Y-87620303D01*
X143171940Y-87620303D02*
X143145003Y-87539491D01*
X143145003Y-87539491D02*
X143145003Y-87485616D01*
X143145003Y-87485616D02*
X143171940Y-87404804D01*
X143171940Y-87404804D02*
X143252752Y-87270117D01*
X143252752Y-87270117D02*
X143387439Y-87135430D01*
X143387439Y-87135430D02*
X143522126Y-87054618D01*
X143522126Y-87054618D02*
X143602939Y-87027680D01*
X143602939Y-87027680D02*
X143656813Y-87027680D01*
X143656813Y-87027680D02*
X143737626Y-87054618D01*
X111991568Y-86096435D02*
X111964631Y-86015623D01*
X111964631Y-86015623D02*
X111883819Y-85934811D01*
X111883819Y-85934811D02*
X111776069Y-85880936D01*
X111776069Y-85880936D02*
X111668319Y-85880936D01*
X111668319Y-85880936D02*
X111587507Y-85907873D01*
X111587507Y-85907873D02*
X111452820Y-85988685D01*
X111452820Y-85988685D02*
X111372008Y-86069498D01*
X111372008Y-86069498D02*
X111291196Y-86204185D01*
X111291196Y-86204185D02*
X111264258Y-86284997D01*
X111264258Y-86284997D02*
X111264258Y-86392746D01*
X111264258Y-86392746D02*
X111318133Y-86500496D01*
X111318133Y-86500496D02*
X111372008Y-86554371D01*
X111372008Y-86554371D02*
X111479758Y-86608246D01*
X111479758Y-86608246D02*
X111533632Y-86608246D01*
X111533632Y-86608246D02*
X111722194Y-86419684D01*
X111722194Y-86419684D02*
X111614445Y-86311934D01*
X111722194Y-86904557D02*
X112287880Y-86338872D01*
X112287880Y-86338872D02*
X112045443Y-87227806D01*
X112045443Y-87227806D02*
X112611128Y-86662120D01*
X112314817Y-87497180D02*
X112880502Y-86931494D01*
X112880502Y-86931494D02*
X113015189Y-87066181D01*
X113015189Y-87066181D02*
X113069064Y-87173931D01*
X113069064Y-87173931D02*
X113069064Y-87281680D01*
X113069064Y-87281680D02*
X113042127Y-87362493D01*
X113042127Y-87362493D02*
X112961314Y-87497180D01*
X112961314Y-87497180D02*
X112880502Y-87577992D01*
X112880502Y-87577992D02*
X112745815Y-87658804D01*
X112745815Y-87658804D02*
X112665003Y-87685741D01*
X112665003Y-87685741D02*
X112557253Y-87685741D01*
X112557253Y-87685741D02*
X112449504Y-87631867D01*
X112449504Y-87631867D02*
X112314817Y-87497180D01*
X124691568Y-111696435D02*
X124664631Y-111615623D01*
X124664631Y-111615623D02*
X124583819Y-111534811D01*
X124583819Y-111534811D02*
X124476069Y-111480936D01*
X124476069Y-111480936D02*
X124368319Y-111480936D01*
X124368319Y-111480936D02*
X124287507Y-111507873D01*
X124287507Y-111507873D02*
X124152820Y-111588685D01*
X124152820Y-111588685D02*
X124072008Y-111669498D01*
X124072008Y-111669498D02*
X123991196Y-111804185D01*
X123991196Y-111804185D02*
X123964258Y-111884997D01*
X123964258Y-111884997D02*
X123964258Y-111992746D01*
X123964258Y-111992746D02*
X124018133Y-112100496D01*
X124018133Y-112100496D02*
X124072008Y-112154371D01*
X124072008Y-112154371D02*
X124179758Y-112208246D01*
X124179758Y-112208246D02*
X124233632Y-112208246D01*
X124233632Y-112208246D02*
X124422194Y-112019684D01*
X124422194Y-112019684D02*
X124314445Y-111911934D01*
X124422194Y-112504557D02*
X124987880Y-111938872D01*
X124987880Y-111938872D02*
X124745443Y-112827806D01*
X124745443Y-112827806D02*
X125311128Y-112262120D01*
X125014817Y-113097180D02*
X125580502Y-112531494D01*
X125580502Y-112531494D02*
X125715189Y-112666181D01*
X125715189Y-112666181D02*
X125769064Y-112773931D01*
X125769064Y-112773931D02*
X125769064Y-112881680D01*
X125769064Y-112881680D02*
X125742127Y-112962493D01*
X125742127Y-112962493D02*
X125661314Y-113097180D01*
X125661314Y-113097180D02*
X125580502Y-113177992D01*
X125580502Y-113177992D02*
X125445815Y-113258804D01*
X125445815Y-113258804D02*
X125365003Y-113285741D01*
X125365003Y-113285741D02*
X125257253Y-113285741D01*
X125257253Y-113285741D02*
X125149504Y-113231867D01*
X125149504Y-113231867D02*
X125014817Y-113097180D01*
X152389131Y-85599998D02*
X152362194Y-85519185D01*
X152362194Y-85519185D02*
X152281381Y-85438373D01*
X152281381Y-85438373D02*
X152173632Y-85384498D01*
X152173632Y-85384498D02*
X152065882Y-85384498D01*
X152065882Y-85384498D02*
X151985070Y-85411436D01*
X151985070Y-85411436D02*
X151850383Y-85492248D01*
X151850383Y-85492248D02*
X151769571Y-85573060D01*
X151769571Y-85573060D02*
X151688758Y-85707747D01*
X151688758Y-85707747D02*
X151661821Y-85788560D01*
X151661821Y-85788560D02*
X151661821Y-85896309D01*
X151661821Y-85896309D02*
X151715696Y-86004059D01*
X151715696Y-86004059D02*
X151769571Y-86057934D01*
X151769571Y-86057934D02*
X151877320Y-86111808D01*
X151877320Y-86111808D02*
X151931195Y-86111808D01*
X151931195Y-86111808D02*
X152119757Y-85923247D01*
X152119757Y-85923247D02*
X152012007Y-85815497D01*
X152119757Y-86408120D02*
X152685442Y-85842434D01*
X152685442Y-85842434D02*
X152900942Y-86057934D01*
X152900942Y-86057934D02*
X152927879Y-86138746D01*
X152927879Y-86138746D02*
X152927879Y-86192621D01*
X152927879Y-86192621D02*
X152900942Y-86273433D01*
X152900942Y-86273433D02*
X152820129Y-86354245D01*
X152820129Y-86354245D02*
X152739317Y-86381182D01*
X152739317Y-86381182D02*
X152685442Y-86381182D01*
X152685442Y-86381182D02*
X152604630Y-86354245D01*
X152604630Y-86354245D02*
X152389131Y-86138746D01*
X152981754Y-87270117D02*
X152658505Y-86946868D01*
X152820129Y-87108492D02*
X153385815Y-86542807D01*
X153385815Y-86542807D02*
X153251128Y-86569744D01*
X153251128Y-86569744D02*
X153143378Y-86569744D01*
X153143378Y-86569744D02*
X153062566Y-86542807D01*
X153736001Y-86892993D02*
X154113125Y-87270117D01*
X154113125Y-87270117D02*
X153305003Y-87593366D01*
X123748759Y-85653873D02*
X124018133Y-85923247D01*
X123533260Y-85761623D02*
X124287507Y-85384499D01*
X124287507Y-85384499D02*
X123910384Y-86138746D01*
X124934005Y-86084871D02*
X124907067Y-86004059D01*
X124907067Y-86004059D02*
X124826255Y-85923247D01*
X124826255Y-85923247D02*
X124718505Y-85869372D01*
X124718505Y-85869372D02*
X124610756Y-85869372D01*
X124610756Y-85869372D02*
X124529944Y-85896310D01*
X124529944Y-85896310D02*
X124395257Y-85977122D01*
X124395257Y-85977122D02*
X124314444Y-86057934D01*
X124314444Y-86057934D02*
X124233632Y-86192621D01*
X124233632Y-86192621D02*
X124206695Y-86273433D01*
X124206695Y-86273433D02*
X124206695Y-86381183D01*
X124206695Y-86381183D02*
X124260570Y-86488932D01*
X124260570Y-86488932D02*
X124314444Y-86542807D01*
X124314444Y-86542807D02*
X124422194Y-86596682D01*
X124422194Y-86596682D02*
X124476069Y-86596682D01*
X124476069Y-86596682D02*
X124664631Y-86408120D01*
X124664631Y-86408120D02*
X124556881Y-86300371D01*
X124664631Y-86892993D02*
X125230316Y-86327308D01*
X125230316Y-86327308D02*
X124987879Y-87216242D01*
X124987879Y-87216242D02*
X125553565Y-86650557D01*
X125257253Y-87485616D02*
X125822939Y-86919931D01*
X125822939Y-86919931D02*
X125957626Y-87054618D01*
X125957626Y-87054618D02*
X126011501Y-87162367D01*
X126011501Y-87162367D02*
X126011501Y-87270117D01*
X126011501Y-87270117D02*
X125984563Y-87350929D01*
X125984563Y-87350929D02*
X125903751Y-87485616D01*
X125903751Y-87485616D02*
X125822939Y-87566428D01*
X125822939Y-87566428D02*
X125688252Y-87647241D01*
X125688252Y-87647241D02*
X125607439Y-87674178D01*
X125607439Y-87674178D02*
X125499690Y-87674178D01*
X125499690Y-87674178D02*
X125391940Y-87620303D01*
X125391940Y-87620303D02*
X125257253Y-87485616D01*
X106262414Y-84963406D02*
X105885290Y-85717653D01*
X105885290Y-85717653D02*
X106639537Y-85340529D01*
X106747287Y-85987027D02*
X106801161Y-86094776D01*
X106801161Y-86094776D02*
X106801161Y-86148651D01*
X106801161Y-86148651D02*
X106774224Y-86229463D01*
X106774224Y-86229463D02*
X106693412Y-86310276D01*
X106693412Y-86310276D02*
X106612600Y-86337213D01*
X106612600Y-86337213D02*
X106558725Y-86337213D01*
X106558725Y-86337213D02*
X106477913Y-86310276D01*
X106477913Y-86310276D02*
X106262413Y-86094776D01*
X106262413Y-86094776D02*
X106828099Y-85529091D01*
X106828099Y-85529091D02*
X107016661Y-85717653D01*
X107016661Y-85717653D02*
X107043598Y-85798465D01*
X107043598Y-85798465D02*
X107043598Y-85852340D01*
X107043598Y-85852340D02*
X107016661Y-85933152D01*
X107016661Y-85933152D02*
X106962786Y-85987027D01*
X106962786Y-85987027D02*
X106881974Y-86013964D01*
X106881974Y-86013964D02*
X106828099Y-86013964D01*
X106828099Y-86013964D02*
X106747287Y-85987027D01*
X106747287Y-85987027D02*
X106558725Y-85798465D01*
X107393784Y-86094776D02*
X106935848Y-86552712D01*
X106935848Y-86552712D02*
X106908911Y-86633524D01*
X106908911Y-86633524D02*
X106908911Y-86687399D01*
X106908911Y-86687399D02*
X106935848Y-86768211D01*
X106935848Y-86768211D02*
X107043598Y-86875961D01*
X107043598Y-86875961D02*
X107124410Y-86902898D01*
X107124410Y-86902898D02*
X107178285Y-86902898D01*
X107178285Y-86902898D02*
X107259097Y-86875961D01*
X107259097Y-86875961D02*
X107717033Y-86418025D01*
X107420722Y-87199210D02*
X107474596Y-87306959D01*
X107474596Y-87306959D02*
X107609283Y-87441646D01*
X107609283Y-87441646D02*
X107690096Y-87468584D01*
X107690096Y-87468584D02*
X107743970Y-87468584D01*
X107743970Y-87468584D02*
X107824783Y-87441646D01*
X107824783Y-87441646D02*
X107878657Y-87387771D01*
X107878657Y-87387771D02*
X107905595Y-87306959D01*
X107905595Y-87306959D02*
X107905595Y-87253084D01*
X107905595Y-87253084D02*
X107878657Y-87172272D01*
X107878657Y-87172272D02*
X107797845Y-87037585D01*
X107797845Y-87037585D02*
X107770908Y-86956773D01*
X107770908Y-86956773D02*
X107770908Y-86902898D01*
X107770908Y-86902898D02*
X107797845Y-86822086D01*
X107797845Y-86822086D02*
X107851720Y-86768211D01*
X107851720Y-86768211D02*
X107932532Y-86741274D01*
X107932532Y-86741274D02*
X107986407Y-86741274D01*
X107986407Y-86741274D02*
X108067219Y-86768211D01*
X108067219Y-86768211D02*
X108201906Y-86902898D01*
X108201906Y-86902898D02*
X108255781Y-87010648D01*
X114558505Y-111823372D02*
X114531568Y-111742560D01*
X114531568Y-111742560D02*
X114450756Y-111661748D01*
X114450756Y-111661748D02*
X114343006Y-111607873D01*
X114343006Y-111607873D02*
X114235257Y-111607873D01*
X114235257Y-111607873D02*
X114154444Y-111634810D01*
X114154444Y-111634810D02*
X114019757Y-111715623D01*
X114019757Y-111715623D02*
X113938945Y-111796435D01*
X113938945Y-111796435D02*
X113858133Y-111931122D01*
X113858133Y-111931122D02*
X113831196Y-112011934D01*
X113831196Y-112011934D02*
X113831196Y-112119684D01*
X113831196Y-112119684D02*
X113885070Y-112227433D01*
X113885070Y-112227433D02*
X113938945Y-112281308D01*
X113938945Y-112281308D02*
X114046695Y-112335183D01*
X114046695Y-112335183D02*
X114100570Y-112335183D01*
X114100570Y-112335183D02*
X114289131Y-112146621D01*
X114289131Y-112146621D02*
X114181382Y-112038871D01*
X114289131Y-112631494D02*
X114854817Y-112065809D01*
X114854817Y-112065809D02*
X115070316Y-112281308D01*
X115070316Y-112281308D02*
X115097253Y-112362120D01*
X115097253Y-112362120D02*
X115097253Y-112415995D01*
X115097253Y-112415995D02*
X115070316Y-112496807D01*
X115070316Y-112496807D02*
X114989504Y-112577619D01*
X114989504Y-112577619D02*
X114908692Y-112604557D01*
X114908692Y-112604557D02*
X114854817Y-112604557D01*
X114854817Y-112604557D02*
X114774005Y-112577619D01*
X114774005Y-112577619D02*
X114558505Y-112362120D01*
X115339690Y-112658432D02*
X115393565Y-112658432D01*
X115393565Y-112658432D02*
X115474377Y-112685369D01*
X115474377Y-112685369D02*
X115609064Y-112820056D01*
X115609064Y-112820056D02*
X115636001Y-112900868D01*
X115636001Y-112900868D02*
X115636001Y-112954743D01*
X115636001Y-112954743D02*
X115609064Y-113035555D01*
X115609064Y-113035555D02*
X115555189Y-113089430D01*
X115555189Y-113089430D02*
X115447440Y-113143305D01*
X115447440Y-113143305D02*
X114800942Y-113143305D01*
X114800942Y-113143305D02*
X115151128Y-113493491D01*
X116899131Y-85700123D02*
X117249317Y-86050309D01*
X117249317Y-86050309D02*
X116845256Y-86077247D01*
X116845256Y-86077247D02*
X116926068Y-86158059D01*
X116926068Y-86158059D02*
X116953006Y-86238871D01*
X116953006Y-86238871D02*
X116953006Y-86292746D01*
X116953006Y-86292746D02*
X116926068Y-86373558D01*
X116926068Y-86373558D02*
X116791381Y-86508245D01*
X116791381Y-86508245D02*
X116710569Y-86535182D01*
X116710569Y-86535182D02*
X116656694Y-86535182D01*
X116656694Y-86535182D02*
X116575882Y-86508245D01*
X116575882Y-86508245D02*
X116414258Y-86346621D01*
X116414258Y-86346621D02*
X116387320Y-86265808D01*
X116387320Y-86265808D02*
X116387320Y-86211934D01*
X117410942Y-86211934D02*
X117033818Y-86966181D01*
X117033818Y-86966181D02*
X117788065Y-86589057D01*
X117922752Y-86723744D02*
X118272938Y-87073930D01*
X118272938Y-87073930D02*
X117868877Y-87100868D01*
X117868877Y-87100868D02*
X117949690Y-87181680D01*
X117949690Y-87181680D02*
X117976627Y-87262492D01*
X117976627Y-87262492D02*
X117976627Y-87316367D01*
X117976627Y-87316367D02*
X117949690Y-87397179D01*
X117949690Y-87397179D02*
X117815003Y-87531866D01*
X117815003Y-87531866D02*
X117734190Y-87558804D01*
X117734190Y-87558804D02*
X117680316Y-87558804D01*
X117680316Y-87558804D02*
X117599503Y-87531866D01*
X117599503Y-87531866D02*
X117437879Y-87370242D01*
X117437879Y-87370242D02*
X117410942Y-87289430D01*
X117410942Y-87289430D02*
X117410942Y-87235555D01*
X167734819Y-93761904D02*
X167734819Y-94333332D01*
X167734819Y-94047618D02*
X166734819Y-94047618D01*
X166734819Y-94047618D02*
X166877676Y-94142856D01*
X166877676Y-94142856D02*
X166972914Y-94238094D01*
X166972914Y-94238094D02*
X167020533Y-94333332D01*
X166734819Y-93142856D02*
X166734819Y-93047618D01*
X166734819Y-93047618D02*
X166782438Y-92952380D01*
X166782438Y-92952380D02*
X166830057Y-92904761D01*
X166830057Y-92904761D02*
X166925295Y-92857142D01*
X166925295Y-92857142D02*
X167115771Y-92809523D01*
X167115771Y-92809523D02*
X167353866Y-92809523D01*
X167353866Y-92809523D02*
X167544342Y-92857142D01*
X167544342Y-92857142D02*
X167639580Y-92904761D01*
X167639580Y-92904761D02*
X167687200Y-92952380D01*
X167687200Y-92952380D02*
X167734819Y-93047618D01*
X167734819Y-93047618D02*
X167734819Y-93142856D01*
X167734819Y-93142856D02*
X167687200Y-93238094D01*
X167687200Y-93238094D02*
X167639580Y-93285713D01*
X167639580Y-93285713D02*
X167544342Y-93333332D01*
X167544342Y-93333332D02*
X167353866Y-93380951D01*
X167353866Y-93380951D02*
X167115771Y-93380951D01*
X167115771Y-93380951D02*
X166925295Y-93333332D01*
X166925295Y-93333332D02*
X166830057Y-93285713D01*
X166830057Y-93285713D02*
X166782438Y-93238094D01*
X166782438Y-93238094D02*
X166734819Y-93142856D01*
X167734819Y-92380951D02*
X166734819Y-92380951D01*
X167734819Y-91809523D02*
X167163390Y-92238094D01*
X166734819Y-91809523D02*
X167306247Y-92380951D01*
X167734819Y-91428570D02*
X167734819Y-91190475D01*
X167734819Y-91190475D02*
X167544342Y-91190475D01*
X167544342Y-91190475D02*
X167496723Y-91285713D01*
X167496723Y-91285713D02*
X167401485Y-91380951D01*
X167401485Y-91380951D02*
X167258628Y-91428570D01*
X167258628Y-91428570D02*
X167020533Y-91428570D01*
X167020533Y-91428570D02*
X166877676Y-91380951D01*
X166877676Y-91380951D02*
X166782438Y-91285713D01*
X166782438Y-91285713D02*
X166734819Y-91142856D01*
X166734819Y-91142856D02*
X166734819Y-90952380D01*
X166734819Y-90952380D02*
X166782438Y-90809523D01*
X166782438Y-90809523D02*
X166877676Y-90714285D01*
X166877676Y-90714285D02*
X167020533Y-90666666D01*
X167020533Y-90666666D02*
X167258628Y-90666666D01*
X167258628Y-90666666D02*
X167401485Y-90714285D01*
X167401485Y-90714285D02*
X167496723Y-90809523D01*
X167496723Y-90809523D02*
X167544342Y-90904761D01*
X167544342Y-90904761D02*
X167734819Y-90904761D01*
X167734819Y-90904761D02*
X167734819Y-90666666D01*
X169666667Y-48719104D02*
X170142857Y-48719104D01*
X169571429Y-49004819D02*
X169904762Y-48004819D01*
X169904762Y-48004819D02*
X170238095Y-49004819D01*
X171000000Y-48338152D02*
X171000000Y-49004819D01*
X170571429Y-48338152D02*
X170571429Y-48861961D01*
X170571429Y-48861961D02*
X170619048Y-48957200D01*
X170619048Y-48957200D02*
X170714286Y-49004819D01*
X170714286Y-49004819D02*
X170857143Y-49004819D01*
X170857143Y-49004819D02*
X170952381Y-48957200D01*
X170952381Y-48957200D02*
X171000000Y-48909580D01*
X171904762Y-49004819D02*
X171904762Y-48004819D01*
X171904762Y-48957200D02*
X171809524Y-49004819D01*
X171809524Y-49004819D02*
X171619048Y-49004819D01*
X171619048Y-49004819D02*
X171523810Y-48957200D01*
X171523810Y-48957200D02*
X171476191Y-48909580D01*
X171476191Y-48909580D02*
X171428572Y-48814342D01*
X171428572Y-48814342D02*
X171428572Y-48528628D01*
X171428572Y-48528628D02*
X171476191Y-48433390D01*
X171476191Y-48433390D02*
X171523810Y-48385771D01*
X171523810Y-48385771D02*
X171619048Y-48338152D01*
X171619048Y-48338152D02*
X171809524Y-48338152D01*
X171809524Y-48338152D02*
X171904762Y-48385771D01*
X172380953Y-49004819D02*
X172380953Y-48338152D01*
X172380953Y-48004819D02*
X172333334Y-48052438D01*
X172333334Y-48052438D02*
X172380953Y-48100057D01*
X172380953Y-48100057D02*
X172428572Y-48052438D01*
X172428572Y-48052438D02*
X172380953Y-48004819D01*
X172380953Y-48004819D02*
X172380953Y-48100057D01*
X173000000Y-49004819D02*
X172904762Y-48957200D01*
X172904762Y-48957200D02*
X172857143Y-48909580D01*
X172857143Y-48909580D02*
X172809524Y-48814342D01*
X172809524Y-48814342D02*
X172809524Y-48528628D01*
X172809524Y-48528628D02*
X172857143Y-48433390D01*
X172857143Y-48433390D02*
X172904762Y-48385771D01*
X172904762Y-48385771D02*
X173000000Y-48338152D01*
X173000000Y-48338152D02*
X173142857Y-48338152D01*
X173142857Y-48338152D02*
X173238095Y-48385771D01*
X173238095Y-48385771D02*
X173285714Y-48433390D01*
X173285714Y-48433390D02*
X173333333Y-48528628D01*
X173333333Y-48528628D02*
X173333333Y-48814342D01*
X173333333Y-48814342D02*
X173285714Y-48909580D01*
X173285714Y-48909580D02*
X173238095Y-48957200D01*
X173238095Y-48957200D02*
X173142857Y-49004819D01*
X173142857Y-49004819D02*
X173000000Y-49004819D01*
D13*
%TO.C,J1*%
X110500000Y-31199200D02*
X167500000Y-31199200D01*
X110500000Y-45199200D02*
X110500000Y-31199200D01*
X114800000Y-45199200D02*
X110500000Y-45199200D01*
X167500000Y-31199200D02*
X167500000Y-45199200D01*
X167500000Y-45199200D02*
X163200000Y-45199200D01*
X165800000Y-31199200D02*
G75*
G02*
X112316949Y-31244444I-26800000J69100000D01*
G01*
D14*
%TO.C,U1*%
X106475000Y-52915000D02*
X122525000Y-52915000D01*
X106475000Y-66245000D02*
X106475000Y-52915000D01*
X122525000Y-52915000D02*
X122525000Y-66245000D01*
X122525000Y-66245000D02*
X106475000Y-66245000D01*
D15*
%TO.C,JP1*%
X113500000Y-73050000D02*
X113500000Y-71650000D01*
X114200000Y-70950000D02*
X114800000Y-70950000D01*
X114800000Y-73750000D02*
X114200000Y-73750000D01*
X115500000Y-71650000D02*
X115500000Y-73050000D01*
X113500000Y-71650000D02*
G75*
G02*
X114200000Y-70950000I699999J1D01*
G01*
X114200000Y-73750000D02*
G75*
G02*
X113500000Y-73050000I0J700000D01*
G01*
X114800000Y-70950000D02*
G75*
G02*
X115500000Y-71650000I1J-699999D01*
G01*
X115500000Y-73050000D02*
G75*
G02*
X114800000Y-73750000I-700000J0D01*
G01*
D14*
%TO.C,U4*%
X157705000Y-52915000D02*
X173755000Y-52915000D01*
X157705000Y-66245000D02*
X157705000Y-52915000D01*
X173755000Y-52915000D02*
X173755000Y-66245000D01*
X173755000Y-66245000D02*
X157705000Y-66245000D01*
%TO.C,U3*%
X140628332Y-52915000D02*
X156678332Y-52915000D01*
X140628332Y-66245000D02*
X140628332Y-52915000D01*
X156678332Y-52915000D02*
X156678332Y-66245000D01*
X156678332Y-66245000D02*
X140628332Y-66245000D01*
%TO.C,U2*%
X123551666Y-52915000D02*
X139601666Y-52915000D01*
X123551666Y-66245000D02*
X123551666Y-52915000D01*
X139601666Y-52915000D02*
X139601666Y-66245000D01*
X139601666Y-66245000D02*
X123551666Y-66245000D01*
D15*
%TO.C,TP2*%
X115700000Y-77000000D02*
G75*
G02*
X113300000Y-77000000I-1200000J0D01*
G01*
X113300000Y-77000000D02*
G75*
G02*
X115700000Y-77000000I1200000J0D01*
G01*
D14*
%TO.C,U6*%
X134880000Y-68835000D02*
X150930000Y-68835000D01*
X134880000Y-82165000D02*
X134880000Y-68835000D01*
X150930000Y-68835000D02*
X150930000Y-82165000D01*
X150930000Y-82165000D02*
X134880000Y-82165000D01*
D15*
%TO.C,U8*%
X105690000Y-89110000D02*
X105990000Y-89110000D01*
X105690000Y-110110000D02*
X105690000Y-89110000D01*
X105690000Y-110110000D02*
X105990000Y-110110000D01*
X108090000Y-89110000D02*
X108490000Y-89110000D01*
X108090000Y-110110000D02*
X108490000Y-110110000D01*
X108357000Y-107103000D02*
X105690000Y-107103000D01*
X108357000Y-110110000D02*
X108357000Y-107103000D01*
X110690000Y-89110000D02*
X111090000Y-89110000D01*
X110690000Y-110110000D02*
X111090000Y-110110000D01*
X113190000Y-89110000D02*
X113590000Y-89110000D01*
X113190000Y-110110000D02*
X113590000Y-110110000D01*
X115790000Y-89110000D02*
X116190000Y-89110000D01*
X115790000Y-110110000D02*
X116190000Y-110110000D01*
X118290000Y-89110000D02*
X118690000Y-89110000D01*
X118290000Y-110110000D02*
X118690000Y-110110000D01*
X120790000Y-89110000D02*
X121190000Y-89110000D01*
X120790000Y-110110000D02*
X121190000Y-110110000D01*
X123390000Y-89110000D02*
X123790000Y-89110000D01*
X123390000Y-110110000D02*
X123790000Y-110110000D01*
X125890000Y-89110000D02*
X126290000Y-89110000D01*
X125890000Y-110110000D02*
X126290000Y-110110000D01*
X128490000Y-89110000D02*
X128890000Y-89110000D01*
X128490000Y-110110000D02*
X128890000Y-110110000D01*
X130990000Y-89110000D02*
X131390000Y-89110000D01*
X130990000Y-110110000D02*
X131390000Y-110110000D01*
X133490000Y-89110000D02*
X133890000Y-89110000D01*
X133490000Y-110110000D02*
X133890000Y-110110000D01*
X136090000Y-89110000D02*
X136490000Y-89110000D01*
X136090000Y-110110000D02*
X136490000Y-110110000D01*
X138590000Y-89110000D02*
X138990000Y-89110000D01*
X138590000Y-110110000D02*
X138990000Y-110110000D01*
X141190000Y-89110000D02*
X141590000Y-89110000D01*
X141190000Y-110110000D02*
X141590000Y-110110000D01*
X143690000Y-89110000D02*
X144090000Y-89110000D01*
X143690000Y-110110000D02*
X144090000Y-110110000D01*
X146290000Y-89110000D02*
X146690000Y-89110000D01*
X146290000Y-110110000D02*
X146690000Y-110110000D01*
X148790000Y-89110000D02*
X149190000Y-89110000D01*
X148790000Y-110110000D02*
X149190000Y-110110000D01*
X151290000Y-89110000D02*
X151690000Y-89110000D01*
X151290000Y-110110000D02*
X151690000Y-110110000D01*
X153890000Y-89110000D02*
X154290000Y-89110000D01*
X153890000Y-110110000D02*
X154290000Y-110110000D01*
X156690000Y-89110000D02*
X156690000Y-95910000D01*
X156690000Y-98510000D02*
X156690000Y-98110000D01*
X156690000Y-101110000D02*
X156690000Y-100710000D01*
X156690000Y-103310000D02*
X156690000Y-110110000D01*
%TO.C,10K\u03A9*%
X168280000Y-87880000D02*
X168280000Y-97120000D01*
X168280000Y-97120000D02*
X171720000Y-97120000D01*
X170000000Y-87190000D02*
X170000000Y-87880000D01*
X170000000Y-97810000D02*
X170000000Y-97120000D01*
X171720000Y-87880000D02*
X168280000Y-87880000D01*
X171720000Y-97120000D02*
X171720000Y-87880000D01*
%TO.C,SW1*%
X105540000Y-77000000D02*
X105540000Y-78000000D01*
X105540000Y-78000000D02*
X106040000Y-77500000D01*
X106040000Y-77500000D02*
X105540000Y-77000000D01*
X106240000Y-71090000D02*
X106550000Y-71090000D01*
X106240000Y-79910000D02*
X106240000Y-71090000D01*
X106550000Y-79910000D02*
X106240000Y-79910000D01*
X110760000Y-71090000D02*
X110450000Y-71090000D01*
X110760000Y-71090000D02*
X110760000Y-79910000D01*
X110760000Y-79910000D02*
X110450000Y-79910000D01*
%TO.C,TP3*%
X172700000Y-46500000D02*
G75*
G02*
X170300000Y-46500000I-1200000J0D01*
G01*
X170300000Y-46500000D02*
G75*
G02*
X172700000Y-46500000I1200000J0D01*
G01*
D14*
%TO.C,U7*%
X151975000Y-68835000D02*
X168025000Y-68835000D01*
X151975000Y-82165000D02*
X151975000Y-68835000D01*
X168025000Y-68835000D02*
X168025000Y-82165000D01*
X168025000Y-82165000D02*
X151975000Y-82165000D01*
%TO.C,U5*%
X117785000Y-68835000D02*
X133835000Y-68835000D01*
X117785000Y-82165000D02*
X117785000Y-68835000D01*
X133835000Y-68835000D02*
X133835000Y-82165000D01*
X133835000Y-82165000D02*
X117785000Y-82165000D01*
%TD*%
D16*
%TO.C,J1*%
X118500000Y-41699200D03*
D17*
X126250000Y-38699200D03*
X151750000Y-38699200D03*
D16*
X158500000Y-41699200D03*
%TD*%
M02*
