%TF.GenerationSoftware,KiCad,Pcbnew,8.0.1*%
%TF.CreationDate,2024-03-29T08:15:38+01:00*%
%TF.ProjectId,shawazu-gb-dumper,73686177-617a-4752-9d67-622d64756d70,rev?*%
%TF.SameCoordinates,Original*%
%TF.FileFunction,Drillmap*%
%TF.FilePolarity,Positive*%
%FSLAX45Y45*%
G04 Gerber Fmt 4.5, Leading zero omitted, Abs format (unit mm)*
G04 Created by KiCad (PCBNEW 8.0.1) date 2024-03-29 08:15:38*
%MOMM*%
%LPD*%
G01*
G04 APERTURE LIST*
%ADD10C,0.050000*%
%ADD11C,0.200000*%
%ADD12C,0.100000*%
%ADD13C,0.101600*%
%ADD14C,0.102000*%
%ADD15C,0.150000*%
G04 APERTURE END LIST*
D10*
X11000000Y-4000000D02*
G75*
G02*
X10600000Y-4000000I-200000J0D01*
G01*
X10600000Y-4000000D02*
G75*
G02*
X11000000Y-4000000I200000J0D01*
G01*
D11*
X10500000Y-11450000D02*
X17500000Y-11450000D01*
X17500000Y-2450000D02*
X17500000Y-11450000D01*
D10*
X17300000Y-10900000D02*
G75*
G02*
X16500000Y-10900000I-400000J0D01*
G01*
X16500000Y-10900000D02*
G75*
G02*
X17300000Y-10900000I400000J0D01*
G01*
X17300000Y-4000000D02*
G75*
G02*
X16900000Y-4000000I-200000J0D01*
G01*
X16900000Y-4000000D02*
G75*
G02*
X17300000Y-4000000I200000J0D01*
G01*
D11*
X10500000Y-2450000D02*
X10500000Y-11450000D01*
D10*
X11000000Y-4700000D02*
G75*
G02*
X10600000Y-4700000I-200000J0D01*
G01*
X10600000Y-4700000D02*
G75*
G02*
X11000000Y-4700000I200000J0D01*
G01*
D11*
X10500000Y-2450000D02*
X17500000Y-2450000D01*
D12*
X10835000Y-2785000D02*
X10865000Y-2815000D01*
X10865000Y-2785000D02*
X10835000Y-2815000D01*
X10885000Y-6035000D02*
X10915000Y-6065000D01*
X10915000Y-6035000D02*
X10885000Y-6065000D01*
X10885000Y-9335000D02*
X10915000Y-9365000D01*
X10915000Y-9335000D02*
X10885000Y-9365000D01*
X11335000Y-4035000D02*
X11365000Y-4065000D01*
X11365000Y-4035000D02*
X11335000Y-4065000D01*
X11435000Y-9685000D02*
X11465000Y-9715000D01*
X11465000Y-9685000D02*
X11435000Y-9715000D01*
X11485000Y-6835000D02*
X11515000Y-6865000D01*
X11515000Y-6835000D02*
X11485000Y-6865000D01*
X11635000Y-2785000D02*
X11665000Y-2815000D01*
X11665000Y-2785000D02*
X11635000Y-2815000D01*
X11735000Y-10485000D02*
X11765000Y-10515000D01*
X11765000Y-10485000D02*
X11735000Y-10515000D01*
X11885000Y-3635000D02*
X11915000Y-3665000D01*
X11915000Y-3635000D02*
X11885000Y-3665000D01*
X11985000Y-7485000D02*
X12015000Y-7515000D01*
X12015000Y-7485000D02*
X11985000Y-7515000D01*
X11985000Y-10185000D02*
X12015000Y-10215000D01*
X12015000Y-10185000D02*
X11985000Y-10215000D01*
X12035000Y-5935000D02*
X12065000Y-5965000D01*
X12065000Y-5935000D02*
X12035000Y-5965000D01*
X12235000Y-10485000D02*
X12265000Y-10515000D01*
X12265000Y-10485000D02*
X12235000Y-10515000D01*
X12285000Y-4885000D02*
X12315000Y-4915000D01*
X12315000Y-4885000D02*
X12285000Y-4915000D01*
X12385000Y-4935000D02*
X12415000Y-4965000D01*
X12415000Y-4935000D02*
X12385000Y-4965000D01*
X12485000Y-4985000D02*
X12515000Y-5015000D01*
X12515000Y-4985000D02*
X12485000Y-5015000D01*
X12485000Y-5935000D02*
X12515000Y-5965000D01*
X12515000Y-5935000D02*
X12485000Y-5965000D01*
X12585000Y-5035000D02*
X12615000Y-5065000D01*
X12615000Y-5035000D02*
X12585000Y-5065000D01*
X12585000Y-9685000D02*
X12615000Y-9715000D01*
X12615000Y-9685000D02*
X12585000Y-9715000D01*
X12785000Y-5935000D02*
X12815000Y-5965000D01*
X12815000Y-5935000D02*
X12785000Y-5965000D01*
X12885000Y-4985000D02*
X12915000Y-5015000D01*
X12915000Y-4985000D02*
X12885000Y-5015000D01*
X12935000Y-7835000D02*
X12965000Y-7865000D01*
X12965000Y-7835000D02*
X12935000Y-7865000D01*
X12985000Y-7535000D02*
X13015000Y-7565000D01*
X13015000Y-7535000D02*
X12985000Y-7565000D01*
X12985000Y-9335000D02*
X13015000Y-9365000D01*
X13015000Y-9335000D02*
X12985000Y-9365000D01*
X13035000Y-4985000D02*
X13065000Y-5015000D01*
X13065000Y-4985000D02*
X13035000Y-5015000D01*
X13035000Y-5985000D02*
X13065000Y-6015000D01*
X13065000Y-5985000D02*
X13035000Y-6015000D01*
X13185000Y-4985000D02*
X13215000Y-5015000D01*
X13215000Y-4985000D02*
X13185000Y-5015000D01*
X13335000Y-4985000D02*
X13365000Y-5015000D01*
X13365000Y-4985000D02*
X13335000Y-5015000D01*
X13335000Y-8385000D02*
X13365000Y-8415000D01*
X13365000Y-8385000D02*
X13335000Y-8415000D01*
X13335000Y-9635000D02*
X13365000Y-9665000D01*
X13365000Y-9635000D02*
X13335000Y-9665000D01*
X13435000Y-2735000D02*
X13465000Y-2765000D01*
X13465000Y-2735000D02*
X13435000Y-2765000D01*
X13435000Y-3935000D02*
X13465000Y-3965000D01*
X13465000Y-3935000D02*
X13435000Y-3965000D01*
X13535000Y-4985000D02*
X13565000Y-5015000D01*
X13565000Y-4985000D02*
X13535000Y-5015000D01*
X13685000Y-4985000D02*
X13715000Y-5015000D01*
X13715000Y-4985000D02*
X13685000Y-5015000D01*
X13735000Y-5935000D02*
X13765000Y-5965000D01*
X13765000Y-5935000D02*
X13735000Y-5965000D01*
X13835000Y-4985000D02*
X13865000Y-5015000D01*
X13865000Y-4985000D02*
X13835000Y-5015000D01*
X13935000Y-7535000D02*
X13965000Y-7565000D01*
X13965000Y-7535000D02*
X13935000Y-7565000D01*
X13985000Y-4985000D02*
X14015000Y-5015000D01*
X14015000Y-4985000D02*
X13985000Y-5015000D01*
X14035000Y-6735000D02*
X14065000Y-6765000D01*
X14065000Y-6735000D02*
X14035000Y-6765000D01*
X14085000Y-8385000D02*
X14115000Y-8415000D01*
X14115000Y-8385000D02*
X14085000Y-8415000D01*
X14135000Y-4985000D02*
X14165000Y-5015000D01*
X14165000Y-4985000D02*
X14135000Y-5015000D01*
X14235000Y-3935000D02*
X14265000Y-3965000D01*
X14265000Y-3935000D02*
X14235000Y-3965000D01*
X14285000Y-4985000D02*
X14315000Y-5015000D01*
X14315000Y-4985000D02*
X14285000Y-5015000D01*
X14285000Y-9735000D02*
X14315000Y-9765000D01*
X14315000Y-9735000D02*
X14285000Y-9765000D01*
X14385000Y-8635000D02*
X14415000Y-8665000D01*
X14415000Y-8635000D02*
X14385000Y-8665000D01*
X14435000Y-4985000D02*
X14465000Y-5015000D01*
X14465000Y-4985000D02*
X14435000Y-5015000D01*
X14485000Y-2785000D02*
X14515000Y-2815000D01*
X14515000Y-2785000D02*
X14485000Y-2815000D01*
X14585000Y-4985000D02*
X14615000Y-5015000D01*
X14615000Y-4985000D02*
X14585000Y-5015000D01*
X14585000Y-8335000D02*
X14615000Y-8365000D01*
X14615000Y-8335000D02*
X14585000Y-8365000D01*
X14685000Y-5985000D02*
X14715000Y-6015000D01*
X14715000Y-5985000D02*
X14685000Y-6015000D01*
X14835000Y-7535000D02*
X14865000Y-7565000D01*
X14865000Y-7535000D02*
X14835000Y-7565000D01*
X14835000Y-8485000D02*
X14865000Y-8515000D01*
X14865000Y-8485000D02*
X14835000Y-8515000D01*
X15135000Y-10335000D02*
X15165000Y-10365000D01*
X15165000Y-10335000D02*
X15135000Y-10365000D01*
X15185000Y-8435000D02*
X15215000Y-8465000D01*
X15215000Y-8435000D02*
X15185000Y-8465000D01*
X15335000Y-5935000D02*
X15365000Y-5965000D01*
X15365000Y-5935000D02*
X15335000Y-5965000D01*
X15385000Y-7535000D02*
X15415000Y-7565000D01*
X15415000Y-7535000D02*
X15385000Y-7565000D01*
X15635000Y-3585000D02*
X15665000Y-3615000D01*
X15665000Y-3585000D02*
X15635000Y-3615000D01*
X15785000Y-7535000D02*
X15815000Y-7565000D01*
X15815000Y-7535000D02*
X15785000Y-7565000D01*
X15835000Y-10785000D02*
X15865000Y-10815000D01*
X15865000Y-10785000D02*
X15835000Y-10815000D01*
X15885000Y-5985000D02*
X15915000Y-6015000D01*
X15915000Y-5985000D02*
X15885000Y-6015000D01*
X15985000Y-2685000D02*
X16015000Y-2715000D01*
X16015000Y-2685000D02*
X15985000Y-2715000D01*
X16085000Y-9485000D02*
X16115000Y-9515000D01*
X16115000Y-9485000D02*
X16085000Y-9515000D01*
X16435000Y-4085000D02*
X16465000Y-4115000D01*
X16465000Y-4085000D02*
X16435000Y-4115000D01*
X16485000Y-8785000D02*
X16515000Y-8815000D01*
X16515000Y-8785000D02*
X16485000Y-8815000D01*
X16535000Y-7585000D02*
X16565000Y-7615000D01*
X16565000Y-7585000D02*
X16535000Y-7615000D01*
X16585000Y-5935000D02*
X16615000Y-5965000D01*
X16615000Y-5935000D02*
X16585000Y-5965000D01*
X17035000Y-7385000D02*
X17065000Y-7415000D01*
X17065000Y-7385000D02*
X17035000Y-7415000D01*
X17085000Y-5035000D02*
X17115000Y-5065000D01*
X17115000Y-5035000D02*
X17085000Y-5065000D01*
X17135000Y-2735000D02*
X17165000Y-2765000D01*
X17165000Y-2735000D02*
X17135000Y-2765000D01*
X17185000Y-5735000D02*
X17215000Y-5765000D01*
X17215000Y-5735000D02*
X17185000Y-5765000D01*
X10890000Y-7350000D02*
G75*
G02*
X10810000Y-7350000I-40000J0D01*
G01*
X10810000Y-7350000D02*
G75*
G02*
X10890000Y-7350000I40000J0D01*
G01*
X10890000Y-7550000D02*
G75*
G02*
X10810000Y-7550000I-40000J0D01*
G01*
X10810000Y-7550000D02*
G75*
G02*
X10890000Y-7550000I40000J0D01*
G01*
X10890000Y-7750000D02*
G75*
G02*
X10810000Y-7750000I-40000J0D01*
G01*
X10810000Y-7750000D02*
G75*
G02*
X10890000Y-7750000I40000J0D01*
G01*
X17040000Y-8615000D02*
G75*
G02*
X16960000Y-8615000I-40000J0D01*
G01*
X16960000Y-8615000D02*
G75*
G02*
X17040000Y-8615000I40000J0D01*
G01*
X17040000Y-9885000D02*
G75*
G02*
X16960000Y-9885000I-40000J0D01*
G01*
X16960000Y-9885000D02*
G75*
G02*
X17040000Y-9885000I40000J0D01*
G01*
D13*
X10815000Y-5399200D02*
X10815000Y-5500800D01*
X10764200Y-5450000D02*
X10865800Y-5450000D01*
X10815000Y-6415200D02*
X10815000Y-6516800D01*
X10764200Y-6466000D02*
X10865800Y-6466000D01*
X11069000Y-5399200D02*
X11069000Y-5500800D01*
X11018200Y-5450000D02*
X11119800Y-5450000D01*
X11069000Y-6415200D02*
X11069000Y-6516800D01*
X11018200Y-6466000D02*
X11119800Y-6466000D01*
X11323000Y-5399200D02*
X11323000Y-5500800D01*
X11272200Y-5450000D02*
X11373800Y-5450000D01*
X11323000Y-6415200D02*
X11323000Y-6516800D01*
X11272200Y-6466000D02*
X11373800Y-6466000D01*
X11577000Y-5399200D02*
X11577000Y-5500800D01*
X11526200Y-5450000D02*
X11627800Y-5450000D01*
X11577000Y-6415200D02*
X11577000Y-6516800D01*
X11526200Y-6466000D02*
X11627800Y-6466000D01*
X11831000Y-5399200D02*
X11831000Y-5500800D01*
X11780200Y-5450000D02*
X11881800Y-5450000D01*
X11831000Y-6415200D02*
X11831000Y-6516800D01*
X11780200Y-6466000D02*
X11881800Y-6466000D01*
X11946000Y-6991200D02*
X11946000Y-7092800D01*
X11895200Y-7042000D02*
X11996800Y-7042000D01*
X11946000Y-8007200D02*
X11946000Y-8108800D01*
X11895200Y-8058000D02*
X11996800Y-8058000D01*
X12085000Y-5399200D02*
X12085000Y-5500800D01*
X12034200Y-5450000D02*
X12135800Y-5450000D01*
X12085000Y-6415200D02*
X12085000Y-6516800D01*
X12034200Y-6466000D02*
X12135800Y-6466000D01*
X12200000Y-6991200D02*
X12200000Y-7092800D01*
X12149200Y-7042000D02*
X12250800Y-7042000D01*
X12200000Y-8007200D02*
X12200000Y-8108800D01*
X12149200Y-8058000D02*
X12250800Y-8058000D01*
X12454000Y-6991200D02*
X12454000Y-7092800D01*
X12403200Y-7042000D02*
X12504800Y-7042000D01*
X12454000Y-8007200D02*
X12454000Y-8108800D01*
X12403200Y-8058000D02*
X12504800Y-8058000D01*
X12522667Y-5399200D02*
X12522667Y-5500800D01*
X12471867Y-5450000D02*
X12573467Y-5450000D01*
X12522667Y-6415200D02*
X12522667Y-6516800D01*
X12471867Y-6466000D02*
X12573467Y-6466000D01*
X12708000Y-6991200D02*
X12708000Y-7092800D01*
X12657200Y-7042000D02*
X12758800Y-7042000D01*
X12708000Y-8007200D02*
X12708000Y-8108800D01*
X12657200Y-8058000D02*
X12758800Y-8058000D01*
X12776667Y-5399200D02*
X12776667Y-5500800D01*
X12725867Y-5450000D02*
X12827467Y-5450000D01*
X12776667Y-6415200D02*
X12776667Y-6516800D01*
X12725867Y-6466000D02*
X12827467Y-6466000D01*
X12962000Y-6991200D02*
X12962000Y-7092800D01*
X12911200Y-7042000D02*
X13012800Y-7042000D01*
X12962000Y-8007200D02*
X12962000Y-8108800D01*
X12911200Y-8058000D02*
X13012800Y-8058000D01*
X13030667Y-5399200D02*
X13030667Y-5500800D01*
X12979867Y-5450000D02*
X13081467Y-5450000D01*
X13030667Y-6415200D02*
X13030667Y-6516800D01*
X12979867Y-6466000D02*
X13081467Y-6466000D01*
X13216000Y-6991200D02*
X13216000Y-7092800D01*
X13165200Y-7042000D02*
X13266800Y-7042000D01*
X13216000Y-8007200D02*
X13216000Y-8108800D01*
X13165200Y-8058000D02*
X13266800Y-8058000D01*
X13284667Y-5399200D02*
X13284667Y-5500800D01*
X13233867Y-5450000D02*
X13335467Y-5450000D01*
X13284667Y-6415200D02*
X13284667Y-6516800D01*
X13233867Y-6466000D02*
X13335467Y-6466000D01*
X13538667Y-5399200D02*
X13538667Y-5500800D01*
X13487867Y-5450000D02*
X13589467Y-5450000D01*
X13538667Y-6415200D02*
X13538667Y-6516800D01*
X13487867Y-6466000D02*
X13589467Y-6466000D01*
X13655500Y-6991200D02*
X13655500Y-7092800D01*
X13604700Y-7042000D02*
X13706300Y-7042000D01*
X13655500Y-8007200D02*
X13655500Y-8108800D01*
X13604700Y-8058000D02*
X13706300Y-8058000D01*
X13792667Y-5399200D02*
X13792667Y-5500800D01*
X13741867Y-5450000D02*
X13843467Y-5450000D01*
X13792667Y-6415200D02*
X13792667Y-6516800D01*
X13741867Y-6466000D02*
X13843467Y-6466000D01*
X13909500Y-6991200D02*
X13909500Y-7092800D01*
X13858700Y-7042000D02*
X13960300Y-7042000D01*
X13909500Y-8007200D02*
X13909500Y-8108800D01*
X13858700Y-8058000D02*
X13960300Y-8058000D01*
X14163500Y-6991200D02*
X14163500Y-7092800D01*
X14112700Y-7042000D02*
X14214300Y-7042000D01*
X14163500Y-8007200D02*
X14163500Y-8108800D01*
X14112700Y-8058000D02*
X14214300Y-8058000D01*
X14230333Y-5399200D02*
X14230333Y-5500800D01*
X14179533Y-5450000D02*
X14281133Y-5450000D01*
X14230333Y-6415200D02*
X14230333Y-6516800D01*
X14179533Y-6466000D02*
X14281133Y-6466000D01*
X14417500Y-6991200D02*
X14417500Y-7092800D01*
X14366700Y-7042000D02*
X14468300Y-7042000D01*
X14417500Y-8007200D02*
X14417500Y-8108800D01*
X14366700Y-8058000D02*
X14468300Y-8058000D01*
X14484333Y-5399200D02*
X14484333Y-5500800D01*
X14433533Y-5450000D02*
X14535133Y-5450000D01*
X14484333Y-6415200D02*
X14484333Y-6516800D01*
X14433533Y-6466000D02*
X14535133Y-6466000D01*
X14671500Y-6991200D02*
X14671500Y-7092800D01*
X14620700Y-7042000D02*
X14722300Y-7042000D01*
X14671500Y-8007200D02*
X14671500Y-8108800D01*
X14620700Y-8058000D02*
X14722300Y-8058000D01*
X14738333Y-5399200D02*
X14738333Y-5500800D01*
X14687533Y-5450000D02*
X14789133Y-5450000D01*
X14738333Y-6415200D02*
X14738333Y-6516800D01*
X14687533Y-6466000D02*
X14789133Y-6466000D01*
X14925500Y-6991200D02*
X14925500Y-7092800D01*
X14874700Y-7042000D02*
X14976300Y-7042000D01*
X14925500Y-8007200D02*
X14925500Y-8108800D01*
X14874700Y-8058000D02*
X14976300Y-8058000D01*
X14992333Y-5399200D02*
X14992333Y-5500800D01*
X14941533Y-5450000D02*
X15043133Y-5450000D01*
X14992333Y-6415200D02*
X14992333Y-6516800D01*
X14941533Y-6466000D02*
X15043133Y-6466000D01*
X15246333Y-5399200D02*
X15246333Y-5500800D01*
X15195533Y-5450000D02*
X15297133Y-5450000D01*
X15246333Y-6415200D02*
X15246333Y-6516800D01*
X15195533Y-6466000D02*
X15297133Y-6466000D01*
X15365000Y-6991200D02*
X15365000Y-7092800D01*
X15314200Y-7042000D02*
X15415800Y-7042000D01*
X15365000Y-8007200D02*
X15365000Y-8108800D01*
X15314200Y-8058000D02*
X15415800Y-8058000D01*
X15500333Y-5399200D02*
X15500333Y-5500800D01*
X15449533Y-5450000D02*
X15551133Y-5450000D01*
X15500333Y-6415200D02*
X15500333Y-6516800D01*
X15449533Y-6466000D02*
X15551133Y-6466000D01*
X15619000Y-6991200D02*
X15619000Y-7092800D01*
X15568200Y-7042000D02*
X15669800Y-7042000D01*
X15619000Y-8007200D02*
X15619000Y-8108800D01*
X15568200Y-8058000D02*
X15669800Y-8058000D01*
X15873000Y-6991200D02*
X15873000Y-7092800D01*
X15822200Y-7042000D02*
X15923800Y-7042000D01*
X15873000Y-8007200D02*
X15873000Y-8108800D01*
X15822200Y-8058000D02*
X15923800Y-8058000D01*
X15938000Y-5399200D02*
X15938000Y-5500800D01*
X15887200Y-5450000D02*
X15988800Y-5450000D01*
X15938000Y-6415200D02*
X15938000Y-6516800D01*
X15887200Y-6466000D02*
X15988800Y-6466000D01*
X16127000Y-6991200D02*
X16127000Y-7092800D01*
X16076200Y-7042000D02*
X16177800Y-7042000D01*
X16127000Y-8007200D02*
X16127000Y-8108800D01*
X16076200Y-8058000D02*
X16177800Y-8058000D01*
X16192000Y-5399200D02*
X16192000Y-5500800D01*
X16141200Y-5450000D02*
X16242800Y-5450000D01*
X16192000Y-6415200D02*
X16192000Y-6516800D01*
X16141200Y-6466000D02*
X16242800Y-6466000D01*
X16381000Y-6991200D02*
X16381000Y-7092800D01*
X16330200Y-7042000D02*
X16431800Y-7042000D01*
X16381000Y-8007200D02*
X16381000Y-8108800D01*
X16330200Y-8058000D02*
X16431800Y-8058000D01*
X16446000Y-5399200D02*
X16446000Y-5500800D01*
X16395200Y-5450000D02*
X16496800Y-5450000D01*
X16446000Y-6415200D02*
X16446000Y-6516800D01*
X16395200Y-6466000D02*
X16496800Y-6466000D01*
X16635000Y-6991200D02*
X16635000Y-7092800D01*
X16584200Y-7042000D02*
X16685800Y-7042000D01*
X16635000Y-8007200D02*
X16635000Y-8108800D01*
X16584200Y-8058000D02*
X16685800Y-8058000D01*
X16700000Y-5399200D02*
X16700000Y-5500800D01*
X16649200Y-5450000D02*
X16750800Y-5450000D01*
X16700000Y-6415200D02*
X16700000Y-6516800D01*
X16649200Y-6466000D02*
X16750800Y-6466000D01*
X16954000Y-5399200D02*
X16954000Y-5500800D01*
X16903200Y-5450000D02*
X17004800Y-5450000D01*
X16954000Y-6415200D02*
X16954000Y-6516800D01*
X16903200Y-6466000D02*
X17004800Y-6466000D01*
X17208000Y-5399200D02*
X17208000Y-5500800D01*
X17157200Y-5450000D02*
X17258800Y-5450000D01*
X17208000Y-6415200D02*
X17208000Y-6516800D01*
X17157200Y-6466000D02*
X17258800Y-6466000D01*
D14*
X10742063Y-9108063D02*
X10742063Y-9035937D01*
X10669937Y-9035937D01*
X10669937Y-9108063D01*
X10742063Y-9108063D01*
X10742063Y-10886063D02*
X10742063Y-10813937D01*
X10669937Y-10813937D01*
X10669937Y-10886063D01*
X10742063Y-10886063D01*
X10996063Y-9108063D02*
X10996063Y-9035937D01*
X10923937Y-9035937D01*
X10923937Y-9108063D01*
X10996063Y-9108063D01*
X10996063Y-10886063D02*
X10996063Y-10813937D01*
X10923937Y-10813937D01*
X10923937Y-10886063D01*
X10996063Y-10886063D01*
X11250063Y-9108063D02*
X11250063Y-9035937D01*
X11177937Y-9035937D01*
X11177937Y-9108063D01*
X11250063Y-9108063D01*
X11250063Y-10886063D02*
X11250063Y-10813937D01*
X11177937Y-10813937D01*
X11177937Y-10886063D01*
X11250063Y-10886063D01*
X11504063Y-9108063D02*
X11504063Y-9035937D01*
X11431937Y-9035937D01*
X11431937Y-9108063D01*
X11504063Y-9108063D01*
X11504063Y-10886063D02*
X11504063Y-10813937D01*
X11431937Y-10813937D01*
X11431937Y-10886063D01*
X11504063Y-10886063D01*
X11758063Y-9108063D02*
X11758063Y-9035937D01*
X11685937Y-9035937D01*
X11685937Y-9108063D01*
X11758063Y-9108063D01*
X11758063Y-10886063D02*
X11758063Y-10813937D01*
X11685937Y-10813937D01*
X11685937Y-10886063D01*
X11758063Y-10886063D01*
X12012063Y-9108063D02*
X12012063Y-9035937D01*
X11939937Y-9035937D01*
X11939937Y-9108063D01*
X12012063Y-9108063D01*
X12012063Y-10886063D02*
X12012063Y-10813937D01*
X11939937Y-10813937D01*
X11939937Y-10886063D01*
X12012063Y-10886063D01*
X12266063Y-9108063D02*
X12266063Y-9035937D01*
X12193937Y-9035937D01*
X12193937Y-9108063D01*
X12266063Y-9108063D01*
X12266063Y-10886063D02*
X12266063Y-10813937D01*
X12193937Y-10813937D01*
X12193937Y-10886063D01*
X12266063Y-10886063D01*
X12520063Y-9108063D02*
X12520063Y-9035937D01*
X12447937Y-9035937D01*
X12447937Y-9108063D01*
X12520063Y-9108063D01*
X12520063Y-10886063D02*
X12520063Y-10813937D01*
X12447937Y-10813937D01*
X12447937Y-10886063D01*
X12520063Y-10886063D01*
X12774063Y-9108063D02*
X12774063Y-9035937D01*
X12701937Y-9035937D01*
X12701937Y-9108063D01*
X12774063Y-9108063D01*
X12774063Y-10886063D02*
X12774063Y-10813937D01*
X12701937Y-10813937D01*
X12701937Y-10886063D01*
X12774063Y-10886063D01*
X13028063Y-9108063D02*
X13028063Y-9035937D01*
X12955937Y-9035937D01*
X12955937Y-9108063D01*
X13028063Y-9108063D01*
X13028063Y-10886063D02*
X13028063Y-10813937D01*
X12955937Y-10813937D01*
X12955937Y-10886063D01*
X13028063Y-10886063D01*
X13282063Y-9108063D02*
X13282063Y-9035937D01*
X13209937Y-9035937D01*
X13209937Y-9108063D01*
X13282063Y-9108063D01*
X13282063Y-10886063D02*
X13282063Y-10813937D01*
X13209937Y-10813937D01*
X13209937Y-10886063D01*
X13282063Y-10886063D01*
X13536063Y-9108063D02*
X13536063Y-9035937D01*
X13463937Y-9035937D01*
X13463937Y-9108063D01*
X13536063Y-9108063D01*
X13536063Y-10886063D02*
X13536063Y-10813937D01*
X13463937Y-10813937D01*
X13463937Y-10886063D01*
X13536063Y-10886063D01*
X13790063Y-9108063D02*
X13790063Y-9035937D01*
X13717937Y-9035937D01*
X13717937Y-9108063D01*
X13790063Y-9108063D01*
X13790063Y-10886063D02*
X13790063Y-10813937D01*
X13717937Y-10813937D01*
X13717937Y-10886063D01*
X13790063Y-10886063D01*
X14044063Y-9108063D02*
X14044063Y-9035937D01*
X13971937Y-9035937D01*
X13971937Y-9108063D01*
X14044063Y-9108063D01*
X14044063Y-10886063D02*
X14044063Y-10813937D01*
X13971937Y-10813937D01*
X13971937Y-10886063D01*
X14044063Y-10886063D01*
X14298063Y-9108063D02*
X14298063Y-9035937D01*
X14225937Y-9035937D01*
X14225937Y-9108063D01*
X14298063Y-9108063D01*
X14298063Y-10886063D02*
X14298063Y-10813937D01*
X14225937Y-10813937D01*
X14225937Y-10886063D01*
X14298063Y-10886063D01*
X14552063Y-9108063D02*
X14552063Y-9035937D01*
X14479937Y-9035937D01*
X14479937Y-9108063D01*
X14552063Y-9108063D01*
X14552063Y-10886063D02*
X14552063Y-10813937D01*
X14479937Y-10813937D01*
X14479937Y-10886063D01*
X14552063Y-10886063D01*
X14806063Y-9108063D02*
X14806063Y-9035937D01*
X14733937Y-9035937D01*
X14733937Y-9108063D01*
X14806063Y-9108063D01*
X14806063Y-10886063D02*
X14806063Y-10813937D01*
X14733937Y-10813937D01*
X14733937Y-10886063D01*
X14806063Y-10886063D01*
X15060063Y-9108063D02*
X15060063Y-9035937D01*
X14987937Y-9035937D01*
X14987937Y-9108063D01*
X15060063Y-9108063D01*
X15060063Y-10886063D02*
X15060063Y-10813937D01*
X14987937Y-10813937D01*
X14987937Y-10886063D01*
X15060063Y-10886063D01*
X15314063Y-9108063D02*
X15314063Y-9035937D01*
X15241937Y-9035937D01*
X15241937Y-9108063D01*
X15314063Y-9108063D01*
X15314063Y-10886063D02*
X15314063Y-10813937D01*
X15241937Y-10813937D01*
X15241937Y-10886063D01*
X15314063Y-10886063D01*
X15545063Y-9743063D02*
X15545063Y-9670937D01*
X15472937Y-9670937D01*
X15472937Y-9743063D01*
X15545063Y-9743063D01*
X15545063Y-9997063D02*
X15545063Y-9924937D01*
X15472937Y-9924937D01*
X15472937Y-9997063D01*
X15545063Y-9997063D01*
X15545063Y-10251063D02*
X15545063Y-10178937D01*
X15472937Y-10178937D01*
X15472937Y-10251063D01*
X15545063Y-10251063D01*
X15568063Y-9108063D02*
X15568063Y-9035937D01*
X15495937Y-9035937D01*
X15495937Y-9108063D01*
X15568063Y-9108063D01*
X15568063Y-10886063D02*
X15568063Y-10813937D01*
X15495937Y-10813937D01*
X15495937Y-10886063D01*
X15568063Y-10886063D01*
D15*
X10850000Y-7215000D02*
X10925000Y-7140000D01*
X10850000Y-7065000D01*
X10775000Y-7140000D01*
X10850000Y-7215000D01*
X10850000Y-8035000D02*
X10925000Y-7960000D01*
X10850000Y-7885000D01*
X10775000Y-7960000D01*
X10850000Y-8035000D01*
D11*
X11250000Y-10100000D02*
X11450000Y-10300000D01*
X11450000Y-10100000D02*
X11250000Y-10300000D01*
X11450000Y-10200000D02*
G75*
G02*
X11250000Y-10200000I-100000J0D01*
G01*
X11250000Y-10200000D02*
G75*
G02*
X11450000Y-10200000I100000J0D01*
G01*
D12*
X11250000Y-10100000D02*
X11250000Y-10300000D01*
X11450000Y-10300000D02*
G75*
G02*
X11250000Y-10300000I-100000J0D01*
G01*
X11450000Y-10300000D02*
X11450000Y-10100000D01*
X11450000Y-10100000D02*
G75*
G03*
X11250000Y-10100000I-100000J0D01*
G01*
D11*
X10750777Y-11771484D02*
X10750777Y-11571484D01*
X10750777Y-11571484D02*
X10798396Y-11571484D01*
X10798396Y-11571484D02*
X10826967Y-11581008D01*
X10826967Y-11581008D02*
X10846015Y-11600055D01*
X10846015Y-11600055D02*
X10855539Y-11619103D01*
X10855539Y-11619103D02*
X10865063Y-11657198D01*
X10865063Y-11657198D02*
X10865063Y-11685769D01*
X10865063Y-11685769D02*
X10855539Y-11723865D01*
X10855539Y-11723865D02*
X10846015Y-11742912D01*
X10846015Y-11742912D02*
X10826967Y-11761960D01*
X10826967Y-11761960D02*
X10798396Y-11771484D01*
X10798396Y-11771484D02*
X10750777Y-11771484D01*
X10950777Y-11771484D02*
X10950777Y-11638150D01*
X10950777Y-11676246D02*
X10960301Y-11657198D01*
X10960301Y-11657198D02*
X10969824Y-11647674D01*
X10969824Y-11647674D02*
X10988872Y-11638150D01*
X10988872Y-11638150D02*
X11007920Y-11638150D01*
X11074586Y-11771484D02*
X11074586Y-11638150D01*
X11074586Y-11571484D02*
X11065063Y-11581008D01*
X11065063Y-11581008D02*
X11074586Y-11590531D01*
X11074586Y-11590531D02*
X11084110Y-11581008D01*
X11084110Y-11581008D02*
X11074586Y-11571484D01*
X11074586Y-11571484D02*
X11074586Y-11590531D01*
X11198396Y-11771484D02*
X11179348Y-11761960D01*
X11179348Y-11761960D02*
X11169824Y-11742912D01*
X11169824Y-11742912D02*
X11169824Y-11571484D01*
X11303158Y-11771484D02*
X11284110Y-11761960D01*
X11284110Y-11761960D02*
X11274586Y-11742912D01*
X11274586Y-11742912D02*
X11274586Y-11571484D01*
X11531729Y-11771484D02*
X11531729Y-11571484D01*
X11531729Y-11571484D02*
X11598396Y-11714341D01*
X11598396Y-11714341D02*
X11665062Y-11571484D01*
X11665062Y-11571484D02*
X11665062Y-11771484D01*
X11846015Y-11771484D02*
X11846015Y-11666722D01*
X11846015Y-11666722D02*
X11836491Y-11647674D01*
X11836491Y-11647674D02*
X11817443Y-11638150D01*
X11817443Y-11638150D02*
X11779348Y-11638150D01*
X11779348Y-11638150D02*
X11760301Y-11647674D01*
X11846015Y-11761960D02*
X11826967Y-11771484D01*
X11826967Y-11771484D02*
X11779348Y-11771484D01*
X11779348Y-11771484D02*
X11760301Y-11761960D01*
X11760301Y-11761960D02*
X11750777Y-11742912D01*
X11750777Y-11742912D02*
X11750777Y-11723865D01*
X11750777Y-11723865D02*
X11760301Y-11704817D01*
X11760301Y-11704817D02*
X11779348Y-11695293D01*
X11779348Y-11695293D02*
X11826967Y-11695293D01*
X11826967Y-11695293D02*
X11846015Y-11685769D01*
X11941253Y-11638150D02*
X11941253Y-11838150D01*
X11941253Y-11647674D02*
X11960301Y-11638150D01*
X11960301Y-11638150D02*
X11998396Y-11638150D01*
X11998396Y-11638150D02*
X12017443Y-11647674D01*
X12017443Y-11647674D02*
X12026967Y-11657198D01*
X12026967Y-11657198D02*
X12036491Y-11676246D01*
X12036491Y-11676246D02*
X12036491Y-11733388D01*
X12036491Y-11733388D02*
X12026967Y-11752436D01*
X12026967Y-11752436D02*
X12017443Y-11761960D01*
X12017443Y-11761960D02*
X11998396Y-11771484D01*
X11998396Y-11771484D02*
X11960301Y-11771484D01*
X11960301Y-11771484D02*
X11941253Y-11761960D01*
X12122205Y-11752436D02*
X12131729Y-11761960D01*
X12131729Y-11761960D02*
X12122205Y-11771484D01*
X12122205Y-11771484D02*
X12112682Y-11761960D01*
X12112682Y-11761960D02*
X12122205Y-11752436D01*
X12122205Y-11752436D02*
X12122205Y-11771484D01*
X12122205Y-11647674D02*
X12131729Y-11657198D01*
X12131729Y-11657198D02*
X12122205Y-11666722D01*
X12122205Y-11666722D02*
X12112682Y-11657198D01*
X12112682Y-11657198D02*
X12122205Y-11647674D01*
X12122205Y-11647674D02*
X12122205Y-11666722D01*
D12*
X10460000Y-12085000D02*
X10490000Y-12115000D01*
X10490000Y-12085000D02*
X10460000Y-12115000D01*
D11*
X10788872Y-11991484D02*
X10807920Y-11991484D01*
X10807920Y-11991484D02*
X10826967Y-12001008D01*
X10826967Y-12001008D02*
X10836491Y-12010531D01*
X10836491Y-12010531D02*
X10846015Y-12029579D01*
X10846015Y-12029579D02*
X10855539Y-12067674D01*
X10855539Y-12067674D02*
X10855539Y-12115293D01*
X10855539Y-12115293D02*
X10846015Y-12153388D01*
X10846015Y-12153388D02*
X10836491Y-12172436D01*
X10836491Y-12172436D02*
X10826967Y-12181960D01*
X10826967Y-12181960D02*
X10807920Y-12191484D01*
X10807920Y-12191484D02*
X10788872Y-12191484D01*
X10788872Y-12191484D02*
X10769824Y-12181960D01*
X10769824Y-12181960D02*
X10760301Y-12172436D01*
X10760301Y-12172436D02*
X10750777Y-12153388D01*
X10750777Y-12153388D02*
X10741253Y-12115293D01*
X10741253Y-12115293D02*
X10741253Y-12067674D01*
X10741253Y-12067674D02*
X10750777Y-12029579D01*
X10750777Y-12029579D02*
X10760301Y-12010531D01*
X10760301Y-12010531D02*
X10769824Y-12001008D01*
X10769824Y-12001008D02*
X10788872Y-11991484D01*
X10941253Y-12172436D02*
X10950777Y-12181960D01*
X10950777Y-12181960D02*
X10941253Y-12191484D01*
X10941253Y-12191484D02*
X10931729Y-12181960D01*
X10931729Y-12181960D02*
X10941253Y-12172436D01*
X10941253Y-12172436D02*
X10941253Y-12191484D01*
X11017444Y-11991484D02*
X11141253Y-11991484D01*
X11141253Y-11991484D02*
X11074586Y-12067674D01*
X11074586Y-12067674D02*
X11103158Y-12067674D01*
X11103158Y-12067674D02*
X11122205Y-12077198D01*
X11122205Y-12077198D02*
X11131729Y-12086722D01*
X11131729Y-12086722D02*
X11141253Y-12105769D01*
X11141253Y-12105769D02*
X11141253Y-12153388D01*
X11141253Y-12153388D02*
X11131729Y-12172436D01*
X11131729Y-12172436D02*
X11122205Y-12181960D01*
X11122205Y-12181960D02*
X11103158Y-12191484D01*
X11103158Y-12191484D02*
X11046015Y-12191484D01*
X11046015Y-12191484D02*
X11026967Y-12181960D01*
X11026967Y-12181960D02*
X11017444Y-12172436D01*
X11265062Y-11991484D02*
X11284110Y-11991484D01*
X11284110Y-11991484D02*
X11303158Y-12001008D01*
X11303158Y-12001008D02*
X11312682Y-12010531D01*
X11312682Y-12010531D02*
X11322205Y-12029579D01*
X11322205Y-12029579D02*
X11331729Y-12067674D01*
X11331729Y-12067674D02*
X11331729Y-12115293D01*
X11331729Y-12115293D02*
X11322205Y-12153388D01*
X11322205Y-12153388D02*
X11312682Y-12172436D01*
X11312682Y-12172436D02*
X11303158Y-12181960D01*
X11303158Y-12181960D02*
X11284110Y-12191484D01*
X11284110Y-12191484D02*
X11265062Y-12191484D01*
X11265062Y-12191484D02*
X11246015Y-12181960D01*
X11246015Y-12181960D02*
X11236491Y-12172436D01*
X11236491Y-12172436D02*
X11226967Y-12153388D01*
X11226967Y-12153388D02*
X11217443Y-12115293D01*
X11217443Y-12115293D02*
X11217443Y-12067674D01*
X11217443Y-12067674D02*
X11226967Y-12029579D01*
X11226967Y-12029579D02*
X11236491Y-12010531D01*
X11236491Y-12010531D02*
X11246015Y-12001008D01*
X11246015Y-12001008D02*
X11265062Y-11991484D01*
X11455539Y-11991484D02*
X11474586Y-11991484D01*
X11474586Y-11991484D02*
X11493634Y-12001008D01*
X11493634Y-12001008D02*
X11503158Y-12010531D01*
X11503158Y-12010531D02*
X11512682Y-12029579D01*
X11512682Y-12029579D02*
X11522205Y-12067674D01*
X11522205Y-12067674D02*
X11522205Y-12115293D01*
X11522205Y-12115293D02*
X11512682Y-12153388D01*
X11512682Y-12153388D02*
X11503158Y-12172436D01*
X11503158Y-12172436D02*
X11493634Y-12181960D01*
X11493634Y-12181960D02*
X11474586Y-12191484D01*
X11474586Y-12191484D02*
X11455539Y-12191484D01*
X11455539Y-12191484D02*
X11436491Y-12181960D01*
X11436491Y-12181960D02*
X11426967Y-12172436D01*
X11426967Y-12172436D02*
X11417443Y-12153388D01*
X11417443Y-12153388D02*
X11407920Y-12115293D01*
X11407920Y-12115293D02*
X11407920Y-12067674D01*
X11407920Y-12067674D02*
X11417443Y-12029579D01*
X11417443Y-12029579D02*
X11426967Y-12010531D01*
X11426967Y-12010531D02*
X11436491Y-12001008D01*
X11436491Y-12001008D02*
X11455539Y-11991484D01*
X11607920Y-12191484D02*
X11607920Y-12058150D01*
X11607920Y-12077198D02*
X11617443Y-12067674D01*
X11617443Y-12067674D02*
X11636491Y-12058150D01*
X11636491Y-12058150D02*
X11665063Y-12058150D01*
X11665063Y-12058150D02*
X11684110Y-12067674D01*
X11684110Y-12067674D02*
X11693634Y-12086722D01*
X11693634Y-12086722D02*
X11693634Y-12191484D01*
X11693634Y-12086722D02*
X11703158Y-12067674D01*
X11703158Y-12067674D02*
X11722205Y-12058150D01*
X11722205Y-12058150D02*
X11750777Y-12058150D01*
X11750777Y-12058150D02*
X11769824Y-12067674D01*
X11769824Y-12067674D02*
X11779348Y-12086722D01*
X11779348Y-12086722D02*
X11779348Y-12191484D01*
X11874586Y-12191484D02*
X11874586Y-12058150D01*
X11874586Y-12077198D02*
X11884110Y-12067674D01*
X11884110Y-12067674D02*
X11903158Y-12058150D01*
X11903158Y-12058150D02*
X11931729Y-12058150D01*
X11931729Y-12058150D02*
X11950777Y-12067674D01*
X11950777Y-12067674D02*
X11960301Y-12086722D01*
X11960301Y-12086722D02*
X11960301Y-12191484D01*
X11960301Y-12086722D02*
X11969824Y-12067674D01*
X11969824Y-12067674D02*
X11988872Y-12058150D01*
X11988872Y-12058150D02*
X12017443Y-12058150D01*
X12017443Y-12058150D02*
X12036491Y-12067674D01*
X12036491Y-12067674D02*
X12046015Y-12086722D01*
X12046015Y-12086722D02*
X12046015Y-12191484D01*
X12436491Y-11981960D02*
X12265063Y-12239103D01*
X12693634Y-11991484D02*
X12712682Y-11991484D01*
X12712682Y-11991484D02*
X12731729Y-12001008D01*
X12731729Y-12001008D02*
X12741253Y-12010531D01*
X12741253Y-12010531D02*
X12750777Y-12029579D01*
X12750777Y-12029579D02*
X12760301Y-12067674D01*
X12760301Y-12067674D02*
X12760301Y-12115293D01*
X12760301Y-12115293D02*
X12750777Y-12153388D01*
X12750777Y-12153388D02*
X12741253Y-12172436D01*
X12741253Y-12172436D02*
X12731729Y-12181960D01*
X12731729Y-12181960D02*
X12712682Y-12191484D01*
X12712682Y-12191484D02*
X12693634Y-12191484D01*
X12693634Y-12191484D02*
X12674586Y-12181960D01*
X12674586Y-12181960D02*
X12665063Y-12172436D01*
X12665063Y-12172436D02*
X12655539Y-12153388D01*
X12655539Y-12153388D02*
X12646015Y-12115293D01*
X12646015Y-12115293D02*
X12646015Y-12067674D01*
X12646015Y-12067674D02*
X12655539Y-12029579D01*
X12655539Y-12029579D02*
X12665063Y-12010531D01*
X12665063Y-12010531D02*
X12674586Y-12001008D01*
X12674586Y-12001008D02*
X12693634Y-11991484D01*
X12846015Y-12172436D02*
X12855539Y-12181960D01*
X12855539Y-12181960D02*
X12846015Y-12191484D01*
X12846015Y-12191484D02*
X12836491Y-12181960D01*
X12836491Y-12181960D02*
X12846015Y-12172436D01*
X12846015Y-12172436D02*
X12846015Y-12191484D01*
X12979348Y-11991484D02*
X12998396Y-11991484D01*
X12998396Y-11991484D02*
X13017444Y-12001008D01*
X13017444Y-12001008D02*
X13026967Y-12010531D01*
X13026967Y-12010531D02*
X13036491Y-12029579D01*
X13036491Y-12029579D02*
X13046015Y-12067674D01*
X13046015Y-12067674D02*
X13046015Y-12115293D01*
X13046015Y-12115293D02*
X13036491Y-12153388D01*
X13036491Y-12153388D02*
X13026967Y-12172436D01*
X13026967Y-12172436D02*
X13017444Y-12181960D01*
X13017444Y-12181960D02*
X12998396Y-12191484D01*
X12998396Y-12191484D02*
X12979348Y-12191484D01*
X12979348Y-12191484D02*
X12960301Y-12181960D01*
X12960301Y-12181960D02*
X12950777Y-12172436D01*
X12950777Y-12172436D02*
X12941253Y-12153388D01*
X12941253Y-12153388D02*
X12931729Y-12115293D01*
X12931729Y-12115293D02*
X12931729Y-12067674D01*
X12931729Y-12067674D02*
X12941253Y-12029579D01*
X12941253Y-12029579D02*
X12950777Y-12010531D01*
X12950777Y-12010531D02*
X12960301Y-12001008D01*
X12960301Y-12001008D02*
X12979348Y-11991484D01*
X13236491Y-12191484D02*
X13122206Y-12191484D01*
X13179348Y-12191484D02*
X13179348Y-11991484D01*
X13179348Y-11991484D02*
X13160301Y-12020055D01*
X13160301Y-12020055D02*
X13141253Y-12039103D01*
X13141253Y-12039103D02*
X13122206Y-12048627D01*
X13426967Y-12191484D02*
X13312682Y-12191484D01*
X13369825Y-12191484D02*
X13369825Y-11991484D01*
X13369825Y-11991484D02*
X13350777Y-12020055D01*
X13350777Y-12020055D02*
X13331729Y-12039103D01*
X13331729Y-12039103D02*
X13312682Y-12048627D01*
X13541253Y-12077198D02*
X13522206Y-12067674D01*
X13522206Y-12067674D02*
X13512682Y-12058150D01*
X13512682Y-12058150D02*
X13503158Y-12039103D01*
X13503158Y-12039103D02*
X13503158Y-12029579D01*
X13503158Y-12029579D02*
X13512682Y-12010531D01*
X13512682Y-12010531D02*
X13522206Y-12001008D01*
X13522206Y-12001008D02*
X13541253Y-11991484D01*
X13541253Y-11991484D02*
X13579348Y-11991484D01*
X13579348Y-11991484D02*
X13598396Y-12001008D01*
X13598396Y-12001008D02*
X13607920Y-12010531D01*
X13607920Y-12010531D02*
X13617444Y-12029579D01*
X13617444Y-12029579D02*
X13617444Y-12039103D01*
X13617444Y-12039103D02*
X13607920Y-12058150D01*
X13607920Y-12058150D02*
X13598396Y-12067674D01*
X13598396Y-12067674D02*
X13579348Y-12077198D01*
X13579348Y-12077198D02*
X13541253Y-12077198D01*
X13541253Y-12077198D02*
X13522206Y-12086722D01*
X13522206Y-12086722D02*
X13512682Y-12096246D01*
X13512682Y-12096246D02*
X13503158Y-12115293D01*
X13503158Y-12115293D02*
X13503158Y-12153388D01*
X13503158Y-12153388D02*
X13512682Y-12172436D01*
X13512682Y-12172436D02*
X13522206Y-12181960D01*
X13522206Y-12181960D02*
X13541253Y-12191484D01*
X13541253Y-12191484D02*
X13579348Y-12191484D01*
X13579348Y-12191484D02*
X13598396Y-12181960D01*
X13598396Y-12181960D02*
X13607920Y-12172436D01*
X13607920Y-12172436D02*
X13617444Y-12153388D01*
X13617444Y-12153388D02*
X13617444Y-12115293D01*
X13617444Y-12115293D02*
X13607920Y-12096246D01*
X13607920Y-12096246D02*
X13598396Y-12086722D01*
X13598396Y-12086722D02*
X13579348Y-12077198D01*
X13693634Y-11991484D02*
X13693634Y-12029579D01*
X13769825Y-11991484D02*
X13769825Y-12029579D01*
X14065063Y-12267674D02*
X14055539Y-12258150D01*
X14055539Y-12258150D02*
X14036491Y-12229579D01*
X14036491Y-12229579D02*
X14026968Y-12210531D01*
X14026968Y-12210531D02*
X14017444Y-12181960D01*
X14017444Y-12181960D02*
X14007920Y-12134341D01*
X14007920Y-12134341D02*
X14007920Y-12096246D01*
X14007920Y-12096246D02*
X14017444Y-12048627D01*
X14017444Y-12048627D02*
X14026968Y-12020055D01*
X14026968Y-12020055D02*
X14036491Y-12001008D01*
X14036491Y-12001008D02*
X14055539Y-11972436D01*
X14055539Y-11972436D02*
X14065063Y-11962912D01*
X14122206Y-11991484D02*
X14255539Y-11991484D01*
X14255539Y-11991484D02*
X14169825Y-12191484D01*
X14369825Y-11991484D02*
X14388872Y-11991484D01*
X14388872Y-11991484D02*
X14407920Y-12001008D01*
X14407920Y-12001008D02*
X14417444Y-12010531D01*
X14417444Y-12010531D02*
X14426968Y-12029579D01*
X14426968Y-12029579D02*
X14436491Y-12067674D01*
X14436491Y-12067674D02*
X14436491Y-12115293D01*
X14436491Y-12115293D02*
X14426968Y-12153388D01*
X14426968Y-12153388D02*
X14417444Y-12172436D01*
X14417444Y-12172436D02*
X14407920Y-12181960D01*
X14407920Y-12181960D02*
X14388872Y-12191484D01*
X14388872Y-12191484D02*
X14369825Y-12191484D01*
X14369825Y-12191484D02*
X14350777Y-12181960D01*
X14350777Y-12181960D02*
X14341253Y-12172436D01*
X14341253Y-12172436D02*
X14331729Y-12153388D01*
X14331729Y-12153388D02*
X14322206Y-12115293D01*
X14322206Y-12115293D02*
X14322206Y-12067674D01*
X14322206Y-12067674D02*
X14331729Y-12029579D01*
X14331729Y-12029579D02*
X14341253Y-12010531D01*
X14341253Y-12010531D02*
X14350777Y-12001008D01*
X14350777Y-12001008D02*
X14369825Y-11991484D01*
X14674587Y-12191484D02*
X14674587Y-11991484D01*
X14760301Y-12191484D02*
X14760301Y-12086722D01*
X14760301Y-12086722D02*
X14750777Y-12067674D01*
X14750777Y-12067674D02*
X14731730Y-12058150D01*
X14731730Y-12058150D02*
X14703158Y-12058150D01*
X14703158Y-12058150D02*
X14684110Y-12067674D01*
X14684110Y-12067674D02*
X14674587Y-12077198D01*
X14884110Y-12191484D02*
X14865063Y-12181960D01*
X14865063Y-12181960D02*
X14855539Y-12172436D01*
X14855539Y-12172436D02*
X14846015Y-12153388D01*
X14846015Y-12153388D02*
X14846015Y-12096246D01*
X14846015Y-12096246D02*
X14855539Y-12077198D01*
X14855539Y-12077198D02*
X14865063Y-12067674D01*
X14865063Y-12067674D02*
X14884110Y-12058150D01*
X14884110Y-12058150D02*
X14912682Y-12058150D01*
X14912682Y-12058150D02*
X14931730Y-12067674D01*
X14931730Y-12067674D02*
X14941253Y-12077198D01*
X14941253Y-12077198D02*
X14950777Y-12096246D01*
X14950777Y-12096246D02*
X14950777Y-12153388D01*
X14950777Y-12153388D02*
X14941253Y-12172436D01*
X14941253Y-12172436D02*
X14931730Y-12181960D01*
X14931730Y-12181960D02*
X14912682Y-12191484D01*
X14912682Y-12191484D02*
X14884110Y-12191484D01*
X15065063Y-12191484D02*
X15046015Y-12181960D01*
X15046015Y-12181960D02*
X15036491Y-12162912D01*
X15036491Y-12162912D02*
X15036491Y-11991484D01*
X15217444Y-12181960D02*
X15198396Y-12191484D01*
X15198396Y-12191484D02*
X15160301Y-12191484D01*
X15160301Y-12191484D02*
X15141253Y-12181960D01*
X15141253Y-12181960D02*
X15131730Y-12162912D01*
X15131730Y-12162912D02*
X15131730Y-12086722D01*
X15131730Y-12086722D02*
X15141253Y-12067674D01*
X15141253Y-12067674D02*
X15160301Y-12058150D01*
X15160301Y-12058150D02*
X15198396Y-12058150D01*
X15198396Y-12058150D02*
X15217444Y-12067674D01*
X15217444Y-12067674D02*
X15226968Y-12086722D01*
X15226968Y-12086722D02*
X15226968Y-12105769D01*
X15226968Y-12105769D02*
X15131730Y-12124817D01*
X15303158Y-12181960D02*
X15322206Y-12191484D01*
X15322206Y-12191484D02*
X15360301Y-12191484D01*
X15360301Y-12191484D02*
X15379349Y-12181960D01*
X15379349Y-12181960D02*
X15388872Y-12162912D01*
X15388872Y-12162912D02*
X15388872Y-12153388D01*
X15388872Y-12153388D02*
X15379349Y-12134341D01*
X15379349Y-12134341D02*
X15360301Y-12124817D01*
X15360301Y-12124817D02*
X15331730Y-12124817D01*
X15331730Y-12124817D02*
X15312682Y-12115293D01*
X15312682Y-12115293D02*
X15303158Y-12096246D01*
X15303158Y-12096246D02*
X15303158Y-12086722D01*
X15303158Y-12086722D02*
X15312682Y-12067674D01*
X15312682Y-12067674D02*
X15331730Y-12058150D01*
X15331730Y-12058150D02*
X15360301Y-12058150D01*
X15360301Y-12058150D02*
X15379349Y-12067674D01*
X15455539Y-12267674D02*
X15465063Y-12258150D01*
X15465063Y-12258150D02*
X15484111Y-12229579D01*
X15484111Y-12229579D02*
X15493634Y-12210531D01*
X15493634Y-12210531D02*
X15503158Y-12181960D01*
X15503158Y-12181960D02*
X15512682Y-12134341D01*
X15512682Y-12134341D02*
X15512682Y-12096246D01*
X15512682Y-12096246D02*
X15503158Y-12048627D01*
X15503158Y-12048627D02*
X15493634Y-12020055D01*
X15493634Y-12020055D02*
X15484111Y-12001008D01*
X15484111Y-12001008D02*
X15465063Y-11972436D01*
X15465063Y-11972436D02*
X15455539Y-11962912D01*
D12*
X10490000Y-12364000D02*
G75*
G02*
X10410000Y-12364000I-40000J0D01*
G01*
X10410000Y-12364000D02*
G75*
G02*
X10490000Y-12364000I40000J0D01*
G01*
D11*
X10788872Y-12255484D02*
X10807920Y-12255484D01*
X10807920Y-12255484D02*
X10826967Y-12265008D01*
X10826967Y-12265008D02*
X10836491Y-12274531D01*
X10836491Y-12274531D02*
X10846015Y-12293579D01*
X10846015Y-12293579D02*
X10855539Y-12331674D01*
X10855539Y-12331674D02*
X10855539Y-12379293D01*
X10855539Y-12379293D02*
X10846015Y-12417388D01*
X10846015Y-12417388D02*
X10836491Y-12436436D01*
X10836491Y-12436436D02*
X10826967Y-12445960D01*
X10826967Y-12445960D02*
X10807920Y-12455484D01*
X10807920Y-12455484D02*
X10788872Y-12455484D01*
X10788872Y-12455484D02*
X10769824Y-12445960D01*
X10769824Y-12445960D02*
X10760301Y-12436436D01*
X10760301Y-12436436D02*
X10750777Y-12417388D01*
X10750777Y-12417388D02*
X10741253Y-12379293D01*
X10741253Y-12379293D02*
X10741253Y-12331674D01*
X10741253Y-12331674D02*
X10750777Y-12293579D01*
X10750777Y-12293579D02*
X10760301Y-12274531D01*
X10760301Y-12274531D02*
X10769824Y-12265008D01*
X10769824Y-12265008D02*
X10788872Y-12255484D01*
X10941253Y-12436436D02*
X10950777Y-12445960D01*
X10950777Y-12445960D02*
X10941253Y-12455484D01*
X10941253Y-12455484D02*
X10931729Y-12445960D01*
X10931729Y-12445960D02*
X10941253Y-12436436D01*
X10941253Y-12436436D02*
X10941253Y-12455484D01*
X11065063Y-12341198D02*
X11046015Y-12331674D01*
X11046015Y-12331674D02*
X11036491Y-12322150D01*
X11036491Y-12322150D02*
X11026967Y-12303103D01*
X11026967Y-12303103D02*
X11026967Y-12293579D01*
X11026967Y-12293579D02*
X11036491Y-12274531D01*
X11036491Y-12274531D02*
X11046015Y-12265008D01*
X11046015Y-12265008D02*
X11065063Y-12255484D01*
X11065063Y-12255484D02*
X11103158Y-12255484D01*
X11103158Y-12255484D02*
X11122205Y-12265008D01*
X11122205Y-12265008D02*
X11131729Y-12274531D01*
X11131729Y-12274531D02*
X11141253Y-12293579D01*
X11141253Y-12293579D02*
X11141253Y-12303103D01*
X11141253Y-12303103D02*
X11131729Y-12322150D01*
X11131729Y-12322150D02*
X11122205Y-12331674D01*
X11122205Y-12331674D02*
X11103158Y-12341198D01*
X11103158Y-12341198D02*
X11065063Y-12341198D01*
X11065063Y-12341198D02*
X11046015Y-12350722D01*
X11046015Y-12350722D02*
X11036491Y-12360246D01*
X11036491Y-12360246D02*
X11026967Y-12379293D01*
X11026967Y-12379293D02*
X11026967Y-12417388D01*
X11026967Y-12417388D02*
X11036491Y-12436436D01*
X11036491Y-12436436D02*
X11046015Y-12445960D01*
X11046015Y-12445960D02*
X11065063Y-12455484D01*
X11065063Y-12455484D02*
X11103158Y-12455484D01*
X11103158Y-12455484D02*
X11122205Y-12445960D01*
X11122205Y-12445960D02*
X11131729Y-12436436D01*
X11131729Y-12436436D02*
X11141253Y-12417388D01*
X11141253Y-12417388D02*
X11141253Y-12379293D01*
X11141253Y-12379293D02*
X11131729Y-12360246D01*
X11131729Y-12360246D02*
X11122205Y-12350722D01*
X11122205Y-12350722D02*
X11103158Y-12341198D01*
X11265062Y-12255484D02*
X11284110Y-12255484D01*
X11284110Y-12255484D02*
X11303158Y-12265008D01*
X11303158Y-12265008D02*
X11312682Y-12274531D01*
X11312682Y-12274531D02*
X11322205Y-12293579D01*
X11322205Y-12293579D02*
X11331729Y-12331674D01*
X11331729Y-12331674D02*
X11331729Y-12379293D01*
X11331729Y-12379293D02*
X11322205Y-12417388D01*
X11322205Y-12417388D02*
X11312682Y-12436436D01*
X11312682Y-12436436D02*
X11303158Y-12445960D01*
X11303158Y-12445960D02*
X11284110Y-12455484D01*
X11284110Y-12455484D02*
X11265062Y-12455484D01*
X11265062Y-12455484D02*
X11246015Y-12445960D01*
X11246015Y-12445960D02*
X11236491Y-12436436D01*
X11236491Y-12436436D02*
X11226967Y-12417388D01*
X11226967Y-12417388D02*
X11217443Y-12379293D01*
X11217443Y-12379293D02*
X11217443Y-12331674D01*
X11217443Y-12331674D02*
X11226967Y-12293579D01*
X11226967Y-12293579D02*
X11236491Y-12274531D01*
X11236491Y-12274531D02*
X11246015Y-12265008D01*
X11246015Y-12265008D02*
X11265062Y-12255484D01*
X11455539Y-12255484D02*
X11474586Y-12255484D01*
X11474586Y-12255484D02*
X11493634Y-12265008D01*
X11493634Y-12265008D02*
X11503158Y-12274531D01*
X11503158Y-12274531D02*
X11512682Y-12293579D01*
X11512682Y-12293579D02*
X11522205Y-12331674D01*
X11522205Y-12331674D02*
X11522205Y-12379293D01*
X11522205Y-12379293D02*
X11512682Y-12417388D01*
X11512682Y-12417388D02*
X11503158Y-12436436D01*
X11503158Y-12436436D02*
X11493634Y-12445960D01*
X11493634Y-12445960D02*
X11474586Y-12455484D01*
X11474586Y-12455484D02*
X11455539Y-12455484D01*
X11455539Y-12455484D02*
X11436491Y-12445960D01*
X11436491Y-12445960D02*
X11426967Y-12436436D01*
X11426967Y-12436436D02*
X11417443Y-12417388D01*
X11417443Y-12417388D02*
X11407920Y-12379293D01*
X11407920Y-12379293D02*
X11407920Y-12331674D01*
X11407920Y-12331674D02*
X11417443Y-12293579D01*
X11417443Y-12293579D02*
X11426967Y-12274531D01*
X11426967Y-12274531D02*
X11436491Y-12265008D01*
X11436491Y-12265008D02*
X11455539Y-12255484D01*
X11607920Y-12455484D02*
X11607920Y-12322150D01*
X11607920Y-12341198D02*
X11617443Y-12331674D01*
X11617443Y-12331674D02*
X11636491Y-12322150D01*
X11636491Y-12322150D02*
X11665063Y-12322150D01*
X11665063Y-12322150D02*
X11684110Y-12331674D01*
X11684110Y-12331674D02*
X11693634Y-12350722D01*
X11693634Y-12350722D02*
X11693634Y-12455484D01*
X11693634Y-12350722D02*
X11703158Y-12331674D01*
X11703158Y-12331674D02*
X11722205Y-12322150D01*
X11722205Y-12322150D02*
X11750777Y-12322150D01*
X11750777Y-12322150D02*
X11769824Y-12331674D01*
X11769824Y-12331674D02*
X11779348Y-12350722D01*
X11779348Y-12350722D02*
X11779348Y-12455484D01*
X11874586Y-12455484D02*
X11874586Y-12322150D01*
X11874586Y-12341198D02*
X11884110Y-12331674D01*
X11884110Y-12331674D02*
X11903158Y-12322150D01*
X11903158Y-12322150D02*
X11931729Y-12322150D01*
X11931729Y-12322150D02*
X11950777Y-12331674D01*
X11950777Y-12331674D02*
X11960301Y-12350722D01*
X11960301Y-12350722D02*
X11960301Y-12455484D01*
X11960301Y-12350722D02*
X11969824Y-12331674D01*
X11969824Y-12331674D02*
X11988872Y-12322150D01*
X11988872Y-12322150D02*
X12017443Y-12322150D01*
X12017443Y-12322150D02*
X12036491Y-12331674D01*
X12036491Y-12331674D02*
X12046015Y-12350722D01*
X12046015Y-12350722D02*
X12046015Y-12455484D01*
X12436491Y-12245960D02*
X12265063Y-12503103D01*
X12693634Y-12255484D02*
X12712682Y-12255484D01*
X12712682Y-12255484D02*
X12731729Y-12265008D01*
X12731729Y-12265008D02*
X12741253Y-12274531D01*
X12741253Y-12274531D02*
X12750777Y-12293579D01*
X12750777Y-12293579D02*
X12760301Y-12331674D01*
X12760301Y-12331674D02*
X12760301Y-12379293D01*
X12760301Y-12379293D02*
X12750777Y-12417388D01*
X12750777Y-12417388D02*
X12741253Y-12436436D01*
X12741253Y-12436436D02*
X12731729Y-12445960D01*
X12731729Y-12445960D02*
X12712682Y-12455484D01*
X12712682Y-12455484D02*
X12693634Y-12455484D01*
X12693634Y-12455484D02*
X12674586Y-12445960D01*
X12674586Y-12445960D02*
X12665063Y-12436436D01*
X12665063Y-12436436D02*
X12655539Y-12417388D01*
X12655539Y-12417388D02*
X12646015Y-12379293D01*
X12646015Y-12379293D02*
X12646015Y-12331674D01*
X12646015Y-12331674D02*
X12655539Y-12293579D01*
X12655539Y-12293579D02*
X12665063Y-12274531D01*
X12665063Y-12274531D02*
X12674586Y-12265008D01*
X12674586Y-12265008D02*
X12693634Y-12255484D01*
X12846015Y-12436436D02*
X12855539Y-12445960D01*
X12855539Y-12445960D02*
X12846015Y-12455484D01*
X12846015Y-12455484D02*
X12836491Y-12445960D01*
X12836491Y-12445960D02*
X12846015Y-12436436D01*
X12846015Y-12436436D02*
X12846015Y-12455484D01*
X12979348Y-12255484D02*
X12998396Y-12255484D01*
X12998396Y-12255484D02*
X13017444Y-12265008D01*
X13017444Y-12265008D02*
X13026967Y-12274531D01*
X13026967Y-12274531D02*
X13036491Y-12293579D01*
X13036491Y-12293579D02*
X13046015Y-12331674D01*
X13046015Y-12331674D02*
X13046015Y-12379293D01*
X13046015Y-12379293D02*
X13036491Y-12417388D01*
X13036491Y-12417388D02*
X13026967Y-12436436D01*
X13026967Y-12436436D02*
X13017444Y-12445960D01*
X13017444Y-12445960D02*
X12998396Y-12455484D01*
X12998396Y-12455484D02*
X12979348Y-12455484D01*
X12979348Y-12455484D02*
X12960301Y-12445960D01*
X12960301Y-12445960D02*
X12950777Y-12436436D01*
X12950777Y-12436436D02*
X12941253Y-12417388D01*
X12941253Y-12417388D02*
X12931729Y-12379293D01*
X12931729Y-12379293D02*
X12931729Y-12331674D01*
X12931729Y-12331674D02*
X12941253Y-12293579D01*
X12941253Y-12293579D02*
X12950777Y-12274531D01*
X12950777Y-12274531D02*
X12960301Y-12265008D01*
X12960301Y-12265008D02*
X12979348Y-12255484D01*
X13112682Y-12255484D02*
X13236491Y-12255484D01*
X13236491Y-12255484D02*
X13169825Y-12331674D01*
X13169825Y-12331674D02*
X13198396Y-12331674D01*
X13198396Y-12331674D02*
X13217444Y-12341198D01*
X13217444Y-12341198D02*
X13226967Y-12350722D01*
X13226967Y-12350722D02*
X13236491Y-12369769D01*
X13236491Y-12369769D02*
X13236491Y-12417388D01*
X13236491Y-12417388D02*
X13226967Y-12436436D01*
X13226967Y-12436436D02*
X13217444Y-12445960D01*
X13217444Y-12445960D02*
X13198396Y-12455484D01*
X13198396Y-12455484D02*
X13141253Y-12455484D01*
X13141253Y-12455484D02*
X13122206Y-12445960D01*
X13122206Y-12445960D02*
X13112682Y-12436436D01*
X13426967Y-12455484D02*
X13312682Y-12455484D01*
X13369825Y-12455484D02*
X13369825Y-12255484D01*
X13369825Y-12255484D02*
X13350777Y-12284055D01*
X13350777Y-12284055D02*
X13331729Y-12303103D01*
X13331729Y-12303103D02*
X13312682Y-12312627D01*
X13607920Y-12255484D02*
X13512682Y-12255484D01*
X13512682Y-12255484D02*
X13503158Y-12350722D01*
X13503158Y-12350722D02*
X13512682Y-12341198D01*
X13512682Y-12341198D02*
X13531729Y-12331674D01*
X13531729Y-12331674D02*
X13579348Y-12331674D01*
X13579348Y-12331674D02*
X13598396Y-12341198D01*
X13598396Y-12341198D02*
X13607920Y-12350722D01*
X13607920Y-12350722D02*
X13617444Y-12369769D01*
X13617444Y-12369769D02*
X13617444Y-12417388D01*
X13617444Y-12417388D02*
X13607920Y-12436436D01*
X13607920Y-12436436D02*
X13598396Y-12445960D01*
X13598396Y-12445960D02*
X13579348Y-12455484D01*
X13579348Y-12455484D02*
X13531729Y-12455484D01*
X13531729Y-12455484D02*
X13512682Y-12445960D01*
X13512682Y-12445960D02*
X13503158Y-12436436D01*
X13693634Y-12255484D02*
X13693634Y-12293579D01*
X13769825Y-12255484D02*
X13769825Y-12293579D01*
X14065063Y-12531674D02*
X14055539Y-12522150D01*
X14055539Y-12522150D02*
X14036491Y-12493579D01*
X14036491Y-12493579D02*
X14026968Y-12474531D01*
X14026968Y-12474531D02*
X14017444Y-12445960D01*
X14017444Y-12445960D02*
X14007920Y-12398341D01*
X14007920Y-12398341D02*
X14007920Y-12360246D01*
X14007920Y-12360246D02*
X14017444Y-12312627D01*
X14017444Y-12312627D02*
X14026968Y-12284055D01*
X14026968Y-12284055D02*
X14036491Y-12265008D01*
X14036491Y-12265008D02*
X14055539Y-12236436D01*
X14055539Y-12236436D02*
X14065063Y-12226912D01*
X14236491Y-12255484D02*
X14141253Y-12255484D01*
X14141253Y-12255484D02*
X14131729Y-12350722D01*
X14131729Y-12350722D02*
X14141253Y-12341198D01*
X14141253Y-12341198D02*
X14160301Y-12331674D01*
X14160301Y-12331674D02*
X14207920Y-12331674D01*
X14207920Y-12331674D02*
X14226968Y-12341198D01*
X14226968Y-12341198D02*
X14236491Y-12350722D01*
X14236491Y-12350722D02*
X14246015Y-12369769D01*
X14246015Y-12369769D02*
X14246015Y-12417388D01*
X14246015Y-12417388D02*
X14236491Y-12436436D01*
X14236491Y-12436436D02*
X14226968Y-12445960D01*
X14226968Y-12445960D02*
X14207920Y-12455484D01*
X14207920Y-12455484D02*
X14160301Y-12455484D01*
X14160301Y-12455484D02*
X14141253Y-12445960D01*
X14141253Y-12445960D02*
X14131729Y-12436436D01*
X14484110Y-12455484D02*
X14484110Y-12255484D01*
X14569825Y-12455484D02*
X14569825Y-12350722D01*
X14569825Y-12350722D02*
X14560301Y-12331674D01*
X14560301Y-12331674D02*
X14541253Y-12322150D01*
X14541253Y-12322150D02*
X14512682Y-12322150D01*
X14512682Y-12322150D02*
X14493634Y-12331674D01*
X14493634Y-12331674D02*
X14484110Y-12341198D01*
X14693634Y-12455484D02*
X14674587Y-12445960D01*
X14674587Y-12445960D02*
X14665063Y-12436436D01*
X14665063Y-12436436D02*
X14655539Y-12417388D01*
X14655539Y-12417388D02*
X14655539Y-12360246D01*
X14655539Y-12360246D02*
X14665063Y-12341198D01*
X14665063Y-12341198D02*
X14674587Y-12331674D01*
X14674587Y-12331674D02*
X14693634Y-12322150D01*
X14693634Y-12322150D02*
X14722206Y-12322150D01*
X14722206Y-12322150D02*
X14741253Y-12331674D01*
X14741253Y-12331674D02*
X14750777Y-12341198D01*
X14750777Y-12341198D02*
X14760301Y-12360246D01*
X14760301Y-12360246D02*
X14760301Y-12417388D01*
X14760301Y-12417388D02*
X14750777Y-12436436D01*
X14750777Y-12436436D02*
X14741253Y-12445960D01*
X14741253Y-12445960D02*
X14722206Y-12455484D01*
X14722206Y-12455484D02*
X14693634Y-12455484D01*
X14874587Y-12455484D02*
X14855539Y-12445960D01*
X14855539Y-12445960D02*
X14846015Y-12426912D01*
X14846015Y-12426912D02*
X14846015Y-12255484D01*
X15026968Y-12445960D02*
X15007920Y-12455484D01*
X15007920Y-12455484D02*
X14969825Y-12455484D01*
X14969825Y-12455484D02*
X14950777Y-12445960D01*
X14950777Y-12445960D02*
X14941253Y-12426912D01*
X14941253Y-12426912D02*
X14941253Y-12350722D01*
X14941253Y-12350722D02*
X14950777Y-12331674D01*
X14950777Y-12331674D02*
X14969825Y-12322150D01*
X14969825Y-12322150D02*
X15007920Y-12322150D01*
X15007920Y-12322150D02*
X15026968Y-12331674D01*
X15026968Y-12331674D02*
X15036491Y-12350722D01*
X15036491Y-12350722D02*
X15036491Y-12369769D01*
X15036491Y-12369769D02*
X14941253Y-12388817D01*
X15112682Y-12445960D02*
X15131730Y-12455484D01*
X15131730Y-12455484D02*
X15169825Y-12455484D01*
X15169825Y-12455484D02*
X15188872Y-12445960D01*
X15188872Y-12445960D02*
X15198396Y-12426912D01*
X15198396Y-12426912D02*
X15198396Y-12417388D01*
X15198396Y-12417388D02*
X15188872Y-12398341D01*
X15188872Y-12398341D02*
X15169825Y-12388817D01*
X15169825Y-12388817D02*
X15141253Y-12388817D01*
X15141253Y-12388817D02*
X15122206Y-12379293D01*
X15122206Y-12379293D02*
X15112682Y-12360246D01*
X15112682Y-12360246D02*
X15112682Y-12350722D01*
X15112682Y-12350722D02*
X15122206Y-12331674D01*
X15122206Y-12331674D02*
X15141253Y-12322150D01*
X15141253Y-12322150D02*
X15169825Y-12322150D01*
X15169825Y-12322150D02*
X15188872Y-12331674D01*
X15265063Y-12531674D02*
X15274587Y-12522150D01*
X15274587Y-12522150D02*
X15293634Y-12493579D01*
X15293634Y-12493579D02*
X15303158Y-12474531D01*
X15303158Y-12474531D02*
X15312682Y-12445960D01*
X15312682Y-12445960D02*
X15322206Y-12398341D01*
X15322206Y-12398341D02*
X15322206Y-12360246D01*
X15322206Y-12360246D02*
X15312682Y-12312627D01*
X15312682Y-12312627D02*
X15303158Y-12284055D01*
X15303158Y-12284055D02*
X15293634Y-12265008D01*
X15293634Y-12265008D02*
X15274587Y-12236436D01*
X15274587Y-12236436D02*
X15265063Y-12226912D01*
D13*
X10439200Y-12577200D02*
X10439200Y-12678800D01*
X10388400Y-12628000D02*
X10490000Y-12628000D01*
D11*
X10855539Y-12719484D02*
X10741253Y-12719484D01*
X10798396Y-12719484D02*
X10798396Y-12519484D01*
X10798396Y-12519484D02*
X10779348Y-12548055D01*
X10779348Y-12548055D02*
X10760301Y-12567103D01*
X10760301Y-12567103D02*
X10741253Y-12576627D01*
X10941253Y-12700436D02*
X10950777Y-12709960D01*
X10950777Y-12709960D02*
X10941253Y-12719484D01*
X10941253Y-12719484D02*
X10931729Y-12709960D01*
X10931729Y-12709960D02*
X10941253Y-12700436D01*
X10941253Y-12700436D02*
X10941253Y-12719484D01*
X11074586Y-12519484D02*
X11093634Y-12519484D01*
X11093634Y-12519484D02*
X11112682Y-12529008D01*
X11112682Y-12529008D02*
X11122205Y-12538531D01*
X11122205Y-12538531D02*
X11131729Y-12557579D01*
X11131729Y-12557579D02*
X11141253Y-12595674D01*
X11141253Y-12595674D02*
X11141253Y-12643293D01*
X11141253Y-12643293D02*
X11131729Y-12681388D01*
X11131729Y-12681388D02*
X11122205Y-12700436D01*
X11122205Y-12700436D02*
X11112682Y-12709960D01*
X11112682Y-12709960D02*
X11093634Y-12719484D01*
X11093634Y-12719484D02*
X11074586Y-12719484D01*
X11074586Y-12719484D02*
X11055539Y-12709960D01*
X11055539Y-12709960D02*
X11046015Y-12700436D01*
X11046015Y-12700436D02*
X11036491Y-12681388D01*
X11036491Y-12681388D02*
X11026967Y-12643293D01*
X11026967Y-12643293D02*
X11026967Y-12595674D01*
X11026967Y-12595674D02*
X11036491Y-12557579D01*
X11036491Y-12557579D02*
X11046015Y-12538531D01*
X11046015Y-12538531D02*
X11055539Y-12529008D01*
X11055539Y-12529008D02*
X11074586Y-12519484D01*
X11331729Y-12719484D02*
X11217443Y-12719484D01*
X11274586Y-12719484D02*
X11274586Y-12519484D01*
X11274586Y-12519484D02*
X11255539Y-12548055D01*
X11255539Y-12548055D02*
X11236491Y-12567103D01*
X11236491Y-12567103D02*
X11217443Y-12576627D01*
X11503158Y-12519484D02*
X11465062Y-12519484D01*
X11465062Y-12519484D02*
X11446015Y-12529008D01*
X11446015Y-12529008D02*
X11436491Y-12538531D01*
X11436491Y-12538531D02*
X11417443Y-12567103D01*
X11417443Y-12567103D02*
X11407920Y-12605198D01*
X11407920Y-12605198D02*
X11407920Y-12681388D01*
X11407920Y-12681388D02*
X11417443Y-12700436D01*
X11417443Y-12700436D02*
X11426967Y-12709960D01*
X11426967Y-12709960D02*
X11446015Y-12719484D01*
X11446015Y-12719484D02*
X11484110Y-12719484D01*
X11484110Y-12719484D02*
X11503158Y-12709960D01*
X11503158Y-12709960D02*
X11512682Y-12700436D01*
X11512682Y-12700436D02*
X11522205Y-12681388D01*
X11522205Y-12681388D02*
X11522205Y-12633769D01*
X11522205Y-12633769D02*
X11512682Y-12614722D01*
X11512682Y-12614722D02*
X11503158Y-12605198D01*
X11503158Y-12605198D02*
X11484110Y-12595674D01*
X11484110Y-12595674D02*
X11446015Y-12595674D01*
X11446015Y-12595674D02*
X11426967Y-12605198D01*
X11426967Y-12605198D02*
X11417443Y-12614722D01*
X11417443Y-12614722D02*
X11407920Y-12633769D01*
X11607920Y-12719484D02*
X11607920Y-12586150D01*
X11607920Y-12605198D02*
X11617443Y-12595674D01*
X11617443Y-12595674D02*
X11636491Y-12586150D01*
X11636491Y-12586150D02*
X11665063Y-12586150D01*
X11665063Y-12586150D02*
X11684110Y-12595674D01*
X11684110Y-12595674D02*
X11693634Y-12614722D01*
X11693634Y-12614722D02*
X11693634Y-12719484D01*
X11693634Y-12614722D02*
X11703158Y-12595674D01*
X11703158Y-12595674D02*
X11722205Y-12586150D01*
X11722205Y-12586150D02*
X11750777Y-12586150D01*
X11750777Y-12586150D02*
X11769824Y-12595674D01*
X11769824Y-12595674D02*
X11779348Y-12614722D01*
X11779348Y-12614722D02*
X11779348Y-12719484D01*
X11874586Y-12719484D02*
X11874586Y-12586150D01*
X11874586Y-12605198D02*
X11884110Y-12595674D01*
X11884110Y-12595674D02*
X11903158Y-12586150D01*
X11903158Y-12586150D02*
X11931729Y-12586150D01*
X11931729Y-12586150D02*
X11950777Y-12595674D01*
X11950777Y-12595674D02*
X11960301Y-12614722D01*
X11960301Y-12614722D02*
X11960301Y-12719484D01*
X11960301Y-12614722D02*
X11969824Y-12595674D01*
X11969824Y-12595674D02*
X11988872Y-12586150D01*
X11988872Y-12586150D02*
X12017443Y-12586150D01*
X12017443Y-12586150D02*
X12036491Y-12595674D01*
X12036491Y-12595674D02*
X12046015Y-12614722D01*
X12046015Y-12614722D02*
X12046015Y-12719484D01*
X12436491Y-12509960D02*
X12265063Y-12767103D01*
X12693634Y-12519484D02*
X12712682Y-12519484D01*
X12712682Y-12519484D02*
X12731729Y-12529008D01*
X12731729Y-12529008D02*
X12741253Y-12538531D01*
X12741253Y-12538531D02*
X12750777Y-12557579D01*
X12750777Y-12557579D02*
X12760301Y-12595674D01*
X12760301Y-12595674D02*
X12760301Y-12643293D01*
X12760301Y-12643293D02*
X12750777Y-12681388D01*
X12750777Y-12681388D02*
X12741253Y-12700436D01*
X12741253Y-12700436D02*
X12731729Y-12709960D01*
X12731729Y-12709960D02*
X12712682Y-12719484D01*
X12712682Y-12719484D02*
X12693634Y-12719484D01*
X12693634Y-12719484D02*
X12674586Y-12709960D01*
X12674586Y-12709960D02*
X12665063Y-12700436D01*
X12665063Y-12700436D02*
X12655539Y-12681388D01*
X12655539Y-12681388D02*
X12646015Y-12643293D01*
X12646015Y-12643293D02*
X12646015Y-12595674D01*
X12646015Y-12595674D02*
X12655539Y-12557579D01*
X12655539Y-12557579D02*
X12665063Y-12538531D01*
X12665063Y-12538531D02*
X12674586Y-12529008D01*
X12674586Y-12529008D02*
X12693634Y-12519484D01*
X12846015Y-12700436D02*
X12855539Y-12709960D01*
X12855539Y-12709960D02*
X12846015Y-12719484D01*
X12846015Y-12719484D02*
X12836491Y-12709960D01*
X12836491Y-12709960D02*
X12846015Y-12700436D01*
X12846015Y-12700436D02*
X12846015Y-12719484D01*
X12979348Y-12519484D02*
X12998396Y-12519484D01*
X12998396Y-12519484D02*
X13017444Y-12529008D01*
X13017444Y-12529008D02*
X13026967Y-12538531D01*
X13026967Y-12538531D02*
X13036491Y-12557579D01*
X13036491Y-12557579D02*
X13046015Y-12595674D01*
X13046015Y-12595674D02*
X13046015Y-12643293D01*
X13046015Y-12643293D02*
X13036491Y-12681388D01*
X13036491Y-12681388D02*
X13026967Y-12700436D01*
X13026967Y-12700436D02*
X13017444Y-12709960D01*
X13017444Y-12709960D02*
X12998396Y-12719484D01*
X12998396Y-12719484D02*
X12979348Y-12719484D01*
X12979348Y-12719484D02*
X12960301Y-12709960D01*
X12960301Y-12709960D02*
X12950777Y-12700436D01*
X12950777Y-12700436D02*
X12941253Y-12681388D01*
X12941253Y-12681388D02*
X12931729Y-12643293D01*
X12931729Y-12643293D02*
X12931729Y-12595674D01*
X12931729Y-12595674D02*
X12941253Y-12557579D01*
X12941253Y-12557579D02*
X12950777Y-12538531D01*
X12950777Y-12538531D02*
X12960301Y-12529008D01*
X12960301Y-12529008D02*
X12979348Y-12519484D01*
X13217444Y-12586150D02*
X13217444Y-12719484D01*
X13169825Y-12509960D02*
X13122206Y-12652817D01*
X13122206Y-12652817D02*
X13246015Y-12652817D01*
X13360301Y-12519484D02*
X13379348Y-12519484D01*
X13379348Y-12519484D02*
X13398396Y-12529008D01*
X13398396Y-12529008D02*
X13407920Y-12538531D01*
X13407920Y-12538531D02*
X13417444Y-12557579D01*
X13417444Y-12557579D02*
X13426967Y-12595674D01*
X13426967Y-12595674D02*
X13426967Y-12643293D01*
X13426967Y-12643293D02*
X13417444Y-12681388D01*
X13417444Y-12681388D02*
X13407920Y-12700436D01*
X13407920Y-12700436D02*
X13398396Y-12709960D01*
X13398396Y-12709960D02*
X13379348Y-12719484D01*
X13379348Y-12719484D02*
X13360301Y-12719484D01*
X13360301Y-12719484D02*
X13341253Y-12709960D01*
X13341253Y-12709960D02*
X13331729Y-12700436D01*
X13331729Y-12700436D02*
X13322206Y-12681388D01*
X13322206Y-12681388D02*
X13312682Y-12643293D01*
X13312682Y-12643293D02*
X13312682Y-12595674D01*
X13312682Y-12595674D02*
X13322206Y-12557579D01*
X13322206Y-12557579D02*
X13331729Y-12538531D01*
X13331729Y-12538531D02*
X13341253Y-12529008D01*
X13341253Y-12529008D02*
X13360301Y-12519484D01*
X13550777Y-12519484D02*
X13569825Y-12519484D01*
X13569825Y-12519484D02*
X13588872Y-12529008D01*
X13588872Y-12529008D02*
X13598396Y-12538531D01*
X13598396Y-12538531D02*
X13607920Y-12557579D01*
X13607920Y-12557579D02*
X13617444Y-12595674D01*
X13617444Y-12595674D02*
X13617444Y-12643293D01*
X13617444Y-12643293D02*
X13607920Y-12681388D01*
X13607920Y-12681388D02*
X13598396Y-12700436D01*
X13598396Y-12700436D02*
X13588872Y-12709960D01*
X13588872Y-12709960D02*
X13569825Y-12719484D01*
X13569825Y-12719484D02*
X13550777Y-12719484D01*
X13550777Y-12719484D02*
X13531729Y-12709960D01*
X13531729Y-12709960D02*
X13522206Y-12700436D01*
X13522206Y-12700436D02*
X13512682Y-12681388D01*
X13512682Y-12681388D02*
X13503158Y-12643293D01*
X13503158Y-12643293D02*
X13503158Y-12595674D01*
X13503158Y-12595674D02*
X13512682Y-12557579D01*
X13512682Y-12557579D02*
X13522206Y-12538531D01*
X13522206Y-12538531D02*
X13531729Y-12529008D01*
X13531729Y-12529008D02*
X13550777Y-12519484D01*
X13693634Y-12519484D02*
X13693634Y-12557579D01*
X13769825Y-12519484D02*
X13769825Y-12557579D01*
X14065063Y-12795674D02*
X14055539Y-12786150D01*
X14055539Y-12786150D02*
X14036491Y-12757579D01*
X14036491Y-12757579D02*
X14026968Y-12738531D01*
X14026968Y-12738531D02*
X14017444Y-12709960D01*
X14017444Y-12709960D02*
X14007920Y-12662341D01*
X14007920Y-12662341D02*
X14007920Y-12624246D01*
X14007920Y-12624246D02*
X14017444Y-12576627D01*
X14017444Y-12576627D02*
X14026968Y-12548055D01*
X14026968Y-12548055D02*
X14036491Y-12529008D01*
X14036491Y-12529008D02*
X14055539Y-12500436D01*
X14055539Y-12500436D02*
X14065063Y-12490912D01*
X14169825Y-12605198D02*
X14150777Y-12595674D01*
X14150777Y-12595674D02*
X14141253Y-12586150D01*
X14141253Y-12586150D02*
X14131729Y-12567103D01*
X14131729Y-12567103D02*
X14131729Y-12557579D01*
X14131729Y-12557579D02*
X14141253Y-12538531D01*
X14141253Y-12538531D02*
X14150777Y-12529008D01*
X14150777Y-12529008D02*
X14169825Y-12519484D01*
X14169825Y-12519484D02*
X14207920Y-12519484D01*
X14207920Y-12519484D02*
X14226968Y-12529008D01*
X14226968Y-12529008D02*
X14236491Y-12538531D01*
X14236491Y-12538531D02*
X14246015Y-12557579D01*
X14246015Y-12557579D02*
X14246015Y-12567103D01*
X14246015Y-12567103D02*
X14236491Y-12586150D01*
X14236491Y-12586150D02*
X14226968Y-12595674D01*
X14226968Y-12595674D02*
X14207920Y-12605198D01*
X14207920Y-12605198D02*
X14169825Y-12605198D01*
X14169825Y-12605198D02*
X14150777Y-12614722D01*
X14150777Y-12614722D02*
X14141253Y-12624246D01*
X14141253Y-12624246D02*
X14131729Y-12643293D01*
X14131729Y-12643293D02*
X14131729Y-12681388D01*
X14131729Y-12681388D02*
X14141253Y-12700436D01*
X14141253Y-12700436D02*
X14150777Y-12709960D01*
X14150777Y-12709960D02*
X14169825Y-12719484D01*
X14169825Y-12719484D02*
X14207920Y-12719484D01*
X14207920Y-12719484D02*
X14226968Y-12709960D01*
X14226968Y-12709960D02*
X14236491Y-12700436D01*
X14236491Y-12700436D02*
X14246015Y-12681388D01*
X14246015Y-12681388D02*
X14246015Y-12643293D01*
X14246015Y-12643293D02*
X14236491Y-12624246D01*
X14236491Y-12624246D02*
X14226968Y-12614722D01*
X14226968Y-12614722D02*
X14207920Y-12605198D01*
X14417444Y-12586150D02*
X14417444Y-12719484D01*
X14369825Y-12509960D02*
X14322206Y-12652817D01*
X14322206Y-12652817D02*
X14446015Y-12652817D01*
X14674587Y-12719484D02*
X14674587Y-12519484D01*
X14760301Y-12719484D02*
X14760301Y-12614722D01*
X14760301Y-12614722D02*
X14750777Y-12595674D01*
X14750777Y-12595674D02*
X14731730Y-12586150D01*
X14731730Y-12586150D02*
X14703158Y-12586150D01*
X14703158Y-12586150D02*
X14684110Y-12595674D01*
X14684110Y-12595674D02*
X14674587Y-12605198D01*
X14884110Y-12719484D02*
X14865063Y-12709960D01*
X14865063Y-12709960D02*
X14855539Y-12700436D01*
X14855539Y-12700436D02*
X14846015Y-12681388D01*
X14846015Y-12681388D02*
X14846015Y-12624246D01*
X14846015Y-12624246D02*
X14855539Y-12605198D01*
X14855539Y-12605198D02*
X14865063Y-12595674D01*
X14865063Y-12595674D02*
X14884110Y-12586150D01*
X14884110Y-12586150D02*
X14912682Y-12586150D01*
X14912682Y-12586150D02*
X14931730Y-12595674D01*
X14931730Y-12595674D02*
X14941253Y-12605198D01*
X14941253Y-12605198D02*
X14950777Y-12624246D01*
X14950777Y-12624246D02*
X14950777Y-12681388D01*
X14950777Y-12681388D02*
X14941253Y-12700436D01*
X14941253Y-12700436D02*
X14931730Y-12709960D01*
X14931730Y-12709960D02*
X14912682Y-12719484D01*
X14912682Y-12719484D02*
X14884110Y-12719484D01*
X15065063Y-12719484D02*
X15046015Y-12709960D01*
X15046015Y-12709960D02*
X15036491Y-12690912D01*
X15036491Y-12690912D02*
X15036491Y-12519484D01*
X15217444Y-12709960D02*
X15198396Y-12719484D01*
X15198396Y-12719484D02*
X15160301Y-12719484D01*
X15160301Y-12719484D02*
X15141253Y-12709960D01*
X15141253Y-12709960D02*
X15131730Y-12690912D01*
X15131730Y-12690912D02*
X15131730Y-12614722D01*
X15131730Y-12614722D02*
X15141253Y-12595674D01*
X15141253Y-12595674D02*
X15160301Y-12586150D01*
X15160301Y-12586150D02*
X15198396Y-12586150D01*
X15198396Y-12586150D02*
X15217444Y-12595674D01*
X15217444Y-12595674D02*
X15226968Y-12614722D01*
X15226968Y-12614722D02*
X15226968Y-12633769D01*
X15226968Y-12633769D02*
X15131730Y-12652817D01*
X15303158Y-12709960D02*
X15322206Y-12719484D01*
X15322206Y-12719484D02*
X15360301Y-12719484D01*
X15360301Y-12719484D02*
X15379349Y-12709960D01*
X15379349Y-12709960D02*
X15388872Y-12690912D01*
X15388872Y-12690912D02*
X15388872Y-12681388D01*
X15388872Y-12681388D02*
X15379349Y-12662341D01*
X15379349Y-12662341D02*
X15360301Y-12652817D01*
X15360301Y-12652817D02*
X15331730Y-12652817D01*
X15331730Y-12652817D02*
X15312682Y-12643293D01*
X15312682Y-12643293D02*
X15303158Y-12624246D01*
X15303158Y-12624246D02*
X15303158Y-12614722D01*
X15303158Y-12614722D02*
X15312682Y-12595674D01*
X15312682Y-12595674D02*
X15331730Y-12586150D01*
X15331730Y-12586150D02*
X15360301Y-12586150D01*
X15360301Y-12586150D02*
X15379349Y-12595674D01*
X15455539Y-12795674D02*
X15465063Y-12786150D01*
X15465063Y-12786150D02*
X15484111Y-12757579D01*
X15484111Y-12757579D02*
X15493634Y-12738531D01*
X15493634Y-12738531D02*
X15503158Y-12709960D01*
X15503158Y-12709960D02*
X15512682Y-12662341D01*
X15512682Y-12662341D02*
X15512682Y-12624246D01*
X15512682Y-12624246D02*
X15503158Y-12576627D01*
X15503158Y-12576627D02*
X15493634Y-12548055D01*
X15493634Y-12548055D02*
X15484111Y-12529008D01*
X15484111Y-12529008D02*
X15465063Y-12500436D01*
X15465063Y-12500436D02*
X15455539Y-12490912D01*
D14*
X10475063Y-12928063D02*
X10475063Y-12855937D01*
X10402937Y-12855937D01*
X10402937Y-12928063D01*
X10475063Y-12928063D01*
D11*
X10855539Y-12983484D02*
X10741253Y-12983484D01*
X10798396Y-12983484D02*
X10798396Y-12783484D01*
X10798396Y-12783484D02*
X10779348Y-12812055D01*
X10779348Y-12812055D02*
X10760301Y-12831103D01*
X10760301Y-12831103D02*
X10741253Y-12840627D01*
X10941253Y-12964436D02*
X10950777Y-12973960D01*
X10950777Y-12973960D02*
X10941253Y-12983484D01*
X10941253Y-12983484D02*
X10931729Y-12973960D01*
X10931729Y-12973960D02*
X10941253Y-12964436D01*
X10941253Y-12964436D02*
X10941253Y-12983484D01*
X11074586Y-12783484D02*
X11093634Y-12783484D01*
X11093634Y-12783484D02*
X11112682Y-12793008D01*
X11112682Y-12793008D02*
X11122205Y-12802531D01*
X11122205Y-12802531D02*
X11131729Y-12821579D01*
X11131729Y-12821579D02*
X11141253Y-12859674D01*
X11141253Y-12859674D02*
X11141253Y-12907293D01*
X11141253Y-12907293D02*
X11131729Y-12945388D01*
X11131729Y-12945388D02*
X11122205Y-12964436D01*
X11122205Y-12964436D02*
X11112682Y-12973960D01*
X11112682Y-12973960D02*
X11093634Y-12983484D01*
X11093634Y-12983484D02*
X11074586Y-12983484D01*
X11074586Y-12983484D02*
X11055539Y-12973960D01*
X11055539Y-12973960D02*
X11046015Y-12964436D01*
X11046015Y-12964436D02*
X11036491Y-12945388D01*
X11036491Y-12945388D02*
X11026967Y-12907293D01*
X11026967Y-12907293D02*
X11026967Y-12859674D01*
X11026967Y-12859674D02*
X11036491Y-12821579D01*
X11036491Y-12821579D02*
X11046015Y-12802531D01*
X11046015Y-12802531D02*
X11055539Y-12793008D01*
X11055539Y-12793008D02*
X11074586Y-12783484D01*
X11217443Y-12802531D02*
X11226967Y-12793008D01*
X11226967Y-12793008D02*
X11246015Y-12783484D01*
X11246015Y-12783484D02*
X11293634Y-12783484D01*
X11293634Y-12783484D02*
X11312682Y-12793008D01*
X11312682Y-12793008D02*
X11322205Y-12802531D01*
X11322205Y-12802531D02*
X11331729Y-12821579D01*
X11331729Y-12821579D02*
X11331729Y-12840627D01*
X11331729Y-12840627D02*
X11322205Y-12869198D01*
X11322205Y-12869198D02*
X11207920Y-12983484D01*
X11207920Y-12983484D02*
X11331729Y-12983484D01*
X11455539Y-12783484D02*
X11474586Y-12783484D01*
X11474586Y-12783484D02*
X11493634Y-12793008D01*
X11493634Y-12793008D02*
X11503158Y-12802531D01*
X11503158Y-12802531D02*
X11512682Y-12821579D01*
X11512682Y-12821579D02*
X11522205Y-12859674D01*
X11522205Y-12859674D02*
X11522205Y-12907293D01*
X11522205Y-12907293D02*
X11512682Y-12945388D01*
X11512682Y-12945388D02*
X11503158Y-12964436D01*
X11503158Y-12964436D02*
X11493634Y-12973960D01*
X11493634Y-12973960D02*
X11474586Y-12983484D01*
X11474586Y-12983484D02*
X11455539Y-12983484D01*
X11455539Y-12983484D02*
X11436491Y-12973960D01*
X11436491Y-12973960D02*
X11426967Y-12964436D01*
X11426967Y-12964436D02*
X11417443Y-12945388D01*
X11417443Y-12945388D02*
X11407920Y-12907293D01*
X11407920Y-12907293D02*
X11407920Y-12859674D01*
X11407920Y-12859674D02*
X11417443Y-12821579D01*
X11417443Y-12821579D02*
X11426967Y-12802531D01*
X11426967Y-12802531D02*
X11436491Y-12793008D01*
X11436491Y-12793008D02*
X11455539Y-12783484D01*
X11607920Y-12983484D02*
X11607920Y-12850150D01*
X11607920Y-12869198D02*
X11617443Y-12859674D01*
X11617443Y-12859674D02*
X11636491Y-12850150D01*
X11636491Y-12850150D02*
X11665063Y-12850150D01*
X11665063Y-12850150D02*
X11684110Y-12859674D01*
X11684110Y-12859674D02*
X11693634Y-12878722D01*
X11693634Y-12878722D02*
X11693634Y-12983484D01*
X11693634Y-12878722D02*
X11703158Y-12859674D01*
X11703158Y-12859674D02*
X11722205Y-12850150D01*
X11722205Y-12850150D02*
X11750777Y-12850150D01*
X11750777Y-12850150D02*
X11769824Y-12859674D01*
X11769824Y-12859674D02*
X11779348Y-12878722D01*
X11779348Y-12878722D02*
X11779348Y-12983484D01*
X11874586Y-12983484D02*
X11874586Y-12850150D01*
X11874586Y-12869198D02*
X11884110Y-12859674D01*
X11884110Y-12859674D02*
X11903158Y-12850150D01*
X11903158Y-12850150D02*
X11931729Y-12850150D01*
X11931729Y-12850150D02*
X11950777Y-12859674D01*
X11950777Y-12859674D02*
X11960301Y-12878722D01*
X11960301Y-12878722D02*
X11960301Y-12983484D01*
X11960301Y-12878722D02*
X11969824Y-12859674D01*
X11969824Y-12859674D02*
X11988872Y-12850150D01*
X11988872Y-12850150D02*
X12017443Y-12850150D01*
X12017443Y-12850150D02*
X12036491Y-12859674D01*
X12036491Y-12859674D02*
X12046015Y-12878722D01*
X12046015Y-12878722D02*
X12046015Y-12983484D01*
X12436491Y-12773960D02*
X12265063Y-13031103D01*
X12693634Y-12783484D02*
X12712682Y-12783484D01*
X12712682Y-12783484D02*
X12731729Y-12793008D01*
X12731729Y-12793008D02*
X12741253Y-12802531D01*
X12741253Y-12802531D02*
X12750777Y-12821579D01*
X12750777Y-12821579D02*
X12760301Y-12859674D01*
X12760301Y-12859674D02*
X12760301Y-12907293D01*
X12760301Y-12907293D02*
X12750777Y-12945388D01*
X12750777Y-12945388D02*
X12741253Y-12964436D01*
X12741253Y-12964436D02*
X12731729Y-12973960D01*
X12731729Y-12973960D02*
X12712682Y-12983484D01*
X12712682Y-12983484D02*
X12693634Y-12983484D01*
X12693634Y-12983484D02*
X12674586Y-12973960D01*
X12674586Y-12973960D02*
X12665063Y-12964436D01*
X12665063Y-12964436D02*
X12655539Y-12945388D01*
X12655539Y-12945388D02*
X12646015Y-12907293D01*
X12646015Y-12907293D02*
X12646015Y-12859674D01*
X12646015Y-12859674D02*
X12655539Y-12821579D01*
X12655539Y-12821579D02*
X12665063Y-12802531D01*
X12665063Y-12802531D02*
X12674586Y-12793008D01*
X12674586Y-12793008D02*
X12693634Y-12783484D01*
X12846015Y-12964436D02*
X12855539Y-12973960D01*
X12855539Y-12973960D02*
X12846015Y-12983484D01*
X12846015Y-12983484D02*
X12836491Y-12973960D01*
X12836491Y-12973960D02*
X12846015Y-12964436D01*
X12846015Y-12964436D02*
X12846015Y-12983484D01*
X12979348Y-12783484D02*
X12998396Y-12783484D01*
X12998396Y-12783484D02*
X13017444Y-12793008D01*
X13017444Y-12793008D02*
X13026967Y-12802531D01*
X13026967Y-12802531D02*
X13036491Y-12821579D01*
X13036491Y-12821579D02*
X13046015Y-12859674D01*
X13046015Y-12859674D02*
X13046015Y-12907293D01*
X13046015Y-12907293D02*
X13036491Y-12945388D01*
X13036491Y-12945388D02*
X13026967Y-12964436D01*
X13026967Y-12964436D02*
X13017444Y-12973960D01*
X13017444Y-12973960D02*
X12998396Y-12983484D01*
X12998396Y-12983484D02*
X12979348Y-12983484D01*
X12979348Y-12983484D02*
X12960301Y-12973960D01*
X12960301Y-12973960D02*
X12950777Y-12964436D01*
X12950777Y-12964436D02*
X12941253Y-12945388D01*
X12941253Y-12945388D02*
X12931729Y-12907293D01*
X12931729Y-12907293D02*
X12931729Y-12859674D01*
X12931729Y-12859674D02*
X12941253Y-12821579D01*
X12941253Y-12821579D02*
X12950777Y-12802531D01*
X12950777Y-12802531D02*
X12960301Y-12793008D01*
X12960301Y-12793008D02*
X12979348Y-12783484D01*
X13217444Y-12850150D02*
X13217444Y-12983484D01*
X13169825Y-12773960D02*
X13122206Y-12916817D01*
X13122206Y-12916817D02*
X13246015Y-12916817D01*
X13360301Y-12783484D02*
X13379348Y-12783484D01*
X13379348Y-12783484D02*
X13398396Y-12793008D01*
X13398396Y-12793008D02*
X13407920Y-12802531D01*
X13407920Y-12802531D02*
X13417444Y-12821579D01*
X13417444Y-12821579D02*
X13426967Y-12859674D01*
X13426967Y-12859674D02*
X13426967Y-12907293D01*
X13426967Y-12907293D02*
X13417444Y-12945388D01*
X13417444Y-12945388D02*
X13407920Y-12964436D01*
X13407920Y-12964436D02*
X13398396Y-12973960D01*
X13398396Y-12973960D02*
X13379348Y-12983484D01*
X13379348Y-12983484D02*
X13360301Y-12983484D01*
X13360301Y-12983484D02*
X13341253Y-12973960D01*
X13341253Y-12973960D02*
X13331729Y-12964436D01*
X13331729Y-12964436D02*
X13322206Y-12945388D01*
X13322206Y-12945388D02*
X13312682Y-12907293D01*
X13312682Y-12907293D02*
X13312682Y-12859674D01*
X13312682Y-12859674D02*
X13322206Y-12821579D01*
X13322206Y-12821579D02*
X13331729Y-12802531D01*
X13331729Y-12802531D02*
X13341253Y-12793008D01*
X13341253Y-12793008D02*
X13360301Y-12783484D01*
X13503158Y-12802531D02*
X13512682Y-12793008D01*
X13512682Y-12793008D02*
X13531729Y-12783484D01*
X13531729Y-12783484D02*
X13579348Y-12783484D01*
X13579348Y-12783484D02*
X13598396Y-12793008D01*
X13598396Y-12793008D02*
X13607920Y-12802531D01*
X13607920Y-12802531D02*
X13617444Y-12821579D01*
X13617444Y-12821579D02*
X13617444Y-12840627D01*
X13617444Y-12840627D02*
X13607920Y-12869198D01*
X13607920Y-12869198D02*
X13493634Y-12983484D01*
X13493634Y-12983484D02*
X13617444Y-12983484D01*
X13693634Y-12783484D02*
X13693634Y-12821579D01*
X13769825Y-12783484D02*
X13769825Y-12821579D01*
X14065063Y-13059674D02*
X14055539Y-13050150D01*
X14055539Y-13050150D02*
X14036491Y-13021579D01*
X14036491Y-13021579D02*
X14026968Y-13002531D01*
X14026968Y-13002531D02*
X14017444Y-12973960D01*
X14017444Y-12973960D02*
X14007920Y-12926341D01*
X14007920Y-12926341D02*
X14007920Y-12888246D01*
X14007920Y-12888246D02*
X14017444Y-12840627D01*
X14017444Y-12840627D02*
X14026968Y-12812055D01*
X14026968Y-12812055D02*
X14036491Y-12793008D01*
X14036491Y-12793008D02*
X14055539Y-12764436D01*
X14055539Y-12764436D02*
X14065063Y-12754912D01*
X14226968Y-12850150D02*
X14226968Y-12983484D01*
X14179348Y-12773960D02*
X14131729Y-12916817D01*
X14131729Y-12916817D02*
X14255539Y-12916817D01*
X14312682Y-12783484D02*
X14436491Y-12783484D01*
X14436491Y-12783484D02*
X14369825Y-12859674D01*
X14369825Y-12859674D02*
X14398396Y-12859674D01*
X14398396Y-12859674D02*
X14417444Y-12869198D01*
X14417444Y-12869198D02*
X14426968Y-12878722D01*
X14426968Y-12878722D02*
X14436491Y-12897769D01*
X14436491Y-12897769D02*
X14436491Y-12945388D01*
X14436491Y-12945388D02*
X14426968Y-12964436D01*
X14426968Y-12964436D02*
X14417444Y-12973960D01*
X14417444Y-12973960D02*
X14398396Y-12983484D01*
X14398396Y-12983484D02*
X14341253Y-12983484D01*
X14341253Y-12983484D02*
X14322206Y-12973960D01*
X14322206Y-12973960D02*
X14312682Y-12964436D01*
X14674587Y-12983484D02*
X14674587Y-12783484D01*
X14760301Y-12983484D02*
X14760301Y-12878722D01*
X14760301Y-12878722D02*
X14750777Y-12859674D01*
X14750777Y-12859674D02*
X14731730Y-12850150D01*
X14731730Y-12850150D02*
X14703158Y-12850150D01*
X14703158Y-12850150D02*
X14684110Y-12859674D01*
X14684110Y-12859674D02*
X14674587Y-12869198D01*
X14884110Y-12983484D02*
X14865063Y-12973960D01*
X14865063Y-12973960D02*
X14855539Y-12964436D01*
X14855539Y-12964436D02*
X14846015Y-12945388D01*
X14846015Y-12945388D02*
X14846015Y-12888246D01*
X14846015Y-12888246D02*
X14855539Y-12869198D01*
X14855539Y-12869198D02*
X14865063Y-12859674D01*
X14865063Y-12859674D02*
X14884110Y-12850150D01*
X14884110Y-12850150D02*
X14912682Y-12850150D01*
X14912682Y-12850150D02*
X14931730Y-12859674D01*
X14931730Y-12859674D02*
X14941253Y-12869198D01*
X14941253Y-12869198D02*
X14950777Y-12888246D01*
X14950777Y-12888246D02*
X14950777Y-12945388D01*
X14950777Y-12945388D02*
X14941253Y-12964436D01*
X14941253Y-12964436D02*
X14931730Y-12973960D01*
X14931730Y-12973960D02*
X14912682Y-12983484D01*
X14912682Y-12983484D02*
X14884110Y-12983484D01*
X15065063Y-12983484D02*
X15046015Y-12973960D01*
X15046015Y-12973960D02*
X15036491Y-12954912D01*
X15036491Y-12954912D02*
X15036491Y-12783484D01*
X15217444Y-12973960D02*
X15198396Y-12983484D01*
X15198396Y-12983484D02*
X15160301Y-12983484D01*
X15160301Y-12983484D02*
X15141253Y-12973960D01*
X15141253Y-12973960D02*
X15131730Y-12954912D01*
X15131730Y-12954912D02*
X15131730Y-12878722D01*
X15131730Y-12878722D02*
X15141253Y-12859674D01*
X15141253Y-12859674D02*
X15160301Y-12850150D01*
X15160301Y-12850150D02*
X15198396Y-12850150D01*
X15198396Y-12850150D02*
X15217444Y-12859674D01*
X15217444Y-12859674D02*
X15226968Y-12878722D01*
X15226968Y-12878722D02*
X15226968Y-12897769D01*
X15226968Y-12897769D02*
X15131730Y-12916817D01*
X15303158Y-12973960D02*
X15322206Y-12983484D01*
X15322206Y-12983484D02*
X15360301Y-12983484D01*
X15360301Y-12983484D02*
X15379349Y-12973960D01*
X15379349Y-12973960D02*
X15388872Y-12954912D01*
X15388872Y-12954912D02*
X15388872Y-12945388D01*
X15388872Y-12945388D02*
X15379349Y-12926341D01*
X15379349Y-12926341D02*
X15360301Y-12916817D01*
X15360301Y-12916817D02*
X15331730Y-12916817D01*
X15331730Y-12916817D02*
X15312682Y-12907293D01*
X15312682Y-12907293D02*
X15303158Y-12888246D01*
X15303158Y-12888246D02*
X15303158Y-12878722D01*
X15303158Y-12878722D02*
X15312682Y-12859674D01*
X15312682Y-12859674D02*
X15331730Y-12850150D01*
X15331730Y-12850150D02*
X15360301Y-12850150D01*
X15360301Y-12850150D02*
X15379349Y-12859674D01*
X15455539Y-13059674D02*
X15465063Y-13050150D01*
X15465063Y-13050150D02*
X15484111Y-13021579D01*
X15484111Y-13021579D02*
X15493634Y-13002531D01*
X15493634Y-13002531D02*
X15503158Y-12973960D01*
X15503158Y-12973960D02*
X15512682Y-12926341D01*
X15512682Y-12926341D02*
X15512682Y-12888246D01*
X15512682Y-12888246D02*
X15503158Y-12840627D01*
X15503158Y-12840627D02*
X15493634Y-12812055D01*
X15493634Y-12812055D02*
X15484111Y-12793008D01*
X15484111Y-12793008D02*
X15465063Y-12764436D01*
X15465063Y-12764436D02*
X15455539Y-12754912D01*
D15*
X10415000Y-13231000D02*
X10490000Y-13156000D01*
X10415000Y-13081000D01*
X10340000Y-13156000D01*
X10415000Y-13231000D01*
D11*
X10855539Y-13247484D02*
X10741253Y-13247484D01*
X10798396Y-13247484D02*
X10798396Y-13047484D01*
X10798396Y-13047484D02*
X10779348Y-13076055D01*
X10779348Y-13076055D02*
X10760301Y-13095103D01*
X10760301Y-13095103D02*
X10741253Y-13104627D01*
X10941253Y-13228436D02*
X10950777Y-13237960D01*
X10950777Y-13237960D02*
X10941253Y-13247484D01*
X10941253Y-13247484D02*
X10931729Y-13237960D01*
X10931729Y-13237960D02*
X10941253Y-13228436D01*
X10941253Y-13228436D02*
X10941253Y-13247484D01*
X11131729Y-13047484D02*
X11036491Y-13047484D01*
X11036491Y-13047484D02*
X11026967Y-13142722D01*
X11026967Y-13142722D02*
X11036491Y-13133198D01*
X11036491Y-13133198D02*
X11055539Y-13123674D01*
X11055539Y-13123674D02*
X11103158Y-13123674D01*
X11103158Y-13123674D02*
X11122205Y-13133198D01*
X11122205Y-13133198D02*
X11131729Y-13142722D01*
X11131729Y-13142722D02*
X11141253Y-13161769D01*
X11141253Y-13161769D02*
X11141253Y-13209388D01*
X11141253Y-13209388D02*
X11131729Y-13228436D01*
X11131729Y-13228436D02*
X11122205Y-13237960D01*
X11122205Y-13237960D02*
X11103158Y-13247484D01*
X11103158Y-13247484D02*
X11055539Y-13247484D01*
X11055539Y-13247484D02*
X11036491Y-13237960D01*
X11036491Y-13237960D02*
X11026967Y-13228436D01*
X11265062Y-13047484D02*
X11284110Y-13047484D01*
X11284110Y-13047484D02*
X11303158Y-13057008D01*
X11303158Y-13057008D02*
X11312682Y-13066531D01*
X11312682Y-13066531D02*
X11322205Y-13085579D01*
X11322205Y-13085579D02*
X11331729Y-13123674D01*
X11331729Y-13123674D02*
X11331729Y-13171293D01*
X11331729Y-13171293D02*
X11322205Y-13209388D01*
X11322205Y-13209388D02*
X11312682Y-13228436D01*
X11312682Y-13228436D02*
X11303158Y-13237960D01*
X11303158Y-13237960D02*
X11284110Y-13247484D01*
X11284110Y-13247484D02*
X11265062Y-13247484D01*
X11265062Y-13247484D02*
X11246015Y-13237960D01*
X11246015Y-13237960D02*
X11236491Y-13228436D01*
X11236491Y-13228436D02*
X11226967Y-13209388D01*
X11226967Y-13209388D02*
X11217443Y-13171293D01*
X11217443Y-13171293D02*
X11217443Y-13123674D01*
X11217443Y-13123674D02*
X11226967Y-13085579D01*
X11226967Y-13085579D02*
X11236491Y-13066531D01*
X11236491Y-13066531D02*
X11246015Y-13057008D01*
X11246015Y-13057008D02*
X11265062Y-13047484D01*
X11455539Y-13047484D02*
X11474586Y-13047484D01*
X11474586Y-13047484D02*
X11493634Y-13057008D01*
X11493634Y-13057008D02*
X11503158Y-13066531D01*
X11503158Y-13066531D02*
X11512682Y-13085579D01*
X11512682Y-13085579D02*
X11522205Y-13123674D01*
X11522205Y-13123674D02*
X11522205Y-13171293D01*
X11522205Y-13171293D02*
X11512682Y-13209388D01*
X11512682Y-13209388D02*
X11503158Y-13228436D01*
X11503158Y-13228436D02*
X11493634Y-13237960D01*
X11493634Y-13237960D02*
X11474586Y-13247484D01*
X11474586Y-13247484D02*
X11455539Y-13247484D01*
X11455539Y-13247484D02*
X11436491Y-13237960D01*
X11436491Y-13237960D02*
X11426967Y-13228436D01*
X11426967Y-13228436D02*
X11417443Y-13209388D01*
X11417443Y-13209388D02*
X11407920Y-13171293D01*
X11407920Y-13171293D02*
X11407920Y-13123674D01*
X11407920Y-13123674D02*
X11417443Y-13085579D01*
X11417443Y-13085579D02*
X11426967Y-13066531D01*
X11426967Y-13066531D02*
X11436491Y-13057008D01*
X11436491Y-13057008D02*
X11455539Y-13047484D01*
X11607920Y-13247484D02*
X11607920Y-13114150D01*
X11607920Y-13133198D02*
X11617443Y-13123674D01*
X11617443Y-13123674D02*
X11636491Y-13114150D01*
X11636491Y-13114150D02*
X11665063Y-13114150D01*
X11665063Y-13114150D02*
X11684110Y-13123674D01*
X11684110Y-13123674D02*
X11693634Y-13142722D01*
X11693634Y-13142722D02*
X11693634Y-13247484D01*
X11693634Y-13142722D02*
X11703158Y-13123674D01*
X11703158Y-13123674D02*
X11722205Y-13114150D01*
X11722205Y-13114150D02*
X11750777Y-13114150D01*
X11750777Y-13114150D02*
X11769824Y-13123674D01*
X11769824Y-13123674D02*
X11779348Y-13142722D01*
X11779348Y-13142722D02*
X11779348Y-13247484D01*
X11874586Y-13247484D02*
X11874586Y-13114150D01*
X11874586Y-13133198D02*
X11884110Y-13123674D01*
X11884110Y-13123674D02*
X11903158Y-13114150D01*
X11903158Y-13114150D02*
X11931729Y-13114150D01*
X11931729Y-13114150D02*
X11950777Y-13123674D01*
X11950777Y-13123674D02*
X11960301Y-13142722D01*
X11960301Y-13142722D02*
X11960301Y-13247484D01*
X11960301Y-13142722D02*
X11969824Y-13123674D01*
X11969824Y-13123674D02*
X11988872Y-13114150D01*
X11988872Y-13114150D02*
X12017443Y-13114150D01*
X12017443Y-13114150D02*
X12036491Y-13123674D01*
X12036491Y-13123674D02*
X12046015Y-13142722D01*
X12046015Y-13142722D02*
X12046015Y-13247484D01*
X12436491Y-13037960D02*
X12265063Y-13295103D01*
X12693634Y-13047484D02*
X12712682Y-13047484D01*
X12712682Y-13047484D02*
X12731729Y-13057008D01*
X12731729Y-13057008D02*
X12741253Y-13066531D01*
X12741253Y-13066531D02*
X12750777Y-13085579D01*
X12750777Y-13085579D02*
X12760301Y-13123674D01*
X12760301Y-13123674D02*
X12760301Y-13171293D01*
X12760301Y-13171293D02*
X12750777Y-13209388D01*
X12750777Y-13209388D02*
X12741253Y-13228436D01*
X12741253Y-13228436D02*
X12731729Y-13237960D01*
X12731729Y-13237960D02*
X12712682Y-13247484D01*
X12712682Y-13247484D02*
X12693634Y-13247484D01*
X12693634Y-13247484D02*
X12674586Y-13237960D01*
X12674586Y-13237960D02*
X12665063Y-13228436D01*
X12665063Y-13228436D02*
X12655539Y-13209388D01*
X12655539Y-13209388D02*
X12646015Y-13171293D01*
X12646015Y-13171293D02*
X12646015Y-13123674D01*
X12646015Y-13123674D02*
X12655539Y-13085579D01*
X12655539Y-13085579D02*
X12665063Y-13066531D01*
X12665063Y-13066531D02*
X12674586Y-13057008D01*
X12674586Y-13057008D02*
X12693634Y-13047484D01*
X12846015Y-13228436D02*
X12855539Y-13237960D01*
X12855539Y-13237960D02*
X12846015Y-13247484D01*
X12846015Y-13247484D02*
X12836491Y-13237960D01*
X12836491Y-13237960D02*
X12846015Y-13228436D01*
X12846015Y-13228436D02*
X12846015Y-13247484D01*
X12979348Y-13047484D02*
X12998396Y-13047484D01*
X12998396Y-13047484D02*
X13017444Y-13057008D01*
X13017444Y-13057008D02*
X13026967Y-13066531D01*
X13026967Y-13066531D02*
X13036491Y-13085579D01*
X13036491Y-13085579D02*
X13046015Y-13123674D01*
X13046015Y-13123674D02*
X13046015Y-13171293D01*
X13046015Y-13171293D02*
X13036491Y-13209388D01*
X13036491Y-13209388D02*
X13026967Y-13228436D01*
X13026967Y-13228436D02*
X13017444Y-13237960D01*
X13017444Y-13237960D02*
X12998396Y-13247484D01*
X12998396Y-13247484D02*
X12979348Y-13247484D01*
X12979348Y-13247484D02*
X12960301Y-13237960D01*
X12960301Y-13237960D02*
X12950777Y-13228436D01*
X12950777Y-13228436D02*
X12941253Y-13209388D01*
X12941253Y-13209388D02*
X12931729Y-13171293D01*
X12931729Y-13171293D02*
X12931729Y-13123674D01*
X12931729Y-13123674D02*
X12941253Y-13085579D01*
X12941253Y-13085579D02*
X12950777Y-13066531D01*
X12950777Y-13066531D02*
X12960301Y-13057008D01*
X12960301Y-13057008D02*
X12979348Y-13047484D01*
X13226967Y-13047484D02*
X13131729Y-13047484D01*
X13131729Y-13047484D02*
X13122206Y-13142722D01*
X13122206Y-13142722D02*
X13131729Y-13133198D01*
X13131729Y-13133198D02*
X13150777Y-13123674D01*
X13150777Y-13123674D02*
X13198396Y-13123674D01*
X13198396Y-13123674D02*
X13217444Y-13133198D01*
X13217444Y-13133198D02*
X13226967Y-13142722D01*
X13226967Y-13142722D02*
X13236491Y-13161769D01*
X13236491Y-13161769D02*
X13236491Y-13209388D01*
X13236491Y-13209388D02*
X13226967Y-13228436D01*
X13226967Y-13228436D02*
X13217444Y-13237960D01*
X13217444Y-13237960D02*
X13198396Y-13247484D01*
X13198396Y-13247484D02*
X13150777Y-13247484D01*
X13150777Y-13247484D02*
X13131729Y-13237960D01*
X13131729Y-13237960D02*
X13122206Y-13228436D01*
X13331729Y-13247484D02*
X13369825Y-13247484D01*
X13369825Y-13247484D02*
X13388872Y-13237960D01*
X13388872Y-13237960D02*
X13398396Y-13228436D01*
X13398396Y-13228436D02*
X13417444Y-13199865D01*
X13417444Y-13199865D02*
X13426967Y-13161769D01*
X13426967Y-13161769D02*
X13426967Y-13085579D01*
X13426967Y-13085579D02*
X13417444Y-13066531D01*
X13417444Y-13066531D02*
X13407920Y-13057008D01*
X13407920Y-13057008D02*
X13388872Y-13047484D01*
X13388872Y-13047484D02*
X13350777Y-13047484D01*
X13350777Y-13047484D02*
X13331729Y-13057008D01*
X13331729Y-13057008D02*
X13322206Y-13066531D01*
X13322206Y-13066531D02*
X13312682Y-13085579D01*
X13312682Y-13085579D02*
X13312682Y-13133198D01*
X13312682Y-13133198D02*
X13322206Y-13152246D01*
X13322206Y-13152246D02*
X13331729Y-13161769D01*
X13331729Y-13161769D02*
X13350777Y-13171293D01*
X13350777Y-13171293D02*
X13388872Y-13171293D01*
X13388872Y-13171293D02*
X13407920Y-13161769D01*
X13407920Y-13161769D02*
X13417444Y-13152246D01*
X13417444Y-13152246D02*
X13426967Y-13133198D01*
X13617444Y-13247484D02*
X13503158Y-13247484D01*
X13560301Y-13247484D02*
X13560301Y-13047484D01*
X13560301Y-13047484D02*
X13541253Y-13076055D01*
X13541253Y-13076055D02*
X13522206Y-13095103D01*
X13522206Y-13095103D02*
X13503158Y-13104627D01*
X13693634Y-13047484D02*
X13693634Y-13085579D01*
X13769825Y-13047484D02*
X13769825Y-13085579D01*
X14065063Y-13323674D02*
X14055539Y-13314150D01*
X14055539Y-13314150D02*
X14036491Y-13285579D01*
X14036491Y-13285579D02*
X14026968Y-13266531D01*
X14026968Y-13266531D02*
X14017444Y-13237960D01*
X14017444Y-13237960D02*
X14007920Y-13190341D01*
X14007920Y-13190341D02*
X14007920Y-13152246D01*
X14007920Y-13152246D02*
X14017444Y-13104627D01*
X14017444Y-13104627D02*
X14026968Y-13076055D01*
X14026968Y-13076055D02*
X14036491Y-13057008D01*
X14036491Y-13057008D02*
X14055539Y-13028436D01*
X14055539Y-13028436D02*
X14065063Y-13018912D01*
X14131729Y-13066531D02*
X14141253Y-13057008D01*
X14141253Y-13057008D02*
X14160301Y-13047484D01*
X14160301Y-13047484D02*
X14207920Y-13047484D01*
X14207920Y-13047484D02*
X14226968Y-13057008D01*
X14226968Y-13057008D02*
X14236491Y-13066531D01*
X14236491Y-13066531D02*
X14246015Y-13085579D01*
X14246015Y-13085579D02*
X14246015Y-13104627D01*
X14246015Y-13104627D02*
X14236491Y-13133198D01*
X14236491Y-13133198D02*
X14122206Y-13247484D01*
X14122206Y-13247484D02*
X14246015Y-13247484D01*
X14484110Y-13247484D02*
X14484110Y-13047484D01*
X14569825Y-13247484D02*
X14569825Y-13142722D01*
X14569825Y-13142722D02*
X14560301Y-13123674D01*
X14560301Y-13123674D02*
X14541253Y-13114150D01*
X14541253Y-13114150D02*
X14512682Y-13114150D01*
X14512682Y-13114150D02*
X14493634Y-13123674D01*
X14493634Y-13123674D02*
X14484110Y-13133198D01*
X14693634Y-13247484D02*
X14674587Y-13237960D01*
X14674587Y-13237960D02*
X14665063Y-13228436D01*
X14665063Y-13228436D02*
X14655539Y-13209388D01*
X14655539Y-13209388D02*
X14655539Y-13152246D01*
X14655539Y-13152246D02*
X14665063Y-13133198D01*
X14665063Y-13133198D02*
X14674587Y-13123674D01*
X14674587Y-13123674D02*
X14693634Y-13114150D01*
X14693634Y-13114150D02*
X14722206Y-13114150D01*
X14722206Y-13114150D02*
X14741253Y-13123674D01*
X14741253Y-13123674D02*
X14750777Y-13133198D01*
X14750777Y-13133198D02*
X14760301Y-13152246D01*
X14760301Y-13152246D02*
X14760301Y-13209388D01*
X14760301Y-13209388D02*
X14750777Y-13228436D01*
X14750777Y-13228436D02*
X14741253Y-13237960D01*
X14741253Y-13237960D02*
X14722206Y-13247484D01*
X14722206Y-13247484D02*
X14693634Y-13247484D01*
X14874587Y-13247484D02*
X14855539Y-13237960D01*
X14855539Y-13237960D02*
X14846015Y-13218912D01*
X14846015Y-13218912D02*
X14846015Y-13047484D01*
X15026968Y-13237960D02*
X15007920Y-13247484D01*
X15007920Y-13247484D02*
X14969825Y-13247484D01*
X14969825Y-13247484D02*
X14950777Y-13237960D01*
X14950777Y-13237960D02*
X14941253Y-13218912D01*
X14941253Y-13218912D02*
X14941253Y-13142722D01*
X14941253Y-13142722D02*
X14950777Y-13123674D01*
X14950777Y-13123674D02*
X14969825Y-13114150D01*
X14969825Y-13114150D02*
X15007920Y-13114150D01*
X15007920Y-13114150D02*
X15026968Y-13123674D01*
X15026968Y-13123674D02*
X15036491Y-13142722D01*
X15036491Y-13142722D02*
X15036491Y-13161769D01*
X15036491Y-13161769D02*
X14941253Y-13180817D01*
X15112682Y-13237960D02*
X15131730Y-13247484D01*
X15131730Y-13247484D02*
X15169825Y-13247484D01*
X15169825Y-13247484D02*
X15188872Y-13237960D01*
X15188872Y-13237960D02*
X15198396Y-13218912D01*
X15198396Y-13218912D02*
X15198396Y-13209388D01*
X15198396Y-13209388D02*
X15188872Y-13190341D01*
X15188872Y-13190341D02*
X15169825Y-13180817D01*
X15169825Y-13180817D02*
X15141253Y-13180817D01*
X15141253Y-13180817D02*
X15122206Y-13171293D01*
X15122206Y-13171293D02*
X15112682Y-13152246D01*
X15112682Y-13152246D02*
X15112682Y-13142722D01*
X15112682Y-13142722D02*
X15122206Y-13123674D01*
X15122206Y-13123674D02*
X15141253Y-13114150D01*
X15141253Y-13114150D02*
X15169825Y-13114150D01*
X15169825Y-13114150D02*
X15188872Y-13123674D01*
X15265063Y-13323674D02*
X15274587Y-13314150D01*
X15274587Y-13314150D02*
X15293634Y-13285579D01*
X15293634Y-13285579D02*
X15303158Y-13266531D01*
X15303158Y-13266531D02*
X15312682Y-13237960D01*
X15312682Y-13237960D02*
X15322206Y-13190341D01*
X15322206Y-13190341D02*
X15322206Y-13152246D01*
X15322206Y-13152246D02*
X15312682Y-13104627D01*
X15312682Y-13104627D02*
X15303158Y-13076055D01*
X15303158Y-13076055D02*
X15293634Y-13057008D01*
X15293634Y-13057008D02*
X15274587Y-13028436D01*
X15274587Y-13028436D02*
X15265063Y-13018912D01*
X10290000Y-13326000D02*
X10490000Y-13526000D01*
X10490000Y-13326000D02*
X10290000Y-13526000D01*
X10490000Y-13426000D02*
G75*
G02*
X10290000Y-13426000I-100000J0D01*
G01*
X10290000Y-13426000D02*
G75*
G02*
X10490000Y-13426000I100000J0D01*
G01*
X10741253Y-13336531D02*
X10750777Y-13327008D01*
X10750777Y-13327008D02*
X10769824Y-13317484D01*
X10769824Y-13317484D02*
X10817444Y-13317484D01*
X10817444Y-13317484D02*
X10836491Y-13327008D01*
X10836491Y-13327008D02*
X10846015Y-13336531D01*
X10846015Y-13336531D02*
X10855539Y-13355579D01*
X10855539Y-13355579D02*
X10855539Y-13374627D01*
X10855539Y-13374627D02*
X10846015Y-13403198D01*
X10846015Y-13403198D02*
X10731729Y-13517484D01*
X10731729Y-13517484D02*
X10855539Y-13517484D01*
X10941253Y-13498436D02*
X10950777Y-13507960D01*
X10950777Y-13507960D02*
X10941253Y-13517484D01*
X10941253Y-13517484D02*
X10931729Y-13507960D01*
X10931729Y-13507960D02*
X10941253Y-13498436D01*
X10941253Y-13498436D02*
X10941253Y-13517484D01*
X11074586Y-13317484D02*
X11093634Y-13317484D01*
X11093634Y-13317484D02*
X11112682Y-13327008D01*
X11112682Y-13327008D02*
X11122205Y-13336531D01*
X11122205Y-13336531D02*
X11131729Y-13355579D01*
X11131729Y-13355579D02*
X11141253Y-13393674D01*
X11141253Y-13393674D02*
X11141253Y-13441293D01*
X11141253Y-13441293D02*
X11131729Y-13479388D01*
X11131729Y-13479388D02*
X11122205Y-13498436D01*
X11122205Y-13498436D02*
X11112682Y-13507960D01*
X11112682Y-13507960D02*
X11093634Y-13517484D01*
X11093634Y-13517484D02*
X11074586Y-13517484D01*
X11074586Y-13517484D02*
X11055539Y-13507960D01*
X11055539Y-13507960D02*
X11046015Y-13498436D01*
X11046015Y-13498436D02*
X11036491Y-13479388D01*
X11036491Y-13479388D02*
X11026967Y-13441293D01*
X11026967Y-13441293D02*
X11026967Y-13393674D01*
X11026967Y-13393674D02*
X11036491Y-13355579D01*
X11036491Y-13355579D02*
X11046015Y-13336531D01*
X11046015Y-13336531D02*
X11055539Y-13327008D01*
X11055539Y-13327008D02*
X11074586Y-13317484D01*
X11265062Y-13317484D02*
X11284110Y-13317484D01*
X11284110Y-13317484D02*
X11303158Y-13327008D01*
X11303158Y-13327008D02*
X11312682Y-13336531D01*
X11312682Y-13336531D02*
X11322205Y-13355579D01*
X11322205Y-13355579D02*
X11331729Y-13393674D01*
X11331729Y-13393674D02*
X11331729Y-13441293D01*
X11331729Y-13441293D02*
X11322205Y-13479388D01*
X11322205Y-13479388D02*
X11312682Y-13498436D01*
X11312682Y-13498436D02*
X11303158Y-13507960D01*
X11303158Y-13507960D02*
X11284110Y-13517484D01*
X11284110Y-13517484D02*
X11265062Y-13517484D01*
X11265062Y-13517484D02*
X11246015Y-13507960D01*
X11246015Y-13507960D02*
X11236491Y-13498436D01*
X11236491Y-13498436D02*
X11226967Y-13479388D01*
X11226967Y-13479388D02*
X11217443Y-13441293D01*
X11217443Y-13441293D02*
X11217443Y-13393674D01*
X11217443Y-13393674D02*
X11226967Y-13355579D01*
X11226967Y-13355579D02*
X11236491Y-13336531D01*
X11236491Y-13336531D02*
X11246015Y-13327008D01*
X11246015Y-13327008D02*
X11265062Y-13317484D01*
X11455539Y-13317484D02*
X11474586Y-13317484D01*
X11474586Y-13317484D02*
X11493634Y-13327008D01*
X11493634Y-13327008D02*
X11503158Y-13336531D01*
X11503158Y-13336531D02*
X11512682Y-13355579D01*
X11512682Y-13355579D02*
X11522205Y-13393674D01*
X11522205Y-13393674D02*
X11522205Y-13441293D01*
X11522205Y-13441293D02*
X11512682Y-13479388D01*
X11512682Y-13479388D02*
X11503158Y-13498436D01*
X11503158Y-13498436D02*
X11493634Y-13507960D01*
X11493634Y-13507960D02*
X11474586Y-13517484D01*
X11474586Y-13517484D02*
X11455539Y-13517484D01*
X11455539Y-13517484D02*
X11436491Y-13507960D01*
X11436491Y-13507960D02*
X11426967Y-13498436D01*
X11426967Y-13498436D02*
X11417443Y-13479388D01*
X11417443Y-13479388D02*
X11407920Y-13441293D01*
X11407920Y-13441293D02*
X11407920Y-13393674D01*
X11407920Y-13393674D02*
X11417443Y-13355579D01*
X11417443Y-13355579D02*
X11426967Y-13336531D01*
X11426967Y-13336531D02*
X11436491Y-13327008D01*
X11436491Y-13327008D02*
X11455539Y-13317484D01*
X11607920Y-13517484D02*
X11607920Y-13384150D01*
X11607920Y-13403198D02*
X11617443Y-13393674D01*
X11617443Y-13393674D02*
X11636491Y-13384150D01*
X11636491Y-13384150D02*
X11665063Y-13384150D01*
X11665063Y-13384150D02*
X11684110Y-13393674D01*
X11684110Y-13393674D02*
X11693634Y-13412722D01*
X11693634Y-13412722D02*
X11693634Y-13517484D01*
X11693634Y-13412722D02*
X11703158Y-13393674D01*
X11703158Y-13393674D02*
X11722205Y-13384150D01*
X11722205Y-13384150D02*
X11750777Y-13384150D01*
X11750777Y-13384150D02*
X11769824Y-13393674D01*
X11769824Y-13393674D02*
X11779348Y-13412722D01*
X11779348Y-13412722D02*
X11779348Y-13517484D01*
X11874586Y-13517484D02*
X11874586Y-13384150D01*
X11874586Y-13403198D02*
X11884110Y-13393674D01*
X11884110Y-13393674D02*
X11903158Y-13384150D01*
X11903158Y-13384150D02*
X11931729Y-13384150D01*
X11931729Y-13384150D02*
X11950777Y-13393674D01*
X11950777Y-13393674D02*
X11960301Y-13412722D01*
X11960301Y-13412722D02*
X11960301Y-13517484D01*
X11960301Y-13412722D02*
X11969824Y-13393674D01*
X11969824Y-13393674D02*
X11988872Y-13384150D01*
X11988872Y-13384150D02*
X12017443Y-13384150D01*
X12017443Y-13384150D02*
X12036491Y-13393674D01*
X12036491Y-13393674D02*
X12046015Y-13412722D01*
X12046015Y-13412722D02*
X12046015Y-13517484D01*
X12436491Y-13307960D02*
X12265063Y-13565103D01*
X12693634Y-13317484D02*
X12712682Y-13317484D01*
X12712682Y-13317484D02*
X12731729Y-13327008D01*
X12731729Y-13327008D02*
X12741253Y-13336531D01*
X12741253Y-13336531D02*
X12750777Y-13355579D01*
X12750777Y-13355579D02*
X12760301Y-13393674D01*
X12760301Y-13393674D02*
X12760301Y-13441293D01*
X12760301Y-13441293D02*
X12750777Y-13479388D01*
X12750777Y-13479388D02*
X12741253Y-13498436D01*
X12741253Y-13498436D02*
X12731729Y-13507960D01*
X12731729Y-13507960D02*
X12712682Y-13517484D01*
X12712682Y-13517484D02*
X12693634Y-13517484D01*
X12693634Y-13517484D02*
X12674586Y-13507960D01*
X12674586Y-13507960D02*
X12665063Y-13498436D01*
X12665063Y-13498436D02*
X12655539Y-13479388D01*
X12655539Y-13479388D02*
X12646015Y-13441293D01*
X12646015Y-13441293D02*
X12646015Y-13393674D01*
X12646015Y-13393674D02*
X12655539Y-13355579D01*
X12655539Y-13355579D02*
X12665063Y-13336531D01*
X12665063Y-13336531D02*
X12674586Y-13327008D01*
X12674586Y-13327008D02*
X12693634Y-13317484D01*
X12846015Y-13498436D02*
X12855539Y-13507960D01*
X12855539Y-13507960D02*
X12846015Y-13517484D01*
X12846015Y-13517484D02*
X12836491Y-13507960D01*
X12836491Y-13507960D02*
X12846015Y-13498436D01*
X12846015Y-13498436D02*
X12846015Y-13517484D01*
X12979348Y-13317484D02*
X12998396Y-13317484D01*
X12998396Y-13317484D02*
X13017444Y-13327008D01*
X13017444Y-13327008D02*
X13026967Y-13336531D01*
X13026967Y-13336531D02*
X13036491Y-13355579D01*
X13036491Y-13355579D02*
X13046015Y-13393674D01*
X13046015Y-13393674D02*
X13046015Y-13441293D01*
X13046015Y-13441293D02*
X13036491Y-13479388D01*
X13036491Y-13479388D02*
X13026967Y-13498436D01*
X13026967Y-13498436D02*
X13017444Y-13507960D01*
X13017444Y-13507960D02*
X12998396Y-13517484D01*
X12998396Y-13517484D02*
X12979348Y-13517484D01*
X12979348Y-13517484D02*
X12960301Y-13507960D01*
X12960301Y-13507960D02*
X12950777Y-13498436D01*
X12950777Y-13498436D02*
X12941253Y-13479388D01*
X12941253Y-13479388D02*
X12931729Y-13441293D01*
X12931729Y-13441293D02*
X12931729Y-13393674D01*
X12931729Y-13393674D02*
X12941253Y-13355579D01*
X12941253Y-13355579D02*
X12950777Y-13336531D01*
X12950777Y-13336531D02*
X12960301Y-13327008D01*
X12960301Y-13327008D02*
X12979348Y-13317484D01*
X13112682Y-13317484D02*
X13246015Y-13317484D01*
X13246015Y-13317484D02*
X13160301Y-13517484D01*
X13350777Y-13403198D02*
X13331729Y-13393674D01*
X13331729Y-13393674D02*
X13322206Y-13384150D01*
X13322206Y-13384150D02*
X13312682Y-13365103D01*
X13312682Y-13365103D02*
X13312682Y-13355579D01*
X13312682Y-13355579D02*
X13322206Y-13336531D01*
X13322206Y-13336531D02*
X13331729Y-13327008D01*
X13331729Y-13327008D02*
X13350777Y-13317484D01*
X13350777Y-13317484D02*
X13388872Y-13317484D01*
X13388872Y-13317484D02*
X13407920Y-13327008D01*
X13407920Y-13327008D02*
X13417444Y-13336531D01*
X13417444Y-13336531D02*
X13426967Y-13355579D01*
X13426967Y-13355579D02*
X13426967Y-13365103D01*
X13426967Y-13365103D02*
X13417444Y-13384150D01*
X13417444Y-13384150D02*
X13407920Y-13393674D01*
X13407920Y-13393674D02*
X13388872Y-13403198D01*
X13388872Y-13403198D02*
X13350777Y-13403198D01*
X13350777Y-13403198D02*
X13331729Y-13412722D01*
X13331729Y-13412722D02*
X13322206Y-13422246D01*
X13322206Y-13422246D02*
X13312682Y-13441293D01*
X13312682Y-13441293D02*
X13312682Y-13479388D01*
X13312682Y-13479388D02*
X13322206Y-13498436D01*
X13322206Y-13498436D02*
X13331729Y-13507960D01*
X13331729Y-13507960D02*
X13350777Y-13517484D01*
X13350777Y-13517484D02*
X13388872Y-13517484D01*
X13388872Y-13517484D02*
X13407920Y-13507960D01*
X13407920Y-13507960D02*
X13417444Y-13498436D01*
X13417444Y-13498436D02*
X13426967Y-13479388D01*
X13426967Y-13479388D02*
X13426967Y-13441293D01*
X13426967Y-13441293D02*
X13417444Y-13422246D01*
X13417444Y-13422246D02*
X13407920Y-13412722D01*
X13407920Y-13412722D02*
X13388872Y-13403198D01*
X13493634Y-13317484D02*
X13626967Y-13317484D01*
X13626967Y-13317484D02*
X13541253Y-13517484D01*
X13693634Y-13317484D02*
X13693634Y-13355579D01*
X13769825Y-13317484D02*
X13769825Y-13355579D01*
X14065063Y-13593674D02*
X14055539Y-13584150D01*
X14055539Y-13584150D02*
X14036491Y-13555579D01*
X14036491Y-13555579D02*
X14026968Y-13536531D01*
X14026968Y-13536531D02*
X14017444Y-13507960D01*
X14017444Y-13507960D02*
X14007920Y-13460341D01*
X14007920Y-13460341D02*
X14007920Y-13422246D01*
X14007920Y-13422246D02*
X14017444Y-13374627D01*
X14017444Y-13374627D02*
X14026968Y-13346055D01*
X14026968Y-13346055D02*
X14036491Y-13327008D01*
X14036491Y-13327008D02*
X14055539Y-13298436D01*
X14055539Y-13298436D02*
X14065063Y-13288912D01*
X14246015Y-13517484D02*
X14131729Y-13517484D01*
X14188872Y-13517484D02*
X14188872Y-13317484D01*
X14188872Y-13317484D02*
X14169825Y-13346055D01*
X14169825Y-13346055D02*
X14150777Y-13365103D01*
X14150777Y-13365103D02*
X14131729Y-13374627D01*
X14474587Y-13507960D02*
X14493634Y-13517484D01*
X14493634Y-13517484D02*
X14531729Y-13517484D01*
X14531729Y-13517484D02*
X14550777Y-13507960D01*
X14550777Y-13507960D02*
X14560301Y-13488912D01*
X14560301Y-13488912D02*
X14560301Y-13479388D01*
X14560301Y-13479388D02*
X14550777Y-13460341D01*
X14550777Y-13460341D02*
X14531729Y-13450817D01*
X14531729Y-13450817D02*
X14503158Y-13450817D01*
X14503158Y-13450817D02*
X14484110Y-13441293D01*
X14484110Y-13441293D02*
X14474587Y-13422246D01*
X14474587Y-13422246D02*
X14474587Y-13412722D01*
X14474587Y-13412722D02*
X14484110Y-13393674D01*
X14484110Y-13393674D02*
X14503158Y-13384150D01*
X14503158Y-13384150D02*
X14531729Y-13384150D01*
X14531729Y-13384150D02*
X14550777Y-13393674D01*
X14674587Y-13517484D02*
X14655539Y-13507960D01*
X14655539Y-13507960D02*
X14646015Y-13488912D01*
X14646015Y-13488912D02*
X14646015Y-13317484D01*
X14779349Y-13517484D02*
X14760301Y-13507960D01*
X14760301Y-13507960D02*
X14750777Y-13498436D01*
X14750777Y-13498436D02*
X14741253Y-13479388D01*
X14741253Y-13479388D02*
X14741253Y-13422246D01*
X14741253Y-13422246D02*
X14750777Y-13403198D01*
X14750777Y-13403198D02*
X14760301Y-13393674D01*
X14760301Y-13393674D02*
X14779349Y-13384150D01*
X14779349Y-13384150D02*
X14807920Y-13384150D01*
X14807920Y-13384150D02*
X14826968Y-13393674D01*
X14826968Y-13393674D02*
X14836491Y-13403198D01*
X14836491Y-13403198D02*
X14846015Y-13422246D01*
X14846015Y-13422246D02*
X14846015Y-13479388D01*
X14846015Y-13479388D02*
X14836491Y-13498436D01*
X14836491Y-13498436D02*
X14826968Y-13507960D01*
X14826968Y-13507960D02*
X14807920Y-13517484D01*
X14807920Y-13517484D02*
X14779349Y-13517484D01*
X14903158Y-13384150D02*
X14979349Y-13384150D01*
X14931730Y-13317484D02*
X14931730Y-13488912D01*
X14931730Y-13488912D02*
X14941253Y-13507960D01*
X14941253Y-13507960D02*
X14960301Y-13517484D01*
X14960301Y-13517484D02*
X14979349Y-13517484D01*
X15026968Y-13593674D02*
X15036491Y-13584150D01*
X15036491Y-13584150D02*
X15055539Y-13555579D01*
X15055539Y-13555579D02*
X15065063Y-13536531D01*
X15065063Y-13536531D02*
X15074587Y-13507960D01*
X15074587Y-13507960D02*
X15084110Y-13460341D01*
X15084110Y-13460341D02*
X15084110Y-13422246D01*
X15084110Y-13422246D02*
X15074587Y-13374627D01*
X15074587Y-13374627D02*
X15065063Y-13346055D01*
X15065063Y-13346055D02*
X15055539Y-13327008D01*
X15055539Y-13327008D02*
X15036491Y-13298436D01*
X15036491Y-13298436D02*
X15026968Y-13288912D01*
M02*
