M48
; DRILL file {KiCad 8.0.1} date 2024-03-29T08:15:27+0100
; FORMAT={-:-/ absolute / inch / decimal}
; #@! TF.CreationDate,2024-03-29T08:15:27+01:00
; #@! TF.GenerationSoftware,Kicad,Pcbnew,8.0.1
; #@! TF.FileFunction,Plated,1,2,PTH
FMAT,2
INCH
; #@! TA.AperFunction,Plated,PTH,ViaDrill
T1C0.0118
; #@! TA.AperFunction,Plated,PTH,ComponentDrill
T2C0.0315
; #@! TA.AperFunction,Plated,PTH,ComponentDrill
T3C0.0400
; #@! TA.AperFunction,Plated,PTH,ComponentDrill
T4C0.0402
; #@! TA.AperFunction,Plated,PTH,ComponentDrill
T5C0.0591
; #@! TA.AperFunction,Plated,PTH,ComponentDrill
T6C0.0787
%
G90
G05
T1
X4.2717Y-1.1024
X4.2913Y-2.3819
X4.2913Y-3.6811
X4.4685Y-1.5945
X4.5079Y-3.8189
X4.5276Y-2.6969
X4.5866Y-1.1024
X4.626Y-4.1339
X4.685Y-1.437
X4.7244Y-2.9528
X4.7244Y-4.0157
X4.7441Y-2.3425
X4.8228Y-4.1339
X4.8425Y-1.9291
X4.8819Y-1.9488
X4.9213Y-1.9685
X4.9213Y-2.3425
X4.9606Y-1.9882
X4.9606Y-3.8189
X5.0394Y-2.3425
X5.0787Y-1.9685
X5.0984Y-3.0906
X5.1181Y-2.9724
X5.1181Y-3.6811
X5.1378Y-1.9685
X5.1378Y-2.3622
X5.1969Y-1.9685
X5.2559Y-1.9685
X5.2559Y-3.3071
X5.2559Y-3.7992
X5.2953Y-1.0827
X5.2953Y-1.5551
X5.3346Y-1.9685
X5.3937Y-1.9685
X5.4134Y-2.3425
X5.4528Y-1.9685
X5.4921Y-2.9724
X5.5118Y-1.9685
X5.5315Y-2.6575
X5.5512Y-3.3071
X5.5709Y-1.9685
X5.6102Y-1.5551
X5.6299Y-1.9685
X5.6299Y-3.8386
X5.6693Y-3.4055
X5.689Y-1.9685
X5.7087Y-1.1024
X5.748Y-1.9685
X5.748Y-3.2874
X5.7874Y-2.3622
X5.8465Y-2.9724
X5.8465Y-3.3465
X5.9646Y-4.0748
X5.9843Y-3.3268
X6.0433Y-2.3425
X6.063Y-2.9724
X6.1614Y-1.4173
X6.2205Y-2.9724
X6.2402Y-4.252
X6.2598Y-2.3622
X6.2992Y-1.063
X6.3386Y-3.7402
X6.4764Y-1.6142
X6.4961Y-3.4646
X6.5157Y-2.9921
X6.5354Y-2.3425
X6.7126Y-2.9134
X6.7323Y-1.9882
X6.752Y-1.0827
X6.7717Y-2.2638
T2
X4.2717Y-2.8937
X4.2717Y-2.9724
X4.2717Y-3.0512
X6.6929Y-3.3917
X6.6929Y-3.8917
T3
X4.2579Y-2.1457
X4.2579Y-2.5457
X4.3579Y-2.1457
X4.3579Y-2.5457
X4.4579Y-2.1457
X4.4579Y-2.5457
X4.5579Y-2.1457
X4.5579Y-2.5457
X4.6579Y-2.1457
X4.6579Y-2.5457
X4.7031Y-2.7724
X4.7031Y-3.1724
X4.7579Y-2.1457
X4.7579Y-2.5457
X4.8031Y-2.7724
X4.8031Y-3.1724
X4.9031Y-2.7724
X4.9031Y-3.1724
X4.9302Y-2.1457
X4.9302Y-2.5457
X5.0031Y-2.7724
X5.0031Y-3.1724
X5.0302Y-2.1457
X5.0302Y-2.5457
X5.1031Y-2.7724
X5.1031Y-3.1724
X5.1302Y-2.1457
X5.1302Y-2.5457
X5.2031Y-2.7724
X5.2031Y-3.1724
X5.2302Y-2.1457
X5.2302Y-2.5457
X5.3302Y-2.1457
X5.3302Y-2.5457
X5.3762Y-2.7724
X5.3762Y-3.1724
X5.4302Y-2.1457
X5.4302Y-2.5457
X5.4762Y-2.7724
X5.4762Y-3.1724
X5.5762Y-2.7724
X5.5762Y-3.1724
X5.6025Y-2.1457
X5.6025Y-2.5457
X5.6762Y-2.7724
X5.6762Y-3.1724
X5.7025Y-2.1457
X5.7025Y-2.5457
X5.7762Y-2.7724
X5.7762Y-3.1724
X5.8025Y-2.1457
X5.8025Y-2.5457
X5.8762Y-2.7724
X5.8762Y-3.1724
X5.9025Y-2.1457
X5.9025Y-2.5457
X6.0025Y-2.1457
X6.0025Y-2.5457
X6.0492Y-2.7724
X6.0492Y-3.1724
X6.1025Y-2.1457
X6.1025Y-2.5457
X6.1492Y-2.7724
X6.1492Y-3.1724
X6.2492Y-2.7724
X6.2492Y-3.1724
X6.2748Y-2.1457
X6.2748Y-2.5457
X6.3492Y-2.7724
X6.3492Y-3.1724
X6.3748Y-2.1457
X6.3748Y-2.5457
X6.4492Y-2.7724
X6.4492Y-3.1724
X6.4748Y-2.1457
X6.4748Y-2.5457
X6.5492Y-2.7724
X6.5492Y-3.1724
X6.5748Y-2.1457
X6.5748Y-2.5457
X6.6748Y-2.1457
X6.6748Y-2.5457
X6.7748Y-2.1457
X6.7748Y-2.5457
T4
X4.215Y-3.5717
X4.215Y-4.2717
X4.315Y-3.5717
X4.315Y-4.2717
X4.415Y-3.5717
X4.415Y-4.2717
X4.515Y-3.5717
X4.515Y-4.2717
X4.615Y-3.5717
X4.615Y-4.2717
X4.715Y-3.5717
X4.715Y-4.2717
X4.815Y-3.5717
X4.815Y-4.2717
X4.915Y-3.5717
X4.915Y-4.2717
X5.015Y-3.5717
X5.015Y-4.2717
X5.115Y-3.5717
X5.115Y-4.2717
X5.215Y-3.5717
X5.215Y-4.2717
X5.315Y-3.5717
X5.315Y-4.2717
X5.415Y-3.5717
X5.415Y-4.2717
X5.515Y-3.5717
X5.515Y-4.2717
X5.615Y-3.5717
X5.615Y-4.2717
X5.715Y-3.5717
X5.715Y-4.2717
X5.815Y-3.5717
X5.815Y-4.2717
X5.915Y-3.5717
X5.915Y-4.2717
X6.015Y-3.5717
X6.015Y-4.2717
X6.1059Y-3.8217
X6.1059Y-3.9217
X6.1059Y-4.0217
X6.115Y-3.5717
X6.115Y-4.2717
T5
X4.2717Y-2.811
X4.2717Y-3.1339
T6
G00X4.4685Y-3.9764
M15
G01X4.4685Y-4.0551
M16
G05
M30
