%TF.GenerationSoftware,KiCad,Pcbnew,8.0.1*%
%TF.CreationDate,2024-04-03T17:34:32+02:00*%
%TF.ProjectId,shawazu-gb-dumper,73686177-617a-4752-9d67-622d64756d70,rev?*%
%TF.SameCoordinates,Original*%
%TF.FileFunction,Legend,Bot*%
%TF.FilePolarity,Positive*%
%FSLAX46Y46*%
G04 Gerber Fmt 4.6, Leading zero omitted, Abs format (unit mm)*
G04 Created by KiCad (PCBNEW 8.0.1) date 2024-04-03 17:34:32*
%MOMM*%
%LPD*%
G01*
G04 APERTURE LIST*
%ADD10C,0.000000*%
G04 APERTURE END LIST*
D10*
%TO.C,G\u002A\u002A\u002A*%
G36*
X141193180Y-34898717D02*
G01*
X141284328Y-34956219D01*
X141291073Y-34987802D01*
X141228602Y-35019403D01*
X141185924Y-35013722D01*
X141094776Y-34956219D01*
X141088031Y-34924636D01*
X141150502Y-34893035D01*
X141193180Y-34898717D01*
G37*
G36*
X134428855Y-45686235D02*
G01*
X134394987Y-45738200D01*
X134286691Y-45809949D01*
X134116643Y-45877159D01*
X134046982Y-45877442D01*
X134085333Y-45823765D01*
X134239303Y-45729105D01*
X134262729Y-45717413D01*
X134380783Y-45674489D01*
X134428855Y-45686235D01*
G37*
G36*
X144503230Y-39786082D02*
G01*
X144563080Y-39883498D01*
X144596504Y-40007226D01*
X144596367Y-40009896D01*
X144586025Y-40071703D01*
X144556374Y-40010946D01*
X144527581Y-39938290D01*
X144463100Y-39789801D01*
X144430807Y-39717764D01*
X144433466Y-39701939D01*
X144503230Y-39786082D01*
G37*
G36*
X150441626Y-46549556D02*
G01*
X150387023Y-46607866D01*
X150253731Y-46688770D01*
X150151282Y-46740830D01*
X149994633Y-46811134D01*
X149928484Y-46820200D01*
X149940825Y-46771193D01*
X150027512Y-46692487D01*
X150174767Y-46608476D01*
X150327419Y-46547450D01*
X150431770Y-46535217D01*
X150441626Y-46549556D01*
G37*
G36*
X146140217Y-44509359D02*
G01*
X146024242Y-44613348D01*
X145859500Y-44748282D01*
X145655776Y-44904111D01*
X145529671Y-44987253D01*
X145495282Y-44986855D01*
X145553679Y-44902380D01*
X145604841Y-44851119D01*
X145727823Y-44749467D01*
X145878615Y-44637333D01*
X146025541Y-44537005D01*
X146136927Y-44470771D01*
X146181094Y-44460919D01*
X146140217Y-44509359D01*
G37*
G36*
X139665486Y-42478616D02*
G01*
X139701611Y-42562143D01*
X139737125Y-42734306D01*
X139765356Y-42964801D01*
X139768218Y-42996433D01*
X139793242Y-43253201D01*
X139817568Y-43473436D01*
X139836298Y-43612438D01*
X139848145Y-43700295D01*
X139831047Y-43694491D01*
X139773346Y-43577997D01*
X139749741Y-43518186D01*
X139701510Y-43336468D01*
X139661822Y-43114061D01*
X139634130Y-42883845D01*
X139621885Y-42678697D01*
X139628540Y-42531498D01*
X139657547Y-42475125D01*
X139665486Y-42478616D01*
G37*
G36*
X139970767Y-33691918D02*
G01*
X140044915Y-33944175D01*
X140081191Y-34175005D01*
X140084875Y-34274164D01*
X140068327Y-34404078D01*
X139995495Y-34488347D01*
X139836786Y-34575461D01*
X139617171Y-34655400D01*
X139332260Y-34698115D01*
X139066510Y-34681731D01*
X138865439Y-34604871D01*
X138830305Y-34578955D01*
X138641040Y-34360504D01*
X138559965Y-34082106D01*
X138577312Y-33862210D01*
X139178866Y-33862210D01*
X139180161Y-33872515D01*
X139236901Y-34016137D01*
X139337122Y-34068316D01*
X139455271Y-34041895D01*
X139565798Y-33949718D01*
X139643152Y-33804628D01*
X139661782Y-33619468D01*
X139655128Y-33565498D01*
X139606966Y-33436974D01*
X139503371Y-33388542D01*
X139409654Y-33400366D01*
X139282742Y-33499912D01*
X139197544Y-33665930D01*
X139178866Y-33862210D01*
X138577312Y-33862210D01*
X138586829Y-33741570D01*
X138721386Y-33336705D01*
X138859648Y-33015305D01*
X139139158Y-33067523D01*
X139311862Y-33105720D01*
X139596245Y-33214703D01*
X139796401Y-33377581D01*
X139938872Y-33612438D01*
X139941693Y-33619468D01*
X139970767Y-33691918D01*
G37*
G36*
X144245035Y-34744787D02*
G01*
X144136575Y-35037786D01*
X143966478Y-35280086D01*
X143753964Y-35434924D01*
X143687005Y-35460137D01*
X143417826Y-35489122D01*
X143115894Y-35410478D01*
X142769154Y-35221594D01*
X142595561Y-35107805D01*
X142460873Y-35019765D01*
X142402144Y-34981714D01*
X142396929Y-34923465D01*
X142450461Y-34796537D01*
X142509027Y-34698572D01*
X143034540Y-34698572D01*
X143070875Y-34807931D01*
X143174414Y-34882268D01*
X143307257Y-34861600D01*
X143433825Y-34742053D01*
X143500632Y-34604376D01*
X143499244Y-34431086D01*
X143381240Y-34299559D01*
X143335859Y-34276336D01*
X143245617Y-34281509D01*
X143141153Y-34382652D01*
X143062372Y-34523086D01*
X143034540Y-34698572D01*
X142509027Y-34698572D01*
X142546548Y-34635810D01*
X142665182Y-34474417D01*
X142786353Y-34345491D01*
X142888389Y-34268386D01*
X143176893Y-34126224D01*
X143506543Y-34038348D01*
X143831945Y-34014424D01*
X144107702Y-34064118D01*
X144124397Y-34070830D01*
X144207667Y-34130490D01*
X144251758Y-34241952D01*
X144272915Y-34442410D01*
X144257981Y-34604376D01*
X144245035Y-34744787D01*
G37*
G36*
X142566536Y-36291893D02*
G01*
X142547469Y-36344130D01*
X142407636Y-36414778D01*
X142287237Y-36445809D01*
X142088743Y-36413214D01*
X142051819Y-36396723D01*
X141911963Y-36353773D01*
X141831011Y-36394956D01*
X141767576Y-36536109D01*
X141763309Y-36548045D01*
X141668607Y-36750958D01*
X141531575Y-36979306D01*
X141399743Y-37165702D01*
X141376659Y-37198340D01*
X141228302Y-37373315D01*
X141110948Y-37469483D01*
X140962913Y-37524006D01*
X140744963Y-37524570D01*
X140506521Y-37418779D01*
X140348043Y-37289651D01*
X140214304Y-37073238D01*
X140193299Y-36989959D01*
X140336032Y-36989959D01*
X140372984Y-37089949D01*
X140468129Y-37225496D01*
X140612096Y-37357860D01*
X140802005Y-37420398D01*
X140902225Y-37407246D01*
X141066253Y-37345454D01*
X141198440Y-37256265D01*
X141252736Y-37165702D01*
X141249480Y-37146403D01*
X141169032Y-37064980D01*
X141009190Y-36993784D01*
X140808153Y-36940891D01*
X140604122Y-36914373D01*
X140435295Y-36922305D01*
X140339873Y-36972760D01*
X140336032Y-36989959D01*
X140193299Y-36989959D01*
X140139017Y-36774746D01*
X140115423Y-36376162D01*
X140115055Y-36321420D01*
X140111717Y-36247408D01*
X140243313Y-36247408D01*
X140252722Y-36540066D01*
X140268215Y-36657514D01*
X140309110Y-36727958D01*
X140407961Y-36756404D01*
X140598963Y-36765073D01*
X140702019Y-36771822D01*
X140941041Y-36812508D01*
X141129939Y-36875645D01*
X141156877Y-36888904D01*
X141298161Y-36952314D01*
X141378292Y-36978110D01*
X141413765Y-36944454D01*
X141490845Y-36824071D01*
X141585607Y-36646393D01*
X141600096Y-36616965D01*
X141679433Y-36432734D01*
X141699765Y-36291408D01*
X141650808Y-36162996D01*
X141522274Y-36017504D01*
X141303877Y-35824939D01*
X141021199Y-35585346D01*
X140665268Y-35748296D01*
X140632903Y-35763381D01*
X140416636Y-35891247D01*
X140292362Y-36041862D01*
X140243313Y-36247408D01*
X140111717Y-36247408D01*
X140105580Y-36111324D01*
X140085896Y-35971945D01*
X140059496Y-35931087D01*
X140043888Y-35937339D01*
X139933357Y-35931677D01*
X139788938Y-35889074D01*
X139663510Y-35828570D01*
X139609950Y-35769208D01*
X139634643Y-35745070D01*
X139732164Y-35775389D01*
X139821239Y-35815337D01*
X139932568Y-35833599D01*
X140073584Y-35814027D01*
X140272851Y-35752049D01*
X140558931Y-35643097D01*
X141059229Y-35445397D01*
X141421076Y-35776105D01*
X141500112Y-35847996D01*
X141730834Y-36049636D01*
X141904012Y-36179306D01*
X142044421Y-36250589D01*
X142176834Y-36277071D01*
X142326026Y-36272336D01*
X142470103Y-36267256D01*
X142564638Y-36291408D01*
X142566536Y-36291893D01*
G37*
G36*
X143858268Y-25972317D02*
G01*
X143810362Y-26333980D01*
X143739068Y-26768306D01*
X143646475Y-27261782D01*
X143534672Y-27800895D01*
X143481257Y-28037563D01*
X143424215Y-28290299D01*
X143405745Y-28372135D01*
X143380792Y-28478513D01*
X143365703Y-28543035D01*
X143322606Y-28727322D01*
X143287834Y-28876012D01*
X143248921Y-29043242D01*
X143203501Y-29238435D01*
X143196282Y-29269652D01*
X143132880Y-29543801D01*
X143130549Y-29553980D01*
X143116082Y-29617165D01*
X143081060Y-29770128D01*
X143072904Y-29806717D01*
X143053129Y-29895435D01*
X143029561Y-30006704D01*
X143007572Y-30110522D01*
X143444083Y-30069953D01*
X143880595Y-30029383D01*
X143952267Y-30122637D01*
X144073786Y-30280748D01*
X144108546Y-30325287D01*
X144349441Y-30586959D01*
X144607207Y-30768578D01*
X144930410Y-30905568D01*
X145064721Y-30953941D01*
X145203894Y-31026588D01*
X145282450Y-31123645D01*
X145338326Y-31279929D01*
X145340854Y-31288610D01*
X145478841Y-31640078D01*
X145671465Y-31904333D01*
X145944154Y-32116488D01*
X146097580Y-32215616D01*
X146197109Y-32308807D01*
X146236993Y-32418236D01*
X146238757Y-32458923D01*
X146244278Y-32586232D01*
X146244376Y-32682782D01*
X146254065Y-32782059D01*
X146292086Y-32839891D01*
X146377437Y-32859051D01*
X146529116Y-32842311D01*
X146766120Y-32792444D01*
X147107449Y-32712224D01*
X147137441Y-32705361D01*
X147981840Y-32705361D01*
X148139801Y-32750363D01*
X148208774Y-32768388D01*
X148352954Y-32790110D01*
X148515180Y-32785163D01*
X148729983Y-32751022D01*
X149031896Y-32685165D01*
X149182075Y-32653193D01*
X149506068Y-32594097D01*
X149870045Y-32536670D01*
X150220010Y-32489791D01*
X150472269Y-32456900D01*
X150715121Y-32418627D01*
X150885307Y-32384030D01*
X150956320Y-32357860D01*
X150958354Y-32352541D01*
X150909442Y-32331446D01*
X150779152Y-32337572D01*
X150677865Y-32350212D01*
X150462341Y-32375886D01*
X150167004Y-32410382D01*
X149816704Y-32450801D01*
X149436290Y-32494245D01*
X149109854Y-32532264D01*
X148761945Y-32574954D01*
X148468742Y-32613267D01*
X148253887Y-32644097D01*
X148141016Y-32664340D01*
X147981840Y-32705361D01*
X147137441Y-32705361D01*
X147311581Y-32665513D01*
X147618363Y-32600429D01*
X147885090Y-32549567D01*
X148070486Y-32521117D01*
X148146819Y-32512024D01*
X148416469Y-32474096D01*
X148676865Y-32430906D01*
X148831357Y-32406996D01*
X149098494Y-32373367D01*
X149418321Y-32338484D01*
X149534202Y-32327498D01*
X151063381Y-32327498D01*
X151064359Y-32349067D01*
X151088866Y-32352541D01*
X151146310Y-32360684D01*
X151208416Y-32350566D01*
X151184483Y-32322510D01*
X151147946Y-32312415D01*
X151063381Y-32327498D01*
X149534202Y-32327498D01*
X149750995Y-32306945D01*
X150313355Y-32258253D01*
X150820897Y-32215128D01*
X151227556Y-32182065D01*
X151546389Y-32158412D01*
X151790456Y-32143520D01*
X151972816Y-32136739D01*
X152106527Y-32137417D01*
X152204649Y-32144905D01*
X152280239Y-32158552D01*
X152346357Y-32177709D01*
X152442817Y-32211171D01*
X152541757Y-32267143D01*
X152539565Y-32281766D01*
X152531220Y-32337433D01*
X152419477Y-32453203D01*
X152359173Y-32512517D01*
X152161418Y-32732698D01*
X151934497Y-33012143D01*
X151705437Y-33315521D01*
X151501260Y-33607500D01*
X151348991Y-33852747D01*
X151257265Y-34008545D01*
X151129073Y-34176083D01*
X150973172Y-34301434D01*
X150972207Y-34302210D01*
X150741758Y-34429586D01*
X150727633Y-34436720D01*
X150099939Y-34792762D01*
X149559290Y-35187012D01*
X149067542Y-35647215D01*
X148862698Y-35868957D01*
X148396469Y-36442988D01*
X148326495Y-36550426D01*
X148029160Y-37006953D01*
X147767392Y-37549832D01*
X147617785Y-38060605D01*
X147579542Y-38234222D01*
X147520693Y-38384343D01*
X147451406Y-38431344D01*
X147446265Y-38430959D01*
X147349440Y-38381629D01*
X147198864Y-38265713D01*
X147024844Y-38106303D01*
X146695715Y-37781262D01*
X146655045Y-37998052D01*
X146632465Y-38202040D01*
X146634675Y-38399931D01*
X146640584Y-38479064D01*
X146618762Y-38555787D01*
X146532350Y-38597831D01*
X146350889Y-38629879D01*
X146321223Y-38634443D01*
X146103413Y-38685358D01*
X145907691Y-38773989D01*
X145699462Y-38919899D01*
X145444130Y-39142652D01*
X145364734Y-39217920D01*
X145221601Y-39380226D01*
X145183784Y-39490954D01*
X145250681Y-39562531D01*
X145421692Y-39607387D01*
X145544966Y-39631461D01*
X145689249Y-39695025D01*
X145692513Y-39696463D01*
X145774053Y-39818976D01*
X145821926Y-40033425D01*
X145881040Y-40264847D01*
X146033985Y-40512653D01*
X146036573Y-40516846D01*
X146278506Y-40679552D01*
X146449514Y-40776982D01*
X146582401Y-40954941D01*
X146623383Y-41210161D01*
X146654588Y-41373376D01*
X146781201Y-41566019D01*
X146973798Y-41703473D01*
X147198348Y-41763768D01*
X147420816Y-41724935D01*
X147548273Y-41675747D01*
X147690818Y-41667037D01*
X147828732Y-41738124D01*
X148000740Y-41900749D01*
X148021818Y-41922393D01*
X148301708Y-42127124D01*
X148608546Y-42212707D01*
X148930167Y-42175546D01*
X148967203Y-42164389D01*
X149095565Y-42138018D01*
X149192807Y-42161918D01*
X149293614Y-42253729D01*
X149432676Y-42431091D01*
X149480425Y-42489158D01*
X149657164Y-42653567D01*
X149835306Y-42764209D01*
X149891979Y-42786928D01*
X149992232Y-42813200D01*
X150029117Y-42822866D01*
X150168125Y-42812381D01*
X150366406Y-42754417D01*
X150482735Y-42717861D01*
X150629567Y-42679561D01*
X150695361Y-42674036D01*
X150695902Y-42674688D01*
X150734271Y-42742523D01*
X150811917Y-42891234D01*
X150912672Y-43089884D01*
X150923405Y-43111150D01*
X151018610Y-43272642D01*
X151086627Y-43388017D01*
X151258391Y-43567129D01*
X151470911Y-43672922D01*
X151756404Y-43729828D01*
X152088806Y-43770398D01*
X152128398Y-44149503D01*
X152131337Y-44177373D01*
X152170222Y-44464840D01*
X152170906Y-44469898D01*
X152230964Y-44673647D01*
X152334907Y-44823381D01*
X152506132Y-44953862D01*
X152768034Y-45099851D01*
X152885284Y-45165117D01*
X153016651Y-45251005D01*
X153067475Y-45303677D01*
X153060137Y-45343235D01*
X153057181Y-45354227D01*
X153023691Y-45478750D01*
X152967090Y-45665921D01*
X152934544Y-45773367D01*
X152876660Y-46040238D01*
X152886062Y-46244648D01*
X152969251Y-46423849D01*
X153132728Y-46615093D01*
X153394768Y-46882093D01*
X153377812Y-46913875D01*
X153247259Y-47158584D01*
X153242854Y-47166865D01*
X153192339Y-47269570D01*
X153155287Y-47373109D01*
X153129583Y-47498403D01*
X153113112Y-47666374D01*
X153103760Y-47897945D01*
X153099410Y-48214037D01*
X153097949Y-48635573D01*
X153097558Y-48789652D01*
X153095792Y-48937292D01*
X153091837Y-49268053D01*
X153074303Y-49647477D01*
X153038292Y-49949304D01*
X152977145Y-50194916D01*
X152884199Y-50405693D01*
X152752794Y-50603017D01*
X152576268Y-50808267D01*
X152347960Y-51042826D01*
X152120640Y-51258651D01*
X151542081Y-51711400D01*
X150915674Y-52066976D01*
X150227852Y-52331067D01*
X149465043Y-52509356D01*
X148613681Y-52607530D01*
X148518562Y-52612642D01*
X148287741Y-52616941D01*
X148108209Y-52610033D01*
X147961509Y-52595846D01*
X147730953Y-52573780D01*
X147476368Y-52549576D01*
X147304044Y-52530457D01*
X146544501Y-52386730D01*
X145768446Y-52152239D01*
X145010290Y-51840675D01*
X144304446Y-51465730D01*
X143685323Y-51041098D01*
X143550449Y-50936665D01*
X143329693Y-50772071D01*
X143114814Y-50618090D01*
X142929484Y-50491197D01*
X142797375Y-50407871D01*
X142742159Y-50384589D01*
X142740752Y-50387138D01*
X142710852Y-50466520D01*
X142654262Y-50630304D01*
X142581889Y-50847015D01*
X142415061Y-51315482D01*
X142208654Y-51784183D01*
X141997005Y-52136348D01*
X141774889Y-52377369D01*
X141537085Y-52512641D01*
X141278369Y-52547558D01*
X140993519Y-52487515D01*
X140931137Y-52463292D01*
X140720761Y-52355622D01*
X140557967Y-52237310D01*
X140422723Y-52139813D01*
X140316742Y-52135017D01*
X140214152Y-52164564D01*
X140015291Y-52157019D01*
X139788342Y-52106109D01*
X139579808Y-52023207D01*
X139436194Y-51919685D01*
X139407728Y-51885072D01*
X139330665Y-51747496D01*
X139303056Y-51579774D01*
X139323368Y-51352574D01*
X139390069Y-51036568D01*
X139424039Y-50873511D01*
X139465768Y-50587354D01*
X139482393Y-50341543D01*
X139482242Y-50316307D01*
X139462643Y-50027256D01*
X139414626Y-49658415D01*
X139344498Y-49247199D01*
X139258564Y-48831019D01*
X139163130Y-48447290D01*
X139162616Y-48445427D01*
X139101169Y-48202111D01*
X139056778Y-47987207D01*
X139039021Y-47847041D01*
X139033252Y-47788200D01*
X139003078Y-47722696D01*
X139167661Y-47722696D01*
X139168201Y-47736173D01*
X139189342Y-47872890D01*
X139235085Y-48084300D01*
X139296971Y-48330627D01*
X139387946Y-48690134D01*
X139533485Y-49417632D01*
X139603495Y-50054374D01*
X139597708Y-50597043D01*
X139515858Y-51042322D01*
X139489334Y-51139495D01*
X139442666Y-51377353D01*
X139426236Y-51573632D01*
X139430706Y-51794776D01*
X139518536Y-51594265D01*
X139525105Y-51579555D01*
X139603494Y-51435004D01*
X139671821Y-51353299D01*
X139700699Y-51365087D01*
X139664769Y-51471984D01*
X139635202Y-51584815D01*
X139653812Y-51777008D01*
X139737192Y-51943437D01*
X139867860Y-52035581D01*
X139925333Y-52044014D01*
X139976574Y-52001960D01*
X139989054Y-51864122D01*
X140014233Y-51689648D01*
X140079458Y-51538320D01*
X140097894Y-51513747D01*
X140142807Y-51469584D01*
X140153136Y-51516380D01*
X140136090Y-51671030D01*
X140130948Y-51876134D01*
X140187850Y-51994262D01*
X140284907Y-52039157D01*
X140389152Y-52001555D01*
X140401583Y-51963599D01*
X140563259Y-51963599D01*
X140613526Y-52015921D01*
X140652376Y-51991982D01*
X140702387Y-51889553D01*
X140736947Y-51816068D01*
X140817169Y-51763184D01*
X140865663Y-51776646D01*
X140823084Y-51839005D01*
X140784643Y-51892030D01*
X140747344Y-52052542D01*
X140777485Y-52218105D01*
X140869478Y-52329618D01*
X141021503Y-52388980D01*
X141102862Y-52354605D01*
X141126368Y-52217549D01*
X141147309Y-52074663D01*
X141215001Y-51918860D01*
X141242748Y-51882696D01*
X141278982Y-51858384D01*
X141286225Y-51923686D01*
X141269968Y-52096336D01*
X141262652Y-52165196D01*
X141256881Y-52313572D01*
X141284691Y-52378452D01*
X141355091Y-52391020D01*
X141379679Y-52389725D01*
X141646627Y-52309489D01*
X141869198Y-52115897D01*
X141869344Y-52115711D01*
X141954953Y-51973266D01*
X142065715Y-51742620D01*
X142188862Y-51456036D01*
X142311625Y-51145782D01*
X142421238Y-50844121D01*
X142504931Y-50583320D01*
X142549937Y-50395643D01*
X142558413Y-50335673D01*
X142560896Y-50237340D01*
X142531147Y-50148524D01*
X142453683Y-50045778D01*
X142313019Y-49905654D01*
X142093673Y-49704705D01*
X141877749Y-49514060D01*
X141619203Y-49296898D01*
X141372992Y-49100428D01*
X141159626Y-48940488D01*
X140999616Y-48832911D01*
X140913473Y-48793533D01*
X140901910Y-48841767D01*
X140890510Y-48997695D01*
X140881412Y-49241937D01*
X140876349Y-49502412D01*
X140875338Y-49554414D01*
X140873014Y-49915050D01*
X140872206Y-50262660D01*
X140868279Y-50581364D01*
X140858771Y-50815997D01*
X140841187Y-50989596D01*
X140813036Y-51125197D01*
X140771822Y-51245839D01*
X140715054Y-51374558D01*
X140714173Y-51376453D01*
X140617494Y-51619154D01*
X140565886Y-51823106D01*
X140563259Y-51963599D01*
X140401583Y-51963599D01*
X140432731Y-51868491D01*
X140439672Y-51813031D01*
X140489026Y-51642970D01*
X140569915Y-51447264D01*
X140606320Y-51364943D01*
X140650259Y-51231372D01*
X140681812Y-51068921D01*
X140704082Y-50853216D01*
X140720170Y-50559888D01*
X140733178Y-50164562D01*
X140739971Y-49915604D01*
X140748518Y-49502412D01*
X140745499Y-49186392D01*
X140725115Y-48948097D01*
X140681566Y-48768082D01*
X140609050Y-48626899D01*
X140501768Y-48505103D01*
X140353920Y-48383247D01*
X140159706Y-48241885D01*
X140032125Y-48151159D01*
X139782067Y-47978128D01*
X139560703Y-47830678D01*
X139404602Y-47733432D01*
X139312672Y-47681202D01*
X139211970Y-47633851D01*
X139173703Y-47648138D01*
X139167661Y-47722696D01*
X139003078Y-47722696D01*
X138937084Y-47579434D01*
X138734543Y-47383658D01*
X138441044Y-47217113D01*
X138102136Y-47072355D01*
X137674702Y-46900175D01*
X137269166Y-46747472D01*
X136908750Y-46622590D01*
X136616676Y-46533870D01*
X136416167Y-46489656D01*
X136317080Y-46476241D01*
X136108422Y-46445154D01*
X135961069Y-46419476D01*
X135897493Y-46410806D01*
X135853086Y-46432087D01*
X135829641Y-46508745D01*
X135820475Y-46664442D01*
X135818905Y-46922840D01*
X135809295Y-47260627D01*
X135712855Y-47992207D01*
X135512136Y-48653973D01*
X135206329Y-49248181D01*
X134794625Y-49777085D01*
X134718553Y-49856813D01*
X134592251Y-49980130D01*
X134452794Y-50101897D01*
X134286602Y-50231662D01*
X134080099Y-50378971D01*
X133819705Y-50553370D01*
X133491843Y-50764406D01*
X133082934Y-51021626D01*
X132579401Y-51334576D01*
X132452813Y-51415731D01*
X132127185Y-51642803D01*
X131803124Y-51889785D01*
X131535041Y-52115969D01*
X131403652Y-52233499D01*
X131227417Y-52383284D01*
X131101162Y-52480552D01*
X131046004Y-52508360D01*
X131038947Y-52497049D01*
X131011536Y-52383687D01*
X130984549Y-52180518D01*
X130960028Y-51916448D01*
X130940014Y-51620382D01*
X130926548Y-51321224D01*
X130921671Y-51047879D01*
X130927425Y-50829253D01*
X130931166Y-50778637D01*
X130977737Y-50405788D01*
X131056941Y-49968610D01*
X131158546Y-49513600D01*
X131272320Y-49087255D01*
X131388031Y-48736074D01*
X131431544Y-48628805D01*
X131604370Y-48270230D01*
X131823549Y-47881219D01*
X132061071Y-47509448D01*
X132288927Y-47202595D01*
X132399566Y-47064821D01*
X132496156Y-46934907D01*
X132533333Y-46870879D01*
X132485694Y-46853769D01*
X132342909Y-46840076D01*
X132138231Y-46834826D01*
X132000277Y-46830258D01*
X131528903Y-46760507D01*
X131045449Y-46618505D01*
X130606219Y-46419514D01*
X130537892Y-46373260D01*
X130379393Y-46244798D01*
X130168805Y-46059798D01*
X129922327Y-45833963D01*
X129656158Y-45582998D01*
X129386495Y-45322605D01*
X129129538Y-45068488D01*
X128901485Y-44836349D01*
X128718535Y-44641891D01*
X128596885Y-44500819D01*
X128585278Y-44481893D01*
X128741639Y-44481893D01*
X129515969Y-45270051D01*
X129615155Y-45370415D01*
X129976549Y-45721506D01*
X130288283Y-45992870D01*
X130573585Y-46199929D01*
X130855683Y-46358107D01*
X131157808Y-46482828D01*
X131503187Y-46589515D01*
X131914361Y-46677884D01*
X132357406Y-46701635D01*
X132722683Y-46630340D01*
X133007151Y-46464253D01*
X133058905Y-46420636D01*
X133255167Y-46276215D01*
X133434559Y-46169562D01*
X133639054Y-46070592D01*
X133453554Y-46215769D01*
X133319652Y-46327106D01*
X133031398Y-46598271D01*
X132726459Y-46917793D01*
X132433474Y-47253597D01*
X132181085Y-47573614D01*
X131997932Y-47845772D01*
X131925817Y-47970905D01*
X131757897Y-48285824D01*
X131621092Y-48590446D01*
X131502698Y-48918550D01*
X131390008Y-49303918D01*
X131270319Y-49780328D01*
X131269112Y-49785380D01*
X131186824Y-50148668D01*
X131132120Y-50450184D01*
X131099659Y-50736923D01*
X131084099Y-51055883D01*
X131080099Y-51454061D01*
X131080099Y-52331841D01*
X131336510Y-52075431D01*
X131459783Y-51960935D01*
X131620062Y-51831691D01*
X131827721Y-51682173D01*
X132098290Y-51501680D01*
X132447301Y-51279515D01*
X132890284Y-51004975D01*
X133106883Y-50870936D01*
X133575043Y-50572208D01*
X133953277Y-50314805D01*
X134257618Y-50086984D01*
X134504098Y-49877005D01*
X134708750Y-49673124D01*
X134946688Y-49385808D01*
X135285421Y-48822093D01*
X135520736Y-48185898D01*
X135652579Y-47477392D01*
X135680894Y-46696745D01*
X135677913Y-46535665D01*
X135680434Y-46293631D01*
X135691402Y-46117956D01*
X135709515Y-46038577D01*
X135738024Y-46037865D01*
X135755721Y-46121990D01*
X135759418Y-46163583D01*
X135800720Y-46224674D01*
X135911061Y-46264483D01*
X136119029Y-46296761D01*
X136427790Y-46350694D01*
X136948785Y-46492835D01*
X137562505Y-46711952D01*
X138271926Y-47009029D01*
X138423211Y-47076581D01*
X138844037Y-47271817D01*
X139192023Y-47448863D01*
X139501976Y-47627367D01*
X139808704Y-47826972D01*
X140147015Y-48067326D01*
X140201052Y-48106624D01*
X140485816Y-48309744D01*
X140803458Y-48531506D01*
X141094776Y-48730485D01*
X141318392Y-48892568D01*
X141615747Y-49129290D01*
X141926503Y-49394100D01*
X142211151Y-49654307D01*
X142729719Y-50124367D01*
X142870987Y-50237340D01*
X143449795Y-50700216D01*
X144180690Y-51201975D01*
X144906163Y-51619622D01*
X145609970Y-51943136D01*
X146275870Y-52162494D01*
X146411110Y-52195626D01*
X146799377Y-52280741D01*
X147215128Y-52361015D01*
X147588853Y-52422675D01*
X147810408Y-52453367D01*
X148080665Y-52486781D01*
X148291526Y-52508187D01*
X148410246Y-52513945D01*
X148410905Y-52513910D01*
X148763614Y-52481213D01*
X149181663Y-52421300D01*
X149617177Y-52342798D01*
X150022282Y-52254335D01*
X150349104Y-52164539D01*
X150452847Y-52128994D01*
X150921989Y-51921663D01*
X151395003Y-51645312D01*
X151846543Y-51319653D01*
X152251261Y-50964398D01*
X152583807Y-50599260D01*
X152818835Y-50243949D01*
X152835331Y-50209393D01*
X152913556Y-49961158D01*
X152971337Y-49638009D01*
X153004404Y-49282527D01*
X153008482Y-48937292D01*
X152979298Y-48644885D01*
X152970162Y-48602153D01*
X152922385Y-48492106D01*
X152842299Y-48459095D01*
X152716710Y-48507219D01*
X152532423Y-48640576D01*
X152276244Y-48863265D01*
X152223755Y-48910091D01*
X152096510Y-49015985D01*
X152001206Y-49095297D01*
X151912328Y-49161635D01*
X151790472Y-49252588D01*
X151631082Y-49352015D01*
X151119345Y-49564170D01*
X150440452Y-49737607D01*
X149718420Y-49817295D01*
X148980606Y-49798628D01*
X148428111Y-49732861D01*
X147585957Y-49575653D01*
X146749993Y-49346185D01*
X146186314Y-49141045D01*
X146560199Y-49141045D01*
X146591791Y-49172637D01*
X146623383Y-49141045D01*
X146591791Y-49109453D01*
X146560199Y-49141045D01*
X146186314Y-49141045D01*
X146012698Y-49077861D01*
X146433830Y-49077861D01*
X146465423Y-49109453D01*
X146497015Y-49077861D01*
X146465423Y-49046269D01*
X146433830Y-49077861D01*
X146012698Y-49077861D01*
X145904229Y-49038386D01*
X145851543Y-49014677D01*
X146244278Y-49014677D01*
X146275870Y-49046269D01*
X146307462Y-49014677D01*
X146275870Y-48983085D01*
X146244278Y-49014677D01*
X145851543Y-49014677D01*
X145032679Y-48646186D01*
X144211100Y-48212001D01*
X146624541Y-48212001D01*
X146692248Y-48318408D01*
X146846726Y-48471067D01*
X146918443Y-48532569D01*
X147040228Y-48629106D01*
X147103030Y-48667165D01*
X147100470Y-48643484D01*
X147080914Y-48614891D01*
X148366407Y-48614891D01*
X148377543Y-48667165D01*
X148385028Y-48702297D01*
X148454679Y-48839814D01*
X148462272Y-48852008D01*
X148587331Y-49007978D01*
X148595559Y-49014677D01*
X148673164Y-49077861D01*
X148718698Y-49114934D01*
X148761778Y-49137780D01*
X148769815Y-49141045D01*
X148820502Y-49161635D01*
X148802617Y-49121693D01*
X148706283Y-49001062D01*
X148688520Y-48979135D01*
X148566876Y-48820058D01*
X148478928Y-48691425D01*
X148426552Y-48625059D01*
X148370695Y-48606907D01*
X148366407Y-48614891D01*
X147080914Y-48614891D01*
X147040190Y-48555350D01*
X146939963Y-48431580D01*
X146826906Y-48303810D01*
X146728136Y-48203681D01*
X146670771Y-48162831D01*
X146650672Y-48164223D01*
X146624541Y-48212001D01*
X144211100Y-48212001D01*
X144119351Y-48163514D01*
X143148258Y-47584301D01*
X142666237Y-47301428D01*
X142650108Y-47293066D01*
X144947525Y-47293066D01*
X144978581Y-47429773D01*
X145029936Y-47541223D01*
X145073809Y-47593035D01*
X145096390Y-47567540D01*
X145105513Y-47463781D01*
X145089137Y-47330506D01*
X145050711Y-47222981D01*
X145002753Y-47174062D01*
X144959138Y-47197635D01*
X144947525Y-47293066D01*
X142650108Y-47293066D01*
X141994765Y-46953313D01*
X141276042Y-46622959D01*
X140841690Y-46446131D01*
X143155393Y-46446131D01*
X143200269Y-46556137D01*
X143308882Y-46750295D01*
X143368042Y-46848357D01*
X143451390Y-46974875D01*
X143494933Y-47024378D01*
X143493871Y-46996964D01*
X143457060Y-46882217D01*
X143452366Y-46870220D01*
X143606034Y-46870220D01*
X143644067Y-46921260D01*
X143788769Y-47020737D01*
X143795003Y-47024378D01*
X143820693Y-47039383D01*
X143992176Y-47117791D01*
X144127612Y-47148885D01*
X144160228Y-47135716D01*
X144106318Y-47081122D01*
X143945438Y-46989048D01*
X143806213Y-46922304D01*
X143663730Y-46869830D01*
X143606034Y-46870220D01*
X143452366Y-46870220D01*
X143389069Y-46708458D01*
X143332582Y-46583367D01*
X143255590Y-46445952D01*
X143203018Y-46392538D01*
X143168016Y-46399202D01*
X143155393Y-46446131D01*
X140841690Y-46446131D01*
X140546356Y-46325898D01*
X139841997Y-46077667D01*
X139199253Y-45893799D01*
X138188445Y-45691402D01*
X137183467Y-45586321D01*
X136232737Y-45589479D01*
X135341316Y-45701128D01*
X135114372Y-45742137D01*
X134873551Y-45778464D01*
X134702143Y-45795709D01*
X134627288Y-45790477D01*
X134630770Y-45769131D01*
X134697857Y-45681341D01*
X134769114Y-45606466D01*
X134997512Y-45606466D01*
X134998127Y-45615299D01*
X135034702Y-45629213D01*
X135098322Y-45561382D01*
X135113695Y-45526072D01*
X135070459Y-45533519D01*
X135042390Y-45553023D01*
X134997512Y-45606466D01*
X134769114Y-45606466D01*
X134820703Y-45552258D01*
X134972285Y-45407277D01*
X135108581Y-45286816D01*
X138725373Y-45286816D01*
X138756965Y-45318408D01*
X138788557Y-45286816D01*
X138756965Y-45255224D01*
X138725373Y-45286816D01*
X135108581Y-45286816D01*
X135125582Y-45271790D01*
X135186850Y-45223632D01*
X135755721Y-45223632D01*
X135787313Y-45255224D01*
X135818905Y-45223632D01*
X135787313Y-45192040D01*
X135755721Y-45223632D01*
X135186850Y-45223632D01*
X135253570Y-45171189D01*
X135257824Y-45168922D01*
X135577345Y-45168922D01*
X135629353Y-45192040D01*
X135662802Y-45187480D01*
X135671476Y-45149917D01*
X135662215Y-45142356D01*
X135587230Y-45149917D01*
X135577345Y-45168922D01*
X135257824Y-45168922D01*
X135329228Y-45130867D01*
X135340592Y-45128501D01*
X135376617Y-45064468D01*
X135362824Y-45051894D01*
X135781692Y-45051894D01*
X135885473Y-45085786D01*
X135925140Y-45095526D01*
X136126750Y-45115457D01*
X136269924Y-45080652D01*
X136324378Y-44997223D01*
X136289159Y-44962991D01*
X136169828Y-44945557D01*
X136009494Y-44956635D01*
X135853881Y-44996314D01*
X135792974Y-45022448D01*
X135781692Y-45051894D01*
X135362824Y-45051894D01*
X135339945Y-45031036D01*
X135223761Y-45038445D01*
X135187340Y-45046015D01*
X135067093Y-45027052D01*
X134975856Y-44925681D01*
X136703482Y-44925681D01*
X136704111Y-44930158D01*
X136762542Y-44996911D01*
X136762990Y-44997223D01*
X136886987Y-45083641D01*
X137007028Y-45149917D01*
X137020105Y-45157137D01*
X137104451Y-45186983D01*
X137087945Y-45145382D01*
X136967741Y-45034080D01*
X136944791Y-45016324D01*
X137209132Y-45016324D01*
X137272139Y-45059950D01*
X137291995Y-45070854D01*
X137532967Y-45152567D01*
X137743286Y-45134195D01*
X137797935Y-45103682D01*
X137764035Y-45075474D01*
X137616918Y-45045162D01*
X137589540Y-45040791D01*
X138247943Y-45040791D01*
X138310389Y-45103682D01*
X138337472Y-45130958D01*
X138423675Y-45186983D01*
X138469383Y-45216690D01*
X138491387Y-45223632D01*
X138590208Y-45254808D01*
X138609168Y-45253087D01*
X138613009Y-45214868D01*
X138554900Y-45168922D01*
X138926101Y-45168922D01*
X138978109Y-45192040D01*
X139011559Y-45187480D01*
X139019743Y-45152036D01*
X139714898Y-45152036D01*
X139753671Y-45214868D01*
X139778338Y-45254840D01*
X139807596Y-45286816D01*
X139896104Y-45383546D01*
X140042360Y-45510582D01*
X140065945Y-45526072D01*
X140191265Y-45608378D01*
X140324246Y-45671753D01*
X140405658Y-45694808D01*
X140399992Y-45684026D01*
X141381538Y-45684026D01*
X141387110Y-45694808D01*
X141441190Y-45799445D01*
X141599997Y-45977377D01*
X141670209Y-46044982D01*
X141827839Y-46181394D01*
X141948715Y-46266680D01*
X141951915Y-46268349D01*
X141973376Y-46260590D01*
X141915840Y-46182291D01*
X141791006Y-46049556D01*
X141730840Y-45985933D01*
X141887972Y-45985933D01*
X141981297Y-46070527D01*
X142132711Y-46166692D01*
X142229931Y-46210532D01*
X142370933Y-46260590D01*
X142387101Y-46266330D01*
X142525107Y-46301570D01*
X142610841Y-46308463D01*
X142611194Y-46279224D01*
X142584007Y-46257215D01*
X142465682Y-46185943D01*
X142307426Y-46108524D01*
X142139884Y-46037387D01*
X141993698Y-45984958D01*
X141899513Y-45963664D01*
X141887972Y-45985933D01*
X141730840Y-45985933D01*
X141655985Y-45906776D01*
X141547196Y-45774546D01*
X141505472Y-45699176D01*
X141503376Y-45682635D01*
X141442288Y-45634329D01*
X141423096Y-45635590D01*
X141381538Y-45684026D01*
X140399992Y-45684026D01*
X140387926Y-45661064D01*
X140262271Y-45574686D01*
X140259830Y-45573190D01*
X140077739Y-45430959D01*
X139920507Y-45261483D01*
X139894451Y-45228078D01*
X139791971Y-45128569D01*
X139721089Y-45106676D01*
X139715187Y-45149917D01*
X139714898Y-45152036D01*
X139019743Y-45152036D01*
X139020232Y-45149917D01*
X139010971Y-45142356D01*
X138935986Y-45149917D01*
X138926101Y-45168922D01*
X138554900Y-45168922D01*
X138504228Y-45128856D01*
X138489660Y-45119303D01*
X138450758Y-45097264D01*
X138788557Y-45097264D01*
X138820149Y-45128856D01*
X138851741Y-45097264D01*
X138820149Y-45065672D01*
X138788557Y-45097264D01*
X138450758Y-45097264D01*
X138340424Y-45034757D01*
X138254389Y-45008656D01*
X138247943Y-45040791D01*
X137589540Y-45040791D01*
X137573994Y-45038309D01*
X137393557Y-45014217D01*
X137272139Y-45005105D01*
X137259450Y-45005326D01*
X137209132Y-45016324D01*
X136944791Y-45016324D01*
X136815061Y-44915956D01*
X136729191Y-44879799D01*
X136703482Y-44925681D01*
X134975856Y-44925681D01*
X134961249Y-44909451D01*
X134821264Y-44740629D01*
X134557765Y-44508467D01*
X134222498Y-44269510D01*
X133842946Y-44040100D01*
X133446592Y-43836584D01*
X133060917Y-43675304D01*
X132713403Y-43572605D01*
X132563728Y-43543438D01*
X132211000Y-43499525D01*
X131856305Y-43495979D01*
X131481547Y-43536276D01*
X131068630Y-43623895D01*
X130599458Y-43762311D01*
X130055936Y-43955003D01*
X129419966Y-44205447D01*
X128741639Y-44481893D01*
X128585278Y-44481893D01*
X128552736Y-44428834D01*
X128553408Y-44426258D01*
X128619048Y-44382189D01*
X128770945Y-44311945D01*
X128979228Y-44229487D01*
X129179854Y-44154331D01*
X129481650Y-44039826D01*
X129821575Y-43909767D01*
X130157309Y-43780291D01*
X130463294Y-43666887D01*
X130782579Y-43558319D01*
X131060317Y-43473430D01*
X131258839Y-43424392D01*
X131629576Y-43375218D01*
X132298084Y-43383269D01*
X132959311Y-43514035D01*
X133606323Y-43765196D01*
X134232186Y-44134430D01*
X134829964Y-44619418D01*
X135136297Y-44905026D01*
X135840909Y-44884544D01*
X136085312Y-44873589D01*
X136343180Y-44852574D01*
X136533417Y-44826086D01*
X136626656Y-44797382D01*
X136700097Y-44764041D01*
X136847800Y-44799458D01*
X136891022Y-44817140D01*
X137078457Y-44861690D01*
X137325348Y-44892999D01*
X137594880Y-44909523D01*
X137850239Y-44909718D01*
X138054609Y-44892041D01*
X138171177Y-44854947D01*
X138228195Y-44800135D01*
X138246316Y-44731021D01*
X138222463Y-44613896D01*
X138155381Y-44413625D01*
X138073245Y-44100329D01*
X138035542Y-43684692D01*
X138037548Y-43647029D01*
X138156716Y-43647029D01*
X138165134Y-43803483D01*
X138208376Y-44073673D01*
X138279802Y-44349450D01*
X138369740Y-44604747D01*
X138468520Y-44813496D01*
X138566469Y-44949632D01*
X138653916Y-44987087D01*
X138695176Y-44986740D01*
X138834623Y-44999259D01*
X139029369Y-45023876D01*
X139283603Y-45041193D01*
X139581992Y-44992571D01*
X139686056Y-44958243D01*
X139786707Y-44953200D01*
X139880780Y-45011014D01*
X139964210Y-45097264D01*
X140013134Y-45147841D01*
X140086935Y-45221143D01*
X140240831Y-45336486D01*
X140362518Y-45381592D01*
X140411536Y-45378266D01*
X140443605Y-45352077D01*
X140429994Y-45281127D01*
X140365127Y-45143709D01*
X140243424Y-44918118D01*
X140207417Y-44851204D01*
X140096978Y-44627193D01*
X140020834Y-44443164D01*
X139993740Y-44333665D01*
X139998335Y-44302096D01*
X140033819Y-44311411D01*
X140104312Y-44441383D01*
X140113872Y-44461647D01*
X140211753Y-44646399D01*
X140338363Y-44859620D01*
X140475436Y-45073662D01*
X140604708Y-45260876D01*
X140707914Y-45393613D01*
X140766788Y-45444224D01*
X140784309Y-45437875D01*
X140774692Y-45374856D01*
X140762653Y-45331956D01*
X140742914Y-45175553D01*
X140723286Y-44931776D01*
X140704643Y-44624345D01*
X140687861Y-44276982D01*
X140673817Y-43913408D01*
X140663385Y-43557344D01*
X140657442Y-43232510D01*
X140656863Y-42962629D01*
X140662525Y-42771420D01*
X140675302Y-42682606D01*
X140699151Y-42696853D01*
X140725224Y-42815159D01*
X140750706Y-43018117D01*
X140773766Y-43284445D01*
X140792575Y-43592858D01*
X140805303Y-43922073D01*
X140810121Y-44250806D01*
X140811101Y-44414443D01*
X140826092Y-44844627D01*
X140862061Y-45162409D01*
X140922762Y-45377588D01*
X141011949Y-45499963D01*
X141133376Y-45539335D01*
X141290797Y-45505501D01*
X141296073Y-45503507D01*
X141416898Y-45474601D01*
X141514784Y-45511437D01*
X141638885Y-45631860D01*
X141678540Y-45673565D01*
X141799244Y-45780874D01*
X141879629Y-45823881D01*
X141895951Y-45826695D01*
X142010293Y-45867076D01*
X142197129Y-45945376D01*
X142425266Y-46048739D01*
X142462080Y-46065724D01*
X142716617Y-46169822D01*
X142932493Y-46236429D01*
X143073540Y-46254087D01*
X143077446Y-46253618D01*
X143148619Y-46235840D01*
X143204836Y-46192613D01*
X143248699Y-46109524D01*
X143282811Y-45972164D01*
X143309777Y-45766122D01*
X143332199Y-45476986D01*
X143352680Y-45090346D01*
X143373824Y-44591791D01*
X143388909Y-44264708D01*
X143409414Y-43921539D01*
X143431557Y-43635726D01*
X143453526Y-43430255D01*
X143473507Y-43328110D01*
X143486321Y-43337559D01*
X143495626Y-43448811D01*
X143499498Y-43648333D01*
X143498492Y-43915759D01*
X143493161Y-44230719D01*
X143484060Y-44572849D01*
X143471742Y-44921780D01*
X143456763Y-45257146D01*
X143439676Y-45558580D01*
X143421035Y-45805714D01*
X143401395Y-45978182D01*
X143376325Y-46215621D01*
X143383630Y-46279224D01*
X143399250Y-46415221D01*
X143492357Y-46570859D01*
X143672582Y-46709346D01*
X143956861Y-46857492D01*
X144443532Y-47087929D01*
X144482714Y-46819214D01*
X144502545Y-46702465D01*
X144593328Y-46338181D01*
X144717679Y-45987266D01*
X144856631Y-45706183D01*
X144884014Y-45663003D01*
X144975678Y-45545284D01*
X145017312Y-45535240D01*
X145002217Y-45623451D01*
X144923694Y-45800496D01*
X144865816Y-45927598D01*
X144777515Y-46167763D01*
X144695637Y-46436030D01*
X144630043Y-46695936D01*
X144590595Y-46911018D01*
X144587155Y-47044814D01*
X144616773Y-47107756D01*
X144707665Y-47123524D01*
X144842745Y-47075186D01*
X145007053Y-47040677D01*
X145105403Y-47071925D01*
X145144179Y-47135716D01*
X145166190Y-47171927D01*
X145184631Y-47212242D01*
X145258188Y-47299541D01*
X145382213Y-47368020D01*
X145571884Y-47421194D01*
X145842381Y-47462578D01*
X145855698Y-47463781D01*
X146208882Y-47495687D01*
X146686567Y-47524038D01*
X147243873Y-47544598D01*
X147760331Y-47541776D01*
X148224662Y-47508842D01*
X148674417Y-47441569D01*
X149147144Y-47335732D01*
X149680394Y-47187105D01*
X149870047Y-47133524D01*
X150085581Y-47081448D01*
X150231989Y-47056625D01*
X150295933Y-47060016D01*
X150264071Y-47092579D01*
X150123066Y-47155275D01*
X150049352Y-47183517D01*
X149231537Y-47434771D01*
X148358240Y-47600829D01*
X147463387Y-47678581D01*
X146580904Y-47664914D01*
X145744717Y-47556720D01*
X145703059Y-47548745D01*
X145481251Y-47511922D01*
X145317067Y-47493950D01*
X145243476Y-47498647D01*
X145234617Y-47540081D01*
X145292275Y-47646130D01*
X145416510Y-47779808D01*
X145582872Y-47916264D01*
X145766910Y-48030647D01*
X145945240Y-48108698D01*
X146142621Y-48143274D01*
X146358125Y-48109832D01*
X146635174Y-48007198D01*
X146678128Y-47997043D01*
X146773195Y-48040556D01*
X146887910Y-48187367D01*
X146916892Y-48229598D01*
X147153056Y-48454031D01*
X147454620Y-48578264D01*
X147807057Y-48598697D01*
X148195840Y-48511725D01*
X148457319Y-48419470D01*
X148611846Y-48664258D01*
X148650624Y-48722386D01*
X148785849Y-48892513D01*
X148909435Y-49009250D01*
X149032121Y-49073555D01*
X149180601Y-49108065D01*
X149332470Y-49075879D01*
X149550168Y-48986813D01*
X149782047Y-48862091D01*
X149897493Y-48782464D01*
X150136940Y-48782464D01*
X150147654Y-48854208D01*
X150237877Y-48947170D01*
X150353276Y-49011822D01*
X150474137Y-49046269D01*
X150480925Y-49046083D01*
X150501686Y-49015985D01*
X150412690Y-48939359D01*
X150294469Y-48849988D01*
X150216977Y-48774653D01*
X150197331Y-48755851D01*
X150136940Y-48782464D01*
X149897493Y-48782464D01*
X149983703Y-48723002D01*
X150153228Y-48585626D01*
X150351860Y-48752763D01*
X150500706Y-48855036D01*
X150735172Y-48919230D01*
X150985375Y-48866803D01*
X151210389Y-48730349D01*
X151488557Y-48730349D01*
X151489281Y-48744648D01*
X151516420Y-48793533D01*
X151526555Y-48790625D01*
X151583333Y-48730349D01*
X151593206Y-48705873D01*
X151555470Y-48667165D01*
X151537130Y-48669593D01*
X151488557Y-48730349D01*
X151210389Y-48730349D01*
X151265575Y-48696883D01*
X151388785Y-48608577D01*
X151553575Y-48524053D01*
X151647989Y-48536307D01*
X151678109Y-48644567D01*
X151678291Y-48654888D01*
X151700186Y-48705873D01*
X151708368Y-48724925D01*
X151780288Y-48694691D01*
X151880144Y-48575834D01*
X151994029Y-48379999D01*
X152026158Y-48314665D01*
X152082929Y-48178307D01*
X152119374Y-48036623D01*
X152139752Y-47859363D01*
X152140844Y-47828395D01*
X152827310Y-47828395D01*
X152847015Y-48066916D01*
X152891696Y-47782587D01*
X152903476Y-47719495D01*
X152974921Y-47462981D01*
X153069877Y-47223621D01*
X153112421Y-47129913D01*
X153163609Y-46985904D01*
X153168269Y-46913875D01*
X153132004Y-46940055D01*
X153059838Y-47055212D01*
X152970384Y-47234321D01*
X152954931Y-47277115D01*
X152856592Y-47549444D01*
X152827310Y-47828395D01*
X152140844Y-47828395D01*
X152148322Y-47616276D01*
X152149346Y-47277115D01*
X152146702Y-46487314D01*
X151864388Y-45952061D01*
X152655269Y-45952061D01*
X152655612Y-46059940D01*
X152677155Y-46085239D01*
X152718106Y-46006681D01*
X152734364Y-45961876D01*
X152839286Y-45662218D01*
X152898601Y-45464190D01*
X152914493Y-45354227D01*
X152889144Y-45318766D01*
X152824740Y-45344242D01*
X152796878Y-45381368D01*
X152743365Y-45516478D01*
X152692858Y-45707302D01*
X152677923Y-45782880D01*
X152655269Y-45952061D01*
X151864388Y-45952061D01*
X151780118Y-45792289D01*
X151511378Y-45311819D01*
X151227065Y-44856358D01*
X150944903Y-44452424D01*
X150680136Y-44121824D01*
X150567318Y-44007390D01*
X151881104Y-44007390D01*
X151899253Y-44181095D01*
X151930901Y-44343403D01*
X151972523Y-44476325D01*
X152006773Y-44520323D01*
X152023525Y-44464840D01*
X152012652Y-44299318D01*
X152002083Y-44228506D01*
X151961797Y-44057999D01*
X151916360Y-43959951D01*
X151898603Y-43949136D01*
X151881104Y-44007390D01*
X150567318Y-44007390D01*
X150448003Y-43886365D01*
X150432343Y-43873193D01*
X150225585Y-43735280D01*
X149944503Y-43607753D01*
X149563426Y-43478784D01*
X149253519Y-43382665D01*
X148849763Y-43253266D01*
X148419206Y-43111685D01*
X147980231Y-42964287D01*
X147618917Y-42840607D01*
X150557754Y-42840607D01*
X150572306Y-42950908D01*
X150633357Y-43102682D01*
X150705527Y-43226822D01*
X150768965Y-43298625D01*
X150793532Y-43272642D01*
X150775801Y-43196792D01*
X150722638Y-43070586D01*
X150654718Y-42941558D01*
X150593268Y-42849487D01*
X150559518Y-42834150D01*
X150557754Y-42840607D01*
X147618917Y-42840607D01*
X147551226Y-42817436D01*
X147150577Y-42677499D01*
X146796668Y-42550838D01*
X146507886Y-42443820D01*
X146302617Y-42362808D01*
X146199247Y-42314169D01*
X146093972Y-42221175D01*
X145927287Y-42031053D01*
X145728553Y-41774247D01*
X145514601Y-41473617D01*
X145302261Y-41152027D01*
X145204985Y-40991642D01*
X146373601Y-40991642D01*
X146385802Y-41175794D01*
X146395407Y-41246235D01*
X146470419Y-41482806D01*
X146628626Y-41690733D01*
X146696933Y-41757775D01*
X146824168Y-41864285D01*
X146904310Y-41906154D01*
X146912873Y-41904234D01*
X146899951Y-41867362D01*
X147399067Y-41867362D01*
X147476368Y-41891130D01*
X147477623Y-41891409D01*
X147505560Y-41904234D01*
X147612942Y-41953529D01*
X147760696Y-42062852D01*
X147909948Y-42183375D01*
X148056667Y-42277852D01*
X148100549Y-42299933D01*
X148200976Y-42341008D01*
X148214246Y-42319408D01*
X148188998Y-42289424D01*
X149058488Y-42289424D01*
X149061318Y-42319408D01*
X149063992Y-42347741D01*
X149141495Y-42490921D01*
X149154014Y-42510243D01*
X149280749Y-42671504D01*
X149405987Y-42786641D01*
X149443196Y-42809793D01*
X149477750Y-42813200D01*
X149445184Y-42741405D01*
X149341373Y-42581293D01*
X149323926Y-42555816D01*
X149203459Y-42400246D01*
X149109978Y-42309187D01*
X149058488Y-42289424D01*
X148188998Y-42289424D01*
X148137612Y-42228400D01*
X147968328Y-42061249D01*
X147864228Y-41964195D01*
X147721124Y-41851274D01*
X147613105Y-41808216D01*
X147509134Y-41818622D01*
X147432684Y-41841790D01*
X147399067Y-41867362D01*
X146899951Y-41867362D01*
X146896053Y-41856239D01*
X146803091Y-41763990D01*
X146712480Y-41679476D01*
X146549082Y-41436518D01*
X146497015Y-41156142D01*
X146476421Y-41011088D01*
X146424546Y-40921377D01*
X146393200Y-40917039D01*
X146373601Y-40991642D01*
X145204985Y-40991642D01*
X145108365Y-40832339D01*
X145001415Y-40646542D01*
X144894594Y-40464485D01*
X144828231Y-40363210D01*
X144788680Y-40326088D01*
X144762299Y-40336488D01*
X144735444Y-40377780D01*
X144680886Y-40418575D01*
X144564392Y-40422383D01*
X144358002Y-40386130D01*
X144187812Y-40355891D01*
X144018398Y-40350947D01*
X143829996Y-40382065D01*
X143572978Y-40453504D01*
X143224992Y-40570451D01*
X142787022Y-40755469D01*
X142422841Y-40955758D01*
X142158512Y-41158332D01*
X141948361Y-41362019D01*
X141774304Y-41235226D01*
X141769948Y-41232052D01*
X141591224Y-41101791D01*
X141405711Y-40966496D01*
X141399171Y-40961890D01*
X141243407Y-40885910D01*
X141002480Y-40801771D01*
X140713688Y-40719272D01*
X140414329Y-40648210D01*
X140141703Y-40598388D01*
X139933108Y-40579602D01*
X139815621Y-40590977D01*
X139607996Y-40627651D01*
X139372224Y-40680862D01*
X139290031Y-40701341D01*
X139102974Y-40742768D01*
X138988490Y-40749349D01*
X138909032Y-40718908D01*
X138827050Y-40649269D01*
X138826251Y-40648520D01*
X138716688Y-40555196D01*
X138651046Y-40516418D01*
X138629384Y-40564357D01*
X138600824Y-40707033D01*
X138573668Y-40911319D01*
X138563416Y-41005265D01*
X138525606Y-41332322D01*
X138488447Y-41606874D01*
X138444902Y-41872882D01*
X138387930Y-42174307D01*
X138310496Y-42555111D01*
X138258618Y-42826433D01*
X138205864Y-43154613D01*
X138169967Y-43441841D01*
X138156716Y-43647029D01*
X138037548Y-43647029D01*
X138061398Y-43199190D01*
X138150763Y-42624117D01*
X138166648Y-42541195D01*
X138222586Y-42235711D01*
X138279980Y-41898723D01*
X138342608Y-41506788D01*
X138414244Y-41036462D01*
X138498667Y-40464301D01*
X138494305Y-40398165D01*
X138406149Y-40239201D01*
X138228559Y-40063993D01*
X137982699Y-39886807D01*
X137689735Y-39721908D01*
X137370834Y-39583561D01*
X137047162Y-39486031D01*
X136671890Y-39400900D01*
X136627298Y-39001457D01*
X136579252Y-38726883D01*
X136441373Y-38323214D01*
X136240637Y-37981473D01*
X135992079Y-37731718D01*
X135903277Y-37671145D01*
X135746348Y-37581877D01*
X135643198Y-37546767D01*
X135598036Y-37535846D01*
X135576714Y-37467451D01*
X135602113Y-37309826D01*
X135602122Y-37309787D01*
X135628987Y-37125493D01*
X135648978Y-36870143D01*
X135657768Y-36599005D01*
X135657796Y-36522294D01*
X135643628Y-36249084D01*
X135599074Y-36038271D01*
X135514535Y-35838924D01*
X135368125Y-35552724D01*
X135370428Y-35548694D01*
X135520626Y-35548694D01*
X135651647Y-35836909D01*
X135672563Y-35888817D01*
X135735577Y-36137497D01*
X135776172Y-36445896D01*
X135791664Y-36768600D01*
X135779372Y-37060193D01*
X135736611Y-37275260D01*
X135733881Y-37282923D01*
X135722069Y-37376647D01*
X135781164Y-37452253D01*
X135934723Y-37541384D01*
X135973035Y-37562204D01*
X136232787Y-37770672D01*
X136459575Y-38060952D01*
X136634129Y-38397059D01*
X136737179Y-38743009D01*
X136749455Y-39062818D01*
X136717470Y-39301284D01*
X137073785Y-39372341D01*
X137184477Y-39397329D01*
X137691202Y-39582294D01*
X138186044Y-39873546D01*
X138642287Y-40256033D01*
X138824634Y-40433615D01*
X138960554Y-40552754D01*
X139055014Y-40608103D01*
X139132416Y-40613539D01*
X139217163Y-40582939D01*
X139339203Y-40544417D01*
X139555756Y-40501823D01*
X139800517Y-40471901D01*
X139936537Y-40467011D01*
X140289187Y-40494706D01*
X140674887Y-40567399D01*
X141053791Y-40674664D01*
X141386057Y-40806073D01*
X141631840Y-40951198D01*
X141726619Y-41025020D01*
X141875826Y-41130258D01*
X141973667Y-41164731D01*
X142052310Y-41134327D01*
X142143925Y-41044937D01*
X142227386Y-40967788D01*
X142500581Y-40789672D01*
X142891303Y-40603452D01*
X143393877Y-40412003D01*
X143431597Y-40399049D01*
X143731320Y-40311181D01*
X143988097Y-40273267D01*
X144263214Y-40275700D01*
X144665786Y-40301334D01*
X144724134Y-40090017D01*
X144795499Y-39904178D01*
X145568325Y-39904178D01*
X145578216Y-40034456D01*
X145609191Y-40188441D01*
X145623182Y-40236093D01*
X145691626Y-40405622D01*
X145762438Y-40509813D01*
X145799699Y-40512653D01*
X145792539Y-40413357D01*
X145736405Y-40205158D01*
X145630562Y-39884577D01*
X145603995Y-39825648D01*
X145577568Y-39825333D01*
X145568325Y-39904178D01*
X144795499Y-39904178D01*
X144821061Y-39837613D01*
X144925350Y-39662163D01*
X145057280Y-39662163D01*
X145064842Y-39737148D01*
X145083847Y-39747033D01*
X145106965Y-39695025D01*
X145102405Y-39661576D01*
X145064842Y-39652903D01*
X145057280Y-39662163D01*
X144925350Y-39662163D01*
X145021244Y-39500835D01*
X145282253Y-39178022D01*
X145578930Y-38895665D01*
X145886119Y-38680259D01*
X146178661Y-38558296D01*
X146334761Y-38517806D01*
X146441133Y-38463542D01*
X146488875Y-38367223D01*
X146513347Y-38189927D01*
X146523681Y-38104597D01*
X146555133Y-37915215D01*
X146587357Y-37792941D01*
X146591090Y-37778834D01*
X146565821Y-37704554D01*
X146467961Y-37593587D01*
X146286531Y-37434986D01*
X146010554Y-37217806D01*
X145976466Y-37191917D01*
X145739917Y-37019838D01*
X145472004Y-36834998D01*
X145195140Y-36651698D01*
X144931739Y-36484237D01*
X144704216Y-36346917D01*
X144534984Y-36254038D01*
X144446459Y-36219901D01*
X144432899Y-36239247D01*
X144384191Y-36345749D01*
X144316708Y-36514216D01*
X144204308Y-36808532D01*
X144372287Y-36930896D01*
X144508652Y-37053125D01*
X144611984Y-37187266D01*
X144620837Y-37204063D01*
X144643453Y-37264145D01*
X144601213Y-37247379D01*
X144479789Y-37149691D01*
X144342668Y-37045671D01*
X144198605Y-36989191D01*
X144088931Y-37038480D01*
X143990192Y-37195746D01*
X143942109Y-37276236D01*
X143791853Y-37453842D01*
X143609199Y-37612458D01*
X143331990Y-37811535D01*
X143483744Y-38010867D01*
X143525402Y-38068758D01*
X143655794Y-38276117D01*
X143773816Y-38494528D01*
X143814174Y-38578523D01*
X143852734Y-38667330D01*
X143847432Y-38682033D01*
X143791150Y-38615254D01*
X143676770Y-38459613D01*
X143497175Y-38207731D01*
X143453171Y-38145629D01*
X143337207Y-37992257D01*
X143239103Y-37910843D01*
X143124261Y-37892887D01*
X142958083Y-37929887D01*
X142705970Y-38013345D01*
X142582601Y-38051721D01*
X142316160Y-38122662D01*
X142051610Y-38181595D01*
X141681579Y-38253542D01*
X141724156Y-38453015D01*
X141755416Y-38610710D01*
X141805457Y-38908582D01*
X141851287Y-39232317D01*
X141890837Y-39560368D01*
X141922035Y-39871186D01*
X141942811Y-40143222D01*
X141951094Y-40354927D01*
X141944815Y-40484754D01*
X141921903Y-40511153D01*
X141915659Y-40491684D01*
X141894345Y-40369465D01*
X141864053Y-40155167D01*
X141827867Y-39871294D01*
X141788870Y-39540348D01*
X141771248Y-39388773D01*
X141730066Y-39060105D01*
X141690927Y-38779556D01*
X141657567Y-38572977D01*
X141633719Y-38466218D01*
X141620037Y-38434570D01*
X141572960Y-38382326D01*
X141481448Y-38352211D01*
X141318204Y-38337943D01*
X141055931Y-38333240D01*
X140744784Y-38321589D01*
X140495012Y-38284270D01*
X140312386Y-38216709D01*
X140198570Y-38161590D01*
X140100838Y-38142464D01*
X140042738Y-38188445D01*
X139842342Y-38520771D01*
X139609683Y-38964995D01*
X139390432Y-39442289D01*
X139343180Y-39552760D01*
X139218203Y-39843069D01*
X139134212Y-40032257D01*
X139084856Y-40132007D01*
X139063789Y-40154002D01*
X139064659Y-40109925D01*
X139081119Y-40011457D01*
X139081805Y-40007803D01*
X139130732Y-39845270D01*
X139224443Y-39603640D01*
X139348599Y-39314217D01*
X139488862Y-39008304D01*
X139630894Y-38717205D01*
X139760356Y-38472223D01*
X139862909Y-38304662D01*
X139947360Y-38143994D01*
X139945110Y-38031073D01*
X139854225Y-37989055D01*
X139839640Y-37985844D01*
X139733658Y-37935286D01*
X139560857Y-37836072D01*
X139350511Y-37704727D01*
X139282465Y-37661094D01*
X139083647Y-37538309D01*
X138933583Y-37452610D01*
X138860538Y-37420398D01*
X138848931Y-37424182D01*
X138758948Y-37485762D01*
X138609533Y-37607108D01*
X138426078Y-37767911D01*
X138233648Y-37937424D01*
X138075399Y-38064325D01*
X138004423Y-38103861D01*
X138023033Y-38057484D01*
X138133543Y-37926647D01*
X138338266Y-37712801D01*
X138737309Y-37310179D01*
X138524507Y-37096756D01*
X138429880Y-36993538D01*
X138257355Y-36778915D01*
X138100653Y-36556944D01*
X137889601Y-36230555D01*
X137603519Y-36353184D01*
X137487361Y-36399927D01*
X137338643Y-36444374D01*
X137292426Y-36434997D01*
X137355094Y-36378339D01*
X137533031Y-36280944D01*
X137809204Y-36146653D01*
X137807594Y-35621369D01*
X137916733Y-35621369D01*
X137946877Y-35930849D01*
X138018532Y-36165217D01*
X138051013Y-36233498D01*
X138274511Y-36608569D01*
X138565078Y-36949915D01*
X138937234Y-37270347D01*
X139405499Y-37582676D01*
X139984392Y-37899712D01*
X140127876Y-37970572D01*
X140466348Y-38114655D01*
X140769845Y-38196348D01*
X141076617Y-38219960D01*
X141424914Y-38189798D01*
X141852985Y-38110172D01*
X141946372Y-38089865D01*
X142528421Y-37945095D01*
X142997398Y-37791179D01*
X143364896Y-37622945D01*
X143642506Y-37435222D01*
X143841822Y-37222836D01*
X143988487Y-36974170D01*
X144142618Y-36632240D01*
X144294035Y-36228403D01*
X144329103Y-36119093D01*
X144483800Y-36119093D01*
X144483859Y-36119141D01*
X144547630Y-36156227D01*
X144691992Y-36235034D01*
X144885821Y-36338569D01*
X145032743Y-36422537D01*
X145291911Y-36585612D01*
X145582576Y-36780870D01*
X145865174Y-36982304D01*
X146033957Y-37110927D01*
X146359986Y-37375896D01*
X146681640Y-37654743D01*
X146814224Y-37778834D01*
X146948923Y-37904904D01*
X147432423Y-38384507D01*
X147509521Y-38013125D01*
X147553224Y-37832776D01*
X147680119Y-37448525D01*
X147840104Y-37083697D01*
X148011309Y-36791540D01*
X148023333Y-36774388D01*
X148105975Y-36638841D01*
X148139801Y-36550426D01*
X148128495Y-36521860D01*
X148022734Y-36437388D01*
X147820921Y-36332004D01*
X147541693Y-36211979D01*
X147203689Y-36083587D01*
X146825547Y-35953100D01*
X146425906Y-35826790D01*
X146023404Y-35710930D01*
X145636678Y-35611792D01*
X145284367Y-35535648D01*
X144985110Y-35488771D01*
X144617575Y-35447189D01*
X144539230Y-35773771D01*
X144510593Y-35902174D01*
X144484433Y-36052700D01*
X144483800Y-36119093D01*
X144329103Y-36119093D01*
X144434054Y-35791954D01*
X144553991Y-35352186D01*
X144564170Y-35305986D01*
X144664676Y-35305986D01*
X144680097Y-35313094D01*
X144785121Y-35336157D01*
X144956749Y-35364774D01*
X144996909Y-35371055D01*
X145323752Y-35434176D01*
X145722164Y-35526294D01*
X146152988Y-35636967D01*
X146577066Y-35755752D01*
X146955241Y-35872207D01*
X147248355Y-35975890D01*
X147274373Y-35986235D01*
X147544977Y-36100627D01*
X147801875Y-36219583D01*
X147992645Y-36318940D01*
X148256186Y-36472114D01*
X148383981Y-36267027D01*
X148454112Y-36165445D01*
X148664003Y-35914404D01*
X148939005Y-35628891D01*
X149252472Y-35333457D01*
X149577758Y-35052654D01*
X149888217Y-34811035D01*
X150157203Y-34633151D01*
X150279790Y-34560632D01*
X150468376Y-34439568D01*
X150590166Y-34347948D01*
X150623158Y-34301434D01*
X150622207Y-34300689D01*
X150542685Y-34288283D01*
X150358184Y-34277624D01*
X150088940Y-34269343D01*
X149755186Y-34264074D01*
X149377156Y-34262450D01*
X149157284Y-34263600D01*
X148378792Y-34283022D01*
X147649512Y-34325025D01*
X146979051Y-34387868D01*
X146377017Y-34469808D01*
X145853017Y-34569104D01*
X145416659Y-34684015D01*
X145077550Y-34812797D01*
X144845298Y-34953711D01*
X144729510Y-35105014D01*
X144727677Y-35110277D01*
X144683119Y-35242635D01*
X144664676Y-35305986D01*
X144564170Y-35305986D01*
X144645162Y-34938395D01*
X144665141Y-34805067D01*
X144815808Y-34805067D01*
X144821392Y-34804306D01*
X144907517Y-34776585D01*
X145075406Y-34717431D01*
X145296517Y-34636835D01*
X145587651Y-34544091D01*
X145947728Y-34453997D01*
X146275870Y-34393968D01*
X146282894Y-34393025D01*
X146610194Y-34349292D01*
X146981720Y-34299909D01*
X147318408Y-34255387D01*
X147435306Y-34243195D01*
X147716160Y-34224686D01*
X148082726Y-34209114D01*
X148509607Y-34197284D01*
X148971411Y-34190001D01*
X149442741Y-34188069D01*
X151030010Y-34191503D01*
X151148711Y-33926860D01*
X151213605Y-33801320D01*
X151367436Y-33552470D01*
X151565836Y-33264469D01*
X151784688Y-32970509D01*
X151999875Y-32703780D01*
X152187282Y-32497475D01*
X152403577Y-32281766D01*
X152151415Y-32320036D01*
X152141905Y-32321478D01*
X151989887Y-32344406D01*
X151948921Y-32350566D01*
X151739359Y-32382078D01*
X151414206Y-32430906D01*
X151038315Y-32487302D01*
X150635572Y-32547681D01*
X150224811Y-32612478D01*
X149792491Y-32686892D01*
X149390333Y-32762000D01*
X149050021Y-32831874D01*
X148803233Y-32890584D01*
X148575865Y-32952046D01*
X148293363Y-33029105D01*
X148061728Y-33092289D01*
X148049733Y-33095561D01*
X147836286Y-33155473D01*
X147648701Y-33208126D01*
X147616017Y-33217300D01*
X147398100Y-33281841D01*
X147253097Y-33324787D01*
X147190080Y-33345025D01*
X146939349Y-33425548D01*
X146653150Y-33527107D01*
X146372879Y-33636989D01*
X146160525Y-33727198D01*
X146076912Y-33762717D01*
X145743628Y-33911817D01*
X145351403Y-34091813D01*
X145327102Y-34103234D01*
X145157230Y-34183072D01*
X144994733Y-34270722D01*
X144952992Y-34305919D01*
X144903945Y-34347276D01*
X144860267Y-34435037D01*
X144839101Y-34556307D01*
X144833352Y-34603675D01*
X144818410Y-34744870D01*
X144815808Y-34805067D01*
X144665141Y-34805067D01*
X144698885Y-34579874D01*
X144706474Y-34305919D01*
X144694644Y-34208903D01*
X144667080Y-34103234D01*
X144854228Y-34103234D01*
X144885821Y-34134826D01*
X144917413Y-34103234D01*
X144885821Y-34071642D01*
X144854228Y-34103234D01*
X144667080Y-34103234D01*
X144599858Y-33845532D01*
X144578288Y-33794074D01*
X145549253Y-33794074D01*
X145566765Y-33817613D01*
X145639187Y-33808823D01*
X145706766Y-33756445D01*
X145712535Y-33727198D01*
X145647311Y-33731613D01*
X145598815Y-33753494D01*
X145549253Y-33794074D01*
X144578288Y-33794074D01*
X144434711Y-33451555D01*
X144375983Y-33345025D01*
X144917413Y-33345025D01*
X144949005Y-33376617D01*
X144980597Y-33345025D01*
X144949005Y-33313433D01*
X144917413Y-33345025D01*
X144375983Y-33345025D01*
X144217737Y-33057972D01*
X143967468Y-32695780D01*
X143702437Y-32395976D01*
X143441176Y-32189559D01*
X143342503Y-32139733D01*
X143225444Y-32113012D01*
X143087580Y-32126840D01*
X142906683Y-32186751D01*
X142660521Y-32298280D01*
X142589708Y-32334080D01*
X142485559Y-32386733D01*
X142339748Y-32460448D01*
X142326865Y-32466961D01*
X142248351Y-32507544D01*
X142037579Y-32616065D01*
X141880200Y-32696472D01*
X141805604Y-32733724D01*
X141791882Y-32730077D01*
X141702404Y-32664387D01*
X141548168Y-32529936D01*
X141473520Y-32460448D01*
X141884577Y-32460448D01*
X141916169Y-32492040D01*
X141947761Y-32460448D01*
X141916169Y-32428856D01*
X141884577Y-32460448D01*
X141473520Y-32460448D01*
X141414748Y-32405738D01*
X142022121Y-32405738D01*
X142074129Y-32428856D01*
X142107578Y-32424296D01*
X142116252Y-32386733D01*
X142106991Y-32379171D01*
X142032006Y-32386733D01*
X142022121Y-32405738D01*
X141414748Y-32405738D01*
X141346294Y-32342016D01*
X141338137Y-32334080D01*
X142200497Y-32334080D01*
X142232089Y-32365672D01*
X142263681Y-32334080D01*
X142232089Y-32302488D01*
X142200497Y-32334080D01*
X141338137Y-32334080D01*
X141208252Y-32207712D01*
X141947761Y-32207712D01*
X141979353Y-32239304D01*
X141990257Y-32228400D01*
X142531434Y-32228400D01*
X142760866Y-32146230D01*
X142774037Y-32141484D01*
X142982240Y-32061163D01*
X143166598Y-31982421D01*
X143244525Y-31950734D01*
X143323033Y-31945691D01*
X143411655Y-31988912D01*
X143536692Y-32094208D01*
X143724440Y-32275391D01*
X143743823Y-32294563D01*
X143960972Y-32525026D01*
X144170059Y-32770764D01*
X144328289Y-32981717D01*
X144460977Y-33172605D01*
X144556430Y-33288806D01*
X144594106Y-33298265D01*
X144591008Y-33281841D01*
X145675622Y-33281841D01*
X145692046Y-33298265D01*
X145707214Y-33313433D01*
X145738806Y-33281841D01*
X145707214Y-33250249D01*
X145675622Y-33281841D01*
X144591008Y-33281841D01*
X144580688Y-33227131D01*
X145876350Y-33227131D01*
X145928358Y-33250249D01*
X145961807Y-33245689D01*
X145970481Y-33208126D01*
X145961220Y-33200565D01*
X145886235Y-33208126D01*
X145876350Y-33227131D01*
X144580688Y-33227131D01*
X144576110Y-33202861D01*
X144570781Y-33183021D01*
X144566260Y-33155473D01*
X144791044Y-33155473D01*
X144822636Y-33187065D01*
X144854228Y-33155473D01*
X144822636Y-33123881D01*
X144791044Y-33155473D01*
X144566260Y-33155473D01*
X144545937Y-33031649D01*
X144529072Y-32839553D01*
X144507284Y-32713184D01*
X144538308Y-32713184D01*
X144569900Y-32744776D01*
X144601492Y-32713184D01*
X144569900Y-32681592D01*
X144538308Y-32713184D01*
X144507284Y-32713184D01*
X144506135Y-32706518D01*
X144392751Y-32434051D01*
X144202519Y-32137087D01*
X143954402Y-31843337D01*
X143667368Y-31580512D01*
X143641047Y-31559682D01*
X143461496Y-31425140D01*
X143333372Y-31356442D01*
X143217040Y-31338683D01*
X143072863Y-31356960D01*
X142992040Y-31374675D01*
X142744498Y-31488070D01*
X142635137Y-31627786D01*
X142596057Y-31677713D01*
X142578270Y-31765423D01*
X142540798Y-31950202D01*
X142539574Y-31986568D01*
X142535366Y-32111571D01*
X142532130Y-32207712D01*
X142531434Y-32228400D01*
X141990257Y-32228400D01*
X142010945Y-32207712D01*
X141979353Y-32176120D01*
X141947761Y-32207712D01*
X141208252Y-32207712D01*
X141113903Y-32115918D01*
X141094755Y-32096922D01*
X140844459Y-31851030D01*
X140788138Y-31798380D01*
X141006699Y-31798380D01*
X141036219Y-31850570D01*
X141126368Y-31954975D01*
X141141100Y-31970495D01*
X141246260Y-32071590D01*
X141306356Y-32112936D01*
X141309220Y-32111571D01*
X141279701Y-32059381D01*
X141189552Y-31954975D01*
X141188347Y-31953706D01*
X142024444Y-31953706D01*
X142032006Y-32028690D01*
X142051011Y-32038575D01*
X142074129Y-31986568D01*
X142069569Y-31953118D01*
X142032006Y-31944445D01*
X142024444Y-31953706D01*
X141188347Y-31953706D01*
X141174820Y-31939456D01*
X141069660Y-31838361D01*
X141009564Y-31797015D01*
X141006699Y-31798380D01*
X140788138Y-31798380D01*
X140752883Y-31765423D01*
X142074129Y-31765423D01*
X142105721Y-31797015D01*
X142137313Y-31765423D01*
X142105721Y-31733831D01*
X142074129Y-31765423D01*
X140752883Y-31765423D01*
X140663533Y-31681896D01*
X140534136Y-31576784D01*
X140438427Y-31522954D01*
X140358564Y-31507669D01*
X140319526Y-31512687D01*
X140276707Y-31518191D01*
X140188978Y-31540457D01*
X140103658Y-31575871D01*
X139951434Y-31639055D01*
X139821071Y-31693165D01*
X139818667Y-31694678D01*
X139430176Y-31939176D01*
X139108393Y-32207712D01*
X139042596Y-32262621D01*
X138965075Y-32336357D01*
X138903268Y-32395146D01*
X138672393Y-32624358D01*
X138499437Y-32822771D01*
X138378537Y-33005784D01*
X138371566Y-33016337D01*
X138275945Y-33231010D01*
X138199740Y-33492741D01*
X138136288Y-33797807D01*
X138130115Y-33827485D01*
X138062126Y-34216107D01*
X138054238Y-34261194D01*
X137981848Y-34730717D01*
X137928317Y-35225188D01*
X137916733Y-35621369D01*
X137807594Y-35621369D01*
X137807138Y-35472456D01*
X137805073Y-34798259D01*
X137301666Y-34778027D01*
X137001040Y-34773461D01*
X136646830Y-34780903D01*
X136338376Y-34799382D01*
X135878493Y-34840970D01*
X135699560Y-35194832D01*
X135520626Y-35548694D01*
X135370428Y-35548694D01*
X135529570Y-35270268D01*
X135587305Y-35165659D01*
X135662158Y-35015076D01*
X135691776Y-34932262D01*
X135688563Y-34921618D01*
X135608436Y-34897935D01*
X135441037Y-34904724D01*
X135213662Y-34937351D01*
X134953609Y-34991184D01*
X134688173Y-35061589D01*
X134444651Y-35143934D01*
X134218581Y-35228700D01*
X134072623Y-35264881D01*
X134000756Y-35237650D01*
X133994816Y-35133017D01*
X134003144Y-35101515D01*
X134087426Y-35101515D01*
X134123825Y-35139813D01*
X134245098Y-35112884D01*
X134464066Y-35022703D01*
X134669325Y-34953066D01*
X134987509Y-34878627D01*
X135377216Y-34808854D01*
X135809911Y-34747322D01*
X136257061Y-34697604D01*
X136690131Y-34663272D01*
X137080585Y-34647901D01*
X137399889Y-34655064D01*
X137608113Y-34665087D01*
X137798738Y-34655034D01*
X137872001Y-34616430D01*
X137872809Y-34613648D01*
X137898218Y-34501441D01*
X137929292Y-34336338D01*
X137942997Y-34216107D01*
X137915239Y-34136206D01*
X137820780Y-34067975D01*
X137634635Y-33981308D01*
X137379049Y-33876200D01*
X136789577Y-33674831D01*
X136145702Y-33499893D01*
X135495474Y-33363678D01*
X134886940Y-33278474D01*
X134428855Y-33233921D01*
X134428855Y-33658853D01*
X134425499Y-33783487D01*
X134374792Y-34204095D01*
X134273496Y-34620205D01*
X134134995Y-34972015D01*
X134123078Y-34996016D01*
X134087426Y-35101515D01*
X134003144Y-35101515D01*
X134046640Y-34936988D01*
X134148064Y-34635570D01*
X134217710Y-34414892D01*
X134274045Y-34160269D01*
X134302697Y-33883022D01*
X134311289Y-33531587D01*
X134311125Y-33442681D01*
X134281753Y-32826324D01*
X134195678Y-32263032D01*
X134042986Y-31704392D01*
X133813764Y-31101990D01*
X133789766Y-31045702D01*
X133594132Y-30628981D01*
X133386610Y-30277459D01*
X133136810Y-29945026D01*
X132957388Y-29745026D01*
X133165174Y-29745026D01*
X133186377Y-29787785D01*
X133263821Y-29908969D01*
X133378517Y-30075103D01*
X133488792Y-30235139D01*
X133624540Y-30454843D01*
X133748214Y-30691894D01*
X133877179Y-30980465D01*
X134028800Y-31354727D01*
X134047869Y-31403435D01*
X134142815Y-31660167D01*
X134218021Y-31899683D01*
X134282588Y-32157605D01*
X134345614Y-32469552D01*
X134416200Y-32871145D01*
X134464220Y-33155473D01*
X134978517Y-33202254D01*
X134986874Y-33203032D01*
X135254422Y-33239064D01*
X135598438Y-33300636D01*
X135975475Y-33379324D01*
X136342084Y-33466700D01*
X136375447Y-33475295D01*
X136727896Y-33570766D01*
X137070378Y-33671012D01*
X137365254Y-33764627D01*
X137574880Y-33840206D01*
X137721178Y-33897753D01*
X137874009Y-33946195D01*
X137956045Y-33946917D01*
X137993749Y-33903945D01*
X138003362Y-33797807D01*
X137929744Y-33590977D01*
X137756634Y-33326437D01*
X137488817Y-33009287D01*
X137131077Y-32644628D01*
X136688199Y-32237558D01*
X136164968Y-31793177D01*
X135566169Y-31316584D01*
X135343231Y-31149351D01*
X135062416Y-30947769D01*
X134752736Y-30732329D01*
X134430720Y-30513850D01*
X134112896Y-30303152D01*
X133815793Y-30111053D01*
X133555940Y-29948371D01*
X133349867Y-29825927D01*
X133214102Y-29754539D01*
X133165174Y-29745026D01*
X132957388Y-29745026D01*
X132814342Y-29585573D01*
X132424166Y-29174876D01*
X132382849Y-28612183D01*
X132317059Y-28118472D01*
X132153104Y-27487071D01*
X132108827Y-27353017D01*
X132035589Y-27121393D01*
X132196612Y-27121393D01*
X132198042Y-27171978D01*
X132230985Y-27312271D01*
X132288680Y-27510810D01*
X132309436Y-27582500D01*
X132374327Y-27858373D01*
X132435636Y-28184938D01*
X132482415Y-28505960D01*
X132518816Y-28760838D01*
X132590520Y-29055875D01*
X132696237Y-29270543D01*
X132851138Y-29432262D01*
X133070398Y-29568450D01*
X133159001Y-29615202D01*
X133614832Y-29878672D01*
X134132501Y-30208814D01*
X134688256Y-30588157D01*
X135258350Y-30999232D01*
X135819034Y-31424569D01*
X136346557Y-31846697D01*
X136817172Y-32248147D01*
X137207128Y-32611448D01*
X137312553Y-32716565D01*
X137549010Y-32957648D01*
X137750799Y-33170577D01*
X137899240Y-33335407D01*
X137975659Y-33432190D01*
X138067246Y-33582539D01*
X138128668Y-33337414D01*
X138131202Y-33326977D01*
X138147319Y-33005784D01*
X138063347Y-32626330D01*
X138000391Y-32476647D01*
X138545400Y-32476647D01*
X138578724Y-32478977D01*
X138697500Y-32399274D01*
X138761353Y-32336357D01*
X138748905Y-32304497D01*
X138698124Y-32318409D01*
X138599005Y-32397264D01*
X138545400Y-32476647D01*
X138000391Y-32476647D01*
X137887278Y-32207712D01*
X138851741Y-32207712D01*
X138883333Y-32239304D01*
X138914925Y-32207712D01*
X138883333Y-32176120D01*
X138851741Y-32207712D01*
X137887278Y-32207712D01*
X137884093Y-32200139D01*
X137717808Y-31915684D01*
X139175339Y-31915684D01*
X139224693Y-31894267D01*
X139357214Y-31791370D01*
X139442712Y-31719142D01*
X139456931Y-31694678D01*
X139376529Y-31729930D01*
X139282470Y-31785346D01*
X139199043Y-31860539D01*
X139175339Y-31915684D01*
X137717808Y-31915684D01*
X137614368Y-31738734D01*
X137541342Y-31639055D01*
X138788557Y-31639055D01*
X138820149Y-31670647D01*
X138851741Y-31639055D01*
X138820149Y-31607463D01*
X138788557Y-31639055D01*
X137541342Y-31639055D01*
X137495053Y-31575871D01*
X138914925Y-31575871D01*
X138946517Y-31607463D01*
X138978109Y-31575871D01*
X138946517Y-31544279D01*
X138914925Y-31575871D01*
X137495053Y-31575871D01*
X137258981Y-31253638D01*
X137171072Y-31146273D01*
X137117140Y-31085074D01*
X138024640Y-31085074D01*
X138057795Y-31146921D01*
X138154013Y-31275747D01*
X138241262Y-31382873D01*
X138342837Y-31499117D01*
X138392738Y-31544279D01*
X138392139Y-31520102D01*
X138337184Y-31430416D01*
X138244529Y-31306814D01*
X138140547Y-31183926D01*
X138051612Y-31096379D01*
X138024640Y-31085074D01*
X137117140Y-31085074D01*
X137095411Y-31060417D01*
X138268624Y-31060417D01*
X138317304Y-31167555D01*
X138413404Y-31296533D01*
X138485198Y-31381296D01*
X138604401Y-31496949D01*
X138683294Y-31540798D01*
X138749054Y-31516305D01*
X138755497Y-31512687D01*
X139041293Y-31512687D01*
X139072885Y-31544279D01*
X139104477Y-31512687D01*
X139072885Y-31481095D01*
X139041293Y-31512687D01*
X138755497Y-31512687D01*
X138845885Y-31461927D01*
X139176691Y-31461927D01*
X139203263Y-31465935D01*
X139321902Y-31384309D01*
X139326654Y-31379737D01*
X140069351Y-31379737D01*
X140070329Y-31401306D01*
X140152280Y-31412923D01*
X140214387Y-31402805D01*
X140190454Y-31374749D01*
X140153916Y-31364654D01*
X140069351Y-31379737D01*
X139326654Y-31379737D01*
X139373343Y-31334821D01*
X140341645Y-31334821D01*
X140431343Y-31344750D01*
X140518260Y-31335943D01*
X140513852Y-31323135D01*
X140589303Y-31323135D01*
X140599495Y-31335943D01*
X140652700Y-31402805D01*
X140714998Y-31481095D01*
X140719181Y-31486355D01*
X140810160Y-31602401D01*
X140857162Y-31665382D01*
X140861898Y-31670242D01*
X140873631Y-31627786D01*
X140833952Y-31550001D01*
X140731467Y-31443500D01*
X140589303Y-31323135D01*
X140513852Y-31323135D01*
X140510323Y-31312881D01*
X140481723Y-31304536D01*
X140352363Y-31312881D01*
X140347912Y-31321992D01*
X140341645Y-31334821D01*
X139373343Y-31334821D01*
X139386679Y-31321992D01*
X139377026Y-31291543D01*
X139328210Y-31306555D01*
X139230845Y-31386319D01*
X139176691Y-31461927D01*
X138845885Y-31461927D01*
X138893217Y-31435346D01*
X139072885Y-31317980D01*
X139154873Y-31263680D01*
X139483582Y-31263680D01*
X139484197Y-31272513D01*
X139520772Y-31286427D01*
X139574556Y-31229082D01*
X143117114Y-31229082D01*
X143129492Y-31245653D01*
X143215171Y-31291543D01*
X143250606Y-31288206D01*
X143265504Y-31255237D01*
X143176569Y-31204250D01*
X143127284Y-31193178D01*
X143117114Y-31229082D01*
X139574556Y-31229082D01*
X139584391Y-31218596D01*
X139599765Y-31183286D01*
X139556528Y-31190733D01*
X139528460Y-31210237D01*
X139483582Y-31263680D01*
X139154873Y-31263680D01*
X139211547Y-31226145D01*
X139435928Y-31091371D01*
X139620448Y-30995719D01*
X139649047Y-30982887D01*
X139779637Y-30911562D01*
X139819498Y-30839520D01*
X139793158Y-30728860D01*
X139734226Y-30564926D01*
X139845844Y-30704582D01*
X139957462Y-30844239D01*
X140494527Y-30722001D01*
X140547780Y-30710233D01*
X140694662Y-30682897D01*
X142853142Y-30682897D01*
X142901009Y-30829746D01*
X143031585Y-30970117D01*
X143260628Y-31134278D01*
X143332889Y-31183286D01*
X143438978Y-31255237D01*
X143439090Y-31255313D01*
X143687796Y-31433477D01*
X143892797Y-31590291D01*
X143933047Y-31622452D01*
X144085076Y-31730180D01*
X144182907Y-31762873D01*
X144256106Y-31732067D01*
X144311607Y-31697461D01*
X144348756Y-31719335D01*
X144335641Y-31756026D01*
X144248703Y-31821889D01*
X144236556Y-31826939D01*
X144196782Y-31869072D01*
X144224477Y-31949882D01*
X144327684Y-32097431D01*
X144343263Y-32118086D01*
X144435005Y-32241673D01*
X144512737Y-32353264D01*
X144595951Y-32483107D01*
X144704136Y-32661448D01*
X144734855Y-32713184D01*
X144856783Y-32918533D01*
X144911534Y-33010066D01*
X145005028Y-33143650D01*
X145021148Y-33155473D01*
X145099936Y-33213259D01*
X145226086Y-33225549D01*
X145413304Y-33187177D01*
X145520340Y-33155473D01*
X146117910Y-33155473D01*
X146149502Y-33187065D01*
X146181094Y-33155473D01*
X146149502Y-33123881D01*
X146117910Y-33155473D01*
X145520340Y-33155473D01*
X145691418Y-33104800D01*
X145731816Y-33092289D01*
X146370646Y-33092289D01*
X146402238Y-33123881D01*
X146433830Y-33092289D01*
X146402238Y-33060697D01*
X146370646Y-33092289D01*
X145731816Y-33092289D01*
X145800068Y-33071152D01*
X145919837Y-33029105D01*
X146560199Y-33029105D01*
X146591791Y-33060697D01*
X146623383Y-33029105D01*
X146591791Y-32997513D01*
X146560199Y-33029105D01*
X145919837Y-33029105D01*
X145978715Y-33008435D01*
X146073642Y-32951133D01*
X146111242Y-32878516D01*
X146117910Y-32769856D01*
X146128588Y-32599030D01*
X146155048Y-32468781D01*
X146158280Y-32458923D01*
X146128334Y-32369014D01*
X145981291Y-32281595D01*
X145941637Y-32263418D01*
X145660940Y-32064842D01*
X145425609Y-31778218D01*
X145263795Y-31436694D01*
X145207925Y-31276386D01*
X145135490Y-31149687D01*
X145023792Y-31071439D01*
X144832137Y-31000526D01*
X144802861Y-30990517D01*
X144584798Y-30889007D01*
X144365481Y-30730365D01*
X144110732Y-30490423D01*
X143997697Y-30376674D01*
X143840507Y-30228865D01*
X143733912Y-30152670D01*
X143655401Y-30133948D01*
X143582464Y-30158555D01*
X143563186Y-30167554D01*
X143399813Y-30203563D01*
X143203109Y-30205789D01*
X143138351Y-30200063D01*
X143008139Y-30205242D01*
X142940976Y-30269203D01*
X142916869Y-30343781D01*
X142890916Y-30424071D01*
X142872228Y-30499303D01*
X142865406Y-30564926D01*
X142853142Y-30682897D01*
X140694662Y-30682897D01*
X140851495Y-30653709D01*
X141147715Y-30613325D01*
X141379104Y-30597172D01*
X141427489Y-30596655D01*
X141654518Y-30582900D01*
X141709827Y-30564926D01*
X142390049Y-30564926D01*
X142421641Y-30596518D01*
X142453233Y-30564926D01*
X142421641Y-30533334D01*
X142390049Y-30564926D01*
X141709827Y-30564926D01*
X141797670Y-30536379D01*
X141893084Y-30436986D01*
X141954386Y-30310919D01*
X142466733Y-30310919D01*
X142474295Y-30385904D01*
X142493299Y-30395789D01*
X142516418Y-30343781D01*
X142511858Y-30310332D01*
X142474295Y-30301659D01*
X142466733Y-30310919D01*
X141954386Y-30310919D01*
X141976902Y-30264616D01*
X141977295Y-30263676D01*
X142034974Y-30122637D01*
X142516418Y-30122637D01*
X142548010Y-30154229D01*
X142579602Y-30122637D01*
X142548010Y-30091045D01*
X142516418Y-30122637D01*
X142034974Y-30122637D01*
X142045201Y-30097629D01*
X142062474Y-30006704D01*
X142022730Y-29947834D01*
X141919584Y-29877949D01*
X141859302Y-29841051D01*
X141765925Y-29811152D01*
X141652499Y-29830709D01*
X141472057Y-29902274D01*
X141270974Y-29976065D01*
X141020611Y-30020050D01*
X140745922Y-30004693D01*
X140402666Y-29931189D01*
X140345414Y-29916322D01*
X140160735Y-29873302D01*
X140047234Y-29868147D01*
X139963500Y-29905376D01*
X139868122Y-29989506D01*
X139629185Y-30158481D01*
X139271311Y-30296054D01*
X138858495Y-30358610D01*
X138800164Y-30362212D01*
X138574653Y-30399994D01*
X138471261Y-30470150D01*
X138429062Y-30556455D01*
X138322308Y-30786225D01*
X138269560Y-30943759D01*
X138269558Y-30944030D01*
X138268624Y-31060417D01*
X137095411Y-31060417D01*
X136992845Y-30944030D01*
X137840796Y-30944030D01*
X137872388Y-30975622D01*
X137903980Y-30944030D01*
X137872388Y-30912438D01*
X137840796Y-30944030D01*
X136992845Y-30944030D01*
X136759160Y-30678856D01*
X136620817Y-30534699D01*
X137468391Y-30534699D01*
X137497910Y-30586889D01*
X137588059Y-30691294D01*
X137602791Y-30706813D01*
X137707951Y-30807908D01*
X137768047Y-30849254D01*
X137770912Y-30847889D01*
X137741393Y-30795699D01*
X137651243Y-30691294D01*
X137636512Y-30675775D01*
X137531351Y-30574679D01*
X137471255Y-30533334D01*
X137468391Y-30534699D01*
X136620817Y-30534699D01*
X136272088Y-30171315D01*
X136157500Y-30059453D01*
X136956219Y-30059453D01*
X136987811Y-30091045D01*
X137019403Y-30059453D01*
X136987811Y-30027861D01*
X136956219Y-30059453D01*
X136157500Y-30059453D01*
X135734570Y-29646584D01*
X135535701Y-29463343D01*
X136261674Y-29463343D01*
X136316318Y-29538184D01*
X136336016Y-29562647D01*
X136420011Y-29643814D01*
X136450746Y-29624901D01*
X136427681Y-29592273D01*
X136340174Y-29514329D01*
X136294393Y-29479033D01*
X136261674Y-29463343D01*
X135535701Y-29463343D01*
X135171321Y-29127598D01*
X134975964Y-28957846D01*
X135644844Y-28957846D01*
X135660945Y-29016916D01*
X135673926Y-29035620D01*
X135731587Y-29080100D01*
X135740230Y-29075986D01*
X135724129Y-29016916D01*
X135711148Y-28998212D01*
X135653487Y-28953732D01*
X135644844Y-28957846D01*
X134975964Y-28957846D01*
X134757847Y-28768318D01*
X135377097Y-28768318D01*
X135431741Y-28843160D01*
X135489571Y-28910553D01*
X135542313Y-28953732D01*
X135553400Y-28952694D01*
X135553828Y-28911528D01*
X135455597Y-28819304D01*
X135409816Y-28784008D01*
X135377097Y-28768318D01*
X134757847Y-28768318D01*
X134607055Y-28637290D01*
X134066487Y-28198595D01*
X133574331Y-27834445D01*
X133512242Y-27795125D01*
X133348941Y-27701702D01*
X133131631Y-27583637D01*
X132887789Y-27455150D01*
X132644891Y-27330462D01*
X132564225Y-27290344D01*
X132969401Y-27290344D01*
X132990703Y-27323993D01*
X133110881Y-27411699D01*
X133336796Y-27555114D01*
X133422643Y-27608091D01*
X133705792Y-27788377D01*
X133977773Y-27968599D01*
X134189781Y-28116630D01*
X134346225Y-28226563D01*
X134603835Y-28394920D01*
X134831714Y-28530896D01*
X134937362Y-28587690D01*
X135130439Y-28677702D01*
X135226259Y-28696425D01*
X135221871Y-28643012D01*
X135178150Y-28597783D01*
X135037206Y-28487950D01*
X134824427Y-28338958D01*
X134561933Y-28165334D01*
X134271848Y-27981606D01*
X133976293Y-27802300D01*
X133697391Y-27641943D01*
X133430132Y-27497216D01*
X133195977Y-27378608D01*
X133040113Y-27309099D01*
X132969401Y-27290344D01*
X132564225Y-27290344D01*
X132430411Y-27223793D01*
X132414169Y-27216170D01*
X132722885Y-27216170D01*
X132754477Y-27247762D01*
X132786069Y-27216170D01*
X132754477Y-27184577D01*
X132722885Y-27216170D01*
X132414169Y-27216170D01*
X132279544Y-27152985D01*
X132596517Y-27152985D01*
X132628109Y-27184577D01*
X132659701Y-27152985D01*
X132628109Y-27121393D01*
X132596517Y-27152985D01*
X132279544Y-27152985D01*
X132271827Y-27149363D01*
X132196612Y-27121393D01*
X132035589Y-27121393D01*
X132034807Y-27118921D01*
X132026327Y-27089801D01*
X132470149Y-27089801D01*
X132501741Y-27121393D01*
X132533333Y-27089801D01*
X132501741Y-27058209D01*
X132470149Y-27089801D01*
X132026327Y-27089801D01*
X131983725Y-26943501D01*
X131964676Y-26857164D01*
X132004779Y-26815387D01*
X132132220Y-26826743D01*
X132352757Y-26894427D01*
X132672131Y-27020207D01*
X132831060Y-27089801D01*
X132975350Y-27152985D01*
X133096082Y-27205853D01*
X133117449Y-27216170D01*
X133458751Y-27380968D01*
X134175185Y-27783156D01*
X134942334Y-28280840D01*
X135515128Y-28696425D01*
X135749552Y-28866509D01*
X135806093Y-28911528D01*
X136012644Y-29075986D01*
X136586195Y-29532654D01*
X136692959Y-29624901D01*
X137195896Y-30059453D01*
X137441616Y-30271762D01*
X137508777Y-30331746D01*
X137741559Y-30534829D01*
X137938219Y-30699142D01*
X138079756Y-30809134D01*
X138144878Y-30847889D01*
X138147172Y-30849254D01*
X138168744Y-30837962D01*
X138232392Y-30742235D01*
X138298733Y-30580722D01*
X138388096Y-30312189D01*
X138800910Y-30270851D01*
X139140778Y-30214520D01*
X139502606Y-30079001D01*
X139803509Y-29862162D01*
X139889462Y-29786729D01*
X139977179Y-29745070D01*
X140090735Y-29753212D01*
X140277389Y-29805507D01*
X140706316Y-29888085D01*
X141127747Y-29877548D01*
X141499199Y-29772563D01*
X141572072Y-29740121D01*
X141716402Y-29687842D01*
X141806071Y-29689694D01*
X141883279Y-29742358D01*
X141960316Y-29799393D01*
X142060381Y-29838309D01*
X142086084Y-29817029D01*
X142091707Y-29806717D01*
X142579602Y-29806717D01*
X142611194Y-29838309D01*
X142642786Y-29806717D01*
X142611194Y-29775125D01*
X142579602Y-29806717D01*
X142091707Y-29806717D01*
X142149933Y-29699928D01*
X142183866Y-29617165D01*
X142642786Y-29617165D01*
X142674378Y-29648757D01*
X142705970Y-29617165D01*
X142674378Y-29585573D01*
X142642786Y-29617165D01*
X142183866Y-29617165D01*
X142209772Y-29553980D01*
X142895522Y-29553980D01*
X142927114Y-29585573D01*
X142958706Y-29553980D01*
X142927114Y-29522388D01*
X142895522Y-29553980D01*
X142209772Y-29553980D01*
X142230479Y-29503474D01*
X142316257Y-29253856D01*
X142321001Y-29238889D01*
X142321687Y-29236790D01*
X142972206Y-29236790D01*
X142979767Y-29311775D01*
X142998772Y-29321660D01*
X143021890Y-29269652D01*
X143017330Y-29236203D01*
X142979767Y-29227529D01*
X142972206Y-29236790D01*
X142321687Y-29236790D01*
X142385451Y-29041607D01*
X143031817Y-29041607D01*
X143046901Y-29126172D01*
X143068469Y-29125193D01*
X143080086Y-29043242D01*
X143069968Y-28981136D01*
X143041912Y-29005069D01*
X143031817Y-29041607D01*
X142385451Y-29041607D01*
X142415990Y-28948127D01*
X142490931Y-28725686D01*
X143095001Y-28725686D01*
X143110085Y-28810251D01*
X143131653Y-28809273D01*
X143143270Y-28727322D01*
X143133152Y-28665215D01*
X143105096Y-28689148D01*
X143095001Y-28725686D01*
X142490931Y-28725686D01*
X142542555Y-28572456D01*
X142552645Y-28543035D01*
X143148258Y-28543035D01*
X143179850Y-28574627D01*
X143211442Y-28543035D01*
X143179850Y-28511443D01*
X143148258Y-28543035D01*
X142552645Y-28543035D01*
X142639317Y-28290299D01*
X143211442Y-28290299D01*
X143243034Y-28321891D01*
X143274626Y-28290299D01*
X143243034Y-28258707D01*
X143211442Y-28290299D01*
X142639317Y-28290299D01*
X142690472Y-28141132D01*
X142726460Y-28037563D01*
X143274626Y-28037563D01*
X143306219Y-28069155D01*
X143337811Y-28037563D01*
X143306219Y-28005971D01*
X143274626Y-28037563D01*
X142726460Y-28037563D01*
X142849520Y-27683410D01*
X143009476Y-27228543D01*
X143145948Y-26845552D01*
X143417890Y-26845552D01*
X143441603Y-26901285D01*
X143504194Y-26882428D01*
X143525530Y-26861047D01*
X143569199Y-26766256D01*
X143617495Y-26589794D01*
X143674081Y-26317085D01*
X143742618Y-25933551D01*
X143757166Y-25828849D01*
X143753514Y-25747353D01*
X143721980Y-25766251D01*
X143669593Y-25873306D01*
X143603387Y-26056279D01*
X143530393Y-26302929D01*
X143489432Y-26458586D01*
X143433638Y-26702296D01*
X143417890Y-26845552D01*
X143145948Y-26845552D01*
X143160117Y-26805788D01*
X143291221Y-26444399D01*
X143392565Y-26173632D01*
X143428810Y-26081818D01*
X143560783Y-25786743D01*
X143680935Y-25577722D01*
X143781567Y-25466551D01*
X143854979Y-25465030D01*
X143875567Y-25521029D01*
X143880699Y-25696829D01*
X143869950Y-25828849D01*
X143858268Y-25972317D01*
G37*
%TD*%
M02*
